<?xml version="1.0" standalone="no"?>
<!DOCTYPE svg PUBLIC "-//W3C//DTD SVG 20010904//EN"
 "http://www.w3.org/TR/2001/REC-SVG-20010904/DTD/svg10.dtd">
<svg version="1.0" xmlns="http://www.w3.org/2000/svg"
 width="512.000000pt" height="512.000000pt" viewBox="0 0 512.000000 512.000000"
 preserveAspectRatio="xMidYMid meet">

<g transform="translate(0.000000,512.000000) scale(0.100000,-0.100000)"
fill="#333" stroke="none">
<path d="M1420 5100 c-46 -24 -326 -307 -339 -343 -14 -36 -14 -88 -1 -124 6
-16 455 -472 1033 -1050 l1022 -1023 -1022 -1022 c-578 -579 -1027 -1035
-1033 -1051 -13 -36 -13 -88 1 -124 14 -37 294 -319 341 -344 42 -21 83 -24
125 -9 32 12 2466 2440 2489 2482 8 15 14 45 14 68 0 23 -6 53 -14 68 -23 42
-2457 2470 -2489 2482 -42 15 -87 12 -127 -10z"/>
</g>
</svg>
