<?xml version="1.0" encoding="UTF-8"?>
<svg xmlns="http://www.w3.org/2000/svg" width="41" height="41" viewBox="0 0 4.671 4.671" shape-rendering="geometricPrecision" image-rendering="optimizeQuality" fill-rule="evenodd" xmlns:v="https://vecta.io/nano"><circle cx="2.335" cy="2.335" r="2.335" fill="#ffba19"/><path d="M1.695 2.072l.64-.64.641.64.373-.372L2.335.686 1.322 1.699l.373.373zm1.018.263h.001l-.379-.378-.279.279h0l-.032.033-.067.066h0 0v.001l.378.378.379-.378v-.001h-.001zm.899-.372l-.373.373.373.372.373-.372-.373-.373zm-1.917.636l.64.64.641-.641.373.373h0L2.335 3.985 1.322 2.971h-.001l.374-.372zM.686 2.335l.373.373.372-.373-.372-.372-.373.372z" fill="#fff" fill-rule="nonzero"/></svg>