<svg width="583" height="86" viewBox="0 0 583 86" fill="none" xmlns="http://www.w3.org/2000/svg">
<path d="M484.843 51.0104L460.093 19.0664H452.569V65.2664H460.555V32.3984L486.031 65.2664H492.829V19.0664H484.843V51.0104Z" fill="#F0B90B"/>
<path d="M539.097 19.0664H504.711V65.2664H512.829V46.4564H536.127V39.0644H512.829V26.4584H539.097V19.0664Z" fill="#F0B90B"/>
<path d="M567.56 26.5904H582.212V19.0664H544.724V26.5904H559.376V65.2664H567.56V26.5904Z" fill="#F0B90B"/>
<path d="M19.19 42.5326L9.63678 52.0858L0.000488281 42.5326L9.63678 32.8963L19.19 42.5326ZM42.5331 19.1895L58.9812 35.6377L68.6175 26.0014L42.5331 0L16.4486 26.0844L26.0849 35.7207L42.5331 19.1895ZM75.4294 32.8963L65.8762 42.5326L75.5125 52.1689L85.1488 42.5326L75.4294 32.8963ZM42.5331 65.8757L26.0849 49.3445L16.4486 58.9808L42.5331 85.0652L68.6175 58.9808L58.9812 49.3445L42.5331 65.8757ZM42.5331 52.0858L52.1694 42.4495L42.5331 32.8963L32.8968 42.5326L42.5331 52.0858ZM143.88 53.0827V52.9165C143.88 46.6862 140.557 43.5295 135.158 41.4527C138.481 39.6251 141.305 36.6345 141.305 31.401V31.2349C141.305 23.9246 135.407 19.1895 125.937 19.1895H104.255V65.7926H126.435C136.985 65.8757 143.88 61.556 143.88 53.0827ZM131.087 33.1455C131.087 36.6345 128.263 38.0467 123.694 38.0467H114.224V28.1612H124.358C128.678 28.1612 131.087 29.9057 131.087 32.9794V33.1455ZM133.662 51.7535C133.662 55.2425 130.921 56.8209 126.435 56.8209H114.224V46.6031H126.103C131.337 46.6031 133.662 48.5137 133.662 51.6705V51.7535ZM165.396 65.8757V19.1895H155.095V65.7926H165.396V65.8757ZM220.555 65.8757V19.1895H210.421V47.9322L188.573 19.1895H179.103V65.7926H189.237V36.2192L211.833 65.8757H220.555ZM277.376 65.8757L257.356 18.9403H247.886L227.866 65.8757H238.416L242.652 55.4087H262.34L266.577 65.8757H277.376ZM258.685 46.3539H246.307L252.538 31.2349L258.685 46.3539ZM326.305 65.8757V19.1895H316.171V47.9322L294.323 19.1895H284.853V65.7926H294.987V36.2192L317.583 65.8757H326.305ZM379.222 58.3162L372.659 51.7535C369.004 55.0764 365.764 57.2363 360.365 57.2363C352.39 57.2363 346.824 50.5905 346.824 42.6157V42.3665C346.824 34.3916 352.473 27.8289 360.365 27.8289C365.017 27.8289 368.672 29.8227 372.327 33.0624L378.89 25.5029C374.57 21.2663 369.336 18.2757 360.531 18.2757C346.242 18.2757 336.191 29.1581 336.191 42.3665V42.5326C336.191 55.9071 346.409 66.5403 360.115 66.5403C369.087 66.6233 374.404 63.4666 379.222 58.3162ZM423 65.8757V56.7378H397.664V46.9354H419.678V37.7975H397.664V28.3274H422.668V19.1895H387.529V65.7926H423V65.8757Z" fill="#F0B90B"/>
</svg>
