<?xml version="1.0" encoding="UTF-8"?>
<svg xmlns="http://www.w3.org/2000/svg" width="222" height="296" viewBox="0 0 7.291 9.737" shape-rendering="geometricPrecision" image-rendering="optimizeQuality" fill-rule="evenodd" xmlns:v="https://vecta.io/nano"><defs><linearGradient id="A" gradientUnits="userSpaceOnUse" x1="2.975" y1="4.967" x2="2.975" y2="-4.463"><stop offset="0" stop-color="#1a7bbf"/><stop offset="1" stop-color="#4d4d4d"/></linearGradient><linearGradient id="B" gradientUnits="userSpaceOnUse" x1="4.229" y1="8.594" x2="4.229" y2="-10.326"><stop offset="0" stop-color="#58baff"/><stop offset="1" stop-color="#fff"/></linearGradient></defs><path d="M.493 0h6.304c.272 0 .494.222.494.493v8.751c0 .271-.222.493-.494.493H.493C.222 9.737 0 9.515 0 9.244V.493C0 .222.222 0 .493 0z" fill="url(#B)"/><path d="M6.797 9.737h-3.36v-.599c0-.271.222-.493.493-.493h3.361v.599c0 .271-.222.493-.494.493z" fill="#5298d9"/><path d="M2.471 9.737c0-1.42.096-1.755 2.149-2.305h-.001C2.615 7.965 0 7.815 0 8.787v.457c0 .271.222.493.493.493h1.978z" fill-opacity=".102"/><g fill="#fff" fill-rule="nonzero"><path d="M3.404 9.737v-.599c0-.144.059-.276.154-.371s.224-.154.369-.154h2.298c.525 0 1.062-.696 1.062-2.283l.004 2.348H3.93a.46.46 0 0 0-.46.46v.599h-.033-.033z"/><path d="M4.175 9.434v-.496h.18c.027 0 .05.006.071.017s.038.026.051.046.018.043.018.07c0 .012-.001.024-.005.037s-.009.023-.016.033a.07.07 0 0 1-.029.022.07.07 0 0 1 .038.02c.01.01.017.022.023.035a.19.19 0 0 1 .011.041c.002.014.003.026.003.038 0 .026-.007.05-.02.07s-.03.037-.052.049-.046.018-.072.018h-.201zm.086-.074h.106c.014 0 .027-.003.038-.01s.02-.016.027-.028.011-.026.011-.041-.004-.026-.011-.038-.016-.021-.027-.029-.024-.011-.038-.011h-.106v.157zm0-.23h.085c.017 0 .032-.005.044-.016s.019-.025.019-.043-.006-.034-.019-.044-.027-.014-.044-.014h-.085v.117zm.485.314c-.032 0-.062-.009-.089-.026s-.048-.039-.064-.067-.024-.06-.024-.094c0-.026.005-.05.014-.073s.022-.042.038-.059.035-.031.057-.04.044-.015.068-.015c.033 0 .063.009.09.025s.048.04.064.068.024.06.024.094c0 .026-.005.05-.014.072s-.022.043-.038.06-.035.03-.057.04-.044.015-.069.015zm0-.087c.018 0 .033-.004.047-.014s.024-.021.032-.036.012-.032.012-.05-.004-.035-.012-.05-.019-.028-.033-.037-.029-.013-.046-.013-.032.004-.046.013-.024.022-.032.037-.012.032-.012.05.004.036.012.051.02.027.033.036.029.013.045.013zm.39.087c-.033 0-.062-.009-.089-.026s-.048-.039-.064-.067-.024-.06-.024-.094c0-.026.005-.05.014-.073s.022-.042.038-.059a.17.17 0 0 1 .056-.04c.022-.01.045-.015.069-.015a.17.17 0 0 1 .089.025.19.19 0 0 1 .064.068c.016.028.024.06.024.094 0 .026-.004.05-.014.072a.17.17 0 0 1-.038.06c-.016.017-.035.03-.056.04s-.044.015-.069.015zm0-.087c.017 0 .033-.004.046-.014s.025-.021.033-.036.012-.032.012-.05-.004-.035-.012-.05-.02-.028-.033-.037-.029-.013-.046-.013-.032.004-.046.013-.025.022-.033.037-.012.032-.012.05.005.036.013.051.019.027.033.036.029.013.045.013zm.349.084c-.018-.001-.036-.005-.053-.012s-.033-.014-.046-.025-.023-.024-.03-.039l.073-.031c.02.02.027.025.036.028s.019.005.03.005.017-.001.025-.003.015-.007.02-.012.008-.012.008-.02-.003-.016-.009-.02-.014-.009-.023-.011-.018-.005-.026-.007a.29.29 0 0 1-.063-.021c-.019-.01-.035-.022-.046-.037s-.018-.033-.018-.054.006-.044.019-.061.028-.03.048-.039.042-.014.065-.014.054.006.077.018.042.028.056.049l-.068.04c-.004-.005-.008-.011-.014-.015s-.013-.009-.02-.012-.016-.005-.024-.006-.02.001-.029.003-.016.006-.021.012-.008.013-.008.023.003.015.01.02.016.007.026.01.02.005.029.008c.021.006.04.015.059.025s.033.022.044.036.016.032.016.052-.007.043-.021.06-.031.03-.053.039-.045.013-.069.011zm.397-.274h-.069v.267h-.086v-.267h-.053V9.08h.053v-.111h.086v.111h.069v.087zm.209.277a.16.16 0 0 1-.089-.026c-.027-.016-.049-.039-.065-.067s-.023-.06-.023-.094c0-.026.004-.05.013-.073s.022-.042.038-.059.035-.031.057-.04.044-.015.069-.015.053.006.076.018.042.027.058.048.028.043.035.069.009.053.005.082h-.259c.004.013.009.025.017.035s.017.019.028.025.025.01.04.01.029-.003.041-.011.023-.017.031-.03l.088.021c-.014.031-.036.057-.064.077s-.061.03-.096.03zm-.088-.222h.175c-.003-.014-.008-.027-.017-.039s-.018-.02-.031-.027-.025-.01-.039-.01-.028.003-.04.01-.022.016-.03.027a.1.1 0 0 0-.018.039zm.536-.054c-.007-.004-.014-.008-.021-.01s-.016-.004-.025-.004c-.017 0-.032.004-.044.013s-.022.021-.029.036-.01.032-.01.05v.181h-.087V9.08h.087v.042c.012-.016.026-.028.042-.037s.035-.014.056-.014l.023.001c.008 0 .015.001.021.004l-.013.092z"/></g><path d="M0 8.787V.751c0 4.972 6.873.78 6.873 4.462C6.873 8.587 0 7.211 0 8.787z" fill="url(#A)"/></svg>