<?xml version="1.0" encoding="UTF-8"?>
<svg xmlns="http://www.w3.org/2000/svg" width="222" height="296" viewBox="0 0 5.942 7.936" shape-rendering="geometricPrecision" image-rendering="optimizeQuality" fill-rule="evenodd" xmlns:v="https://vecta.io/nano"><defs><linearGradient id="A" gradientUnits="userSpaceOnUse" x1="1.951" y1="4.16" x2="1.951" y2="-3.683"><stop offset="0" stop-color="#c08e1a"/><stop offset="1" stop-color="#4d4d4d"/></linearGradient><linearGradient id="B" gradientUnits="userSpaceOnUse" x1="3.447" y1="7.004" x2="3.447" y2="-8.416"><stop offset="0" stop-color="#ffcd59"/><stop offset="1" stop-color="#fff"/></linearGradient></defs><path d="M.402 0H5.54c.221 0 .402.181.402.402v7.132c0 .221-.181.402-.402.402H.402C.181 7.936 0 7.755 0 7.534V.402C0 .181.181 0 .402 0z" fill="url(#B)"/><path d="M5.54 7.936H2.801v-.488c0-.221.181-.402.402-.402h2.739v.488c0 .221-.181.402-.402.402z" fill="#5298d9"/><path d="M2.014 7.936c0-1.158.079-1.43 1.751-1.878v-.001C2.131 6.492 0 6.369 0 7.162v.372c0 .221.181.402.402.402h1.612z" fill-opacity=".102"/><g fill="#fff" fill-rule="nonzero"><path d="M2.774 7.936v-.488c0-.118.048-.225.126-.303a.42.42 0 0 1 .3-.125h1.874c.427 0 .865-.567.865-1.86l.003 1.913H3.203c-.103 0-.197.042-.265.11s-.11.162-.11.265v.488h-.027-.027z"/><path d="M3.403 7.689v-.404h.147c.021 0 .041.005.058.013s.031.022.041.038.015.035.015.058c0 .009-.002.019-.004.029s-.008.019-.014.027-.013.014-.023.018c.013.003.023.009.031.017s.014.017.018.028.008.022.009.033a.19.19 0 0 1 .003.032c0 .021-.005.04-.016.057s-.025.03-.043.04-.037.014-.059.015l-.163-.001zm.07-.06h.086c.012 0 .022-.003.031-.008s.017-.013.023-.023.008-.021.008-.034-.003-.021-.008-.03-.013-.018-.023-.024-.019-.009-.031-.009h-.086v.128zm0-.187h.069c.014 0 .026-.005.036-.013s.016-.021.016-.036-.006-.027-.016-.035-.022-.012-.036-.012h-.069v.096zm.396.255a.14.14 0 0 1-.073-.02c-.022-.014-.039-.033-.052-.056s-.02-.048-.02-.076c0-.021.004-.041.012-.059s.017-.035.031-.049.028-.025.046-.032.036-.012.056-.012a.14.14 0 0 1 .072.02c.022.014.04.032.053.055s.019.049.019.077c0 .021-.004.041-.011.059s-.018.034-.031.048a.15.15 0 0 1-.046.033c-.018.008-.036.012-.056.012zm0-.07c.014 0 .026-.004.037-.012s.02-.017.027-.029.01-.026.01-.041-.004-.029-.01-.041-.016-.022-.027-.03-.024-.011-.037-.011-.027.004-.038.011-.02.018-.026.03-.01.027-.01.041.003.029.01.041.016.022.027.03.023.011.037.011zm.317.07c-.026 0-.051-.007-.072-.021s-.04-.032-.053-.055a.15.15 0 0 1-.019-.076c0-.021.004-.041.011-.059s.018-.035.031-.049.029-.025.046-.032.036-.012.056-.012a.14.14 0 0 1 .073.02c.022.014.039.032.052.055s.02.049.02.077c0 .021-.004.041-.012.059s-.018.034-.031.048-.028.025-.046.033-.036.012-.056.012zm0-.07c.014 0 .027-.004.038-.012s.02-.017.026-.029.01-.026.01-.041-.003-.029-.01-.041-.015-.022-.027-.03-.023-.011-.037-.011-.026.004-.037.011-.02.018-.027.03-.01.027-.01.041.004.029.01.041.016.022.027.03.024.011.037.011zm.285.068c-.015-.001-.03-.004-.044-.009s-.026-.012-.037-.021-.019-.02-.025-.032l.06-.025c.016.016.022.02.03.023s.015.004.023.004.015-.001.021-.003c.021-.014.023-.019.023-.026-.013-.021-.019-.024-.026-.026l-.022-.005c-.018-.004-.035-.009-.051-.017s-.028-.018-.037-.03-.015-.027-.015-.044.005-.036.015-.05.023-.024.04-.032.034-.011.053-.011.044.005.063.014.034.023.045.041l-.056.032c-.016-.016-.021-.02-.027-.022s-.013-.004-.02-.005-.016.001-.023.003c-.022.014-.024.02-.024.028.014.02.021.023.03.024l.023.007c.017.005.033.012.048.02s.027.018.036.03.013.026.013.042-.006.035-.017.049a.1.1 0 0 1-.043.032c-.018.007-.036.01-.056.009zm.323-.224h-.056v.218h-.071v-.218h-.042v-.07h.042V7.31h.071v.091h.056v.07zm.17.226c-.026 0-.051-.007-.072-.021s-.04-.032-.053-.055a.15.15 0 0 1-.019-.076c0-.021.004-.041.011-.059s.018-.035.031-.049.029-.025.046-.032.036-.012.056-.012.043.004.062.014a.14.14 0 0 1 .048.039c.013.017.022.036.028.057s.008.043.005.066h-.212c.003.011.008.021.014.029s.014.015.023.021.02.007.032.008.024-.003.034-.009.018-.015.025-.025l.072.017a.16.16 0 0 1-.053.063c-.023.016-.049.024-.078.024zm-.071-.181h.142c-.002-.011-.006-.022-.013-.031s-.015-.017-.025-.022-.021-.009-.033-.009-.022.003-.032.008-.018.013-.025.023-.011.02-.014.031zm.436-.044c-.023-.01-.029-.011-.037-.011-.014 0-.026.004-.036.011s-.018.017-.023.029-.008.026-.008.041v.147h-.071v-.288h.07v.034a.1.1 0 0 1 .035-.03c.013-.008.028-.012.045-.012.025.001.031.002.037.004l-.012.075z"/></g><path d="M0 7.162V.612c0 4.052 5.602.635 5.602 3.637C5.602 6.999 0 5.877 0 7.162z" fill="url(#A)"/></svg>