<?xml version="1.0" encoding="UTF-8"?>
<svg xmlns="http://www.w3.org/2000/svg" width="222" height="296" viewBox="0 0 6.788 9.066" shape-rendering="geometricPrecision" image-rendering="optimizeQuality" fill-rule="evenodd" xmlns:v="https://vecta.io/nano"><defs><linearGradient id="A" gradientUnits="userSpaceOnUse" x1="2.641" y1="4.65" x2="2.641" y2="-4.13"><stop offset="0" stop-color="#c0371f"/><stop offset="1" stop-color="#4d4d4d"/></linearGradient><linearGradient id="B" gradientUnits="userSpaceOnUse" x1="3.202" y1="8.325" x2="3.202" y2="-18.72"><stop offset="0" stop-color="#ff765e"/><stop offset="1" stop-color="#fff"/></linearGradient></defs><path d="M.459 0h5.869a.46.46 0 0 1 .46.459v8.147a.46.46 0 0 1-.46.46H.459A.46.46 0 0 1 0 8.606V.459A.46.46 0 0 1 .459 0z" fill="url(#B)"/><path d="M6.328 9.066H3.2v-.558a.46.46 0 0 1 .459-.459h3.129v.557a.46.46 0 0 1-.46.46z" fill="#5298d9"/><path d="M2.3 9.066c0-1.323.09-1.634 2.001-2.146v-.001C2.435 7.416 0 7.276 0 8.181v.425a.46.46 0 0 0 .459.46H2.3z" fill-opacity=".102"/><g fill="#fff" fill-rule="nonzero"><path d="M3.169 9.066v-.558c0-.135.055-.257.144-.346a.48.48 0 0 1 .343-.143h2.14c.488 0 .989-.648.989-2.125l.003 2.185H3.659c-.118 0-.225.048-.303.126s-.126.185-.126.303v.558H3.2h-.031z"/><path d="M3.887 8.784v-.462h.168c.024 0 .047.005.066.015s.036.024.047.043.017.04.017.066c0 .011-.001.022-.005.034s-.008.021-.015.03-.015.016-.026.021c.014.003.026.01.035.019s.016.02.021.032.008.025.01.038.003.025.003.036a.12.12 0 0 1-.018.065c-.012.019-.028.035-.049.046s-.043.017-.067.017h-.187zm.08-.069h.099a.06.06 0 0 0 .035-.01c.011-.006.019-.015.026-.026s.009-.024.009-.038a.07.07 0 0 0-.009-.035c-.007-.011-.015-.02-.026-.027a.06.06 0 0 0-.035-.01h-.099v.146zm0-.214h.079c.016 0 .03-.005.042-.015s.017-.024.017-.041-.006-.031-.017-.04-.026-.014-.042-.014h-.079v.11zm.452.291a.16.16 0 0 1-.083-.023.17.17 0 0 1-.059-.063c-.015-.026-.023-.055-.023-.087 0-.024.005-.047.013-.068s.021-.04.036-.055.032-.029.052-.038.041-.013.064-.013c.03 0 .058.007.083.023s.045.037.06.063.022.056.022.088c0 .024-.004.046-.013.067s-.02.039-.035.055-.033.029-.053.038-.041.013-.064.013zm0-.08c.016 0 .031-.005.043-.013s.023-.02.031-.034.011-.03.011-.046-.004-.033-.012-.047a.09.09 0 0 0-.03-.034c-.013-.009-.028-.013-.043-.013s-.03.004-.043.013-.023.02-.03.034-.011.03-.011.047.004.033.011.047.018.025.031.033.027.013.042.013zm.363.08a.16.16 0 0 1-.083-.023c-.025-.016-.045-.037-.06-.063a.17.17 0 0 1-.022-.087c0-.024.004-.047.013-.068s.02-.04.035-.055.033-.029.053-.038.041-.013.064-.013c.03 0 .058.007.083.023s.045.037.06.063.022.056.022.088c0 .024-.005.046-.013.067s-.02.039-.036.055-.032.029-.052.038-.041.013-.064.013zm0-.08c.016 0 .03-.005.043-.013s.023-.02.03-.034.011-.03.011-.046-.003-.033-.011-.047-.018-.026-.031-.034-.027-.013-.042-.013-.03.004-.043.013-.023.02-.03.034-.012.03-.012.047.004.033.012.047.018.025.031.033.027.013.042.013zm.325.078c-.017-.002-.034-.005-.05-.011s-.03-.014-.042-.024-.022-.022-.029-.036l.068-.029c.019.019.026.023.034.026s.018.005.028.005.016-.001.024-.003.013-.006.018-.011.007-.011.007-.019-.003-.014-.008-.019-.013-.008-.021-.01l-.025-.006a.22.22 0 0 1-.058-.02c-.018-.009-.033-.02-.043-.034s-.017-.031-.017-.05.006-.041.017-.057.027-.028.046-.036.038-.013.06-.013.05.005.072.016.039.026.052.046l-.064.038c-.018-.02-.024-.023-.031-.026s-.015-.005-.023-.005-.018 0-.027.002a.04.04 0 0 0-.019.011c-.005.006-.008.013-.008.022s.004.014.01.018.015.007.024.01.019.004.027.007c.019.006.038.014.055.023s.03.021.041.034.015.03.015.048-.007.04-.02.056-.029.028-.049.037-.041.011-.064.01zm.369-.256h-.064v.25h-.08v-.25h-.049v-.08h.049V8.35h.08v.104h.064v.08zm.195.258c-.031 0-.058-.008-.083-.023s-.045-.037-.06-.063-.022-.056-.022-.088c0-.024.004-.046.013-.067s.02-.04.035-.055.033-.029.053-.038.041-.013.064-.013a.15.15 0 0 1 .07.016.16.16 0 0 1 .055.045c.015.019.026.04.033.064s.008.05.004.076h-.241c.003.012.008.023.015.033s.016.018.027.024.023.009.037.009.026-.003.038-.01.021-.017.029-.028l.082.019c-.013.029-.033.053-.06.071a.15.15 0 0 1-.089.028zm-.082-.206h.163c-.003-.013-.008-.025-.016-.036s-.017-.019-.029-.026-.023-.009-.036-.009-.026.003-.037.009-.021.015-.029.026-.013.022-.016.036zm.499-.05c-.006-.004-.013-.007-.02-.01s-.014-.004-.023-.004c-.016 0-.029.005-.041.013s-.02.019-.026.033-.01.03-.01.047v.169h-.081v-.33h.081v.039a.13.13 0 0 1 .039-.035c.015-.008.033-.013.052-.013l.022.001c.007 0 .013.002.02.004l-.013.086z"/></g><path d="M0 8.181V.699c0 4.629 6.399.726 6.399 4.154C6.399 7.994 0 6.713 0 8.181z" fill="url(#A)"/></svg>