<?xml version="1.0" encoding="UTF-8"?>
<svg xmlns="http://www.w3.org/2000/svg" width="222" height="296" viewBox="0 0 8.559 11.431" shape-rendering="geometricPrecision" image-rendering="optimizeQuality" fill-rule="evenodd" xmlns:v="https://vecta.io/nano"><defs><linearGradient id="A" gradientUnits="userSpaceOnUse" x1="3.624" y1="5.348" x2="3.624" y2="-4.596"><stop offset="0" stop-color="#bf5102"/><stop offset="1" stop-color="#4d4d4d"/></linearGradient><linearGradient id="B" gradientUnits="userSpaceOnUse" x1="4.038" y1="10.496" x2="4.038" y2="-23.604"><stop offset="0" stop-color="#ff8733"/><stop offset="1" stop-color="#dfdfdf"/></linearGradient></defs><path d="M.579 0h7.4a.58.58 0 0 1 .58.579v10.272a.58.58 0 0 1-.58.58h-7.4a.58.58 0 0 1-.579-.58V.579A.58.58 0 0 1 .579 0z" fill="url(#B)"/><path d="M2.9 11.431c0-1.668.114-2.061 2.523-2.706v-.001C3.07 9.351 0 9.174 0 10.315v.536a.58.58 0 0 0 .579.58H2.9z" fill-opacity=".102"/><path d="M7.979 11.431H4.034v-.703a.58.58 0 0 1 .58-.58h3.945v.703a.58.58 0 0 1-.58.58z" fill="#5298d9"/><path d="M3.996 11.431v-.703c0-.17.069-.325.181-.437s.263-.18.433-.18h2.698c.616 0 1.247-.817 1.247-2.68l.004 2.756H4.614a.54.54 0 0 0-.541.541v.703h-.039-.038zm.905-.356v-.582h.212c.031 0 .059.006.083.019s.045.031.059.054.022.051.022.083c0 .014-.002.028-.006.043s-.011.027-.019.039-.02.02-.033.025c.018.005.032.013.044.024a.11.11 0 0 1 .026.041.2.2 0 0 1 .013.048l.004.045c0 .031-.008.058-.023.083s-.036.043-.061.057-.054.021-.085.021h-.236zm.101-.087h.124c.017 0 .032-.004.045-.012s.024-.019.032-.033.012-.03.012-.048-.004-.03-.012-.044-.019-.025-.032-.034-.028-.013-.045-.013h-.124v.184zm0-.27h.099c.021 0 .038-.006.053-.019s.022-.029.022-.05-.007-.04-.022-.051-.032-.018-.053-.018h-.099v.138zm.57.368c-.038 0-.073-.01-.105-.03a.22.22 0 0 1-.075-.079c-.018-.033-.028-.07-.028-.11 0-.03.005-.059.016-.085s.026-.05.045-.07.041-.036.066-.047a.2.2 0 0 1 .081-.017c.038 0 .073.01.105.029s.056.046.075.08a.22.22 0 0 1 .028.11c0 .031-.006.059-.016.085s-.026.05-.045.07-.041.036-.066.047a.2.2 0 0 1-.081.017zm0-.101c.02 0 .038-.006.054-.017s.029-.025.039-.042.013-.038.013-.059a.12.12 0 0 0-.014-.059c-.009-.018-.022-.032-.039-.043s-.034-.016-.053-.016-.038.006-.054.016-.029.026-.038.044-.014.037-.014.058.004.042.014.06.023.032.039.042a.1.1 0 0 0 .053.016zm.457.101c-.038 0-.073-.01-.104-.03s-.057-.046-.075-.079-.029-.07-.029-.11c0-.03.006-.059.017-.085a.23.23 0 0 1 .044-.07c.019-.02.041-.036.067-.047s.052-.017.08-.017c.039 0 .074.01.105.029s.057.046.075.08a.23.23 0 0 1 .028.11c0 .031-.005.059-.016.085s-.026.05-.045.07-.041.036-.066.047a.2.2 0 0 1-.081.017zm0-.101c.021 0 .039-.006.055-.017a.11.11 0 0 0 .038-.042c.009-.018.014-.038.014-.059s-.005-.041-.014-.059-.023-.032-.039-.043-.034-.016-.054-.016-.038.006-.054.016-.029.026-.038.044-.014.037-.014.058.005.042.014.06.023.032.039.042a.1.1 0 0 0 .053.016zm.41.098c-.022-.002-.042-.006-.063-.013s-.038-.018-.053-.031a.12.12 0 0 1-.036-.045l.086-.037c.003.006.009.011.016.018a.1.1 0 0 0 .027.015c.01.005.022.007.034.007a.09.09 0 0 0 .03-.005c.009-.003.018-.007.024-.013s.009-.014.009-.024-.004-.018-.011-.024-.016-.01-.027-.013l-.031-.008c-.026-.005-.05-.013-.073-.024a.14.14 0 0 1-.054-.044c-.014-.017-.021-.038-.021-.063s.007-.051.021-.071.034-.036.057-.047.049-.016.077-.016c.033 0 .063.007.09.021s.05.033.066.058l-.08.047c-.004-.006-.01-.013-.017-.018s-.014-.011-.023-.014-.018-.006-.028-.007a.13.13 0 0 0-.034.003c-.01.002-.019.008-.025.015s-.009.015-.009.026.004.019.012.024.019.009.03.012l.034.009c.025.008.048.018.069.029a.16.16 0 0 1 .052.043.09.09 0 0 1 .018.061c0 .027-.008.05-.024.07s-.036.036-.062.046-.052.015-.081.013zm.466-.322h-.081v.314h-.102v-.314h-.061v-.102h.061v-.13h.102v.13h.081v.102zm.245.325c-.038 0-.073-.01-.105-.03a.22.22 0 0 1-.075-.079c-.019-.033-.028-.07-.028-.11 0-.03.005-.059.016-.085s.026-.05.045-.07.041-.036.066-.047a.2.2 0 0 1 .081-.017c.029 0 .062.007.089.02a.21.21 0 0 1 .069.057c.019.024.032.051.041.081a.22.22 0 0 1 .006.096h-.304c.004.015.01.029.019.042s.02.022.034.029.029.011.046.012.034-.004.048-.013.027-.021.037-.036l.103.024c-.017.037-.042.067-.075.091s-.071.035-.113.035zm-.102-.26h.204c-.003-.017-.009-.032-.019-.045s-.022-.025-.037-.033a.09.09 0 0 0-.046-.012.09.09 0 0 0-.046.012c-.014.008-.026.019-.036.032s-.017.029-.02.046zm.628-.063c-.008-.005-.016-.01-.024-.013s-.019-.004-.029-.004c-.021 0-.038.005-.052.016s-.026.024-.034.042a.14.14 0 0 0-.012.058v.213h-.102v-.416h.102v.049c.013-.018.03-.032.049-.043s.041-.016.066-.016h.027c.009.001.017.002.025.005l-.016.109z" fill="#fff" fill-rule="nonzero"/><path d="M0 10.315V.881c0 5.837 8.069.916 8.069 5.238C8.069 10.08 0 8.465 0 10.315z" fill="url(#A)"/></svg>