<?xml version="1.0" encoding="UTF-8"?>
<svg xmlns="http://www.w3.org/2000/svg" width="222" height="296" viewBox="0 0 10.473 13.987" shape-rendering="geometricPrecision" image-rendering="optimizeQuality" fill-rule="evenodd" xmlns:v="https://vecta.io/nano"><defs><linearGradient id="A" gradientUnits="userSpaceOnUse" x1="4.585" y1="6.082" x2="4.585" y2="-5.502"><stop offset="0" stop-color="#4fa249"/><stop offset="1" stop-color="#4d4d4d"/></linearGradient><linearGradient id="B" gradientUnits="userSpaceOnUse" x1="5.963" y1="12.44" x2="5.963" y2="-22.615"><stop offset="0" stop-color="#8be085"/><stop offset="1" stop-color="#fff"/></linearGradient></defs><path d="M.709 0h9.055a.71.71 0 0 1 .709.709v12.57a.71.71 0 0 1-.709.708H.709A.71.71 0 0 1 0 13.279V.709A.71.71 0 0 1 .709 0z" fill="url(#B)"/><path d="M0 12.622V1.078c0 7.143 9.873 1.121 9.873 6.41 0 4.847-9.873 2.87-9.873 5.134z" fill="url(#A)"/><path d="M9.764 13.987H4.937v-.86a.71.71 0 0 1 .709-.709h4.827v.861a.71.71 0 0 1-.709.708z" fill="#5298d9"/><path d="M5.997 13.552v-.712h.26c.037 0 .071.008.102.023a.19.19 0 0 1 .099.168c0 .017-.003.035-.008.052s-.013.034-.024.048-.024.024-.04.031a.11.11 0 0 1 .054.03c.014.014.024.031.032.05s.013.038.016.058.005.039.005.055c0 .038-.01.072-.028.101s-.044.053-.075.07-.066.026-.104.026h-.289zm.124-.106h.152c.02 0 .038-.005.055-.015s.029-.023.039-.04.015-.037.015-.059-.005-.037-.015-.054-.023-.031-.039-.042-.035-.015-.055-.015h-.152v.225zm0-.33h.121c.025 0 .047-.008.065-.024s.026-.036.026-.062-.008-.048-.026-.062-.04-.021-.065-.021h-.121v.169zm.697.45a.23.23 0 0 1-.128-.037c-.038-.024-.069-.056-.092-.097s-.034-.085-.034-.134c0-.037.006-.072.02-.105s.031-.061.054-.085a.26.26 0 0 1 .082-.058.23.23 0 0 1 .098-.021c.047 0 .09.012.128.036a.27.27 0 0 1 .092.098c.023.04.035.085.035.135 0 .037-.007.072-.02.104s-.032.06-.055.085-.05.044-.081.058-.063.021-.099.021zm0-.125c.025 0 .047-.006.067-.019a.15.15 0 0 0 .047-.053c.011-.021.016-.045.016-.071s-.005-.051-.017-.073-.027-.039-.047-.052-.042-.02-.066-.02-.046.007-.066.02a.15.15 0 0 0-.047.053c-.011.022-.017.046-.017.072s.006.051.018.073.028.039.047.051.042.019.065.019zm.56.125a.23.23 0 0 1-.128-.037c-.038-.024-.069-.056-.092-.097s-.034-.085-.034-.134c0-.037.006-.072.019-.105a.29.29 0 0 1 .055-.085c.023-.025.05-.044.081-.058s.064-.021.099-.021c.047 0 .089.012.128.036a.28.28 0 0 1 .092.098c.023.04.034.085.034.135 0 .037-.006.072-.02.104a.28.28 0 0 1-.054.085c-.023.025-.05.044-.081.058s-.064.021-.099.021zm0-.125c.025 0 .047-.006.067-.019s.035-.031.046-.053.017-.045.017-.071-.006-.051-.017-.073a.15.15 0 0 0-.048-.052c-.019-.013-.041-.02-.065-.02s-.047.007-.066.02a.15.15 0 0 0-.047.053c-.012.022-.017.046-.017.072a.16.16 0 0 0 .017.073c.012.021.028.039.048.051s.042.019.065.019zm.501.121a.28.28 0 0 1-.076-.017c-.025-.009-.047-.021-.066-.036s-.033-.035-.044-.056l.105-.045c.004.007.011.014.02.021s.02.015.033.02.027.007.042.007a.15.15 0 0 0 .037-.005c.012-.004.021-.009.028-.017s.011-.017.011-.029-.004-.022-.013-.029-.019-.012-.032-.016l-.038-.01a.33.33 0 0 1-.09-.03c-.028-.013-.05-.031-.067-.052a.13.13 0 0 1-.025-.078c0-.034.009-.063.027-.087s.04-.044.069-.057.06-.02.093-.02a.26.26 0 0 1 .112.025c.033.017.06.041.08.071l-.099.058c-.004-.008-.011-.015-.019-.022s-.019-.013-.029-.018-.023-.007-.034-.007-.03 0-.042.004-.023.009-.03.017-.012.019-.012.033.005.022.015.028.023.011.037.015.028.007.042.011a.53.53 0 0 1 .084.036c.026.014.047.032.063.053s.024.045.023.074-.01.061-.029.086-.045.043-.076.056-.065.018-.1.016zm.57-.394H8.35v.384h-.124v-.384h-.075v-.124h.075v-.16h.124v.16h.099v.124zm.3.398a.23.23 0 0 1-.128-.037c-.038-.024-.069-.056-.092-.097s-.034-.085-.034-.135c0-.036.006-.071.02-.104s.031-.061.054-.085.051-.044.081-.058.064-.021.099-.021.076.009.109.025.061.04.084.069.04.063.051.1.013.077.007.117h-.372a.17.17 0 0 0 .023.051c.011.015.025.027.042.036s.035.014.056.014.042-.004.059-.015.033-.025.045-.044l.127.03c-.021.045-.052.082-.093.111a.24.24 0 0 1-.138.043zm-.125-.319h.25c-.003-.02-.011-.039-.023-.055s-.027-.03-.045-.04-.037-.014-.057-.014-.039.004-.056.014-.032.023-.044.039-.021.035-.025.056zm.769-.077a.14.14 0 0 0-.03-.015c-.011-.004-.022-.006-.035-.006-.025 0-.046.007-.064.02s-.032.03-.041.051-.014.046-.014.072v.26h-.126v-.508h.125v.06c.017-.023.037-.041.06-.054s.051-.02.08-.02l.034.001c.011.001.021.003.031.006l-.02.133z" fill="#fff" fill-rule="nonzero"/><path d="M3.549 13.987c0-2.04.139-2.521 3.087-3.311h-.001C3.757 11.442 0 11.226 0 12.622v.657a.71.71 0 0 0 .709.708h2.84z" fill-opacity=".102"/><path d="M4.889 13.987v-.86c0-.208.085-.397.222-.534s.322-.221.53-.221h3.302c.753 0 1.525-.999 1.525-3.278l.005 3.372H5.646a.66.66 0 0 0-.662.661v.86h-.047-.048z" fill="#fff" fill-rule="nonzero"/></svg>