<?xml version="1.0" encoding="UTF-8"?>
<svg xmlns="http://www.w3.org/2000/svg" width="202" height="270" viewBox="0 0 14.308 19.109" shape-rendering="geometricPrecision" image-rendering="optimizeQuality" fill-rule="evenodd" xmlns:v="https://vecta.io/nano"><defs><linearGradient id="A" gradientUnits="userSpaceOnUse" x1="6.263" y1="8.308" x2="6.263" y2="-7.517"><stop offset="0" stop-color="#4fa249"/><stop offset="1" stop-color="#4d4d4d"/></linearGradient><linearGradient id="B" gradientUnits="userSpaceOnUse" x1="8.146" y1="16.994" x2="8.146" y2="-30.895"><stop offset="0" stop-color="#8be085"/><stop offset="1" stop-color="#fff"/></linearGradient></defs><path d="M.968 0h12.371a.97.97 0 0 1 .969.968v17.173a.97.97 0 0 1-.969.968H.968A.97.97 0 0 1 0 18.141V.968A.97.97 0 0 1 .968 0z" fill="url(#B)"/><path d="M0 17.244V1.473C0 8.07 13.488 3.004 13.488 10.23 13.488 16.851 0 14.151 0 17.244z" fill="url(#A)"/><path d="M3.64 11.309v-.522h-.522v-.338h.522v-.522h.338v.522H4.5v.338h-.522v.522zm2.051.517c-.141 0-.268-.033-.381-.1a.75.75 0 0 1-.27-.269c-.066-.113-.099-.237-.099-.375h.406a.33.33 0 0 0 .044.17c.029.051.07.091.122.122a.35.35 0 0 0 .178.046c.061 0 .118-.016.171-.046a.37.37 0 0 0 .127-.122c.032-.051.048-.108.048-.17 0-.081-.022-.149-.065-.202s-.103-.094-.18-.121a.84.84 0 0 0-.269-.04v-.312c.137 0 .247-.026.327-.079s.12-.128.12-.229c0-.052-.013-.1-.039-.143s-.062-.079-.106-.105-.092-.038-.144-.038-.105.012-.155.038-.09.061-.122.105a.24.24 0 0 0-.047.143h-.406a.63.63 0 0 1 .058-.269c.039-.084.092-.157.161-.22a.75.75 0 0 1 .233-.15c.087-.036.178-.053.273-.053a.68.68 0 0 1 .348.093c.106.062.192.145.256.249s.096.221.096.35c0 .09-.021.178-.063.264a.37.37 0 0 1-.179.183.38.38 0 0 1 .169.122.62.62 0 0 1 .105.195c.023.073.035.146.035.219 0 .137-.034.261-.103.373a.78.78 0 0 1-.274.27c-.113.067-.239.101-.375.101zm1.858 0c-.135 0-.258-.032-.369-.094a.91.91 0 0 1-.287-.261 1.25 1.25 0 0 1-.185-.385c-.044-.146-.065-.302-.065-.468a1.62 1.62 0 0 1 .065-.469 1.26 1.26 0 0 1 .185-.385c.081-.111.176-.198.287-.26s.234-.094.369-.094.259.031.37.094a.87.87 0 0 1 .285.26c.08.111.141.239.185.385a1.62 1.62 0 0 1 .066.469c0 .166-.022.322-.066.468s-.105.275-.185.385-.174.198-.285.261-.234.094-.37.094zm0-.406c.119 0 .217-.038.295-.113s.135-.174.173-.296.057-.253.057-.393a1.29 1.29 0 0 0-.06-.404c-.04-.121-.099-.218-.177-.29s-.173-.108-.288-.108c-.089 0-.167.022-.233.065a.52.52 0 0 0-.164.18c-.043.075-.076.16-.097.256a1.41 1.41 0 0 0-.031.301c0 .139.019.269.057.391a.7.7 0 0 0 .175.298c.078.076.176.113.293.113zm1.353.363l1.345-2.33h.469l-1.345 2.33h-.469zm.286-1.32a.49.49 0 0 1-.25-.066.5.5 0 0 1-.182-.178c-.046-.076-.068-.16-.068-.253s.023-.181.069-.257a.51.51 0 0 1 .183-.178c.076-.043.159-.064.248-.064a.49.49 0 0 1 .25.066c.075.044.136.104.181.18s.067.16.067.253a.48.48 0 0 1-.069.254.5.5 0 0 1-.182.178c-.076.044-.158.065-.247.065zm0-.278c.06 0 .112-.021.155-.064a.21.21 0 0 0 .065-.155c0-.062-.022-.115-.065-.157s-.095-.063-.155-.063a.22.22 0 0 0-.157.063c-.044.042-.066.095-.066.157a.21.21 0 0 0 .066.155c.043.043.096.064.157.064zm1.242 1.586c-.092 0-.176-.023-.252-.069s-.135-.107-.179-.183-.067-.158-.067-.246c0-.095.023-.18.069-.256s.108-.135.183-.179a.48.48 0 0 1 .246-.065c.095 0 .18.023.256.07s.135.107.179.183.065.159.065.247a.48.48 0 0 1-.067.25c-.045.076-.105.135-.181.18s-.16.068-.252.068zm0-.278c.062 0 .114-.022.158-.065s.065-.095.065-.155a.22.22 0 0 0-.065-.158c-.043-.044-.096-.064-.158-.064s-.112.021-.155.064-.065.096-.065.158.022.112.065.155.095.065.155.065z" fill="#4fa249" fill-rule="nonzero"/><path d="M3.309 11.125v-.579H2.73v-.373h.579v-.579h.374v.579h.578v.373h-.578v.579h-.374zm2.271.572c-.156 0-.297-.037-.422-.11a.82.82 0 0 1-.298-.298.8.8 0 0 1-.111-.415h.45a.37.37 0 0 0 .049.188c.032.056.077.101.135.135a.39.39 0 0 0 .197.051c.068 0 .131-.018.189-.051s.105-.079.141-.135.053-.12.053-.188c0-.09-.024-.165-.071-.225s-.115-.103-.2-.133a.9.9 0 0 0-.298-.044v-.347c.152 0 .273-.028.362-.086s.134-.143.134-.254c0-.058-.015-.111-.045-.159s-.068-.087-.116-.115-.102-.043-.16-.043a.36.36 0 0 0-.171.043.37.37 0 0 0-.135.115c-.035.048-.053.101-.053.159h-.45c0-.106.022-.206.065-.298s.102-.174.178-.244a.85.85 0 0 1 .258-.165.78.78 0 0 1 .303-.06.75.75 0 0 1 .385.103.8.8 0 0 1 .283.277c.072.115.107.244.107.387a.66.66 0 0 1-.07.293c-.046.095-.113.163-.199.202.075.027.138.072.188.135s.089.136.116.216a.76.76 0 0 1 .039.243.78.78 0 0 1-.114.413c-.076.125-.177.224-.303.298a.8.8 0 0 1-.416.112zm2.058 0c-.149 0-.286-.035-.409-.104s-.228-.165-.317-.288a1.41 1.41 0 0 1-.206-.427 1.81 1.81 0 0 1-.072-.518 1.82 1.82 0 0 1 .072-.52c.048-.161.117-.303.206-.426s.195-.219.317-.288a.82.82 0 0 1 .409-.104.81.81 0 0 1 .409.104c.122.07.229.165.317.288s.156.265.204.426.073.335.073.52a1.77 1.77 0 0 1-.073.518 1.43 1.43 0 0 1-.204.427c-.088.123-.194.218-.317.288a.82.82 0 0 1-.409.104zm0-.449a.45.45 0 0 0 .327-.126c.086-.083.149-.192.191-.328a1.46 1.46 0 0 0 .063-.434 1.44 1.44 0 0 0-.066-.448c-.045-.134-.11-.241-.196-.321a.45.45 0 0 0-.319-.12.45.45 0 0 0-.258.073.58.58 0 0 0-.182.198c-.048.084-.084.178-.107.285s-.035.217-.035.333a1.46 1.46 0 0 0 .064.433.76.76 0 0 0 .193.329.45.45 0 0 0 .325.126zm1.499.401l1.488-2.579h.52l-1.489 2.579h-.519zm.316-1.461c-.1 0-.192-.024-.277-.073s-.151-.114-.202-.198-.075-.177-.075-.28.026-.2.077-.284a.56.56 0 0 1 .202-.197c.084-.048.176-.072.275-.072a.54.54 0 0 1 .277.074.57.57 0 0 1 .2.199c.05.084.074.177.074.28s-.025.199-.076.282a.56.56 0 0 1-.202.197.54.54 0 0 1-.273.072zm0-.308c.067 0 .124-.024.172-.071a.23.23 0 0 0 .072-.172c0-.069-.024-.126-.072-.173s-.105-.07-.172-.07-.125.023-.173.07-.073.104-.073.173.024.125.073.172a.24.24 0 0 0 .173.071zm1.375 1.756a.52.52 0 0 1-.278-.076.57.57 0 0 1-.199-.203.53.53 0 0 1-.074-.271c0-.106.026-.201.077-.284a.56.56 0 0 1 .203-.199c.084-.048.174-.072.271-.072.106 0 .2.026.284.077a.57.57 0 0 1 .198.204c.049.084.073.175.073.274a.53.53 0 0 1-.075.276c-.049.083-.116.15-.2.2a.55.55 0 0 1-.28.074zm0-.307c.069 0 .127-.024.175-.072s.072-.105.072-.171a.24.24 0 0 0-.247-.247c-.066 0-.123.024-.171.071a.24.24 0 0 0-.072.176c0 .066.024.123.072.171s.105.072.171.072z" fill="#5eb258"/><path d="M2.978 10.941v-.635h-.635v-.41h.635v-.635h.41v.635h.635v.41h-.635v.635h-.41zm2.491.628c-.171 0-.325-.041-.463-.122a.91.91 0 0 1-.327-.326.88.88 0 0 1-.121-.456h.493a.4.4 0 0 0 .054.206c.036.062.085.111.148.148a.41.41 0 0 0 .216.056.4.4 0 0 0 .208-.056c.064-.037.115-.086.154-.148s.059-.13.059-.206c0-.098-.026-.181-.079-.246a.47.47 0 0 0-.219-.146c-.094-.032-.203-.049-.327-.049v-.38c.167 0 .3-.031.398-.095a.31.31 0 0 0 .146-.279c0-.063-.016-.121-.049-.173a.37.37 0 0 0-.128-.127.33.33 0 0 0-.175-.047.4.4 0 0 0-.188.047c-.06.031-.11.074-.148.127a.29.29 0 0 0-.058.173H4.57a.75.75 0 0 1 .071-.326c.047-.102.112-.191.195-.268s.177-.137.283-.181.216-.066.332-.066c.152 0 .293.038.423.114s.233.176.311.303.117.268.117.424c0 .11-.025.217-.077.322a.45.45 0 0 1-.218.222.46.46 0 0 1 .206.148c.055.07.098.149.127.237s.043.177.043.266a.86.86 0 0 1-.125.454.96.96 0 0 1-.332.327.88.88 0 0 1-.457.123zm2.258 0c-.164 0-.314-.039-.448-.115a1.09 1.09 0 0 1-.349-.316c-.097-.135-.173-.291-.226-.468a2.01 2.01 0 0 1-.078-.569 2.01 2.01 0 0 1 .078-.569c.053-.178.129-.333.226-.468s.214-.241.349-.317.284-.114.448-.114a.9.9 0 0 1 .449.114c.135.076.251.182.347.317s.171.29.224.468a1.94 1.94 0 0 1 .08.569 1.94 1.94 0 0 1-.08.569c-.053.177-.128.333-.224.468s-.212.24-.347.316a.9.9 0 0 1-.449.115zm0-.494a.49.49 0 0 0 .358-.137c.094-.092.165-.212.21-.36a1.6 1.6 0 0 0 .069-.477c0-.179-.024-.343-.073-.49s-.12-.265-.214-.353-.211-.131-.35-.131a.5.5 0 0 0-.283.079.63.63 0 0 0-.2.218 1.11 1.11 0 0 0-.117.312c-.026.116-.038.238-.038.365a1.57 1.57 0 0 0 .07.476c.046.149.117.269.212.361a.49.49 0 0 0 .356.137zm1.644.441l1.633-2.83h.57l-1.633 2.83h-.57zm.348-1.603c-.111 0-.212-.027-.304-.08a.6.6 0 0 1-.222-.217c-.055-.092-.083-.194-.083-.307a.59.59 0 0 1 .084-.312c.056-.091.13-.163.223-.216a.59.59 0 0 1 .302-.079.59.59 0 0 1 .303.081.62.62 0 0 1 .219.218c.055.092.082.194.082.308s-.028.217-.084.309a.61.61 0 0 1-.221.216.59.59 0 0 1-.299.079zm0-.338a.26.26 0 0 0 .188-.078c.052-.052.078-.114.078-.188s-.026-.139-.078-.19a.26.26 0 0 0-.188-.077.26.26 0 0 0-.191.077c-.053.051-.08.114-.08.19a.25.25 0 0 0 .08.188c.053.052.116.078.191.078zm1.508 1.927c-.112 0-.214-.028-.306-.084a.63.63 0 0 1-.218-.223c-.054-.092-.081-.191-.081-.297a.59.59 0 0 1 .084-.312.62.62 0 0 1 .223-.217c.092-.054.191-.08.298-.08a.58.58 0 0 1 .311.085c.091.057.164.131.217.223s.08.193.08.301a.58.58 0 0 1-.082.303c-.054.091-.128.164-.22.219s-.195.082-.306.082zm0-.338c.075 0 .139-.026.192-.078a.26.26 0 0 0 .078-.188c0-.076-.026-.14-.078-.193s-.117-.078-.192-.078-.136.026-.188.078-.079.117-.079.193a.25.25 0 0 0 .079.188c.053.053.115.078.188.078z" fill="#6dc167"/><path d="M2.647 10.757v-.691h-.691V9.62h.691v-.692h.446v.692h.691v.446h-.691v.691h-.446zm2.712.683c-.187 0-.355-.044-.504-.132a.99.99 0 0 1-.357-.356c-.088-.149-.132-.314-.132-.495h.537a.44.44 0 0 0 .059.224c.039.067.092.121.161.161s.148.061.236.061c.08 0 .156-.02.225-.061a.47.47 0 0 0 .168-.161.41.41 0 0 0 .064-.224c0-.108-.028-.197-.086-.268a.51.51 0 0 0-.238-.159 1.07 1.07 0 0 0-.356-.053v-.414c.182 0 .327-.034.433-.103s.159-.17.159-.304c0-.069-.017-.132-.053-.189s-.081-.103-.139-.138a.37.37 0 0 0-.191-.051.44.44 0 0 0-.204.051c-.066.035-.12.081-.162.138a.31.31 0 0 0-.063.189h-.537c0-.126.026-.245.077-.356a.95.95 0 0 1 .213-.291c.09-.083.193-.149.308-.197a.93.93 0 0 1 .362-.071.9.9 0 0 1 .46.123.96.96 0 0 1 .338.33c.086.138.128.292.128.462 0 .119-.028.236-.084.35a.49.49 0 0 1-.237.242.5.5 0 0 1 .224.161.82.82 0 0 1 .138.258.91.91 0 0 1 .047.29c0 .18-.045.344-.136.493a1.04 1.04 0 0 1-.362.357c-.15.088-.316.133-.496.133zm2.457 0a.97.97 0 0 1-.488-.125 1.18 1.18 0 0 1-.379-.344 1.64 1.64 0 0 1-.246-.509c-.057-.193-.086-.399-.086-.619a2.18 2.18 0 0 1 .086-.62 1.65 1.65 0 0 1 .246-.509c.106-.147.232-.262.379-.345a.97.97 0 0 1 .488-.124c.179 0 .342.041.489.124s.273.198.377.345.187.316.245.509.086.4.086.62a2.14 2.14 0 0 1-.086.619c-.058.193-.14.363-.245.509s-.231.261-.377.344-.31.125-.489.125zm0-.537a.54.54 0 0 0 .39-.149.92.92 0 0 0 .229-.392 1.78 1.78 0 0 0 .074-.519c0-.195-.026-.374-.079-.534s-.13-.289-.233-.384a.54.54 0 0 0-.381-.143c-.119 0-.221.029-.309.087a.7.7 0 0 0-.217.237c-.057.099-.099.212-.127.339s-.042.26-.042.398a1.74 1.74 0 0 0 .076.517.92.92 0 0 0 .231.394.54.54 0 0 0 .388.149zm1.789.48l1.778-3.081h.62l-1.777 3.081h-.621zm.379-1.745c-.121 0-.231-.029-.331-.087s-.181-.137-.242-.236a.64.64 0 0 1-.09-.335.64.64 0 0 1 .092-.339c.061-.099.141-.178.242-.235s.21-.086.329-.086a.64.64 0 0 1 .33.088.68.68 0 0 1 .239.238.64.64 0 0 1 .088.334c0 .125-.03.237-.091.337a.66.66 0 0 1-.241.235c-.1.057-.208.086-.325.086zm0-.367c.079 0 .147-.029.204-.085a.28.28 0 0 0 .086-.206.28.28 0 0 0-.086-.207c-.057-.055-.125-.083-.204-.083s-.15.028-.208.083-.087.125-.087.207.029.149.087.206a.29.29 0 0 0 .208.085zm1.641 2.096a.62.62 0 0 1-.332-.091.69.69 0 0 1-.238-.242.63.63 0 0 1-.088-.324c0-.127.031-.24.092-.339a.67.67 0 0 1 .242-.237c.1-.058.208-.087.324-.087a.63.63 0 0 1 .339.093c.099.061.179.142.237.242s.086.21.086.328a.63.63 0 0 1-.089.33c-.059.099-.139.179-.239.238a.65.65 0 0 1-.334.089zm0-.367c.082 0 .152-.029.209-.086a.28.28 0 0 0 .086-.204c0-.083-.029-.152-.086-.21a.28.28 0 0 0-.209-.085c-.082 0-.147.028-.205.085s-.086.127-.086.21a.28.28 0 0 0 .086.204c.058.057.126.086.205.086z" fill="#7cd176"/><g fill-rule="nonzero"><path d="M2.316 10.573v-.748h-.748v-.482h.748v-.747h.482v.747h.747v.482h-.747v.748zm2.932.738c-.202 0-.383-.047-.545-.142a1.08 1.08 0 0 1-.386-.385c-.095-.161-.142-.339-.142-.536h.58a.48.48 0 0 0 .064.243c.042.073.1.13.174.174a.49.49 0 0 0 .255.066c.087 0 .169-.022.244-.066s.136-.101.182-.174.069-.154.069-.243c0-.116-.031-.213-.093-.289a.56.56 0 0 0-.258-.173c-.11-.038-.239-.057-.385-.057v-.447c.197 0 .353-.037.468-.112s.172-.184.172-.328c0-.075-.019-.143-.057-.205s-.088-.111-.15-.149a.4.4 0 0 0-.207-.055c-.076 0-.149.018-.221.055s-.129.087-.174.149a.34.34 0 0 0-.068.205h-.581c0-.136.028-.265.083-.385a1.03 1.03 0 0 1 .23-.315 1.14 1.14 0 0 1 .333-.213c.125-.051.255-.077.391-.077a.98.98 0 0 1 .498.133c.152.089.274.208.366.357s.138.316.138.5c0 .128-.03.255-.091.378s-.145.211-.256.262c.096.035.177.093.242.174a.89.89 0 0 1 .149.279 1 1 0 0 1 .051.313c0 .195-.049.373-.147.534s-.229.289-.391.385a1.04 1.04 0 0 1-.537.144zm2.657 0c-.193 0-.369-.045-.528-.134a1.28 1.28 0 0 1-.41-.372 1.82 1.82 0 0 1-.266-.551c-.062-.209-.092-.432-.092-.67s.03-.461.092-.67a1.79 1.79 0 0 1 .266-.55c.115-.158.251-.283.41-.373s.335-.134.528-.134a1.05 1.05 0 0 1 .528.134 1.27 1.27 0 0 1 .409.373 1.87 1.87 0 0 1 .264.55c.062.209.093.432.093.67s-.031.461-.093.67a1.89 1.89 0 0 1-.264.551 1.28 1.28 0 0 1-.409.372c-.158.089-.334.134-.528.134zm0-.58c.17 0 .31-.054.421-.162s.194-.249.248-.423a1.89 1.89 0 0 0 .081-.562c0-.211-.029-.403-.086-.577a.96.96 0 0 0-.252-.415.58.58 0 0 0-.412-.154.59.59 0 0 0-.334.093c-.094.063-.173.148-.234.256s-.108.23-.138.367a2.01 2.01 0 0 0-.046.43 1.86 1.86 0 0 0 .083.56.99.99 0 0 0 .25.425c.111.108.251.162.419.162zm1.934.519l1.923-3.331h.671L10.51 11.25h-.671zm.41-1.887a.71.71 0 0 1-.358-.094.72.72 0 0 1-.261-.256c-.065-.108-.098-.228-.098-.361a.69.69 0 0 1 .1-.367c.065-.108.153-.192.261-.254s.227-.093.356-.093a.69.69 0 0 1 .356.095c.108.064.195.149.259.257s.096.228.096.362-.033.256-.098.364a.73.73 0 0 1-.261.254c-.108.062-.226.093-.352.093zm0-.397c.085 0 .159-.031.221-.092a.3.3 0 0 0 .093-.222.3.3 0 0 0-.093-.224c-.062-.06-.136-.09-.221-.09s-.162.03-.225.09-.094.135-.094.224.031.161.094.222a.31.31 0 0 0 .225.092zm1.774 2.267c-.131 0-.251-.033-.359-.099a.74.74 0 0 1-.257-.262c-.063-.109-.095-.225-.095-.35a.69.69 0 0 1 .099-.367.73.73 0 0 1 .262-.256c.108-.063.225-.094.35-.094a.69.69 0 0 1 .367.1.74.74 0 0 1 .256.263c.062.109.093.227.093.354a.67.67 0 0 1-.096.356.72.72 0 0 1-.259.258c-.108.064-.229.097-.361.097zm0-.397c.089 0 .164-.031.226-.093s.093-.136.093-.221-.031-.165-.093-.226a.31.31 0 0 0-.226-.093c-.089 0-.159.031-.221.093s-.093.137-.093.226.031.159.093.221.136.093.221.093z" fill="#fff"/><path d="M5.369 1.87V.897h.17v.973h-.17zm1.021-.359v.359h-.17v-.356a.21.21 0 0 0-.022-.098c-.015-.03-.035-.053-.061-.071s-.057-.026-.091-.026-.063.009-.087.026-.043.041-.057.071-.02.062-.02.098v.356h-.169v-.695h.169v.082a.27.27 0 0 1 .084-.074c.032-.018.068-.027.109-.027a.29.29 0 0 1 .167.048.32.32 0 0 1 .109.129c.025.054.038.113.039.178zm.551.359h-.219l-.253-.696h.181l.182.501.181-.501h.181l-.253.696zm.624.018c-.064 0-.122-.016-.174-.049s-.095-.077-.126-.133a.37.37 0 0 1-.047-.184.37.37 0 0 1 .027-.142c.018-.045.043-.084.075-.117s.068-.06.11-.079a.33.33 0 0 1 .135-.028c.055 0 .104.011.15.034s.083.054.114.094.055.085.069.136.018.105.01.16H7.4c.006.026.017.049.032.07s.033.037.056.049.049.019.077.02.057-.007.081-.022.045-.034.061-.059l.173.04c-.028.062-.07.112-.126.151s-.119.059-.189.059zm-.171-.435h.342c-.005-.028-.015-.053-.032-.075s-.037-.041-.061-.054-.05-.02-.078-.02a.16.16 0 0 0-.077.019c-.023.014-.043.031-.06.054s-.028.048-.034.076zm.856.43c-.036-.003-.071-.01-.105-.022s-.063-.029-.089-.051-.046-.046-.06-.076l.143-.061c.006.009.015.019.028.029a.14.14 0 0 0 .045.026c.017.007.036.011.057.011s.034-.003.05-.008.029-.012.039-.022.015-.024.015-.04-.006-.03-.018-.04-.026-.017-.044-.021l-.052-.014c-.044-.009-.085-.022-.123-.041s-.068-.042-.091-.072-.034-.065-.034-.106.012-.086.036-.119.056-.059.095-.077a.29.29 0 0 1 .127-.028c.056 0 .106.012.152.035s.083.055.11.097l-.134.079c-.007-.011-.016-.022-.027-.031s-.025-.017-.04-.024-.03-.009-.047-.01-.04.001-.057.005-.03.013-.041.024-.016.026-.016.044.007.031.021.04a.17.17 0 0 0 .051.019l.056.016c.041.013.08.03.115.049a.27.27 0 0 1 .087.072c.022.028.032.062.031.101 0 .045-.013.084-.04.118a.27.27 0 0 1-.104.077.31.31 0 0 1-.136.021zm.778-.538h-.134v.525h-.17v-.525h-.103v-.17h.103V.957h.17v.218h.134v.17zM6.162 2.449c-.044 0-.085.007-.123.022s-.07.036-.093.063-.036.057-.036.093c0 .042.011.074.033.096s.052.04.09.051.081.021.129.03a.77.77 0 0 1 .173.049c.053.023.096.053.129.09s.048.083.048.138a.23.23 0 0 1-.042.137c-.029.039-.067.071-.114.095a.44.44 0 0 1-.156.042v.14h-.074v-.14c-.048-.003-.093-.014-.137-.03s-.081-.04-.112-.069-.055-.062-.069-.101l.091-.034c.01.029.029.054.056.074s.059.037.095.048a.39.39 0 0 0 .112.017c.044 0 .086-.008.124-.023s.07-.035.093-.062.036-.058.036-.094-.012-.067-.037-.09a.24.24 0 0 0-.095-.056c-.038-.014-.079-.024-.121-.032a.92.92 0 0 1-.178-.047c-.053-.02-.095-.048-.125-.085s-.046-.084-.046-.144c0-.052.014-.097.043-.137s.066-.071.114-.094a.4.4 0 0 1 .156-.042V2.21H6.2v.144c.046.003.09.013.133.03a.38.38 0 0 1 .113.068c.033.028.056.062.071.102l-.092.034c-.011-.03-.029-.055-.056-.075s-.059-.037-.095-.048a.42.42 0 0 0-.112-.016zm.571.89v-.876h-.105l.028-.097h.174v.973h-.097zm.623.018c-.058 0-.11-.013-.156-.039a.38.38 0 0 1-.118-.109.53.53 0 0 1-.074-.161c-.017-.061-.025-.126-.025-.196s.008-.134.025-.196a.53.53 0 0 1 .074-.161c.033-.046.072-.082.118-.108s.098-.039.156-.039.11.013.156.039.085.062.117.108a.53.53 0 0 1 .073.161c.017.062.025.127.025.196s-.008.135-.025.196a.53.53 0 0 1-.073.161c-.032.046-.071.082-.117.109s-.098.039-.156.039zm0-.097c.061 0 .113-.019.154-.057s.073-.087.094-.149.031-.129.031-.202-.011-.146-.032-.207-.053-.11-.095-.146-.092-.054-.152-.054c-.047 0-.088.011-.124.033s-.064.051-.087.089-.041.082-.052.131-.018.1-.018.154c0 .074.011.141.032.203s.053.111.095.149.093.056.154.056zm.814.097c-.058 0-.11-.013-.156-.039a.38.38 0 0 1-.118-.109.53.53 0 0 1-.074-.161c-.017-.061-.025-.126-.025-.196s.008-.134.025-.196a.53.53 0 0 1 .074-.161c.033-.046.072-.082.118-.108s.098-.039.156-.039.11.013.156.039.085.062.117.108a.53.53 0 0 1 .073.161c.017.062.025.127.025.196s-.008.135-.025.196a.53.53 0 0 1-.073.161c-.032.046-.071.082-.117.109s-.098.039-.156.039zm0-.097c.061 0 .113-.019.154-.057s.073-.087.094-.149.031-.129.031-.202-.011-.146-.032-.207-.053-.11-.095-.146-.092-.054-.152-.054c-.047 0-.088.011-.124.033s-.064.051-.087.089-.041.082-.052.131-.018.1-.018.154c0 .074.011.141.032.203s.053.111.095.149.093.056.154.056z"/></g><path d="M13.339 19.109H6.744v-1.175a.97.97 0 0 1 .969-.969h6.595v1.176a.97.97 0 0 1-.969.968z" fill="#5298d9"/><path d="M8.193 18.515v-.974h.354c.052 0 .098.011.14.032s.074.051.099.09.036.086.036.139c0 .024-.004.048-.011.072s-.017.045-.031.065a.13.13 0 0 1-.056.042c.03.008.055.021.074.041a.21.21 0 0 1 .044.068.33.33 0 0 1 .022.08c.004.027.006.052.006.076 0 .051-.013.097-.038.137s-.06.073-.103.096-.09.036-.142.036h-.394zm.169-.146h.208c.027 0 .052-.006.075-.02s.04-.032.053-.055.02-.051.02-.081a.14.14 0 0 0-.02-.074c-.013-.023-.031-.042-.053-.056s-.048-.022-.075-.022h-.208v.308zm0-.451h.166c.034 0 .064-.01.088-.032s.036-.049.036-.085-.012-.066-.036-.085-.054-.029-.088-.029h-.166v.231zm.953.615c-.064 0-.122-.017-.175-.05s-.095-.077-.126-.132-.047-.117-.047-.184c0-.051.009-.099.027-.143s.043-.083.075-.117a.36.36 0 0 1 .111-.078c.042-.019.087-.029.135-.029.064 0 .122.016.175.049a.37.37 0 0 1 .125.133c.032.056.047.117.047.185a.37.37 0 0 1-.027.142c-.018.044-.043.083-.074.116s-.069.06-.111.079-.087.029-.135.029zm0-.17a.16.16 0 0 0 .091-.027c.027-.018.048-.042.064-.072a.21.21 0 0 0 .023-.097c0-.036-.008-.069-.024-.099s-.038-.054-.065-.072-.057-.026-.089-.026a.16.16 0 0 0-.091.027c-.027.018-.048.042-.064.072s-.023.063-.023.098.008.07.024.099.038.053.065.071.057.026.089.026zm.764.17c-.064 0-.122-.017-.174-.05s-.095-.077-.126-.132-.047-.117-.047-.184c0-.051.009-.099.027-.143s.043-.083.075-.117.068-.059.11-.078a.33.33 0 0 1 .135-.029.32.32 0 0 1 .175.049c.053.033.095.078.126.133s.047.117.047.185a.37.37 0 0 1-.027.142c-.018.044-.043.083-.075.116s-.068.06-.11.079-.087.029-.136.029zm0-.17c.034 0 .065-.009.091-.027s.049-.042.064-.072.023-.062.023-.097-.008-.069-.024-.099-.037-.054-.064-.072-.057-.026-.09-.026-.063.009-.09.027-.048.042-.064.072-.024.063-.024.098.009.07.025.099.038.053.065.071.056.026.088.026zm.685.164c-.036-.002-.071-.01-.104-.022s-.064-.029-.09-.05-.046-.047-.06-.077l.143-.061c.006.009.015.019.028.03s.027.019.045.026.036.01.057.01.034-.002.05-.007.029-.012.039-.023.015-.023.015-.039-.006-.031-.018-.04-.026-.017-.044-.022l-.052-.013a.54.54 0 0 1-.123-.041c-.037-.019-.068-.043-.091-.072s-.034-.065-.034-.107.012-.086.036-.119a.24.24 0 0 1 .095-.077c.04-.018.082-.027.127-.027.056 0 .106.011.152.034s.083.056.11.097l-.134.079c-.007-.011-.016-.021-.027-.031s-.025-.017-.04-.023-.03-.01-.047-.011-.039.001-.057.006-.03.012-.041.023-.016.026-.016.045.007.03.021.039a.17.17 0 0 0 .051.02l.056.015c.041.014.08.03.115.05s.065.043.087.071.032.062.031.102c0 .045-.013.084-.04.117s-.062.06-.104.077-.088.025-.136.021zm.779-.538h-.135v.526h-.17v-.526h-.103v-.17h.103v-.218h.17v.218h.135v.17zm.41.544c-.064 0-.122-.017-.175-.05s-.095-.077-.126-.132-.047-.117-.047-.185c0-.05.009-.098.027-.142s.043-.083.075-.117a.36.36 0 0 1 .111-.078c.042-.019.087-.029.135-.029.054 0 .104.011.149.034a.35.35 0 0 1 .115.095c.031.039.054.085.069.136a.39.39 0 0 1 .009.16h-.508c.007.026.017.049.032.069s.034.038.056.05.049.019.078.019.056-.007.081-.021.044-.035.06-.06l.173.041a.37.37 0 0 1-.126.151c-.056.039-.119.059-.188.059zm-.171-.435h.342c-.005-.028-.016-.054-.033-.076s-.036-.04-.061-.054a.16.16 0 0 0-.077-.02c-.028 0-.054.007-.078.02s-.043.031-.06.053-.027.048-.033.077zm1.05-.106c-.013-.008-.026-.015-.041-.02s-.03-.008-.048-.008c-.034 0-.063.009-.087.026s-.043.041-.056.071-.02.062-.02.098v.356h-.171v-.696h.17v.083c.023-.031.051-.055.083-.073a.21.21 0 0 1 .109-.028l.046.002c.015.001.029.003.042.007l-.027.182z" fill="#fff" fill-rule="nonzero"/><path d="M4.848 19.109c0-2.788.19-3.444 4.218-4.524h-.001C5.132 15.632 0 15.336 0 17.244v.897a.97.97 0 0 0 .968.968h3.88z" fill-opacity=".102"/><path d="M6.68 19.109v-1.175a1.03 1.03 0 0 1 .303-.73c.187-.187.439-.302.723-.302h4.511c1.029 0 2.084-1.365 2.084-4.479l.007 4.607H7.713a.9.9 0 0 0-.639.265c-.163.164-.265.39-.265.639v1.175h-.065-.064z" fill="#fff" fill-rule="nonzero"/></svg>