<?xml version="1.0" encoding="UTF-8"?>
<svg xmlns="http://www.w3.org/2000/svg" width="222" height="296" viewBox="0 0 5.6 7.479" shape-rendering="geometricPrecision" image-rendering="optimizeQuality" fill-rule="evenodd" xmlns:v="https://vecta.io/nano"><defs><linearGradient id="A" gradientUnits="userSpaceOnUse" x1="3.248" y1="6.6" x2="3.248" y2="-7.931"><stop offset="0" stop-color="#8f8f8f"/><stop offset="1" stop-color="#d5d5d5"/></linearGradient><linearGradient id="B" gradientUnits="userSpaceOnUse" x1="1.544" y1="3.562" x2="1.544" y2="-3.196"><stop offset="0" stop-color="#5a5a5a"/><stop offset="1" stop-color="#4d4d4d"/></linearGradient></defs><path d="M.379 0h4.842A.38.38 0 0 1 5.6.379V7.1a.38.38 0 0 1-.379.379H.379A.38.38 0 0 1 0 7.1V.379A.38.38 0 0 1 .379 0z" fill="url(#A)"/><path d="M5.221 7.479H2.64v-.46a.38.38 0 0 1 .378-.379H5.6v.46a.38.38 0 0 1-.379.379z" fill="#7c7c7c"/><path d="M1.898 7.479c0-1.091.074-1.348 1.65-1.771h0C2.009 6.118 0 6.002 0 6.749V7.1a.38.38 0 0 0 .379.379h1.519z" fill-opacity=".102"/><g fill="#d5d5d5" fill-rule="nonzero"><path d="M2.614 7.479v-.46c0-.111.046-.213.119-.286s.172-.118.283-.118h1.765c.403 0 .816-.534.816-1.753L5.6 6.665H3.019c-.098 0-.186.04-.25.104s-.104.152-.104.25v.46H2.64h-.026z"/><path d="M3.206 7.246v-.381h.139c.02 0 .039.004.055.013s.029.02.038.035.015.033.015.054c0 .01-.002.019-.004.028s-.007.018-.013.026-.013.013-.022.016c.012.003.022.009.029.016s.013.017.018.027.007.021.008.031.002.021.002.03a.1.1 0 0 1-.015.054.11.11 0 0 1-.04.037c-.016.009-.035.014-.055.014h-.155zm.067-.057h.081c.011 0 .021-.002.029-.008s.016-.012.021-.021.008-.02.008-.032-.003-.02-.008-.029-.012-.016-.021-.022-.018-.008-.029-.008h-.081v.12zm0-.176h.065c.013 0 .025-.004.034-.013s.014-.019.014-.033-.004-.026-.014-.033-.021-.012-.034-.012h-.065v.091zm.373.24c-.025 0-.048-.006-.069-.019s-.037-.03-.049-.052-.018-.046-.018-.072c0-.02.003-.039.01-.056a.17.17 0 0 1 .029-.046c.013-.013.027-.023.044-.03s.034-.012.053-.012c.025 0 .047.007.068.02s.037.03.049.052.019.046.019.072c0 .02-.004.038-.011.056s-.017.032-.029.045-.027.024-.044.031-.034.011-.052.011zm0-.066c.013 0 .025-.004.035-.011s.019-.016.025-.028.009-.024.009-.038-.003-.027-.009-.039-.015-.021-.025-.028-.023-.01-.035-.01-.025.003-.036.01-.019.017-.025.029-.009.024-.009.038.003.027.009.039.015.021.026.028.022.01.035.01zm.299.066c-.025 0-.048-.006-.069-.019s-.037-.03-.049-.052-.018-.046-.018-.072c0-.02.003-.039.01-.056s.017-.032.03-.046.026-.023.043-.03.034-.012.053-.012c.025 0 .048.007.068.02s.037.03.049.052.019.046.019.072c0 .02-.004.038-.011.056s-.017.032-.029.045-.027.024-.043.031-.034.011-.053.011zm0-.066c.013 0 .025-.004.035-.011s.019-.016.025-.028.009-.024.009-.038-.003-.027-.009-.039-.015-.021-.025-.028-.023-.01-.035-.01-.025.003-.036.01-.018.017-.025.029-.009.024-.009.038.003.027.01.039.015.021.025.028.022.01.035.01zm.268.064c-.014-.001-.028-.004-.041-.009s-.025-.011-.035-.019-.018-.019-.024-.03l.056-.024c.016.015.022.019.029.022s.014.004.022.004.014-.001.02-.003c.019-.013.021-.018.021-.025-.012-.019-.017-.022-.024-.024l-.021-.005c-.017-.003-.033-.009-.048-.016s-.026-.017-.035-.028-.014-.026-.014-.042.005-.033.014-.046.022-.024.038-.031.032-.01.049-.01.042.004.06.013.032.022.043.038l-.053.031c-.015-.016-.02-.019-.026-.021-.026-.005-.034-.004-.041-.002-.02.013-.022.019-.022.026.014.019.02.022.028.024s.015.003.022.006c.016.005.031.011.045.019s.026.017.034.028.013.024.012.04-.005.033-.015.046-.024.023-.041.03-.034.009-.053.008zm.304-.211h-.052v.206h-.067V7.04h-.04v-.066h.04v-.085h.067v.085h.052v.066zm.161.213c-.025 0-.048-.006-.068-.019s-.037-.03-.05-.052-.018-.046-.018-.072a.13.13 0 0 1 .011-.056c.007-.017.016-.032.029-.046s.027-.023.043-.03.034-.012.053-.012.041.005.058.014.033.021.045.037.022.033.027.053.007.041.004.063h-.199c.003.01.007.019.013.027s.013.014.022.019.019.008.03.008.022-.003.032-.009.017-.013.023-.023l.068.016a.14.14 0 0 1-.049.059.13.13 0 0 1-.074.023zm-.067-.17h.134c-.002-.011-.006-.021-.013-.03s-.014-.015-.024-.021-.019-.008-.03-.008-.021.003-.03.008-.017.012-.024.021-.011.019-.013.03zm.411-.041c-.022-.01-.028-.011-.035-.011-.013 0-.024.003-.034.01s-.017.016-.022.028-.007.024-.007.038v.139h-.067v-.272h.066v.032c.009-.012.02-.021.033-.028s.026-.011.042-.011c.024.001.029.002.035.004l-.011.071z"/></g><path d="M0 6.749V.577c0 3.818 5.279.599 5.279 3.427C5.279 6.595 0 5.538 0 6.749z" fill="url(#B)"/></svg>