<?xml version="1.0" encoding="UTF-8"?>
<svg xmlns="http://www.w3.org/2000/svg" width="202" height="270" viewBox="0 0 12.238 16.345" shape-rendering="geometricPrecision" image-rendering="optimizeQuality" fill-rule="evenodd" xmlns:v="https://vecta.io/nano"><defs><linearGradient id="A" gradientUnits="userSpaceOnUse" x1="5.796" y1="6.845" x2="5.796" y2="-5.963"><stop offset="0" stop-color="#c08e1a"/><stop offset="1" stop-color="#4d4d4d"/></linearGradient><linearGradient id="B" gradientUnits="userSpaceOnUse" x1="7.1" y1="14.426" x2="7.1" y2="-17.333"><stop offset="0" stop-color="#ffcd59"/><stop offset="1" stop-color="#fff"/></linearGradient></defs><path d="M.828 0H11.41a.83.83 0 0 1 .828.828v14.689a.83.83 0 0 1-.828.828H.828A.83.83 0 0 1 0 15.517V.828A.83.83 0 0 1 .828 0z" fill="url(#B)"/><path d="M0 14.75V1.26c0 5.643 11.538 1.309 11.538 7.49 0 5.664-11.538 3.354-11.538 6z" fill="url(#A)"/><path d="M2.992 9.672v-.448h-.448v-.288h.448v-.447h.288v.447h.447v.288H3.28v.448zm1.14.404v-.31l.219-.173.261-.223.248-.241a1.73 1.73 0 0 0 .185-.231c.048-.073.072-.136.072-.188a.3.3 0 0 0-.043-.159c-.028-.048-.066-.086-.112-.114s-.1-.043-.158-.043-.111.014-.158.043-.085.066-.114.114a.31.31 0 0 0-.043.159h-.347c0-.125.031-.238.091-.338a.69.69 0 0 1 .242-.238.64.64 0 0 1 .329-.087c.121 0 .232.029.332.089a.68.68 0 0 1 .239.24c.06.1.089.212.089.334a.56.56 0 0 1-.035.195.97.97 0 0 1-.1.198 1.82 1.82 0 0 1-.151.201l-.191.208-.22.217h.707v.347H4.132zm2.374.037c-.116 0-.221-.027-.316-.08s-.176-.128-.245-.223a1.08 1.08 0 0 1-.159-.329c-.037-.125-.055-.258-.055-.401a1.41 1.41 0 0 1 .055-.401 1.08 1.08 0 0 1 .159-.329c.069-.095.15-.169.245-.223s.2-.08.316-.08.221.026.316.08a.75.75 0 0 1 .244.223c.068.095.121.205.158.329s.056.259.056.401a1.37 1.37 0 0 1-.056.401c-.037.124-.09.234-.158.329a.75.75 0 0 1-.244.223c-.095.053-.2.08-.316.08zm0-.347c.102 0 .186-.032.252-.097s.116-.149.148-.253.049-.216.049-.336c0-.126-.018-.241-.052-.345s-.084-.187-.151-.248a.35.35 0 0 0-.246-.093c-.077 0-.143.019-.2.056a.46.46 0 0 0-.14.153.81.81 0 0 0-.083.22 1.2 1.2 0 0 0-.027.257 1.11 1.11 0 0 0 .05.335c.033.105.082.19.149.254a.35.35 0 0 0 .251.097zm1.157.31l1.15-1.992h.402l-1.15 1.992h-.402zm.245-1.128c-.078 0-.149-.019-.214-.057a.43.43 0 0 1-.156-.152c-.039-.065-.058-.137-.058-.217a.42.42 0 0 1 .059-.219.43.43 0 0 1 .157-.152.42.42 0 0 1 .212-.056c.078 0 .149.019.214.057a.43.43 0 0 1 .154.154.41.41 0 0 1 .058.216c0 .081-.02.153-.059.218a.43.43 0 0 1-.156.152.42.42 0 0 1-.211.056zm0-.238a.18.18 0 0 0 .188-.188c0-.053-.019-.097-.056-.134s-.081-.054-.132-.054-.097.018-.134.054-.057.081-.057.134.019.097.057.133.082.055.134.055zm1.062 1.356c-.079 0-.151-.019-.215-.059a.45.45 0 0 1-.154-.156.41.41 0 0 1-.057-.21c0-.082.02-.155.06-.219a.44.44 0 0 1 .156-.153.42.42 0 0 1 .21-.056.41.41 0 0 1 .219.059c.065.04.116.092.153.157s.056.136.056.212a.41.41 0 0 1-.057.213c-.039.065-.09.116-.155.155a.42.42 0 0 1-.216.057zm0-.237c.053 0 .098-.019.135-.056a.18.18 0 0 0 .056-.132c0-.053-.019-.098-.056-.135s-.082-.056-.135-.056a.18.18 0 0 0-.133.056c-.037.037-.055.082-.055.135a.18.18 0 0 0 .055.132c.037.037.082.056.133.056z" fill="#c08e1a" fill-rule="nonzero"/><path d="M2.708 9.514v-.495h-.495v-.32h.495v-.495h.32v.495h.495v.32h-.495v.495h-.32zm1.264.448v-.343l.242-.192.289-.247.274-.267a1.94 1.94 0 0 0 .206-.256c.053-.081.079-.15.079-.208 0-.064-.015-.123-.047-.176a.36.36 0 0 0-.125-.126c-.052-.032-.11-.048-.175-.048s-.122.016-.174.048-.095.073-.127.126-.047.112-.047.176h-.384a.71.71 0 0 1 .1-.374.76.76 0 0 1 .268-.264c.111-.064.232-.096.364-.096a.71.71 0 0 1 .368.098.76.76 0 0 1 .265.266.71.71 0 0 1 .099.37.61.61 0 0 1-.04.216 1.07 1.07 0 0 1-.11.219 1.99 1.99 0 0 1-.167.223l-.212.23-.243.241h.783v.384H3.972zm2.629.041a.7.7 0 0 1-.35-.089c-.105-.059-.196-.141-.272-.246a1.2 1.2 0 0 1-.176-.365c-.041-.139-.061-.286-.061-.444a1.55 1.55 0 0 1 .061-.444c.041-.138.1-.259.176-.364a.84.84 0 0 1 .272-.247.69.69 0 0 1 .35-.089c.128 0 .244.029.35.089s.195.141.27.247a1.23 1.23 0 0 1 .175.364 1.55 1.55 0 0 1 .062.444c0 .158-.02.305-.062.444s-.1.26-.175.365a.83.83 0 0 1-.27.246c-.106.059-.222.089-.35.089zm0-.384c.112 0 .205-.036.279-.107a.66.66 0 0 0 .164-.281 1.27 1.27 0 0 0 .053-.372 1.21 1.21 0 0 0-.057-.382c-.037-.115-.093-.207-.167-.275s-.164-.103-.272-.103c-.085 0-.159.021-.222.062a.51.51 0 0 0-.155.17c-.041.072-.072.152-.091.243a1.39 1.39 0 0 0-.03.285c0 .131.018.255.054.371s.092.21.166.282a.38.38 0 0 0 .278.107zm1.281.343l1.274-2.206H9.6L8.327 9.962h-.445zm.271-1.249a.46.46 0 0 1-.237-.063c-.072-.041-.13-.098-.173-.169s-.064-.151-.064-.24a.46.46 0 0 1 .065-.242c.044-.072.102-.128.174-.169s.15-.062.235-.062a.46.46 0 0 1 .237.063c.071.042.128.099.171.171a.46.46 0 0 1 .063.239c0 .09-.021.17-.065.241s-.101.128-.173.169a.46.46 0 0 1-.233.062zm0-.264a.2.2 0 0 0 .147-.061c.041-.04.061-.089.061-.147s-.02-.108-.061-.148-.09-.06-.147-.06a.21.21 0 0 0-.149.06c-.042.04-.062.089-.062.148s.021.107.062.147.091.061.149.061zm1.176 1.502c-.087 0-.167-.022-.238-.065a.49.49 0 0 1-.17-.174.45.45 0 0 1-.063-.232c0-.09.022-.171.065-.243a.47.47 0 0 1 .174-.169.45.45 0 0 1 .232-.062c.09 0 .171.022.243.066s.128.102.169.174.062.15.062.234a.46.46 0 0 1-.063.237c-.043.071-.1.128-.172.17s-.152.064-.239.064zm0-.263c.059 0 .109-.02.15-.061a.2.2 0 0 0 .061-.147c0-.059-.02-.109-.061-.15s-.091-.061-.15-.061a.2.2 0 0 0-.147.061c-.041.041-.061.091-.061.15a.2.2 0 0 0 .208.208z" fill="#d09e2a"/><path d="M2.425 9.357v-.544h-.543v-.35h.543V7.92h.351v.543h.543v.35h-.543v.544h-.351zm1.386.491v-.377l.266-.21.317-.271.3-.293c.093-.098.168-.192.226-.28s.087-.165.087-.229a.38.38 0 0 0-.051-.193c-.035-.058-.081-.104-.138-.139s-.121-.051-.191-.051-.134.017-.192.051a.39.39 0 0 0-.138.139.37.37 0 0 0-.052.193h-.422a.77.77 0 0 1 .111-.41.81.81 0 0 1 .293-.289.78.78 0 0 1 .4-.106.77.77 0 0 1 .403.107.83.83 0 0 1 .29.292c.073.122.109.258.109.406 0 .079-.014.158-.043.237a1.21 1.21 0 0 1-.121.241 2.35 2.35 0 0 1-.183.244l-.233.253-.267.264h.859v.421h-1.63zm2.884.045c-.141 0-.269-.032-.384-.098a.94.94 0 0 1-.298-.27 1.32 1.32 0 0 1-.193-.401c-.045-.151-.067-.313-.067-.486s.022-.335.067-.487.11-.285.193-.4.183-.206.298-.271.243-.097.384-.097.269.032.384.097a.93.93 0 0 1 .297.271 1.36 1.36 0 0 1 .192.4c.045.152.068.314.068.487s-.023.335-.068.486-.11.286-.192.401a.93.93 0 0 1-.297.27c-.115.066-.243.098-.384.098zm0-.422c.123 0 .225-.039.306-.117s.141-.181.18-.308.059-.263.059-.408a1.33 1.33 0 0 0-.063-.42.69.69 0 0 0-.183-.301c-.081-.075-.18-.112-.299-.112-.093 0-.174.022-.243.068s-.125.107-.17.186a.9.9 0 0 0-.1.267 1.44 1.44 0 0 0-.033.312 1.35 1.35 0 0 0 .06.407.71.71 0 0 0 .181.309c.081.078.183.117.305.117zm1.406.377l1.397-2.42h.488l-1.398 2.42h-.487zm.297-1.371c-.094 0-.181-.023-.26-.068a.52.52 0 0 1-.189-.186.49.49 0 0 1-.071-.263.5.5 0 0 1 .072-.266c.048-.078.111-.14.19-.185s.165-.068.258-.068a.51.51 0 0 1 .26.07.52.52 0 0 1 .187.186c.047.079.07.166.07.263a.5.5 0 0 1-.071.265c-.048.078-.111.14-.19.185s-.164.067-.256.067zm0-.289c.062 0 .116-.022.161-.066s.067-.098.067-.162-.022-.119-.067-.162-.099-.066-.161-.066a.23.23 0 0 0-.163.066c-.046.044-.068.098-.068.162a.22.22 0 0 0 .068.162c.046.044.1.066.163.066zm1.29 1.648a.49.49 0 0 1-.261-.072.54.54 0 0 1-.187-.19.5.5 0 0 1-.069-.255.5.5 0 0 1 .072-.266.53.53 0 0 1 .19-.186c.079-.046.164-.068.255-.068a.5.5 0 0 1 .266.072c.079.049.141.112.187.191a.51.51 0 0 1 .068.257c0 .095-.023.181-.07.26a.53.53 0 0 1-.189.187.5.5 0 0 1-.262.07zm0-.288c.065 0 .119-.023.164-.068a.22.22 0 0 0 .068-.161c0-.064-.023-.119-.068-.164s-.099-.067-.164-.067a.22.22 0 0 0-.161.067c-.045.045-.067.1-.067.164s.022.116.067.161a.22.22 0 0 0 .161.068z" fill="#e0ae3a"/><path d="M2.142 9.199v-.591h-.591v-.382h.591v-.591h.381v.591h.592v.382h-.592v.591h-.381zm1.508.535v-.41l.29-.229.344-.295.328-.319a2.35 2.35 0 0 0 .246-.305c.063-.097.095-.179.095-.248a.4.4 0 0 0-.057-.21c-.038-.064-.087-.114-.149-.152a.4.4 0 0 0-.208-.056.4.4 0 0 0-.209.056.43.43 0 0 0-.151.152c-.038.063-.056.133-.056.21h-.46a.85.85 0 0 1 .121-.448c.08-.132.187-.237.319-.314a.85.85 0 0 1 .436-.115c.16 0 .306.039.438.117a.89.89 0 0 1 .316.317c.079.133.119.281.119.443 0 .085-.016.171-.047.258s-.076.173-.132.261a2.37 2.37 0 0 1-.2.266l-.252.275-.291.287h.935v.459H3.65zm3.139.049a.83.83 0 0 1-.417-.106 1.02 1.02 0 0 1-.325-.294 1.44 1.44 0 0 1-.21-.437 1.85 1.85 0 0 1-.073-.529c0-.188.024-.365.073-.53s.119-.31.21-.436a1.02 1.02 0 0 1 .325-.294.83.83 0 0 1 .417-.106.83.83 0 0 1 .418.106c.126.071.234.169.323.294a1.47 1.47 0 0 1 .209.436 1.82 1.82 0 0 1 .074.53c0 .188-.024.364-.074.529s-.119.311-.209.437a.99.99 0 0 1-.323.294.83.83 0 0 1-.418.106zm0-.459c.135 0 .246-.042.334-.128a.77.77 0 0 0 .195-.335c.042-.138.064-.286.064-.444 0-.167-.022-.319-.067-.457s-.112-.246-.2-.328-.196-.122-.326-.122c-.101 0-.189.024-.264.074s-.136.117-.185.203a.98.98 0 0 0-.109.29c-.024.109-.036.222-.036.34a1.49 1.49 0 0 0 .065.443c.043.139.109.251.198.336a.46.46 0 0 0 .331.128zm1.531.41L9.84 7.1h.531L8.85 9.734h-.53zm.323-1.492a.55.55 0 0 1-.283-.075c-.086-.049-.155-.116-.206-.202s-.077-.18-.077-.286.026-.204.078-.29a.57.57 0 0 1 .207-.201.56.56 0 0 1 .281-.073.55.55 0 0 1 .283.075c.085.05.153.118.204.203s.076.181.076.286a.54.54 0 0 1-.078.288c-.052.085-.121.153-.206.202a.55.55 0 0 1-.279.073zm0-.314c.068 0 .126-.025.175-.073s.074-.107.074-.176a.24.24 0 0 0-.249-.248c-.068 0-.128.024-.177.071s-.075.107-.075.177.025.128.075.176.108.073.177.073zm1.404 1.793c-.104 0-.199-.026-.284-.078s-.153-.121-.203-.207a.54.54 0 0 1-.075-.277c0-.108.026-.205.078-.29s.121-.153.207-.203a.55.55 0 0 1 .277-.074c.108 0 .205.026.29.079s.153.122.203.208.074.179.074.28a.54.54 0 0 1-.076.282.58.58 0 0 1-.205.204.55.55 0 0 1-.286.076zm0-.314c.071 0 .13-.024.179-.073a.24.24 0 0 0 .073-.175c0-.071-.024-.13-.073-.179s-.108-.074-.179-.074a.24.24 0 0 0-.175.074c-.049.049-.073.108-.073.179a.24.24 0 0 0 .248.248z" fill="#efbd49"/><g fill-rule="nonzero"><path d="M1.858 9.042v-.64h-.639V7.99h.639v-.64h.413v.64h.639v.412h-.639v.64zm1.631.578v-.443l.314-.248.372-.319.354-.345a2.33 2.33 0 0 0 .266-.33c.069-.104.103-.194.103-.268a.44.44 0 0 0-.061-.227.47.47 0 0 0-.162-.164c-.067-.041-.142-.061-.225-.061s-.158.02-.226.061-.122.095-.163.164A.44.44 0 0 0 4 7.667h-.496c0-.179.043-.341.13-.484s.202-.256.345-.34a.92.92 0 0 1 .471-.124c.174 0 .332.042.474.126s.257.2.342.344a.92.92 0 0 1 .128.478c0 .092-.017.185-.051.279a1.38 1.38 0 0 1-.142.282c-.061.094-.133.191-.216.288l-.273.297-.315.311h1.011v.496H3.489zm3.395.053a.9.9 0 0 1-.452-.115c-.136-.077-.252-.182-.351-.318a1.53 1.53 0 0 1-.227-.472 2 2 0 0 1-.079-.572 2 2 0 0 1 .079-.573 1.55 1.55 0 0 1 .227-.471c.099-.136.215-.242.351-.319a.91.91 0 0 1 .452-.114.91.91 0 0 1 .452.114 1.09 1.09 0 0 1 .349.319c.097.136.172.292.226.471a2 2 0 0 1 .08.573c0 .203-.027.394-.08.572a1.6 1.6 0 0 1-.226.472c-.097.136-.214.241-.349.318a.9.9 0 0 1-.452.115zm0-.496c.145 0 .265-.046.36-.139s.166-.213.212-.362a1.62 1.62 0 0 0 .069-.48 1.6 1.6 0 0 0-.073-.494c-.049-.148-.121-.266-.216-.355s-.212-.132-.352-.132a.51.51 0 0 0-.286.08.64.64 0 0 0-.2.219c-.053.092-.093.197-.119.314s-.038.24-.038.368a1.62 1.62 0 0 0 .07.479c.047.15.118.271.214.363s.215.139.359.139zm1.654.443l1.645-2.849h.573L9.112 9.62h-.574zm.35-1.613a.6.6 0 0 1-.306-.081.62.62 0 0 1-.223-.218c-.055-.093-.083-.196-.083-.31a.59.59 0 0 1 .085-.313.62.62 0 0 1 .223-.218.6.6 0 0 1 .304-.079c.112 0 .213.027.306.081a.62.62 0 0 1 .221.22.59.59 0 0 1 .082.309.59.59 0 0 1-.084.312c-.057.092-.131.164-.223.217a.6.6 0 0 1-.302.08zm0-.34c.074 0 .137-.027.19-.079s.079-.115.079-.19-.026-.14-.079-.191a.26.26 0 0 0-.19-.077c-.074 0-.138.025-.192.077s-.08.115-.08.191.027.138.08.19.118.079.192.079zm1.518 1.939c-.112 0-.215-.028-.307-.085s-.165-.13-.22-.223a.58.58 0 0 1-.081-.3c0-.117.028-.221.085-.314s.131-.165.224-.219.192-.08.299-.08c.117 0 .222.029.314.086s.165.131.219.224a.59.59 0 0 1 .08.303c0 .111-.027.213-.082.305s-.129.166-.222.22-.196.083-.309.083zm0-.34c.076 0 .141-.026.194-.079s.079-.116.079-.189a.27.27 0 0 0-.079-.194c-.053-.053-.118-.079-.194-.079s-.136.027-.189.079-.079.118-.079.194.026.136.079.189.116.079.189.079z" fill="#fff"/><path d="M4.593 1.6V.767h.145V1.6h-.145zm.873-.308V1.6h-.145v-.305c0-.031-.007-.059-.019-.084s-.031-.045-.053-.06-.048-.023-.078-.023-.053.008-.074.023-.037.035-.048.06-.017.053-.017.084V1.6h-.145v-.595h.145v.07c.019-.026.043-.047.071-.063s.058-.024.093-.024c.055 0 .103.014.143.042a.27.27 0 0 1 .093.11c.022.046.033.097.034.152zm.471.308H5.75l-.217-.595h.155l.156.428.155-.428h.155l-.217.595zm.534.015c-.055 0-.104-.014-.149-.042a.31.31 0 0 1-.108-.114.31.31 0 0 1-.04-.157.33.33 0 0 1 .023-.122c.015-.038.037-.071.064-.1s.059-.051.095-.067a.28.28 0 0 1 .115-.025c.046 0 .089.01.128.03a.29.29 0 0 1 .098.08.33.33 0 0 1 .067.254H6.33c.005.022.014.042.027.059s.029.032.048.043.042.016.066.016.049-.006.069-.018.038-.029.052-.051l.148.035a.32.32 0 0 1-.108.129c-.048.033-.101.05-.161.05zm-.146-.372h.292c-.004-.024-.013-.045-.027-.065s-.032-.034-.052-.046-.043-.017-.067-.017-.046.006-.066.017a.16.16 0 0 0-.051.046c-.014.019-.024.041-.029.065zm.732.367c-.031-.002-.061-.008-.09-.018s-.054-.025-.076-.043-.039-.04-.051-.066l.122-.052c.005.008.013.016.023.025s.024.016.039.022a.13.13 0 0 0 .049.009c.015 0 .029-.002.043-.006s.025-.011.033-.019.013-.02.013-.034-.005-.026-.015-.034-.023-.015-.038-.019l-.045-.011a.49.49 0 0 1-.104-.035c-.033-.016-.059-.037-.078-.062s-.03-.056-.03-.091.011-.073.031-.102.048-.05.082-.066.07-.023.108-.023c.048 0 .091.01.13.029s.071.048.094.083l-.115.068c-.005-.009-.013-.018-.023-.026a.13.13 0 0 0-.034-.021c-.013-.005-.026-.008-.04-.009s-.034.001-.048.005-.027.011-.036.02-.013.022-.013.038.006.026.018.034.026.013.043.017l.048.013c.035.011.068.025.099.042a.25.25 0 0 1 .074.061c.018.024.027.053.026.087s-.011.072-.034.101-.053.05-.089.066-.075.021-.116.017zm.666-.46h-.116v.45h-.145v-.45h-.088v-.145h.088V.818h.145v.187h.116v.145zm-5.87 1.721c-.051 0-.096-.011-.134-.033s-.068-.053-.09-.09-.032-.079-.032-.125h.083c0 .03.007.058.021.083s.034.045.06.06.056.022.092.022c.03 0 .058-.007.085-.022s.047-.035.064-.06.024-.053.024-.083a.15.15 0 0 0-.028-.094c-.019-.026-.045-.044-.079-.057s-.071-.018-.114-.018v-.069c.059 0 .107-.013.143-.038s.053-.062.053-.111c0-.027-.007-.051-.021-.073s-.033-.039-.057-.052a.14.14 0 0 0-.074-.02c-.027 0-.052.006-.077.02s-.044.031-.059.052-.023.046-.023.073h-.083c0-.031.006-.061.019-.088s.031-.052.054-.073a.25.25 0 0 1 .077-.05c.029-.011.059-.017.091-.017.042 0 .08.01.116.031s.065.048.087.082.034.073.034.115-.011.078-.032.11-.049.057-.085.07c.031.01.057.026.078.047s.037.045.048.072.016.057.016.088c0 .046-.012.087-.036.125a.28.28 0 0 1-.094.09c-.039.022-.082.033-.127.033zm1.138-.907h.084v.892h-.084v-.111c-.02.038-.048.068-.084.092s-.079.034-.128.034c-.043 0-.084-.008-.121-.024s-.071-.039-.1-.067-.051-.062-.067-.1-.025-.078-.025-.121.008-.084.025-.122.039-.071.067-.1.062-.051.1-.067.078-.025.121-.025c.049 0 .092.012.128.035s.064.054.084.091v-.407zm-.211.827c.042 0 .079-.011.109-.032s.054-.048.071-.084.024-.074.024-.116-.008-.083-.025-.118-.04-.063-.07-.084-.067-.031-.109-.031-.081.011-.115.031-.062.049-.083.085-.031.074-.031.117.011.082.032.117.049.063.084.084a.22.22 0 0 0 .113.031zm.445-.53h.083v.595h-.083v-.595zm.042-.115c-.013 0-.025-.005-.034-.014s-.014-.02-.014-.033.005-.025.014-.034.021-.013.034-.013.025.004.034.013.014.02.014.034-.005.024-.014.033-.021.014-.034.014zm.331-.04v.155h.179v.084h-.179v.511h-.083v-.511h-.081v-.084h.081v-.155c0-.029.007-.055.021-.079s.033-.042.057-.056.05-.021.079-.021c.021 0 .042.004.061.012s.037.021.053.037l-.06.059c-.006-.008-.014-.014-.024-.018s-.02-.007-.03-.007a.07.07 0 0 0-.052.022c-.014.014-.022.031-.022.051zm.413 0v.155h.178v.084h-.178v.511h-.083v-.511h-.082v-.084h.082v-.155c0-.029.007-.055.021-.079s.033-.042.057-.056a.15.15 0 0 1 .079-.021c.021 0 .041.004.061.012a.17.17 0 0 1 .052.037l-.059.059c-.006-.008-.014-.014-.024-.018s-.02-.007-.03-.007c-.02 0-.038.007-.052.022s-.022.031-.022.051zm.521.765c-.054 0-.104-.014-.149-.042s-.081-.066-.108-.113a.32.32 0 0 1-.04-.157c0-.044.008-.085.023-.123a.33.33 0 0 1 .064-.099c.028-.029.059-.052.095-.068s.075-.024.115-.024a.29.29 0 0 1 .122.026c.037.017.069.042.096.073a.32.32 0 0 1 .061.11c.013.042.019.087.016.136h-.504a.24.24 0 0 0 .036.101c.019.03.044.053.074.071s.063.026.099.026.076-.01.108-.031.057-.049.077-.085l.084.02c-.024.053-.059.096-.107.129s-.102.05-.162.05zm-.211-.348h.423a.21.21 0 0 0-.034-.101c-.02-.031-.045-.056-.076-.074s-.065-.028-.102-.028-.07.009-.101.027-.055.043-.075.073-.031.065-.035.103zm.942-.181c-.01-.005-.021-.009-.032-.012s-.023-.004-.036-.004c-.034 0-.065.01-.092.029a.19.19 0 0 0-.065.077c-.016.032-.024.068-.024.107v.317H4.93v-.595h.083v.1c.023-.036.05-.065.084-.085s.069-.031.109-.031c.013 0 .025.001.037.002s.023.004.033.008l-.013.087zm.321.529c-.055 0-.105-.014-.15-.042s-.081-.066-.107-.113-.041-.1-.041-.157c0-.044.008-.085.024-.123s.036-.071.064-.099.058-.052.094-.068.075-.024.116-.024.084.009.121.026.069.042.096.073a.32.32 0 0 1 .061.11.4.4 0 0 1 .017.136h-.505a.24.24 0 0 0 .036.101c.02.03.044.053.074.071s.063.026.1.026.075-.01.107-.031.058-.049.077-.085l.084.02c-.023.053-.059.096-.107.129s-.102.05-.161.05zm-.212-.348h.423a.21.21 0 0 0-.034-.101c-.019-.031-.045-.056-.076-.074s-.064-.028-.101-.028-.071.009-.101.027-.056.043-.075.073a.23.23 0 0 0-.036.103zm1.131.013v.32H6.42v-.317c0-.04-.008-.075-.025-.107s-.039-.058-.067-.078a.16.16 0 0 0-.094-.028c-.034 0-.065.009-.093.028s-.049.045-.064.078-.024.067-.024.107v.317H5.97v-.595h.083v.1a.26.26 0 0 1 .082-.086c.033-.02.07-.03.11-.03.051 0 .095.013.134.04s.068.062.09.106.033.093.034.145zm.435-.191h-.143v.511h-.083v-.511h-.107v-.084h.107v-.186h.083v.186h.143v.084zm.695 0h-.142l-.001.511h-.083l.001-.511H7.3v-.084h.108l-.001-.186h.083l.001.186h.142v.084zm.35.526c-.054 0-.104-.014-.149-.042s-.081-.066-.108-.113a.32.32 0 0 1-.04-.157c0-.044.008-.085.023-.123a.33.33 0 0 1 .064-.099.29.29 0 0 1 .095-.068c.036-.016.075-.024.115-.024.055 0 .105.014.15.042a.31.31 0 0 1 .108.114c.026.047.04.1.04.158 0 .043-.008.083-.024.121s-.036.071-.063.1-.059.051-.095.067a.28.28 0 0 1-.116.024zm0-.083c.041 0 .077-.01.11-.032s.057-.049.076-.084a.23.23 0 0 0 .028-.113c0-.042-.009-.08-.028-.115a.23.23 0 0 0-.077-.084c-.032-.021-.069-.032-.109-.032s-.076.011-.109.032a.22.22 0 0 0-.076.084c-.019.035-.029.073-.029.115s.01.081.029.116a.24.24 0 0 0 .078.083c.033.02.068.03.107.03zm.873.068H8.76l-.166-.287-.119.142v.145h-.083v-.892h.083v.617l.268-.32h.109l-.202.24.206.355zm.344.015c-.055 0-.105-.014-.15-.042s-.08-.066-.107-.113a.31.31 0 0 1-.04-.157c0-.044.007-.085.023-.123s.037-.071.064-.099.058-.052.094-.068.075-.024.116-.024.084.009.122.026.069.042.095.073a.32.32 0 0 1 .061.11c.014.042.019.087.017.136h-.504c.004.038.016.072.036.101s.043.053.073.071.063.026.1.026.075-.01.107-.031.058-.049.077-.085l.085.02c-.024.053-.06.096-.108.129s-.102.05-.161.05zm-.212-.348h.423a.21.21 0 0 0-.034-.101c-.019-.031-.045-.056-.075-.074S9.237 2.32 9.2 2.32s-.071.009-.101.027-.056.043-.075.073-.031.065-.036.103zm1.131.013v.32h-.083v-.317c0-.04-.008-.075-.025-.107s-.038-.058-.066-.078-.06-.028-.095-.028-.065.009-.092.028a.2.2 0 0 0-.065.078c-.016.032-.024.067-.024.107v.317h-.083v-.595h.083v.1c.022-.037.05-.065.083-.086s.069-.03.109-.03c.051 0 .095.013.134.04s.069.062.091.106.033.093.033.145zm.321.331c-.033 0-.065-.006-.096-.018a.26.26 0 0 1-.08-.045c-.023-.019-.04-.04-.05-.065l.072-.03c.006.015.018.029.036.042s.036.023.059.031.044.012.066.012.046-.004.067-.012.039-.02.052-.035.02-.032.02-.052-.007-.039-.022-.052-.032-.022-.054-.029l-.067-.021c-.042-.012-.079-.025-.111-.038s-.057-.032-.075-.054-.027-.049-.027-.083.01-.068.03-.094.048-.047.081-.061.068-.022.106-.022a.28.28 0 0 1 .132.032c.04.021.069.049.086.084l-.067.039c-.007-.016-.018-.03-.034-.042s-.033-.021-.052-.028a.21.21 0 0 0-.06-.01c-.025-.001-.049.003-.071.01s-.039.02-.052.035-.02.033-.02.055.006.038.019.05.031.02.054.027l.075.024.102.039c.032.015.057.033.077.055s.029.049.028.083a.14.14 0 0 1-.032.093c-.021.027-.049.047-.083.061a.25.25 0 0 1-.109.019z"/></g><path d="M11.41 16.345H5.769V15.34a.83.83 0 0 1 .828-.829h5.641v1.006a.83.83 0 0 1-.828.828z" fill="#5298d9"/><path d="M7.008 15.837v-.833h.303c.044 0 .084.009.119.027s.064.044.085.078.031.073.031.118c0 .021-.003.041-.009.062s-.015.039-.027.055-.028.029-.048.037c.026.006.047.018.063.034s.029.036.038.059.016.045.019.068.005.045.005.065a.21.21 0 0 1-.033.117c-.022.035-.051.062-.087.082s-.078.031-.122.031h-.337zm.145-.125h.177c.024 0 .045-.005.064-.017s.035-.027.046-.047.017-.044.017-.069-.005-.044-.017-.063-.027-.036-.046-.049-.04-.018-.064-.018h-.177v.263zm0-.385h.141c.03 0 .055-.01.076-.028s.031-.042.031-.072-.01-.057-.031-.073-.046-.025-.076-.025h-.141v.198zm.814.525c-.054 0-.104-.014-.149-.042s-.081-.066-.108-.113-.04-.1-.04-.158a.33.33 0 0 1 .023-.122c.016-.038.037-.071.064-.1s.059-.051.095-.067.075-.024.115-.024c.055 0 .105.014.15.042s.081.066.108.113.04.101.04.158c0 .044-.008.084-.023.122s-.037.07-.064.099a.29.29 0 0 1-.095.068.28.28 0 0 1-.116.024zm0-.145a.14.14 0 0 0 .078-.023.17.17 0 0 0 .055-.061c.013-.026.02-.053.02-.084s-.007-.059-.021-.084-.032-.046-.055-.062-.049-.022-.077-.022-.054.007-.077.023-.041.036-.055.062-.02.053-.02.083a.17.17 0 0 0 .021.085c.014.026.033.046.056.061s.048.022.075.022zm.654.145c-.054 0-.104-.014-.149-.042s-.081-.066-.108-.113-.04-.1-.04-.158a.33.33 0 0 1 .023-.122c.016-.038.037-.071.064-.1s.059-.051.095-.067.075-.024.115-.024c.055 0 .105.014.15.042s.081.066.108.113.04.101.04.158c0 .044-.008.084-.023.122s-.037.07-.064.099a.29.29 0 0 1-.095.068.28.28 0 0 1-.116.024zm0-.145a.14.14 0 0 0 .078-.023.17.17 0 0 0 .055-.061c.013-.026.02-.053.02-.084s-.007-.059-.021-.084-.032-.046-.055-.062-.049-.022-.077-.022-.054.007-.077.023-.041.036-.054.062-.021.053-.021.083a.17.17 0 0 0 .021.085c.014.026.033.046.056.061s.048.022.075.022zm.586.14c-.031-.002-.061-.008-.089-.018s-.055-.025-.077-.043-.039-.04-.051-.066l.123-.052c.004.008.012.016.023.025s.023.016.038.022a.13.13 0 0 0 .049.009c.015 0 .03-.002.043-.006s.025-.01.034-.019.012-.02.012-.034-.005-.026-.015-.034-.022-.015-.038-.019l-.044-.011a.48.48 0 0 1-.105-.035.23.23 0 0 1-.078-.062c-.019-.025-.029-.056-.029-.091s.01-.073.031-.102.047-.05.081-.066.07-.023.109-.023c.047 0 .09.01.13.029a.24.24 0 0 1 .093.083l-.114.068c-.006-.009-.014-.018-.024-.026s-.021-.015-.033-.021-.026-.008-.04-.009-.034.001-.049.005-.026.011-.035.02-.014.022-.014.038.006.026.018.034.026.013.043.017l.049.013c.034.011.067.025.098.042s.055.037.074.061.028.053.027.087c0 .039-.012.072-.035.101s-.052.051-.089.066-.075.021-.116.017zm.666-.46h-.115v.45h-.145v-.45h-.088v-.145h.088v-.187h.145v.187h.115v.145zm.351.465c-.055 0-.105-.014-.15-.042a.31.31 0 0 1-.147-.271c0-.043.007-.084.023-.122s.037-.071.064-.1a.3.3 0 0 1 .094-.067c.037-.016.075-.024.116-.024a.27.27 0 0 1 .127.029c.039.019.072.046.099.081s.046.072.059.116a.33.33 0 0 1 .008.137h-.435a.17.17 0 0 0 .028.059c.012.018.028.032.048.043a.14.14 0 0 0 .066.016c.025.001.048-.006.069-.018s.038-.029.052-.051l.148.035a.32.32 0 0 1-.108.129.28.28 0 0 1-.161.05zm-.146-.372h.292c-.004-.024-.013-.045-.027-.065a.18.18 0 0 0-.053-.046c-.02-.011-.042-.017-.066-.017s-.046.006-.066.017-.037.027-.052.046-.023.041-.028.065zm.898-.09c-.011-.008-.022-.013-.035-.018s-.026-.006-.041-.006c-.029 0-.054.007-.075.022s-.037.036-.048.061-.016.053-.016.083v.305h-.147v-.595h.146v.07c.019-.026.043-.047.071-.062s.058-.023.093-.023l.039.001c.013.001.025.003.036.006l-.023.156z" fill="#fff" fill-rule="nonzero"/><path d="M4.147 16.345c0-2.385.163-2.946 3.608-3.869l-.001-.001C4.39 13.371 0 13.118 0 14.75v.767a.83.83 0 0 0 .828.828h3.319z" fill-opacity=".102"/><path d="M5.714 16.345V15.34a.88.88 0 0 1 .259-.624c.16-.16.375-.259.618-.259h3.859c.88 0 1.782-1.167 1.782-3.831l.006 3.941H6.597a.77.77 0 0 0-.773.773v1.005h-.055-.055z" fill="#fff" fill-rule="nonzero"/></svg>