<?xml version="1.0" encoding="UTF-8"?>
<svg xmlns="http://www.w3.org/2000/svg" width="54" height="54" viewBox="0 0 1.646 1.646" shape-rendering="geometricPrecision" image-rendering="optimizeQuality" fill-rule="evenodd" xmlns:v="https://vecta.io/nano"><path d="M.823 0c.455 0 .823.368.823.823s-.368.823-.823.823S0 1.278 0 .823.368 0 .823 0z" fill-opacity=".8"/><g fill-rule="nonzero"><path d="M1.045 1.037c.018 0 .033-.015.033-.033V.673c0-.117-.013-.195-.043-.254C.995.339.923.298.823.298S.652.339.611.419C.581.478.568.556.568.673v.331c0 .018.015.033.033.033h.023c.018 0 .033-.015.033-.033V.673C.657.609.661.518.69.459.716.409.756.387.823.387s.108.022.133.072a.52.52 0 0 1 .033.214v.331c0 .018.015.033.033.033h.023z" fill="#aaa"/><path d="M1.183 1.201c0 .024-.02.044-.045.044h-.63c-.025 0-.045-.02-.045-.044V.71c0-.025.02-.045.045-.045h.63c.025 0 .045.02.045.045v.491z" fill="#ffab15"/><path d="M.508.665c-.02 0-.036.016-.036.036v.491c0 .019.016.035.036.035h.63c.02 0 .036-.016.036-.035V.701c0-.02-.016-.036-.036-.036h-.63z" fill="#ffc50b"/><path d="M.965.665H.508c-.02 0-.036.016-.036.036v.458L.965.665z" fill="#ffd91f"/><path d="M.916.9C.916.849.875.807.823.807S.73.849.73.9.769.974.769.974l-.015.121.131.009L.872.989C.877.974.916.953.916.9z" fill="#ffab15"/><path d="M.739.909c0 .04.035.066.035.066.01.009.011.014.01.019l-.02.101.111.009-.013-.11C.865.982.869.979.872.975S.907.951.907.909.87.825.823.825.739.863.739.909z" fill="#b76732"/><path d="M.663.73C.671.751.646.771.633.785L.585.838C.573.851.553.873.533.867S.509.831.509.811.504.748.519.727.559.711.581.71.639.708.654.719z" fill="#ffea94"/></g></svg>