<?xml version="1.0" encoding="UTF-8"?>
<svg xmlns="http://www.w3.org/2000/svg" width="222" height="296" viewBox="0 0 9.374 12.519" shape-rendering="geometricPrecision" image-rendering="optimizeQuality" fill-rule="evenodd" xmlns:v="https://vecta.io/nano"><defs><linearGradient id="A" gradientUnits="userSpaceOnUse" x1="4.422" y1="11.496" x2="4.423" y2="-25.853"><stop offset="0" stop-color="#ff458d"/><stop offset="1" stop-color="#e2e2e2"/></linearGradient><linearGradient id="B" gradientUnits="userSpaceOnUse" x1="3.055" y1="5.822" x2="3.055" y2="-5.069"><stop offset="0" stop-color="#ce1059"/><stop offset="1" stop-color="#4d4d4d"/></linearGradient></defs><path d="M.634 0h8.105c.349 0 .635.285.635.634v11.251c0 .349-.286.634-.635.634H.634c-.349 0-.634-.285-.634-.634V.634C0 .285.285 0 .634 0z" fill="url(#A)"/><path d="M3.177 12.519c0-1.826.124-2.256 2.763-2.963l-.001-.001C3.362 10.241 0 10.047 0 11.298v.587c0 .349.285.634.634.634h2.543z" fill="#161616" fill-opacity=".102"/><path d="M8.739 12.519h-4.32v-.77c0-.349.285-.634.634-.634h4.321v.77c0 .349-.286.634-.635.634z" fill="#5298d9"/><path d="M4.376 12.519v-.77c0-.186.076-.355.199-.478a.66.66 0 0 1 .474-.197h2.955c.674 0 1.365-.895 1.365-2.935l.005 3.018H5.053a.59.59 0 0 0-.418.174c-.107.108-.174.256-.174.418v.77h-.042-.043zm.992-.389v-.638H5.6c.034 0 .064.007.091.021s.049.034.065.059.024.056.024.091c0 .016-.002.031-.007.047s-.012.03-.021.043a.09.09 0 0 1-.036.028c.019.005.035.013.048.026s.022.028.029.045.012.035.014.052l.004.05a.16.16 0 0 1-.025.09c-.017.026-.039.047-.067.063s-.059.023-.093.023h-.258zm.111-.095h.136c.018 0 .034-.005.049-.013s.026-.021.035-.037.013-.033.013-.053-.004-.033-.013-.048-.021-.027-.035-.037-.031-.014-.049-.014h-.136v.202zm0-.296h.108c.023 0 .042-.007.058-.021s.024-.032.024-.055-.008-.043-.024-.056-.035-.019-.058-.019h-.108v.151zm.624.403a.22.22 0 0 1-.115-.032c-.034-.022-.062-.051-.082-.087a.24.24 0 0 1-.031-.121.24.24 0 0 1 .018-.093c.012-.029.028-.055.049-.077s.045-.039.072-.051.057-.019.089-.019c.042 0 .08.011.114.032s.062.051.083.087a.25.25 0 0 1 .03.121.26.26 0 0 1-.017.093c-.012.029-.028.054-.049.076s-.045.04-.073.052a.22.22 0 0 1-.088.019zm0-.111a.1.1 0 0 0 .059-.018c.018-.012.032-.027.042-.047a.14.14 0 0 0 .015-.064c0-.023-.005-.045-.015-.065s-.025-.035-.043-.047-.037-.017-.058-.017-.042.006-.06.018-.031.027-.041.047-.016.041-.016.064.005.046.016.065a.13.13 0 0 0 .043.047c.017.011.037.017.058.017zm.501.111a.22.22 0 0 1-.115-.032c-.034-.022-.062-.051-.082-.087a.24.24 0 0 1-.031-.121.24.24 0 0 1 .018-.093c.012-.029.028-.055.049-.077s.045-.039.072-.051.057-.019.089-.019c.042 0 .08.011.114.032s.062.051.083.087a.25.25 0 0 1 .03.121.26.26 0 0 1-.066.169c-.021.022-.045.04-.073.052a.22.22 0 0 1-.088.019zm0-.111a.1.1 0 0 0 .059-.018c.018-.012.032-.027.042-.047a.14.14 0 0 0 .015-.064c0-.023-.005-.045-.015-.065s-.025-.035-.043-.047-.037-.017-.058-.017-.042.006-.06.018-.031.027-.041.047-.016.041-.016.064.005.046.016.065a.13.13 0 0 0 .043.047c.017.011.037.017.058.017zm.448.107c-.024-.001-.046-.006-.068-.014a.2.2 0 0 1-.059-.033c-.017-.014-.03-.031-.039-.05l.094-.04c.003.006.009.012.018.019s.018.013.029.017.024.007.037.007.023-.002.034-.005.019-.008.025-.015.01-.015.01-.026-.004-.02-.012-.026-.017-.011-.029-.014l-.034-.009c-.029-.006-.055-.014-.08-.027a.18.18 0 0 1-.06-.047c-.015-.019-.022-.042-.022-.07s.007-.056.023-.078.037-.038.063-.05a.19.19 0 0 1 .083-.018c.036 0 .069.008.1.023s.054.036.071.063l-.088.052c-.004-.007-.01-.014-.017-.02a.14.14 0 0 0-.026-.016c-.01-.004-.02-.006-.031-.007a.14.14 0 0 0-.037.004c-.012.003-.02.008-.027.015s-.011.017-.011.03.005.02.014.025.02.01.033.013l.037.01a.47.47 0 0 1 .076.033c.023.012.042.028.056.047s.021.04.021.066-.009.055-.027.077-.04.039-.068.051a.19.19 0 0 1-.089.013zm.51-.352h-.088v.344h-.111v-.344h-.068v-.111h.068v-.143h.111v.143h.088v.111zm.269.356a.22.22 0 0 1-.115-.032c-.034-.022-.061-.051-.082-.087a.25.25 0 0 1-.031-.121.24.24 0 0 1 .018-.093c.012-.029.028-.055.049-.077s.045-.039.073-.051a.22.22 0 0 1 .088-.019.23.23 0 0 1 .098.022c.03.015.054.036.075.062s.036.056.045.089.012.069.006.105h-.332c.004.017.011.032.02.046s.022.024.037.032a.12.12 0 0 0 .051.013c.019 0 .037-.005.053-.014s.029-.023.04-.039l.113.026c-.018.041-.046.074-.083.099s-.078.039-.123.039zm-.112-.285h.224c-.003-.018-.01-.035-.021-.05s-.024-.026-.04-.035-.033-.013-.051-.013-.035.004-.051.013-.028.02-.039.035-.018.031-.022.05zm.688-.069c-.008-.006-.017-.01-.027-.014s-.02-.005-.031-.005c-.022 0-.041.006-.057.018s-.029.027-.037.046a.15.15 0 0 0-.013.064v.233H8.13v-.455h.111v.053c.015-.02.034-.036.055-.047s.045-.018.071-.018l.03.001c.01 0 .019.002.028.005l-.018.119z" fill="#fff" fill-rule="nonzero"/><path d="M0 11.298V.965c0 6.393 8.837 1.003 8.837 5.737C8.837 11.04 0 9.271 0 11.298z" fill="url(#B)"/></svg>