<?xml version="1.0" encoding="UTF-8"?>
<svg xmlns="http://www.w3.org/2000/svg" width="222" height="296" viewBox="0 0 7.874 10.516" shape-rendering="geometricPrecision" image-rendering="optimizeQuality" fill-rule="evenodd" xmlns:v="https://vecta.io/nano"><defs><linearGradient id="A" gradientUnits="userSpaceOnUse" x1="2.77" y1="4.95" x2="2.77" y2="-4.406"><stop offset="0" stop-color="#9f3ea8"/><stop offset="1" stop-color="#4d4d4d"/></linearGradient><linearGradient id="B" gradientUnits="userSpaceOnUse" x1="4.483" y1="9.353" x2="4.483" y2="-17.002"><stop offset="0" stop-color="#da7de3"/><stop offset="1" stop-color="#fcfcfc"/></linearGradient></defs><path d="M.533 0h6.808c.293 0 .533.24.533.533v9.45c0 .293-.24.533-.533.533H.533c-.293 0-.533-.24-.533-.533V.533C0 .24.24 0 .533 0z" fill="url(#B)"/><path d="M7.341 10.516H3.712v-.647c0-.293.239-.533.532-.533h3.63v.647c0 .293-.24.533-.533.533z" fill="#5298d9"/><path d="M2.668 10.516c0-1.534.105-1.895 2.321-2.489v-.001C2.824 8.603 0 8.44 0 9.49v.493c0 .293.24.533.533.533h2.135z" fill-opacity=".102"/><path d="M3.676 10.516v-.647c0-.156.064-.298.167-.401s.241-.166.398-.166h2.482c.567 0 1.147-.752 1.147-2.465l.004 2.535h-3.63c-.136 0-.261.056-.351.146s-.146.215-.146.351v.647h-.035-.036zm.833-.327v-.535h.195c.028 0 .054.005.077.017a.13.13 0 0 1 .054.05c.013.022.02.047.02.076 0 .013-.002.026-.006.039a.1.1 0 0 1-.017.036c-.008.011-.018.019-.031.024.017.004.03.011.041.022s.018.023.024.038a.18.18 0 0 1 .012.044c.002.015.003.028.003.041a.14.14 0 0 1-.021.076.15.15 0 0 1-.056.053c-.024.013-.05.019-.078.019h-.217zm.093-.08h.114c.015 0 .029-.004.041-.011s.023-.018.03-.031a.09.09 0 0 0 .011-.044.08.08 0 0 0-.011-.04c-.007-.013-.017-.024-.03-.031s-.026-.012-.041-.012h-.114v.169zm0-.248h.091c.019 0 .035-.006.049-.018s.02-.027.02-.046-.007-.037-.02-.047a.08.08 0 0 0-.049-.016h-.091v.127zm.524.338c-.035 0-.067-.009-.096-.027s-.052-.043-.069-.073-.026-.064-.026-.101a.21.21 0 0 1 .015-.079c.01-.024.024-.046.041-.064s.038-.033.061-.043a.17.17 0 0 1 .074-.016c.035 0 .068.009.096.027s.053.042.07.073.025.065.025.102a.2.2 0 0 1-.014.078c-.01.024-.024.045-.042.064a.18.18 0 0 1-.06.043c-.023.01-.048.016-.075.016zm0-.093c.019 0 .036-.005.05-.015s.027-.023.035-.04.013-.034.013-.053-.004-.038-.013-.055-.021-.029-.036-.039-.031-.015-.049-.015-.035.005-.05.015-.026.023-.035.04a.12.12 0 0 0-.013.054c0 .02.005.038.014.055s.021.029.035.038.032.015.049.015zm.421.093c-.035 0-.067-.009-.096-.027s-.052-.043-.069-.073-.026-.064-.026-.101a.21.21 0 0 1 .015-.079c.01-.024.023-.046.041-.064s.038-.033.061-.043a.17.17 0 0 1 .074-.016c.035 0 .067.009.096.027s.052.042.07.073.025.065.025.102a.2.2 0 0 1-.015.078c-.01.024-.023.045-.041.064s-.037.033-.061.043-.047.016-.074.016zm0-.093c.019 0 .035-.005.05-.015s.027-.023.035-.04.013-.034.013-.053-.004-.038-.013-.055-.021-.029-.036-.039-.031-.015-.049-.015-.035.005-.05.015-.026.023-.035.04-.013.034-.013.054.005.038.013.055.021.029.036.038.031.015.049.015zm.377.09c-.02-.001-.039-.005-.058-.012s-.035-.016-.049-.028-.025-.026-.033-.042l.079-.034c.003.006.008.011.015.017s.015.01.025.014.02.006.031.006.019-.002.028-.004.016-.007.021-.013.008-.013.008-.021-.003-.017-.009-.022-.015-.01-.025-.012l-.028-.008a.3.3 0 0 1-.068-.022c-.02-.011-.037-.024-.05-.04s-.019-.036-.019-.059.007-.047.02-.065.031-.033.052-.043.045-.014.07-.014c.031 0 .059.006.084.018a.15.15 0 0 1 .06.054l-.074.043c-.003-.006-.008-.011-.014-.017s-.014-.009-.022-.013-.017-.005-.026-.005-.022 0-.031.003-.017.006-.023.013-.009.014-.009.024.004.017.012.022.017.008.028.011l.031.008a.35.35 0 0 1 .063.027c.02.011.036.024.048.04s.017.034.017.055-.007.047-.022.065-.034.033-.057.043-.049.013-.075.011zm.428-.296h-.074v.289h-.093V9.9h-.057v-.093h.057v-.121h.093v.121h.074V9.9zm.226.299c-.035 0-.067-.009-.096-.027s-.052-.043-.069-.073-.026-.065-.026-.102c0-.027.005-.053.015-.078s.023-.046.041-.064.037-.033.061-.043a.17.17 0 0 1 .074-.016c.03 0 .057.006.082.019s.046.03.063.052.03.047.038.075a.2.2 0 0 1 .005.088h-.279c.003.014.009.027.017.038s.019.02.031.027.027.01.043.011a.08.08 0 0 0 .045-.012c.014-.008.024-.019.033-.033l.095.023c-.015.033-.039.061-.069.083s-.066.032-.104.032zm-.094-.239h.188c-.003-.016-.009-.03-.018-.042s-.02-.022-.033-.03-.028-.011-.043-.011-.03.004-.043.011-.024.017-.033.03-.015.026-.018.042zm.578-.059c-.007-.004-.014-.008-.023-.011s-.016-.004-.026-.004c-.019 0-.035.005-.048.015a.09.09 0 0 0-.031.038c-.007.017-.011.035-.011.054v.196h-.094v-.382h.094v.045c.012-.017.028-.03.045-.04a.12.12 0 0 1 .061-.015h.025c.008.001.015.002.023.005l-.015.099z" fill="#fff" fill-rule="nonzero"/><path d="M0 9.49V.811c0 5.37 7.423.842 7.423 4.819C7.423 9.274 0 7.787 0 9.49z" fill="url(#A)"/></svg>