<?xml version="1.0" encoding="UTF-8"?>
<svg xmlns="http://www.w3.org/2000/svg" width="202" height="270" viewBox="0 0 10.481 13.998" shape-rendering="geometricPrecision" image-rendering="optimizeQuality" fill-rule="evenodd" xmlns:v="https://vecta.io/nano"><defs><linearGradient id="A" gradientUnits="userSpaceOnUse" x1="4.945" y1="12.853" x2="4.945" y2="-28.905"><stop offset="0" stop-color="#ff765e"/><stop offset="1" stop-color="#fff"/></linearGradient><linearGradient id="B" gradientUnits="userSpaceOnUse" x1="4.485" y1="6.349" x2="4.485" y2="-5.544"><stop offset="0" stop-color="#c0371f"/><stop offset="1" stop-color="#4d4d4d"/></linearGradient></defs><path d="M.709 0h9.062a.71.71 0 0 1 .71.709v12.579a.71.71 0 0 1-.71.709H.709A.71.71 0 0 1 0 13.288V.709A.71.71 0 0 1 .709 0z" fill="url(#A)"/><path d="M0 12.631V1.079C0 5.911 9.88 2.2 9.88 7.494c0 4.85-9.88 2.871-9.88 5.137z" fill="url(#B)"/><path d="M2.609 8.282V7.9h-.383v-.248h.383V7.27h.247v.382h.383V7.9h-.383v.382zm1.55.379a.57.57 0 0 1-.298-.08c-.088-.053-.158-.124-.21-.213a.57.57 0 0 1-.077-.291h.297c0 .053.013.101.039.144s.061.078.104.104a.28.28 0 0 0 .145.039c.052 0 .1-.013.143-.039s.078-.06.104-.104.039-.091.039-.144-.011-.101-.033-.146-.059-.079-.109-.106a.43.43 0 0 0-.198-.039h-.439l.181-.863h.838v.297h-.597l-.055.268.121.002a.64.64 0 0 1 .306.084c.088.052.158.121.208.209a.58.58 0 0 1 .074.294c0 .08-.015.155-.045.226a.59.59 0 0 1-.311.312.57.57 0 0 1-.227.046zm1.394 0c-.099 0-.189-.023-.271-.069s-.151-.109-.21-.191-.104-.175-.136-.282a1.19 1.19 0 0 1-.047-.343c0-.122.016-.236.047-.343a.9.9 0 0 1 .136-.282c.059-.081.129-.145.21-.191a.54.54 0 0 1 .271-.069c.099 0 .189.023.271.069s.151.11.209.191.103.175.135.282a1.19 1.19 0 0 1 .048.343 1.19 1.19 0 0 1-.048.343c-.032.107-.077.201-.135.282s-.128.145-.209.191a.54.54 0 0 1-.271.069zm0-.297c.087 0 .159-.028.216-.083a.5.5 0 0 0 .126-.217c.028-.09.042-.186.042-.288 0-.108-.015-.207-.044-.296a.49.49 0 0 0-.129-.212c-.057-.053-.127-.079-.211-.079-.066 0-.123.015-.171.048a.37.37 0 0 0-.12.131.64.64 0 0 0-.071.188 1.05 1.05 0 0 0-.023.22c0 .102.014.197.042.287a.51.51 0 0 0 .128.218c.057.055.129.083.215.083zm.991.265l.985-1.706h.343l-.984 1.706h-.344zm.209-.966c-.066 0-.127-.017-.183-.049a.36.36 0 0 1-.133-.13c-.033-.055-.05-.117-.05-.186s.017-.132.05-.187.079-.099.134-.131a.36.36 0 0 1 .182-.047c.067 0 .128.016.183.048s.1.077.133.132.049.117.049.185a.36.36 0 0 1-.05.187.38.38 0 0 1-.134.13c-.055.032-.115.048-.181.048zm0-.204c.044 0 .082-.016.114-.047s.047-.069.047-.114-.015-.083-.047-.114-.07-.047-.114-.047-.082.016-.114.047a.15.15 0 0 0-.049.114.15.15 0 0 0 .049.114c.032.031.07.047.114.047zm.91 1.162c-.068 0-.129-.017-.184-.051s-.099-.079-.132-.134-.049-.116-.049-.18c0-.07.017-.132.051-.187a.37.37 0 0 1 .134-.132c.056-.032.116-.048.18-.048a.34.34 0 0 1 .187.052.37.37 0 0 1 .132.134c.032.056.048.116.048.181a.35.35 0 0 1-.05.183.37.37 0 0 1-.132.132.36.36 0 0 1-.185.05zm0-.204c.045 0 .084-.016.115-.047s.048-.07.048-.114a.16.16 0 0 0-.048-.116c-.032-.032-.07-.047-.115-.047s-.082.016-.114.047-.047.071-.047.116.016.082.047.114.07.047.114.047z" fill="#c0371f" fill-rule="nonzero"/><path d="M2.366 8.148v-.424h-.424V7.45h.424v-.424h.274v.424h.424v.274H2.64v.424h-.274zm1.717.419c-.122 0-.232-.03-.33-.089s-.175-.137-.232-.235a.63.63 0 0 1-.086-.323h.329c0 .059.014.112.043.16s.068.086.116.115a.31.31 0 0 0 .16.042.31.31 0 0 0 .159-.042c.048-.029.086-.067.115-.115s.043-.101.043-.16a.35.35 0 0 0-.037-.161c-.025-.049-.065-.089-.12-.118s-.129-.043-.22-.043h-.486l.2-.956h.929v.329h-.662l-.06.297.133.002c.128.004.241.035.339.093a.62.62 0 0 1 .23.231.64.64 0 0 1 .083.326.62.62 0 0 1-.05.25.63.63 0 0 1-.139.206c-.059.06-.128.106-.205.14a.62.62 0 0 1-.252.051zm1.544 0a.6.6 0 0 1-.3-.077c-.09-.051-.167-.121-.232-.211a1 1 0 0 1-.151-.313c-.035-.118-.053-.244-.053-.379a1.33 1.33 0 0 1 .053-.38 1 1 0 0 1 .151-.313c.065-.09.142-.16.232-.211s.19-.076.3-.076.209.025.299.076.168.121.232.211a1.07 1.07 0 0 1 .15.313c.036.118.053.245.053.38a1.29 1.29 0 0 1-.053.379 1.07 1.07 0 0 1-.15.313c-.064.09-.142.16-.232.211s-.189.077-.299.077zm0-.33a.33.33 0 0 0 .239-.091c.063-.062.109-.142.14-.241a1.06 1.06 0 0 0 .046-.318 1.03 1.03 0 0 0-.049-.328.54.54 0 0 0-.143-.235c-.063-.059-.141-.088-.233-.088a.34.34 0 0 0-.19.053c-.053.036-.098.084-.133.146s-.061.13-.078.208a1.14 1.14 0 0 0-.026.244c0 .112.016.218.047.317a.56.56 0 0 0 .142.242c.063.061.142.091.238.091zm1.097.295l1.091-1.89h.38l-1.09 1.89h-.381zm.232-1.071c-.073 0-.141-.018-.203-.053a.42.42 0 0 1-.148-.145.39.39 0 0 1-.055-.205c0-.078.019-.147.056-.208s.087-.11.149-.145a.4.4 0 0 1 .201-.052c.073 0 .142.018.203.054s.11.084.146.145a.4.4 0 0 1 .055.206.39.39 0 0 1-.056.206.42.42 0 0 1-.148.145c-.061.035-.128.052-.2.052zm0-.225c.049 0 .091-.018.126-.052a.17.17 0 0 0 .052-.126c0-.049-.017-.093-.052-.127s-.077-.052-.126-.052-.091.018-.127.052-.054.076-.054.127a.17.17 0 0 0 .054.126c.036.034.078.052.127.052zm1.007 1.286a.39.39 0 0 1-.204-.056c-.061-.037-.109-.087-.145-.149s-.054-.127-.054-.198c0-.078.019-.147.056-.208s.087-.11.148-.146.128-.053.199-.053c.078 0 .147.019.208.057s.11.087.145.149.054.129.054.201-.018.141-.055.202a.41.41 0 0 1-.147.146.39.39 0 0 1-.205.055zm0-.225c.051 0 .093-.018.128-.053s.053-.077.053-.125-.017-.094-.053-.129-.077-.052-.128-.052a.17.17 0 0 0-.125.052c-.035.035-.053.078-.053.129s.018.09.053.125.077.053.125.053z" fill="#d0472f"/><path d="M2.124 8.013v-.465h-.465v-.301h.465v-.465h.3v.465h.465v.301h-.465v.465h-.3zm1.883.459c-.134 0-.254-.032-.362-.097s-.192-.15-.255-.258-.094-.225-.094-.354h.361c0 .064.016.123.047.175s.075.095.127.126a.34.34 0 0 0 .176.047c.064 0 .122-.016.174-.047s.095-.073.126-.126a.33.33 0 0 0 .048-.175.39.39 0 0 0-.041-.177c-.027-.054-.071-.097-.132-.129s-.141-.048-.241-.048h-.533l.219-1.048h1.019v.361h-.725l-.067.326.147.001c.14.005.264.039.371.103a.68.68 0 0 1 .253.253c.061.106.091.226.091.358 0 .097-.018.188-.055.274a.7.7 0 0 1-.152.227.74.74 0 0 1-.226.153c-.085.037-.178.055-.276.055zm1.694 0c-.121 0-.23-.028-.329-.083a.79.79 0 0 1-.255-.232c-.072-.099-.127-.213-.166-.343a1.44 1.44 0 0 1-.057-.417 1.48 1.48 0 0 1 .057-.417 1.12 1.12 0 0 1 .166-.342.79.79 0 0 1 .255-.232c.099-.056.208-.084.329-.084a.65.65 0 0 1 .328.084.78.78 0 0 1 .254.232c.071.098.126.213.165.342a1.44 1.44 0 0 1 .058.417c0 .148-.019.287-.058.417a1.15 1.15 0 0 1-.165.343.78.78 0 0 1-.254.232.66.66 0 0 1-.328.083zm0-.361c.105 0 .193-.033.262-.101s.12-.155.154-.263a1.2 1.2 0 0 0 .05-.35 1.16 1.16 0 0 0-.053-.359c-.036-.108-.088-.194-.157-.258s-.155-.096-.256-.096c-.08 0-.15.019-.208.058s-.108.092-.146.159a.79.79 0 0 0-.086.229c-.019.085-.028.175-.028.267 0 .124.017.24.051.349s.086.197.155.264a.36.36 0 0 0 .262.101zm1.203.323l1.197-2.073h.417L7.322 8.434h-.418zm.255-1.174c-.081 0-.155-.02-.222-.059a.45.45 0 0 1-.163-.159.43.43 0 0 1-.061-.225.43.43 0 0 1 .062-.228.45.45 0 0 1 .163-.159c.068-.038.141-.057.221-.057s.155.019.222.059a.45.45 0 0 1 .161.16.43.43 0 0 1 .06.225.43.43 0 0 1-.061.227c-.041.067-.096.119-.163.158s-.14.058-.219.058zm0-.248c.053 0 .099-.019.138-.057s.058-.084.058-.138a.19.19 0 0 0-.058-.139c-.038-.037-.085-.057-.138-.057s-.101.019-.14.057-.058.084-.058.139.019.1.058.138.086.057.14.057zm1.105 1.412a.42.42 0 0 1-.224-.062c-.067-.041-.12-.095-.16-.163a.43.43 0 0 1-.059-.218.43.43 0 0 1 .062-.228c.041-.067.095-.121.163-.16a.43.43 0 0 1 .218-.058.43.43 0 0 1 .228.062c.067.042.12.096.159.164a.43.43 0 0 1 .058.22c0 .081-.019.155-.059.222a.45.45 0 0 1-.162.16.43.43 0 0 1-.224.061zm0-.248a.19.19 0 0 0 .14-.057c.039-.039.058-.085.058-.138s-.019-.102-.058-.141a.19.19 0 0 0-.14-.058.19.19 0 0 0-.138.058c-.038.039-.058.086-.058.141s.02.099.058.138a.19.19 0 0 0 .138.057z" fill="#e0573f"/><path d="M1.881 7.878v-.506h-.506v-.327h.506v-.507h.327v.507h.506v.327h-.506v.506h-.327zm2.049.5c-.145 0-.276-.035-.393-.106a.78.78 0 0 1-.278-.281.75.75 0 0 1-.102-.385h.393a.36.36 0 0 0 .052.191c.034.057.08.103.138.137s.121.051.19.051a.37.37 0 0 0 .191-.051.4.4 0 0 0 .137-.137.37.37 0 0 0 .051-.191c0-.07-.014-.134-.044-.193s-.077-.105-.143-.14-.154-.052-.262-.052h-.581l.239-1.141h1.109v.393h-.79l-.073.355.16.001c.153.006.287.043.405.112s.209.16.275.276a.77.77 0 0 1 .099.389c0 .106-.02.205-.06.298s-.095.176-.166.247a.8.8 0 0 1-.246.167c-.093.04-.193.06-.301.06zm1.844 0c-.131 0-.25-.03-.357-.091s-.2-.145-.278-.252a1.23 1.23 0 0 1-.18-.373 1.59 1.59 0 0 1-.063-.454c0-.161.021-.313.063-.454a1.23 1.23 0 0 1 .18-.373c.078-.107.17-.191.278-.252a.71.71 0 0 1 .357-.091.71.71 0 0 1 .358.091.85.85 0 0 1 .277.252c.077.108.136.232.179.373s.063.293.063.454a1.59 1.59 0 0 1-.063.454c-.043.141-.102.265-.179.373a.86.86 0 0 1-.277.252.71.71 0 0 1-.358.091zm0-.393c.115 0 .21-.037.286-.11a.65.65 0 0 0 .167-.286 1.27 1.27 0 0 0 .055-.381 1.24 1.24 0 0 0-.058-.391c-.039-.118-.096-.211-.171-.281s-.168-.105-.279-.105c-.087 0-.162.021-.226.064a.5.5 0 0 0-.159.173c-.042.073-.073.156-.093.249a1.38 1.38 0 0 0-.031.291c0 .134.019.261.056.379s.093.215.169.288.17.11.284.11zm1.311.351L8.387 6.08h.454L7.539 8.336h-.454zm.277-1.278a.47.47 0 0 1-.242-.064.48.48 0 0 1-.177-.173c-.044-.073-.066-.154-.066-.245s.022-.175.067-.248.104-.13.177-.172a.48.48 0 0 1 .241-.063.47.47 0 0 1 .242.064c.073.043.131.101.175.174s.065.155.065.245a.46.46 0 0 1-.067.247c-.044.073-.104.13-.177.172a.47.47 0 0 1-.238.063zm0-.269c.058 0 .108-.021.15-.062s.063-.092.063-.151-.021-.11-.063-.151-.092-.061-.15-.061a.21.21 0 0 0-.152.061.2.2 0 0 0-.064.151c0 .059.021.109.064.151a.21.21 0 0 0 .152.062zm1.202 1.536c-.089 0-.17-.023-.243-.067a.51.51 0 0 1-.174-.177c-.043-.074-.065-.153-.065-.238 0-.092.023-.175.068-.248a.49.49 0 0 1 .177-.174c.073-.042.152-.063.237-.063a.46.46 0 0 1 .248.068c.074.045.132.104.174.178a.47.47 0 0 1 .063.239.46.46 0 0 1-.065.242c-.043.073-.102.131-.175.175a.48.48 0 0 1-.245.065zm0-.269c.06 0 .111-.021.153-.063s.063-.092.063-.15-.021-.111-.063-.153-.093-.063-.153-.063-.108.021-.15.063-.062.093-.062.153a.2.2 0 0 0 .062.15c.042.042.092.063.15.063z" fill="#ef664e"/><g fill-rule="nonzero"><path d="M1.639 7.743v-.547h-.548v-.354h.548v-.547h.353v.547h.547v.354h-.547v.547zm2.215.541c-.156 0-.298-.038-.425-.114a.85.85 0 0 1-.3-.304.81.81 0 0 1-.111-.417h.425c0 .076.019.144.056.206s.087.112.149.149.131.055.206.055a.4.4 0 0 0 .206-.055c.062-.037.111-.086.148-.149s.056-.13.056-.206a.45.45 0 0 0-.048-.208.35.35 0 0 0-.155-.152c-.072-.038-.166-.056-.283-.056H3.15l.258-1.234h1.199v.425h-.854l-.078.384.172.001a.91.91 0 0 1 .438.121c.127.074.226.173.297.298a.83.83 0 0 1 .107.421c0 .114-.021.222-.064.323s-.103.19-.18.266a.83.83 0 0 1-.265.18c-.101.044-.209.066-.326.066zm1.994 0a.77.77 0 0 1-.387-.099c-.116-.065-.216-.156-.3-.272a1.34 1.34 0 0 1-.195-.404c-.045-.153-.068-.316-.068-.49s.023-.338.068-.491.111-.287.195-.403.184-.208.3-.273a.78.78 0 0 1 .387-.098c.142 0 .271.032.387.098s.216.157.299.273a1.36 1.36 0 0 1 .194.403 1.7 1.7 0 0 1 .068.491 1.69 1.69 0 0 1-.068.49c-.046.153-.111.288-.194.404a.92.92 0 0 1-.299.272.77.77 0 0 1-.387.099zm0-.425c.124 0 .227-.04.309-.119s.141-.182.181-.31a1.37 1.37 0 0 0 .059-.411 1.34 1.34 0 0 0-.063-.423c-.041-.127-.103-.228-.184-.304a.43.43 0 0 0-.302-.113c-.094 0-.175.022-.244.068a.54.54 0 0 0-.172.188c-.046.079-.079.168-.101.269a1.41 1.41 0 0 0-.034.315 1.37 1.37 0 0 0 .061.41.72.72 0 0 0 .183.311c.082.079.184.119.307.119zm1.417.38l1.408-2.44h.492l-1.409 2.44h-.491zm.3-1.382a.51.51 0 0 1-.262-.069.52.52 0 0 1-.191-.187.5.5 0 0 1-.072-.265.51.51 0 0 1 .073-.269c.048-.079.112-.141.191-.186a.52.52 0 0 1 .261-.068.5.5 0 0 1 .261.07c.079.046.142.109.189.188a.5.5 0 0 1 .071.265c0 .098-.024.187-.072.266s-.112.141-.191.187-.165.068-.258.068zm0-.291c.062 0 .116-.023.162-.068s.068-.098.068-.162a.22.22 0 0 0-.068-.164c-.046-.044-.1-.066-.162-.066a.23.23 0 0 0-.165.066c-.046.044-.069.099-.069.164s.023.118.069.162.101.068.165.068zm1.3 1.661c-.097 0-.184-.025-.263-.073s-.142-.112-.189-.192-.069-.165-.069-.257c0-.099.024-.189.072-.268a.54.54 0 0 1 .192-.188c.08-.045.165-.068.257-.068.1 0 .189.024.268.073a.55.55 0 0 1 .188.192.51.51 0 0 1 .068.259.5.5 0 0 1-.07.262.53.53 0 0 1-.19.189.51.51 0 0 1-.264.071zm0-.292c.065 0 .12-.022.165-.067s.068-.1.068-.163a.22.22 0 0 0-.068-.165c-.045-.045-.1-.068-.165-.068s-.117.023-.162.068a.22.22 0 0 0-.068.165c0 .063.022.117.068.163a.22.22 0 0 0 .162.067z" fill="#fff"/><path d="M4.044 1.383c-.048 0-.094-.009-.136-.029a.34.34 0 0 1-.112-.079c-.032-.034-.057-.074-.075-.118s-.028-.093-.028-.143.01-.1.028-.144a.37.37 0 0 1 .075-.118.34.34 0 0 1 .112-.079c.042-.02.088-.029.136-.029a.32.32 0 0 1 .159.04c.049.026.089.062.121.106l-.111.06c-.02-.025-.045-.045-.075-.06S4.077.768 4.044.768s-.061.006-.088.019-.052.03-.073.053-.036.049-.048.078-.017.062-.017.096.006.065.017.095.028.055.049.078.045.04.072.053.057.019.088.019.065-.008.095-.023.054-.035.074-.06l.111.061c-.032.044-.072.079-.121.106a.32.32 0 0 1-.159.04zm.574 0c-.047 0-.09-.012-.128-.036a.27.27 0 0 1-.093-.097.28.28 0 0 1-.034-.135c0-.037.007-.072.02-.104s.031-.061.055-.086.05-.044.081-.058.064-.02.099-.02a.24.24 0 0 1 .128.036c.038.024.069.056.092.097a.27.27 0 0 1 .034.135c0 .037-.006.072-.02.104s-.031.061-.054.085-.051.044-.081.058-.064.021-.099.021zm0-.124c.024 0 .047-.007.066-.02s.036-.031.047-.052.017-.046.017-.072-.006-.05-.018-.072-.027-.04-.047-.053-.042-.019-.065-.019-.047.006-.067.02-.035.03-.046.053-.018.046-.018.071.006.051.018.073.028.039.048.052.041.019.065.019zm.334.111V.606h.124v.764h-.124zm.253 0V.606h.124v.764h-.124zm.474.013c-.047 0-.089-.012-.128-.036s-.069-.057-.092-.097a.27.27 0 0 1-.034-.135c0-.037.006-.072.019-.104s.032-.061.055-.086.051-.044.081-.058.064-.02.099-.02.076.008.109.025.062.04.085.069a.27.27 0 0 1 .05.1.27.27 0 0 1 .007.117h-.372a.17.17 0 0 0 .023.051c.011.015.025.027.042.036s.035.014.056.014.042-.005.06-.016.032-.025.044-.043l.127.029a.27.27 0 0 1-.093.111c-.041.029-.087.043-.138.043zm-.125-.319h.25c-.003-.02-.011-.038-.023-.055S5.754.98 5.736.97a.11.11 0 0 0-.057-.015c-.02 0-.039.005-.056.014a.13.13 0 0 0-.044.04c-.012.016-.021.035-.025.055zm.777.153l.112.06a.26.26 0 0 1-.088.077.23.23 0 0 1-.116.029c-.047 0-.089-.012-.128-.036s-.069-.057-.092-.097-.034-.085-.034-.135c0-.037.006-.072.02-.104s.031-.061.054-.086.051-.044.081-.058.064-.02.099-.02a.23.23 0 0 1 .116.029.26.26 0 0 1 .088.077l-.112.061C6.319 1 6.305.989 6.289.982a.11.11 0 0 0-.05-.011c-.024 0-.046.006-.066.02s-.035.031-.047.053-.017.046-.017.071.006.049.017.071.027.04.047.053.042.02.066.02c.018 0 .035-.004.051-.012s.029-.017.041-.03zm.477-.232h-.099v.385h-.125V.985h-.075V.861h.075v-.16h.125v.16h.099v.124zm-5.04 1.474c-.043 0-.081-.01-.114-.029s-.059-.045-.077-.077-.028-.068-.028-.107h.071c0 .026.006.05.018.071s.029.039.051.052.049.019.079.019.05-.007.073-.019.041-.03.055-.052.021-.045.021-.071c0-.032-.008-.059-.024-.081s-.039-.037-.068-.048-.061-.016-.097-.016v-.059c.05 0 .091-.011.122-.032s.046-.053.046-.095c0-.023-.007-.044-.019-.062s-.028-.034-.048-.046-.042-.016-.064-.016a.14.14 0 0 0-.066.016c-.021.012-.038.027-.051.046s-.019.039-.019.062h-.072a.18.18 0 0 1 .017-.076.2.2 0 0 1 .046-.062c.019-.018.041-.032.066-.042s.051-.016.078-.016c.036 0 .069.009.1.027s.055.041.074.07.029.063.029.099a.17.17 0 0 1-.027.094c-.018.029-.042.049-.073.06.027.009.049.022.067.04a.17.17 0 0 1 .04.062c.01.023.014.048.014.075 0 .039-.01.075-.03.107s-.048.058-.081.077-.07.029-.109.029zm.77-.013h-.074l-.17-.509h.069l.139.41.137-.41h.076l.137.41.138-.41h.07l-.171.509h-.073l-.14-.415-.138.415zm.607-.509h.071v.509h-.071v-.509zm.036-.1c-.011 0-.021-.004-.029-.011s-.012-.017-.012-.029a.04.04 0 0 1 .012-.029c.008-.007.018-.011.029-.011s.021.004.029.011a.04.04 0 0 1 .012.029c0 .012-.004.021-.012.029s-.018.011-.029.011zm.439.171h-.122l-.001.438h-.071l.001-.438h-.093v-.071h.093l-.001-.16h.071l.001.16h.122v.071zm.531.164v.274H4.08v-.272c0-.033-.007-.064-.021-.092s-.033-.049-.057-.065-.049-.025-.078-.025a.13.13 0 0 0-.079.025c-.022.016-.04.038-.053.065s-.02.059-.02.092v.272h-.071v-.764h.071v.335c.017-.032.039-.056.066-.071s.058-.023.091-.023c.044 0 .082.011.115.034s.059.053.078.091a.29.29 0 0 1 .029.124zm.509.284a.26.26 0 0 1-.082-.016.23.23 0 0 1-.069-.038c-.02-.017-.034-.035-.042-.056l.061-.026c.006.013.016.025.031.036a.17.17 0 0 0 .05.026c.019.007.038.01.057.01s.04-.003.058-.01.033-.016.044-.029.017-.028.017-.045-.006-.034-.018-.044a.14.14 0 0 0-.047-.026l-.057-.018a.7.7 0 0 1-.095-.032c-.028-.012-.049-.027-.065-.046S4.48 2.1 4.48 2.071s.009-.058.026-.081a.18.18 0 0 1 .069-.052c.028-.013.059-.019.091-.019.041 0 .079.009.113.027s.059.042.074.072l-.057.034c-.006-.014-.016-.026-.029-.036s-.028-.018-.045-.024-.034-.009-.052-.009-.041.003-.06.009-.034.017-.045.03-.017.028-.017.047.005.033.017.042.026.018.045.024l.065.021c.031.009.06.021.087.033s.049.028.066.047a.1.1 0 0 1 .024.071c0 .03-.009.057-.027.08s-.042.04-.071.052a.23.23 0 0 1-.094.017zm.706-.519h.071v.509h-.072l-.002-.095a.21.21 0 0 1-.07.078c-.03.02-.065.03-.107.03s-.072-.007-.105-.021-.061-.034-.086-.058-.044-.054-.058-.086-.021-.068-.021-.105a.26.26 0 0 1 .021-.104c.013-.032.032-.06.057-.085s.052-.043.084-.057.067-.021.103-.021c.043 0 .08.01.112.031s.056.046.075.079l-.002-.095zm-.178.453c.036 0 .068-.009.094-.028s.045-.042.059-.072.02-.065.019-.101-.009-.07-.024-.1-.035-.053-.062-.071-.057-.026-.093-.026-.069.009-.099.027-.053.043-.07.073-.025.064-.024.102.012.069.03.099.043.053.073.071a.19.19 0 0 0 .097.026zm.357.056v-.509h.072v.082c.017-.028.037-.05.057-.067s.048-.026.08-.026c.042 0 .079.011.108.032s.054.05.071.087c.018-.037.042-.066.073-.087a.18.18 0 0 1 .106-.032c.044 0 .081.012.112.034s.055.052.072.088.025.077.025.121v.277H6.25v-.277c0-.032-.005-.06-.016-.086s-.027-.047-.047-.062-.045-.023-.075-.023-.054.007-.075.023-.038.036-.05.062a.2.2 0 0 0-.018.086v.277h-.071v-.277a.2.2 0 0 0-.018-.086c-.012-.026-.029-.047-.05-.062s-.047-.023-.076-.023-.051.008-.071.024-.037.039-.049.066-.017.056-.017.087v.271h-.072zm1.095.013c-.047 0-.089-.012-.128-.036s-.069-.057-.092-.097-.035-.086-.035-.135c0-.037.007-.072.02-.104s.032-.061.055-.086.05-.044.081-.058.064-.021.099-.021a.24.24 0 0 1 .104.023.25.25 0 0 1 .082.062c.023.027.04.059.052.095s.017.074.015.116h-.432c.004.032.014.061.031.087s.037.045.063.06.054.022.085.023.065-.009.092-.027a.2.2 0 0 0 .066-.072l.072.016c-.02.045-.051.082-.092.111s-.087.043-.138.043zm-.181-.298h.362c-.003-.032-.012-.061-.029-.087s-.038-.048-.065-.063-.055-.024-.087-.024-.06.008-.087.023-.047.036-.064.063a.2.2 0 0 0-.03.088zm.934.295a.26.26 0 0 1-.082-.016.22.22 0 0 1-.069-.038c-.02-.017-.034-.035-.042-.056l.061-.026c.006.013.016.025.031.036s.031.02.05.026.038.01.057.01.04-.003.058-.01.032-.016.044-.029.017-.028.017-.045-.006-.034-.019-.044-.027-.019-.046-.026l-.057-.018a.77.77 0 0 1-.096-.032c-.027-.012-.049-.027-.064-.046s-.023-.042-.023-.071.009-.058.026-.081.04-.04.069-.052.058-.019.091-.019c.041 0 .079.009.113.027s.059.042.074.072l-.058.034c-.006-.014-.015-.026-.029-.036s-.028-.018-.045-.024-.033-.009-.051-.009-.042.003-.06.009-.034.017-.045.03-.018.028-.018.047.006.033.017.042.027.018.046.024l.065.021c.031.009.06.021.087.033s.049.028.066.047.024.042.024.071-.009.057-.028.08-.042.04-.071.052-.06.018-.093.017zm.28-.519h.071v.509h-.071v-.509zm.036-.1c-.012 0-.021-.004-.029-.011s-.013-.017-.013-.029.005-.021.013-.029.017-.011.029-.011.021.004.029.011.011.018.011.029-.003.021-.011.029-.018.011-.029.011zm.583.1h.071v.528c0 .032-.007.063-.021.091s-.033.054-.057.075-.051.039-.082.051-.062.018-.095.018-.07-.008-.102-.024-.062-.037-.086-.064-.042-.057-.052-.089l.066-.03c.006.025.018.048.036.069a.21.21 0 0 0 .063.048c.025.013.049.019.075.019a.2.2 0 0 0 .068-.013c.022-.009.042-.021.059-.036s.031-.032.041-.052.016-.041.016-.063v-.113c-.018.032-.042.058-.072.078s-.065.029-.104.029-.07-.007-.101-.021-.059-.033-.083-.058-.042-.053-.055-.085-.021-.067-.021-.104.007-.072.021-.104a.27.27 0 0 1 .055-.086.28.28 0 0 1 .083-.057c.031-.014.065-.021.101-.021s.074.01.104.029.054.046.072.078v-.093zm-.176.453c.035 0 .066-.009.092-.028s.045-.042.059-.072.021-.063.021-.099-.007-.069-.021-.099-.035-.055-.06-.073-.056-.027-.091-.027a.17.17 0 0 0-.094.027c-.029.018-.051.042-.068.072s-.025.064-.025.1.009.07.026.1.039.054.068.072.059.027.093.027zm.816-.218v.274H8.86v-.272a.2.2 0 0 0-.021-.092c-.014-.027-.033-.049-.057-.066s-.051-.024-.08-.024a.14.14 0 0 0-.08.024c-.023.017-.042.039-.055.066a.2.2 0 0 0-.021.092v.272h-.071v-.509h.071v.085c.019-.032.043-.056.071-.073a.17.17 0 0 1 .094-.027c.043 0 .081.012.114.035s.059.053.078.091.028.079.029.124z"/></g><path d="M9.771 13.998H4.94v-.861a.71.71 0 0 1 .71-.71h4.831v.861c0 .39-.32.71-.71.71z" fill="#5298d9"/><path d="M6.001 13.562v-.713h.26c.038 0 .072.008.102.023s.055.038.073.067.026.062.026.101c0 .018-.002.035-.007.053s-.013.033-.024.047-.024.025-.041.032c.022.005.04.015.054.029s.025.031.033.05.013.039.016.059.004.038.004.055c0 .038-.009.071-.028.101s-.043.053-.075.07-.066.026-.104.026h-.289zm.125-.106h.151c.021 0 .039-.005.055-.015s.03-.023.04-.041.014-.037.014-.059-.005-.037-.014-.054-.023-.03-.04-.041-.034-.016-.055-.016h-.151v.226zm0-.331h.121c.025 0 .046-.008.064-.023s.027-.036.027-.062-.009-.049-.027-.063-.039-.021-.064-.021h-.121v.169zm.697.45c-.047 0-.089-.012-.128-.036s-.069-.056-.092-.097-.034-.085-.034-.134c0-.038.006-.073.019-.105s.032-.061.055-.086a.27.27 0 0 1 .081-.057c.031-.014.064-.021.099-.021.047 0 .09.012.128.036s.07.056.092.097.035.086.035.136a.27.27 0 0 1-.02.103c-.013.033-.032.061-.055.086a.26.26 0 0 1-.081.058.25.25 0 0 1-.099.02zm0-.124c.025 0 .047-.006.067-.02s.035-.03.047-.052.016-.046.016-.071-.005-.051-.017-.073-.027-.039-.047-.052-.042-.02-.066-.02-.046.007-.066.02-.035.031-.047.053-.017.046-.017.072.006.051.018.072.027.039.047.052.042.019.065.019zm.56.124c-.047 0-.089-.012-.128-.036s-.069-.056-.092-.097-.034-.085-.034-.134c0-.038.006-.073.02-.105s.031-.061.054-.086.051-.043.081-.057.064-.021.099-.021c.047 0 .09.012.128.036s.07.056.093.097.034.086.034.136a.27.27 0 0 1-.02.103c-.013.033-.031.061-.055.086a.26.26 0 0 1-.081.058c-.03.013-.063.02-.099.02zm0-.124c.025 0 .047-.006.067-.02s.035-.03.047-.052.017-.046.017-.071-.006-.051-.018-.073-.027-.039-.047-.052-.042-.02-.066-.02-.046.007-.066.02-.035.031-.047.053-.017.046-.017.072.006.051.018.072.028.039.047.052.042.019.065.019zm.502.12c-.027-.001-.052-.007-.077-.016a.22.22 0 0 1-.065-.037.15.15 0 0 1-.044-.056l.105-.044c.004.006.011.013.02.021s.02.014.033.019.026.008.042.008.025-.002.037-.005.021-.009.028-.017a.04.04 0 0 0 .011-.029c0-.013-.004-.022-.013-.029s-.02-.013-.033-.016l-.038-.01c-.032-.006-.062-.016-.089-.03s-.05-.031-.067-.053-.025-.047-.025-.078.008-.062.026-.087.041-.043.07-.056a.21.21 0 0 1 .093-.02c.04 0 .078.008.111.025a.19.19 0 0 1 .08.071l-.098.058c-.005-.008-.011-.016-.02-.023s-.018-.013-.029-.017-.022-.007-.034-.008-.029.001-.042.004-.022.009-.03.018-.011.019-.011.032.005.022.015.029.023.011.037.014l.041.012c.03.009.058.021.085.036s.047.031.063.052.024.046.023.075-.01.061-.03.086-.045.043-.076.056-.064.018-.099.015zm.57-.394h-.099v.385h-.124v-.385h-.075v-.124h.075v-.16h.124v.16h.099v.124zm.3.398a.24.24 0 0 1-.128-.036c-.038-.024-.069-.056-.092-.097a.27.27 0 0 1-.034-.135c0-.037.006-.072.02-.104s.031-.061.055-.086.05-.043.081-.057.063-.021.098-.021.077.008.11.025.061.04.084.069a.27.27 0 0 1 .057.217h-.372a.15.15 0 0 0 .024.051c.011.015.024.027.041.036s.035.014.056.014.042-.005.06-.015.032-.026.044-.044l.127.03a.26.26 0 0 1-.093.11c-.041.029-.087.043-.138.043zm-.125-.318h.251a.14.14 0 0 0-.024-.056c-.012-.016-.027-.029-.045-.039a.11.11 0 0 0-.057-.015c-.02 0-.039.005-.056.015s-.032.022-.044.039a.15.15 0 0 0-.025.056zm.77-.078c-.01-.006-.019-.011-.03-.014s-.023-.006-.036-.006c-.024 0-.046.006-.063.019s-.032.03-.042.052a.18.18 0 0 0-.014.071v.261H9.09v-.509h.124v.06c.017-.022.038-.04.061-.053s.05-.02.08-.02l.034.001c.01 0 .021.002.03.005l-.019.133z" fill="#fff" fill-rule="nonzero"/><path d="M3.552 13.997c0-2.042.139-2.523 3.089-3.313H6.64c-2.881.766-6.64.55-6.64 1.947v.657a.71.71 0 0 0 .709.709h2.843z" fill-opacity=".102"/><path d="M4.893 13.998v-.861c0-.209.085-.398.222-.535s.322-.221.53-.221h3.304c.754 0 1.527-1 1.527-3.281l.005 3.375H5.65a.66.66 0 0 0-.662.662v.861H4.94h-.047z" fill="#fff" fill-rule="nonzero"/></svg>