<?xml version="1.0" encoding="UTF-8"?>
<svg xmlns="http://www.w3.org/2000/svg" width="37" height="37" viewBox="0 0 16.084 16.084" shape-rendering="geometricPrecision" image-rendering="optimizeQuality" fill-rule="evenodd" xmlns:v="https://vecta.io/nano"><g fill-rule="nonzero"><path d="M0 7.702C0 3.448 3.465 0 7.739 0c2.47 0 4.669 1.151 6.086 2.944 1.396 1.393 2.259 3.315 2.259 5.438 0 4.253-3.465 7.702-7.739 7.702a7.74 7.74 0 0 1-6.086-2.944A7.66 7.66 0 0 1 0 7.702z" fill="#333"/><path d="M.595 7.702c0-3.927 3.198-7.11 7.144-7.11s7.144 3.183 7.144 7.11-3.198 7.11-7.144 7.11S.595 11.629.595 7.702z" fill="#ff7158"/></g><path d="M10.319 5.085h0a.72.72 0 0 1 0 1.017l-1.6 1.6 1.6 1.6a.72.72 0 0 1 0 1.017h0a.72.72 0 0 1-1.017 0l-1.6-1.6-1.6 1.6a.72.72 0 0 1-1.017 0h0c-.279-.28-.279-.737 0-1.017l1.6-1.6-1.6-1.6c-.279-.28-.279-.737 0-1.017h0c.28-.279.737-.279 1.017 0l1.6 1.6 1.6-1.6c.28-.279.737-.279 1.017 0z" fill="#333"/></svg>