<?xml version="1.0" encoding="UTF-8"?>
<svg xmlns="http://www.w3.org/2000/svg" width="143" height="44" viewBox="0 0 261.846 80.16" shape-rendering="geometricPrecision" image-rendering="optimizeQuality" fill-rule="evenodd" xmlns:v="https://vecta.io/nano"><path d="M247.892 26.218c8.353 5.134 13.954 14.359 13.954 24.825v.001c0 16.008-13.107 29.116-29.115 29.116H38.415c-9.207 0-17.454-4.335-22.8-11.064a28.88 28.88 0 0 0 15.16 4.29h194.317c16.008 0 29.115-13.109 29.115-29.116v-.001c0-6.803-2.367-13.08-6.315-18.051z" fill="#333"/><path d="M30.775 15.153h83.664l13.494-13.494 13.494 13.494h83.665c16.013 0 29.115 13.105 29.115 29.116v.001c0 16.007-13.107 29.116-29.115 29.116H30.775C14.768 73.386 1.66 60.283 1.66 44.27v-.001c0-16.014 13.102-29.116 29.115-29.116z" fill="gray" fill-opacity=".2"/><path d="M30.775 13.493h82.977L126.76.486a1.66 1.66 0 0 1 2.346 0l13.007 13.007h82.979c16.929 0 30.774 13.847 30.774 30.776s-13.845 30.777-30.774 30.777H30.775C13.847 75.046 0 61.198 0 44.27s13.846-30.777 30.775-30.777zm83.664 3.32H30.775C15.677 16.813 3.32 29.17 3.32 44.269s12.356 27.457 27.455 27.457h194.317c15.097 0 27.455-12.358 27.455-27.456s-12.356-27.457-27.455-27.457h-83.665a1.66 1.66 0 0 1-1.173-.487L127.933 4.005l-12.299 12.299c-.301.313-.726.509-1.195.509z" fill="#333" fill-rule="nonzero"/></svg>