<?xml version="1.0" encoding="UTF-8"?>
<svg xmlns="http://www.w3.org/2000/svg" xmlns:xlink="http://www.w3.org/1999/xlink" width="570" height="138" viewBox="0 0 569.966 138.426" shape-rendering="geometricPrecision" image-rendering="optimizeQuality" fill-rule="evenodd" xmlns:v="https://vecta.io/nano"><style><![CDATA[.e{fill-opacity:.102}.f{fill-rule:nonzero}]]></style><defs><linearGradient id="A" x1="496.856" y1="74.65" x2="490.645" y2="-95.721" xlink:href="#K"><stop offset="0" stop-color="#ffd1e0"/><stop offset="1" stop-color="#fefefe"/></linearGradient><linearGradient id="B" x1="49.573" y1="81.815" x2="58.053" y2="-100.21" xlink:href="#K"><stop offset="0" stop-color="#cc8b5a"/><stop offset="1" stop-color="#fefefe"/></linearGradient><linearGradient id="C" x1="98.041" y1="57.332" x2="202.122" y2="1.086" xlink:href="#K"><stop offset="0" stop-color="#82d477"/><stop offset="1" stop-color="#fefefe"/></linearGradient><linearGradient id="D" x1="515.951" y1="63.008" x2="700.032" y2="147.045" xlink:href="#K"><stop offset="0" stop-color="#ffaec8"/><stop offset="1" stop-color="#9e3759"/></linearGradient><linearGradient id="E" x1="98.818" y1="56.338" x2="202.899" y2=".092" xlink:href="#K"><stop offset="0" stop-color="#6ec063"/><stop offset="1" stop-color="#ebecec"/></linearGradient><linearGradient id="F" x1="42.846" y1="73.48" x2="75.633" y2="-169.032" xlink:href="#K"><stop offset="0" stop-color="#5c1b00"/><stop offset="1" stop-color="#fefefe"/></linearGradient><linearGradient id="G" xlink:href="#A" x1="554.509" y1="41.201" x2="549.842" y2="-68.784"/><linearGradient id="H" x1="478.398" y1="74.844" x2="489.388" y2="5.249" xlink:href="#K"><stop offset="0" stop-color="#ed82a6"/><stop offset="1" stop-color="#fefefe"/></linearGradient><path id="I" d="M486.158 128.017c24.109 0 43.653 2.33 43.653 5.205s-19.544 5.205-43.653 5.205-43.653-2.33-43.653-5.205 19.544-5.205 43.653-5.205z"/><path id="J" d="M546.615 130.007c6.841 0 12.387 1.439 12.387 3.215s-5.546 3.216-12.387 3.216-12.387-1.439-12.387-3.216 5.545-3.215 12.387-3.215z"/><linearGradient id="K" gradientUnits="userSpaceOnUse"/></defs><path d="M441.634 55.226l-1.279-7.898c-2.743-4.629-3.825-10.829-2.724-19.175.604-4.582.358-9.26.296-14.225-.027-2.21-.359-3.88.545-6.067 1.32-3.189 6.169-4.103 9.721-2.84 5.253 1.869 9.909 5.12 14.864 7.68l2.55 21.178-23.973 21.347z" fill="#fbc7d8"/><path d="M454.875 31.937l-3.135-4.709c-2.291-4.367-3.991-9.65-6.888-14.496-1.465-2.452-3.944-1.561-3.93 1.171.032 6.178.01 11.151-.219 16.638-.172 4.114.397 8.143 2.235 11.628l4.573 2.276 7.364-12.508z" fill="#ef84a6"/><path d="M445.249 13.412c-1.264-.497-2.543.515-2.532 2.48.031 6.178.009 11.151-.22 16.638-.172 4.112 1.027 6.872 2.864 10.357l2.269 2.04.228.113 7.363-12.508-3.134-4.709c-2.277-4.341-3.972-9.588-6.838-14.411z" fill="#fba7c3"/><path d="M506.022 7.57l-32.538 108.518c10.37 2.146 24.257 4.343 38.555 3.582 12.839-.683 24.627-2.779 36.07-6.236 12.205-3.688 17.779-12.414 19.255-19.982 3.197-16.386-.019-28.126-6.619-42.077-6.399-13.531-18.582-23.373-29.5-33.609-10.543-7.031-18.462-9.604-25.223-10.196z" fill="url(#D)"/><path d="M566.531 66.314c-1.362-4.909-3.341-9.772-5.786-14.939-.572-1.213-1.193-2.395-1.854-3.55l-8.403 11.278 16.043 7.211z" fill="#ed82a6"/><path d="M539.17 31.832l-.317 3.523c3.205 5.512 5.593 10.825 7.518 16.024l14.704-18.451L563.296 8.2l-8.496 2.854-15.63 20.778z" fill="#ffb5ce"/><path d="M535.66 20.135l.244 12.277 2.949 2.943c4.073-2.609 6.666-7.039 9.61-10.881 2.461-3.213 4.103-7.005 6.557-10.222.905-1.185 2.313-3.093 3.9-3.263l4.46-3.732-9.378-2.47-18.342 15.348z" fill="#f596b4"/><path d="M469.985 9.189c10.241-2.203 21.283-1.555 30.773-1.856 9.928-.314 19.726 3.666 24.406 11.136 7.872 12.565 16.067 29.953 20.67 46.181 3.661 12.908.843 28.567-7.792 38.712-8.357 9.816-23.003 13.343-35.829 14.473-16.343 1.438-33.141-1.855-48.711-7.029-7.485-2.488-14.377-8.26-18.156-15.194-4.955-9.09-4.602-20.733-1.628-31.03 3.961-13.715 10.944-26.55 18.761-38.489 4.444-6.789 9.583-15.2 17.506-16.904z" fill="url(#A)"/><path d="M546.041 56.623l4.447 2.48c4.917-2.574 9.268-5.571 11.914-9.791 3.449-5.498 4.261-11.671 4.434-17.686.226-7.815 1.269-14.322 2.77-20.194.966-3.78-.061-6.914-2.474-8.772-4.257-3.278-8.084-3.131-11.523-1.673-7.64 3.238-14.763 7.598-22.325 11.017-3.76 1.7-7.226 1.594-10.245.883 5.474 3.93 8.834 11.285 12.914 19.53 3.761-2.805 6.444-5.706 8.872-9.768 3.033-5.074 5.969-9.715 9.369-13.116 1.256-1.168 2.535-1.658 3.903-.043 1.703 2.014.859 4.413.41 6.623-1.957 9.647-1.777 16.827-5.541 24.564-2.087 4.29-5.913 7.311-9.443 9.029l2.518 6.917z" fill="url(#G)"/><path d="M546.041 56.623l4.447 2.48c4.917-2.574 9.268-5.571 11.914-9.791 3.449-5.498 4.261-11.671 4.434-17.686.226-7.815 1.269-14.322 2.77-20.194.45-1.758.467-3.376.116-4.792-7.27 22.398-.824 37.912-23.681 49.983z" fill="#ffc9db"/><path d="M462.535 69.969c-.494-10.126 7.956-15.029 22.189-19.472 10.936 2.615 20.113 9.808 20.77 21.004.696 11.878-10.343 16.941-21.89 16.756-2.372-.037-5.787-.232-7.669-.6-11.387-2.219-13.024-10.012-13.4-17.688z" fill="#cf5d83"/><path d="M459.339 69.252c-.473-10.388 10.353-20.252 22.977-19.117 9.763.877 19.518 8.963 20.151 20.447.669 12.185-10.548 17.545-22.099 17.382-16.717-.236-20.613-9.537-21.029-18.712z" fill="url(#H)"/><path d="M476.076 66.489c.472-1.509-.04-4.418-1.613-4.553-2.142-.181-3.944 1.743-4.724 3.749-.799 2.045-.268 4.629 1.3 4.769 2.126.191 4.141-1.097 5.037-3.965zm9.137.155c-.317-2.275 1.007-4.798 2.863-4.644 2.185.179 3.464 2.441 3.744 4.389.26 1.816-.585 4.813-2.416 4.868-2.149.063-3.895-2.479-4.191-4.613z" fill="#cf5d83"/><path d="M490.983 70.259c-.787-.906-1.332-2.122-1.486-3.231-.19-1.369.213-2.828.969-3.739h0c.743.864 1.201 2.029 1.354 3.101.167 1.166-.123 2.82-.837 3.869zm-16.943-.656c-.376-.967-.361-2.335.102-3.522.383-.985 1.013-1.95 1.808-2.655.348.982.385 2.234.126 3.063-.444 1.422-1.165 2.457-2.036 3.114z" fill="#9e3759"/><use xlink:href="#I" class="e"/><use xlink:href="#J" class="e"/><g fill="#333" class="f"><path d="M145.606 67.796c-1.181 0-1.801 1.427-1.019 2.364.278.302.612.471 1.019.471h2.739c1.182 0 1.801-1.428 1.019-2.365-.277-.302-.611-.47-1.019-.47h-2.739zm275.879 2.835c1.181 0 1.801-1.428 1.019-2.365-.278-.302-.612-.47-1.019-.47h-1.972c-1.181 0-1.801 1.427-1.019 2.364.277.302.612.471 1.019.471h1.972zm-10.189 0c1.181 0 1.801-1.428 1.019-2.365-.278-.302-.612-.47-1.019-.47h-2.74c-1.181 0-1.8 1.427-1.019 2.364.278.302.612.471 1.019.471h2.74zm-10.957 0c1.182 0 1.801-1.428 1.019-2.365-.277-.302-.611-.47-1.019-.47H397.6c-1.181 0-1.801 1.427-1.019 2.364.278.302.612.471 1.019.471h2.739zm-10.956 0c1.181 0 1.801-1.428 1.019-2.365-.277-.302-.612-.47-1.019-.47h-2.739c-1.181 0-1.801 1.427-1.019 2.364.277.302.612.471 1.019.471h2.739zm-10.956 0c1.181 0 1.801-1.428 1.019-2.365-.278-.302-.612-.47-1.019-.47h-2.739c-1.182 0-1.801 1.427-1.02 2.364.278.302.612.471 1.02.471h2.739zm-10.956 0c1.181 0 1.8-1.428 1.019-2.365-.278-.302-.612-.47-1.019-.47h-2.74c-1.181 0-1.801 1.427-1.019 2.364.278.302.612.471 1.019.471h2.74zm-10.957 0c1.181 0 1.801-1.428 1.019-2.365-.277-.302-.612-.47-1.019-.47h-2.739c-1.181 0-1.801 1.427-1.019 2.364.277.302.612.471 1.019.471h2.739zm-10.956 0c1.181 0 1.801-1.428 1.019-2.365-.277-.302-.612-.47-1.019-.47h-2.739c-1.181 0-1.801 1.427-1.019 2.364.277.302.612.471 1.019.471h2.739zm-10.956 0c1.181 0 1.8-1.428 1.019-2.365-.278-.302-.612-.47-1.019-.47h-2.739c-1.181 0-1.801 1.427-1.02 2.364.278.302.613.471 1.02.471h2.739zm-10.957 0c1.182 0 1.801-1.428 1.02-2.365-.278-.302-.613-.47-1.02-.47h-2.738c-1.182 0-1.802 1.427-1.02 2.364.278.302.612.471 1.02.471h2.738zm-10.956 0c1.181 0 1.801-1.428 1.02-2.365-.278-.302-.613-.47-1.02-.47h-2.739c-1.181 0-1.801 1.427-1.019 2.364.277.302.612.471 1.019.471h2.739zm-10.956 0c1.181 0 1.801-1.428 1.019-2.365-.277-.302-.612-.47-1.019-.47h-2.739c-1.181 0-1.801 1.427-1.02 2.364.278.302.613.471 1.02.471h2.739zm-10.957 0c1.182 0 1.802-1.428 1.02-2.365-.278-.302-.612-.47-1.02-.47h-2.738c-1.182 0-1.801 1.427-1.02 2.364.278.302.613.471 1.02.471h2.738zm-10.956 0c1.181 0 1.801-1.428 1.02-2.365-.278-.302-.613-.47-1.02-.47h-2.739c-1.181 0-1.801 1.427-1.019 2.364.277.302.612.471 1.019.471h2.739zm-10.956 0c1.181 0 1.801-1.428 1.019-2.365-.277-.302-.612-.47-1.019-.47h-2.739c-1.181 0-1.801 1.427-1.019 2.364.277.302.612.471 1.019.471h2.739zm-10.956 0c1.181 0 1.801-1.428 1.019-2.365-.278-.302-.612-.47-1.019-.47h-2.739c-1.181 0-1.801 1.427-1.02 2.364.278.302.613.471 1.02.471h2.739zm-10.957 0c1.182 0 1.802-1.428 1.02-2.365-.278-.302-.612-.47-1.02-.47h-2.739c-1.181 0-1.8 1.427-1.019 2.364.278.302.612.471 1.019.471h2.739zm-10.956 0c1.181 0 1.801-1.428 1.02-2.365-.278-.302-.613-.47-1.02-.47h-2.739c-1.181 0-1.801 1.427-1.019 2.364.278.302.612.471 1.019.471h2.739zm-10.956 0c1.181 0 1.801-1.428 1.019-2.365-.277-.302-.612-.47-1.019-.47H222.3c-1.181 0-1.801 1.427-1.019 2.364.277.302.612.471 1.019.471h2.739zm-10.956 0c1.181 0 1.801-1.428 1.019-2.365-.278-.302-.612-.47-1.019-.47h-2.739c-1.182 0-1.801 1.427-1.02 2.364.278.302.612.471 1.02.471h2.739zm-10.956 0c1.181 0 1.8-1.428 1.019-2.365-.278-.302-.612-.47-1.019-.47h-2.74c-1.181 0-1.801 1.427-1.019 2.364.278.302.612.471 1.019.471h2.74zm-10.957 0c1.181 0 1.801-1.428 1.019-2.365-.277-.302-.612-.47-1.019-.47h-2.739c-1.181 0-1.801 1.427-1.019 2.364.277.302.612.471 1.019.471h2.739zm-10.956 0c1.181 0 1.801-1.428 1.019-2.365-.278-.302-.612-.47-1.019-.47h-2.739c-1.182 0-1.801 1.427-1.019 2.364.277.302.612.471 1.019.471h2.739zm-10.956 0c1.181 0 1.8-1.428 1.019-2.365-.278-.302-.612-.47-1.019-.47h-2.74c-1.181 0-1.8 1.427-1.019 2.364.278.302.612.471 1.019.471h2.74zm-10.956 0c1.181 0 1.8-1.428 1.019-2.365-.278-.302-.612-.47-1.019-.47h-2.74c-1.181 0-1.8 1.427-1.019 2.364.278.302.612.471 1.019.471h2.74z"/><path d="M251.63 69.492c0-16.882 13.751-30.567 30.714-30.567a30.71 30.71 0 0 1 24.154 11.684c5.539 5.529 8.964 13.157 8.964 21.582 0 16.881-13.752 30.567-30.714 30.567-9.802 0-18.532-4.57-24.155-11.685-5.539-5.529-8.963-13.157-8.963-21.581z"/></g><path d="M253.99 69.492c0-15.584 12.695-28.218 28.354-28.218s28.353 12.634 28.353 28.218-12.694 28.218-28.353 28.218-28.354-12.634-28.354-28.218z" fill="#ff7158" class="f"/><g fill="#333"><path d="M294.742 57.093h.001a3.49 3.49 0 0 1 0 4.916l-19.882 19.882a3.49 3.49 0 0 1-4.916 0v-.001c-1.352-1.351-1.352-3.564 0-4.915l19.881-19.882a3.49 3.49 0 0 1 4.916 0z"/><path d="M294.743 81.89l-.001.001a3.49 3.49 0 0 1-4.916 0l-19.881-19.882a3.49 3.49 0 0 1 0-4.916h0a3.49 3.49 0 0 1 4.916 0l19.882 19.882c1.352 1.351 1.352 3.564 0 4.915z"/></g><use xlink:href="#I" x="-431.54" class="e"/><use xlink:href="#J" x="-431.54" class="e"/><path d="M9.262 43.429L67.383.939c4.268-3.12 10.326 2.112 11.485 7.269l12.718 56.585c1.159 5.157-3.002 8.365-7.269 11.484l-58.121 42.491c-4.267 3.119-10.326-2.112-11.485-7.27L1.993 54.914c-1.159-5.158 3.002-8.365 7.269-11.485z" fill="url(#F)"/><path d="M9.262 43.429L67.383.939c4.268-3.12 10.326 2.112 11.485 7.269l.53 2.359C78.23 5.415 72.18.198 67.918 3.314L9.796 45.804c-4.267 3.12-8.428 6.327-7.269 11.485l12.189 54.227-.005-.018L1.993 54.913c-1.159-5.157 3.002-8.364 7.269-11.484z" fill="#9f693e"/><path d="M14.701 71.135c-.452.331-1.088.234-1.419-.219s-.233-1.087.219-1.419l62.995-46.054c.452-.331 1.088-.233 1.419.219s.234 1.088-.219 1.419L14.701 71.135zm-2.172-9.662c-.452.331-1.088.234-1.419-.219s-.233-1.087.219-1.419l62.995-46.054c.453-.331 1.088-.233 1.419.219s.234 1.088-.218 1.419L12.529 61.473z" fill="#642d1c" class="f"/><path d="M8.651 45.401l82.148-18.464c5.157-1.159 10.325 2.112 11.484 7.27l12.718 56.585c1.159 5.157-2.112 10.325-7.269 11.484L25.584 120.74c-5.157 1.159-10.325-2.112-11.484-7.27L1.381 56.886C.222 51.728 3.493 46.56 8.651 45.401z" fill="#bf7e4d"/><path d="M113.709 85.041l1.292 5.751c1.159 5.157-2.112 10.325-7.269 11.484l-1.983.446 1.752-13.379 6.208-4.302z" fill="#4a9c3f"/><path d="M7.502 47.388l82.149-18.463c5.157-1.159 10.325 2.112 11.484 7.269l12.718 56.585c1.159 5.157-2.112 10.326-7.269 11.484l-82.148 18.464c-5.157 1.159-10.326-2.112-11.484-7.269L.233 58.873c-1.159-5.158 2.112-10.325 7.269-11.485z" fill="url(#B)"/><path d="M95.795 51.53l28.81-6.475c5.157-1.16 10.326 2.113 11.485 7.269l2.103 9.36c1.159 5.156-2.113 10.325-7.269 11.484l-28.81 6.476c-5.156 1.158-10.326-2.112-11.485-7.27l-2.104-9.36c-1.159-5.157 2.112-10.325 7.27-11.484z" fill="url(#E)"/><path d="M106.113 51.245l7.008 31.182-2.208-2.727-10.46 2.351c-5.156 1.158-10.325-2.112-11.484-7.269l-2.104-9.36c-1.159-5.158 2.112-10.326 7.269-11.485l11.979-2.692z" fill="#945322"/><path d="M112.323 85.97l1.53 6.809c1.159 5.157-2.112 10.326-7.269 11.484l-82.148 18.464c-5.157 1.159-10.326-2.112-11.484-7.269l-1.531-6.809L112.323 85.97z" fill="#82d477"/><path d="M95.018 52.524l28.81-6.475c5.157-1.16 10.325 2.113 11.484 7.269l2.104 9.36c1.159 5.156-2.113 10.325-7.269 11.484l-28.81 6.476c-5.156 1.158-10.326-2.112-11.485-7.27l-2.104-9.36c-1.159-5.157 2.112-10.325 7.27-11.484z" fill="url(#C)"/><g fill="#4a9c3f"><path d="M11.273 107.989L112.174 85.31l1.372-.994.286 1.272-1.361 1.042L11.57 109.309z" class="f"/><path d="M123.074 55.88c3.524 0 6.382 2.858 6.382 6.382s-2.858 6.382-6.382 6.382-6.382-2.857-6.382-6.382 2.857-6.382 6.382-6.382z"/></g><path d="M124.061 54.262c3.524 0 6.382 2.857 6.382 6.382s-2.858 6.382-6.382 6.382-6.382-2.858-6.382-6.382 2.857-6.382 6.382-6.382z" fill="#e6e6e6"/><path d="M124.061 55.249c2.979 0 5.395 2.415 5.395 5.395a5.38 5.38 0 0 1-1.813 4.033c2.554-9.85-7.813-1.711-7.047-7.209.189-1.357 1.992-2.219 3.465-2.219zm.679 5.298c1.008 0 1.825.404 1.825.901s-.817.901-1.825.901-1.825-.403-1.825-.901.817-.901 1.825-.901z" fill="#fff"/></svg>