<?xml version="1.0" encoding="UTF-8"?>
<svg xmlns="http://www.w3.org/2000/svg" width="160" height="190" viewBox="0 0 88.377 104.947" shape-rendering="geometricPrecision" image-rendering="optimizeQuality" fill-rule="evenodd" xmlns:v="https://vecta.io/nano"><path d="M30.496 75.329h24.966v29.618H30.496z" fill="#b63923"/><g fill="#ffc644"><path d="M5.717 39.142h76.941v-3.074c0-1.691-1.383-3.074-3.074-3.074H8.791c-1.691 0-3.074 1.383-3.074 3.074v3.074z"/><ellipse cx="44.188" cy="27.254" rx="27.202" ry="27.254"/></g><ellipse cx="44.188" cy="27.254" rx="17.799" ry="17.832" fill="#f0b11e"/><path d="M5.717 48.058H82.66v45.765a7.12 7.12 0 0 1-7.087 7.101H52.269V84.625a4.6 4.6 0 0 0-4.578-4.587h-7.005a4.6 4.6 0 0 0-4.578 4.587v16.299H12.804a7.12 7.12 0 0 1-7.087-7.101V48.058z" fill="#f29379"/><g fill="#b63923"><path d="M5.717 39.142h16.377v11.089c0 6.075-4.971 11.047-11.047 11.047h0C4.971 61.278 0 56.306 0 50.231v-5.372c0-3.144 2.573-5.717 5.717-5.717z"/><path d="M22.094 39.142h22.094v14.496c0 6.087-4.971 11.067-11.047 11.067h0c-6.076 0-11.047-4.98-11.047-11.067V39.142z"/><path d="M44.188 39.142h22.094v14.496c0 6.087-4.971 11.067-11.046 11.067h-.001c-6.075 0-11.047-4.98-11.047-11.067V39.142z"/><path d="M66.282 39.142h16.375a5.74 5.74 0 0 1 5.719 5.719v5.37c0 6.075-4.971 11.047-11.047 11.047h0c-6.076 0-11.047-4.972-11.047-11.047V39.142z"/></g><path d="M18.949 40.513H4.945c-1.835 0-3.344 1.512-3.344 3.35v5.341c0 4.775 3.908 8.69 8.674 8.69s8.674-3.915 8.674-8.69v-8.691zm4.746 0v12.118c0 4.775 3.908 8.691 8.674 8.691s8.674-3.916 8.674-8.691V40.513H23.695zm22.094 0v12.118c0 4.776 3.908 8.691 8.674 8.691s8.674-3.916 8.674-8.691V40.513H45.789zm22.094 0v8.691c0 4.775 3.908 8.69 8.674 8.69s8.674-3.915 8.674-8.69v-5.339c0-1.838-1.51-3.352-3.346-3.352H67.883z" fill="#c74a34"/><g stroke="#fff" stroke-width="2.209" stroke-linejoin="round" stroke-miterlimit="2.61313"><g fill="#bbdfff"><rect x="12.577" y="71.03" width="16.671" height="16.702" rx="2.741" ry="2.746"/><rect x="59.129" y="71.03" width="16.671" height="16.702" rx="2.741" ry="2.746"/></g><path d="M20.913 71.03v16.703M67.464 71.03v16.703" stroke-linecap="round" fill="none"/></g><path d="M44.188 9.421c6.04 0 11.376 3.015 14.594 7.624a17.73 17.73 0 0 0-12.993-5.647c-9.83 0-17.799 7.984-17.799 17.832 0 3.798 1.186 7.317 3.205 10.209-2.98-3.188-4.805-7.473-4.805-12.185 0-9.849 7.968-17.833 17.798-17.833zM55.92 28.858c-.24-2.133-1.673-4.389-3.615-6.125s-4.405-2.974-6.708-3.075c-5.192-.229-10.833 3.429-10.957 8.98-.051 2.327.965 4.49 2.82 6.05s4.564 2.53 7.887 2.484c6.904-.096 11.127-3.392 10.573-8.314zm-7.878-3.501c-.87.496-1.033 1.944-.36 3.238.675 1.272 2.343 1.596 2.977 1.248.624-.356.858-1.762.184-3.046-.668-1.286-1.919-1.932-2.801-1.44zm-5.299.144c.862.555.98 2.021.262 3.275s-2.409 1.491-3.027 1.106c-.613-.4-.807-1.842-.088-3.107.725-1.268 1.997-1.832 2.853-1.274z" fill="#cb920e"/><path d="M54.805 27.701c-.24-2.133-1.673-4.388-3.615-6.124s-4.405-2.975-6.708-3.076c-5.192-.229-10.833 3.43-10.957 8.98-.052 2.328.965 4.49 2.82 6.05s4.564 2.53 7.886 2.484c6.905-.095 11.128-3.391 10.574-8.314zM46.928 24.2c-.871.497-1.034 1.944-.361 3.238.675 1.273 2.343 1.596 2.976 1.248.625-.356.859-1.762.185-3.045-.668-1.287-1.919-1.933-2.8-1.441zm-5.3.145c.862.554.98 2.02.262 3.274s-2.41 1.491-3.027 1.107c-.613-.4-.807-1.843-.089-3.107.726-1.269 1.998-1.833 2.854-1.274z" fill="#ffd470"/><rect y="100.924" width="88.376" height="4.023" rx="7.108" ry="2.012" fill="#b63923"/></svg>