<?xml version="1.0" encoding="UTF-8"?>
<svg xmlns="http://www.w3.org/2000/svg" xmlns:xlink="http://www.w3.org/1999/xlink" width="160" height="190" viewBox="0 0 37.863 44.962" shape-rendering="geometricPrecision" image-rendering="optimizeQuality" fill-rule="evenodd" xmlns:v="https://vecta.io/nano"><defs><linearGradient id="A" gradientUnits="userSpaceOnUse" x1="32.344" y1="26.731" x2="-39.822" y2="26.731"><stop offset="0" stop-color="#ffc644"/><stop offset="1" stop-color="#eee"/></linearGradient><linearGradient id="B" gradientUnits="userSpaceOnUse" x1="-9.581" y1="26.007" x2="50.501" y2="26.007"><stop offset="0" stop-color="#f0b11e"/><stop offset="1" stop-color="#cb920e"/></linearGradient><linearGradient id="C" xlink:href="#B" x1="-11.057" y1="33.794" x2="49.024" y2="33.794"/><linearGradient id="D" xlink:href="#B" x1="-13.233" y1="18.786" x2="46.848" y2="18.786"/><linearGradient id="E" xlink:href="#A" x1="33.821" y1="18.944" x2="-38.345" y2="18.944"/><linearGradient id="F" xlink:href="#A" x1="30.168" y1="11.723" x2="-41.997" y2="11.722"/></defs><path d="M35.484 27.912c-2.29-5.092-8.679-8.757-16.203-8.757S5.368 22.82 3.079 27.912h-.903v4.147c0 7.126 7.658 12.903 17.105 12.903s17.105-5.777 17.105-12.903v-4.147h-.902z" fill="url(#C)"/><path d="M36.386 27.912c0-7.127-7.658-12.904-17.105-12.904S2.176 20.785 2.176 27.912s7.658 12.903 17.105 12.903 17.105-5.777 17.105-12.903z" fill="url(#A)"/><circle transform="matrix(0 -.361172 .478778 0 19.2811 27.9119)" r="25.775" fill="#f0b11e"/><g fill="#cb920e"><path d="M30.346 23.787c-2.016-3.072-6.213-5.184-11.065-5.184-6.815 0-12.34 4.168-12.34 9.309 0 2.04.87 3.927 2.346 5.461-.816-1.244-1.276-2.644-1.276-4.125 0-5.142 5.525-9.31 12.341-9.31 4.11 0 7.751 1.517 9.994 3.849zm-5.343 1.094l.32 1.59-.053-.224-.069-.214-.08-.209-.095-.197-.107-.191-.124-.185-.134-.173-.152-.165-.162-.159-.177-.149-.19-.135-.205-.131-.221-.117-.23-.111-.242-.096-.259-.088-.237-.066-.241-.052-.251-.04-.26-.029-.265-.017-.272-.008-.275.006-.281.018-.282.027-.285.034-.288.047-.288.058-.286.065-.29.075-.285.083-.285.09-.283.103-.278.108-.273.119-.267.125-.261.132-.256.138-.248.144-.24.153-.228.162-.218.165-.211.172-.197.174-.187.183-.171.187-.16.191-.145.197-.146.229-.137.233-.124.238-.111.242-.102.246-.086.252-.077.253-.066.255-.05.257-.04.257-.023.259-.012.261-.001.259.013.256.029.255.037.251.054.253.067.246-.424-1.558-.067-.251-.054-.249-.042-.255-.028-.259-.012-.261-.001-.258.015-.262.023-.263.04-.256.051-.262.062-.256.077-.257.09-.252.1-.248.112-.247.126-.239.137-.233.149-.231.145-.198.159-.193.176-.189.187-.182.201-.177.209-.174.221-.168.233-.158.242-.154.249-.149.259-.138.263-.133.271-.124.275-.12.28-.11.285-.101.287-.092.288-.086.29-.074.293-.067.29-.056.292-.047.287-.035.286-.026.282-.016.279-.005.272.004.267.02.262.027.253.042.245.053.237.067.262.087.248.1.234.111.221.118.204.127.196.142.178.149.165.159.151.167.138.177.123.185.109.194.099.201.082.208.065.217.055.222zm-6.75.457l.381 1.59.029.094.044.09.056.084c.023.031.046.058.071.083l.084.08.096.068c.034.025.07.045.106.066l.115.059.128.052.134.043.144.039.147.029.158.021.16.011h.164l-.366-1.583a1.57 1.57 0 0 1-.168 0l-.161-.01-.16-.023c-.048-.007-.099-.019-.151-.03l-.142-.037c-.043-.011-.088-.028-.135-.043l-.129-.055a1.4 1.4 0 0 1-.117-.057l-.108-.065-.095-.071-.087-.082c-.023-.023-.046-.05-.069-.081s-.039-.055-.057-.087l-.045-.09-.027-.095z"/><path d="M19.904 26.164l.366 1.583.166-.013c.054-.005.105-.016.158-.025l.154-.041.14-.053.137-.061.126-.072.119-.078c.037-.025.072-.054.108-.083s.068-.055.099-.087l.087-.09.076-.089c.023-.029.044-.062.063-.092l.05-.087.038-.087c.008-.026.012-.052.019-.08s.005-.05.006-.078l-.353-1.589c-.001.027-.004.052-.007.077l-.021.082c-.015.028-.025.058-.039.085l-.048.092-.063.089-.076.093-.089.091-.098.087-.11.085-.119.077-.13.072-.137.061-.146.054-.15.041-.16.027-.166.009z"/><path d="M21.463 25.042l.353 1.589c-.001-.018-.006-.045-.01-.071l-.35-1.589.007.071zm-2.625 3.885l.375 1.561.011.253-.04.246-.079.227-.112.194-.133.154-.142.103-.378-1.547.146-.106c.045-.048.087-.101.131-.156.04-.063.075-.129.111-.196l.08-.225.04-.25-.01-.258z"/><path d="M18.34 30.118l.378 1.547c-.025.013-.051.023-.078.033l-.088.022a.64.64 0 0 1-.098.011l-.103.004-.11-.01-.111-.017c-.04-.006-.077-.017-.116-.028l-.12-.039-.116-.047c-.042-.016-.081-.037-.123-.057s-.079-.045-.117-.068l-.114-.075c-.038-.026-.076-.056-.112-.088l-.107-.092-.101-.105-.093-.111-.394-1.56.093.115.102.104.109.098c.034.029.073.059.111.085l.115.077.121.07.119.056.12.047.122.038c.037.012.077.022.117.03l.114.015c.035.006.072.01.108.012l.105-.002.096-.013.091-.021.08-.031z"/><path d="M16.617 29.438l.394 1.56-.08-.121-.071-.121-.057-.122-.045-.123-.035-.121-.396-1.562.032.122c.013.043.031.086.046.123l.06.123.067.12.085.122z"/><path d="M13.563 29.364l.322 1.307.063.246.083.24.094.236.107.233.123.224.137.22.152.212.165.201.181.199.194.185.21.176.227.167.239.156.253.141.271.13.237.101.238.085.245.075.249.057.251.048.255.037.259.021.26.011.26-.002.261-.013.263-.031.263-.038.266-.052.265-.067.26-.077.263-.092.257-.101.256-.117.258-.125.249-.142.25-.152.243-.167.241-.176.235-.191.229-.204.227-.211.216-.229.211-.239.205-.25.199-.268.189-.275.179-.29.177-.303.162-.303.152-.297.133-.294.116-.293.102-.288.09-.282.075-.274.064-.272.045-.269.03-.261.02-.252.004-.25-.014-.244-.023-.232-.212-1.335.025.238.012.242-.006.252-.017.258-.033.262-.047.27-.06.273-.074.281-.089.285-.105.287-.12.292-.133.301-.153.299-.162.307-.179.304-.183.293-.189.279-.202.267-.203.252-.214.242-.221.229-.228.215-.229.208-.239.19-.239.179-.249.167-.251.154-.251.139-.258.129-.264.115-.256.106-.265.089-.267.079-.266.067-.266.052-.265.04-.268.027-.264.016h-.263l-.261-.009-.26-.022-.26-.036-.251-.047-.252-.062-.246-.076-.245-.086-.239-.099-.271-.13-.259-.148-.245-.156-.222-.169-.214-.177-.196-.187-.183-.198-.167-.203-.153-.215-.138-.22-.123-.227-.113-.236-.094-.239-.081-.242-.067-.251zm2.764-.536l.294 1.306a.95.95 0 0 1-.023-.118l-.006-.116.001-.112.018-.106.028-.106c.015-.031.027-.064.04-.097.018-.03.033-.061.05-.094a.5.5 0 0 0 .06-.083l.078-.075c.031-.021.058-.043.087-.066l.095-.058.108-.046.111-.033.116-.018c.043 0 .081-.005.12-.009l.126.004.123.015c.042.011.085.018.126.026l.127.038c.04.018.081.034.124.048l.123.061.121.065a1.24 1.24 0 0 0 .116.078l.112.087c.033.035.069.066.103.095l.101.105.091.113.139.245.071.258-.269-1.308-.071-.255-.14-.247-.094-.115-.102-.103-.105-.101a1.23 1.23 0 0 1-.111-.086l-.119-.078-.121-.069c-.041-.016-.085-.038-.126-.058l-.124-.051-.129-.037-.127-.026-.125-.017c-.042 0-.083-.001-.124-.002l-.119.009-.122.019-.109.032-.11.046-.099.058-.084.068-.077.078c-.021.024-.04.055-.063.082l-.052.091a.47.47 0 0 1-.043.099c-.006.035-.016.07-.025.105l-.016.108-.007.116a.67.67 0 0 1 .01.117l.023.118zm3.79-3.24l-.166.009-.16.02-.153.025-.15.038-.139.04a1.11 1.11 0 0 1-.133.051l-.125.056c-.035.024-.074.045-.112.064l-.101.071-.094.075c-.024.028-.055.053-.078.079l-.069.086-.05.09-.041.09-.022.098c0 .031-.003.064-.005.096l.011.098-.277-1.336-.011-.098.003-.098c.01-.03.016-.066.026-.097s.024-.061.037-.094a.62.62 0 0 0 .052-.088.72.72 0 0 0 .069-.086l.08-.081.092-.074c.036-.021.068-.048.104-.073l.114-.062.125-.06.134-.051c.047-.011.095-.027.14-.041l.151-.035.156-.027c.055-.003.107-.011.162-.018l.166-.009.166.002.16.012.154.019.149.028.14.039.133.044.122.049.115.056.101.059.094.064c.023.023.05.043.079.066.021.025.046.05.067.071l.053.071.04.071.03.074.244 1.336-.025-.071-.042-.073-.05-.069-.068-.071-.08-.065-.087-.062-.103-.062-.115-.055-.12-.047c-.045-.013-.086-.029-.131-.046l-.14-.035-.145-.03-.155-.02-.157-.009c-.056.003-.111-.001-.165-.004z"/></g><path d="M22.473 22.317c-1.236-.382-2.89-.227-4.41.291s-2.922 1.399-3.655 2.468c-1.654 2.41-1.315 5.937 1.681 7.286 1.256.565 2.738.586 4.136.068s2.725-1.577 3.678-3.165c1.981-3.298 1.423-6.067-1.43-6.948zm-4.231 2.923c.014.529.757.943 1.662.924.894-.024 1.562-.741 1.559-1.122-.011-.38-.71-.817-1.61-.796s-1.621.462-1.611.994zm-1.482 2.548c.557-.28 1.393.005 1.867.637s.105 1.49-.287 1.693c-.399.198-1.244-.045-1.723-.68s-.414-1.373.143-1.65z" fill="#ffd470"/><path d="M18.253 29.189l-.123-.061c-.043-.014-.084-.03-.124-.048l-.127-.038-.126-.026-.123-.015c-.043 0-.083-.001-.126-.004l-.12.009-.116.018c-.036.014-.075.023-.111.033l-.108.046-.095.058-.087.066-.078.075a.5.5 0 0 1-.06.083l-.05.094c-.005.008-.008.018-.012.025l.043.049.1.105.111.097c.034.029.073.059.111.085l.115.077.121.07.119.056c.041.019.083.035.12.047l.122.038c.037.012.075.02.117.03l.114.015a.59.59 0 0 0 .109.01.9.9 0 0 0 .104 0c.035-.002.066-.008.096-.013a.58.58 0 0 0 .091-.021l.08-.031a1.6 1.6 0 0 0 .146-.106c.046-.042.089-.095.131-.156a1.28 1.28 0 0 0 .111-.196c.013-.027.022-.056.033-.085l-.056-.061-.103-.095c-.04-.028-.074-.057-.112-.087l-.116-.078-.121-.065zm1.322-3.035l.161.01c.057.003.111.005.168 0a.91.91 0 0 0 .166-.009l.16-.027.15-.041c.052-.015.097-.033.146-.054l.137-.061.13-.072.119-.077.11-.085-.143-.052-.14-.035-.145-.03-.155-.02-.157-.009c-.056.003-.111-.001-.165-.004l-.166.009-.16.02-.153.025-.15.038-.139.04a1.11 1.11 0 0 1-.133.051l-.125.056c-.035.024-.074.045-.112.064l-.101.071c.025.025.066.045.109.059l.135.043c.047.015.093.027.142.037a1.01 1.01 0 0 0 .151.03c.052.011.106.017.16.023z" fill="#f0b11e"/><path d="M36.961 20.125c-2.29-5.092-8.679-8.757-16.203-8.757S6.845 15.033 4.555 20.125h-.902v4.147c0 7.126 7.658 12.903 17.105 12.903s17.105-5.777 17.105-12.903v-4.147h-.902z" fill="url(#B)"/><path d="M37.863 20.125c0-7.127-7.658-12.904-17.105-12.904S3.653 12.998 3.653 20.125s7.658 12.903 17.105 12.903 17.105-5.777 17.105-12.903z" fill="url(#E)"/><circle transform="matrix(0 -.361172 .478778 0 20.7579 20.1249)" r="25.775" fill="#f0b11e"/><g fill="#cb920e"><path d="M31.823 16c-2.017-3.072-6.213-5.184-11.065-5.184-6.815 0-12.341 4.168-12.341 9.309 0 2.04.871 3.927 2.346 5.461-.816-1.244-1.275-2.644-1.275-4.126 0-5.141 5.525-9.309 12.34-9.309 4.111 0 7.752 1.517 9.995 3.849zm-5.343 1.094l.32 1.59-.053-.224-.069-.214-.08-.209-.095-.197-.107-.191-.124-.185-.134-.173-.152-.166-.162-.158-.177-.149-.191-.135-.204-.131-.221-.117-.23-.111-.242-.097-.259-.087-.237-.066-.241-.052-.251-.04-.26-.029-.265-.017-.272-.008-.275.006-.281.018-.282.027-.285.034-.289.047-.288.058-.286.065-.289.075-.285.082-.285.091-.283.103-.279.108-.272.119-.267.125-.262.132-.255.138-.248.144-.24.153-.229.162-.217.165-.212.172-.196.174-.187.183-.171.187-.161.191-.144.197-.146.229-.138.233-.123.238-.111.242-.102.246-.086.252-.077.253-.067.255-.049.257-.04.257-.023.259-.012.261-.001.259.013.256.028.254.038.252.054.253.067.246-.424-1.558-.067-.251-.054-.249-.042-.256-.028-.258-.012-.261-.001-.258.014-.262.023-.263.04-.256.051-.262.063-.256.077-.257.09-.252.1-.248.112-.247.126-.239.137-.233.148-.231.146-.198.159-.193.176-.189.187-.182.2-.177.21-.174.221-.168.233-.158.241-.154.25-.149.259-.138.263-.133.271-.124.274-.12.281-.11.285-.101.286-.092.289-.086.289-.074.294-.067.29-.056.292-.047.287-.035.286-.026.282-.016.279-.005.272.004.267.02.262.027.253.042.244.053.238.066.262.088.248.1.234.111.22.118.205.127.196.142.178.149.165.159.15.167.138.177.124.185.109.194.099.201.082.208.065.217.055.222zm-6.751.457l.382 1.59.029.094.044.09.055.084a.86.86 0 0 0 .072.083l.084.08.095.067c.035.026.071.046.106.067l.115.059.128.052.135.043.144.039.147.029.158.021.16.011h.164l-.366-1.583a1.57 1.57 0 0 1-.168 0l-.161-.01-.16-.023c-.049-.007-.099-.019-.151-.03l-.142-.037c-.043-.011-.088-.028-.135-.043l-.13-.055-.117-.057-.107-.065-.096-.071-.086-.082c-.023-.023-.046-.05-.07-.081a1.01 1.01 0 0 1-.057-.087l-.044-.09-.028-.095z"/><path d="M21.381 18.377l.366 1.583.166-.013c.054-.005.105-.016.158-.025l.154-.041.14-.053.137-.061.126-.072.119-.078.108-.083c.036-.026.068-.056.098-.088s.057-.057.088-.089l.076-.089.063-.092.05-.087.037-.087c.009-.026.013-.053.019-.08a.46.46 0 0 0 .007-.078l-.354-1.589c0 .027-.003.052-.006.077l-.021.082c-.015.028-.025.058-.039.085l-.048.092-.063.089-.076.092-.089.092-.099.087-.109.085-.119.077-.131.072-.136.061-.146.053c-.047.016-.099.027-.15.042l-.16.027-.166.009z"/><path d="M22.939 17.255l.354 1.589c-.001-.018-.006-.045-.01-.072l-.35-1.588.006.071zm-2.624 3.885l.374 1.561.012.253-.041.246-.078.227-.112.194-.133.154-.142.103-.378-1.547.146-.106.131-.156c.04-.063.074-.129.111-.196l.08-.225.04-.25-.01-.258z"/><path d="M19.817 22.331l.378 1.547a.69.69 0 0 1-.079.033c-.029.009-.06.015-.088.022s-.064.01-.097.011l-.103.004-.11-.011-.112-.016c-.039-.006-.076-.018-.115-.028l-.12-.039-.116-.047c-.042-.016-.082-.037-.123-.057s-.079-.046-.117-.068l-.114-.075-.112-.088c-.039-.03-.071-.061-.108-.092l-.1-.105-.093-.111-.395-1.56.094.115.102.104.109.097a1.16 1.16 0 0 0 .11.086l.116.077.121.07.119.056.12.047.122.038a1 1 0 0 0 .117.03l.114.015c.035.006.072.01.107.012l.106-.002.095-.013.092-.021.08-.031z"/><path d="M18.093 21.651l.395 1.56-.08-.121-.072-.121-.056-.122-.045-.123-.035-.121-.396-1.562.032.122c.013.043.031.085.046.123l.06.123.067.12.084.122z"/><path d="M15.04 21.577l.322 1.307.063.246.083.24.094.236.107.233.123.223.136.221.153.212.165.201.181.199.194.185.21.176.227.166.239.157.253.141.271.13.237.101.238.085.245.075.248.057.252.048.254.037.26.021.26.011.26-.002.26-.013.264-.031.263-.038.266-.052.265-.067.26-.077.263-.092.257-.101.256-.117.258-.125.249-.142.25-.152.243-.167.241-.176.235-.191.229-.204.226-.211.217-.229.211-.239.205-.25.198-.268.19-.275.179-.29.177-.303.162-.303.151-.297.133-.294.117-.293.102-.288.09-.282.075-.274.063-.272.046-.269.03-.261.02-.252.003-.25-.013-.244-.024-.232-.212-1.335.026.238.011.242-.005.252-.018.258-.032.262-.047.27-.06.273-.074.281-.089.285-.105.287-.121.292-.132.301-.153.299-.162.307-.179.304-.183.293-.189.279-.202.267-.203.252-.215.242-.22.228-.229.216-.228.208-.239.19-.239.179-.249.167-.251.154-.252.139-.257.129-.264.115-.257.105-.264.09-.267.079-.266.067-.266.052-.265.039-.269.028-.263.016h-.263l-.261-.009-.26-.022-.26-.036-.252-.047-.252-.062-.245-.076-.245-.086-.239-.099-.271-.13-.259-.148-.245-.156-.223-.169-.214-.177-.195-.187-.184-.198-.166-.204-.153-.214-.138-.22-.123-.227-.113-.236-.094-.239-.081-.242-.067-.251zm2.764-.536l.294 1.306c-.011-.037-.018-.076-.023-.118l-.006-.116.001-.112.018-.106.027-.106c.016-.031.028-.064.041-.097s.033-.061.05-.094c.021-.025.042-.054.06-.083l.078-.075c.031-.021.058-.043.087-.066l.095-.059.108-.045.111-.033.116-.018c.042 0 .081-.005.12-.009l.126.004.122.015.127.026.127.038a1.52 1.52 0 0 0 .124.048l.123.061.121.065a1.05 1.05 0 0 0 .115.077l.113.088c.033.035.069.066.103.095l.1.105.092.113.139.245.071.258-.269-1.308-.071-.255-.141-.247-.093-.115-.102-.103-.105-.101a1.23 1.23 0 0 1-.111-.086l-.119-.078-.121-.069c-.042-.016-.085-.038-.126-.058l-.124-.051-.129-.037-.127-.026-.125-.017c-.042 0-.083-.001-.124-.002l-.12.009-.121.019-.11.032-.109.046-.099.058-.085.068-.076.078c-.021.024-.041.055-.064.081-.017.034-.034.063-.052.092a.47.47 0 0 1-.042.099c-.006.035-.016.07-.026.105l-.016.108c-.004.041 0 .08-.006.116a.67.67 0 0 1 .01.117l.023.118zm3.79-3.24l-.166.009-.16.02-.153.025-.15.038-.139.04a1.11 1.11 0 0 1-.133.051l-.125.056c-.035.024-.075.045-.113.064l-.1.07-.094.076c-.024.028-.055.053-.078.079l-.069.086-.05.09-.041.09-.022.098-.006.096.012.098-.278-1.336c-.002-.032-.006-.064-.011-.098l.004-.098c.01-.031.016-.066.026-.097s.024-.061.037-.094a.73.73 0 0 0 .052-.088.72.72 0 0 0 .069-.086l.08-.081.091-.074c.037-.021.069-.048.105-.073l.114-.062.125-.06.133-.051.141-.041.15-.035.157-.027c.055-.003.106-.011.162-.018l.166-.009.166.002.16.012.154.019.149.028.14.039.133.044.122.049.115.056.1.059.095.064c.023.023.05.043.079.066l.067.071.053.071.039.071.031.074.244 1.336-.025-.071-.042-.073c-.016-.022-.031-.047-.051-.069s-.042-.046-.067-.071l-.08-.065-.088-.062-.102-.062-.115-.055-.12-.047c-.045-.013-.086-.029-.131-.046l-.14-.035-.146-.03-.154-.02-.157-.009c-.056.003-.111-.002-.165-.004z"/></g><path d="M23.95 14.529c-1.236-.381-2.89-.226-4.41.292s-2.922 1.399-3.656 2.468c-1.653 2.41-1.314 5.937 1.682 7.286 1.256.565 2.737.585 4.136.068s2.725-1.578 3.678-3.165c1.981-3.298 1.423-6.068-1.43-6.949zm-4.232 2.924c.015.529.758.943 1.663.924.894-.025 1.562-.741 1.558-1.122-.01-.38-.71-.817-1.609-.796s-1.621.462-1.612.994zm-1.481 2.548c.557-.28 1.393.005 1.866.637s.106 1.49-.286 1.693c-.399.198-1.244-.045-1.724-.68s-.413-1.373.144-1.65z" fill="#ffd470"/><path d="M19.73 21.402l-.123-.061-.124-.048-.127-.038-.127-.026-.122-.015a1.75 1.75 0 0 1-.126-.004l-.12.009-.116.018c-.036.014-.075.023-.111.033l-.108.045-.095.059-.087.066-.078.075c-.018.029-.039.058-.06.083l-.05.094c-.005.008-.008.018-.012.025l.043.049.1.105c.034.033.073.067.111.096a1.16 1.16 0 0 0 .11.086l.116.077.121.07.119.056c.041.019.083.035.12.047l.122.038c.037.012.074.019.117.03l.114.015a.59.59 0 0 0 .109.01.9.9 0 0 0 .104 0c.035-.002.066-.008.095-.013.035-.005.063-.013.092-.021l.08-.031a1.6 1.6 0 0 0 .146-.106c.046-.042.089-.095.131-.156a1.28 1.28 0 0 0 .111-.196c.013-.027.021-.056.033-.085l-.056-.061-.103-.095c-.04-.028-.075-.058-.113-.088a1.05 1.05 0 0 1-.115-.077l-.121-.065zm1.322-3.035l.161.01c.057.003.111.005.168 0a.91.91 0 0 0 .166-.009l.16-.027a1.48 1.48 0 0 0 .15-.042 1.11 1.11 0 0 0 .146-.053l.136-.061.131-.072.119-.077.109-.085-.142-.052-.14-.035-.146-.03-.154-.02-.157-.009c-.056.003-.111-.002-.165-.004l-.166.009-.16.02-.153.025-.15.038-.139.04a1.11 1.11 0 0 1-.133.051l-.125.056c-.035.024-.075.045-.113.064l-.1.07c.025.026.066.046.109.06l.135.043c.047.015.093.027.142.037l.151.03c.052.011.106.017.16.023z" fill="#f0b11e"/><path d="M33.308 12.904c-2.29-5.092-8.679-8.757-16.203-8.757S3.192 7.812.903 12.904H0v4.147c0 7.126 7.658 12.903 17.105 12.903s17.106-5.777 17.106-12.903v-4.147h-.903z" fill="url(#D)"/><path d="M34.211 12.904C34.211 5.777 26.552 0 17.105 0S0 5.777 0 12.904s7.658 12.903 17.105 12.903 17.106-5.777 17.106-12.903z" fill="url(#F)"/><circle transform="matrix(0 -.361172 .478778 0 17.1053 12.9036)" r="25.775" fill="#f0b11e"/><g fill="#cb920e"><path d="M28.17 8.778c-2.016-3.071-6.213-5.184-11.065-5.184-6.815 0-12.34 4.168-12.34 9.31 0 2.04.87 3.926 2.346 5.46-.816-1.243-1.276-2.643-1.276-4.125 0-5.141 5.525-9.309 12.341-9.309 4.111 0 7.751 1.517 9.994 3.848zm-5.343 1.094l.32 1.59-.053-.223-.069-.214-.08-.209-.095-.197-.107-.191-.123-.186-.135-.172-.152-.166-.162-.158-.177-.149-.19-.135-.205-.131-.221-.118-.23-.11-.242-.097-.259-.087-.237-.066-.24-.053-.252-.04-.26-.028-.265-.018c-.089 0-.177 0-.272-.007l-.275.006-.281.018-.281.027-.286.033-.288.048-.288.058-.286.065-.29.074-.285.083-.285.09-.283.104-.278.108-.273.118-.267.126-.261.131-.256.139-.248.144-.24.153-.228.162-.218.165-.211.171-.197.175-.187.182-.17.188-.161.191-.144.197-.147.229-.137.233-.124.237-.111.242-.101.246-.087.253-.077.253-.066.255-.049.257-.04.257-.024.258-.012.261-.001.26.013.255.029.255.037.252.054.252.067.247-.424-1.559-.067-.25-.054-.249-.041-.256-.029-.258-.012-.261v-.258l.014-.262.023-.263.04-.257.051-.262.062-.256.077-.256.09-.252.1-.248.112-.247.126-.24.137-.232.149-.231.146-.198.158-.194.176-.188.188-.182.2-.178.209-.173.221-.168.233-.158.242-.154.249-.149.259-.138.263-.133.271-.125.275-.12.28-.109.285-.101.287-.092.289-.086.289-.075.293-.066.29-.056.292-.047.288-.035.285-.026.283-.016.278-.005.272.004.267.019.262.028.253.042.245.053.237.066.262.088.248.1.234.111.221.118.204.127.196.142.178.149.165.159.151.167.138.177.123.185.109.193.099.202.082.208.066.217.054.221zm-6.75.458l.381 1.59.029.094.045.089.055.085c.023.031.046.057.071.083l.085.08.095.067c.034.026.07.046.106.066a2.07 2.07 0 0 0 .115.059l.128.053.134.043.144.039.148.029.157.021.16.011h.165l-.366-1.583a1.59 1.59 0 0 1-.169-.001l-.161-.01-.16-.022c-.048-.007-.099-.019-.151-.03l-.142-.037c-.043-.011-.088-.028-.135-.043l-.129-.055a1.57 1.57 0 0 1-.117-.057l-.108-.065-.095-.071-.087-.082a.97.97 0 0 1-.069-.081c-.02-.026-.039-.056-.057-.087l-.044-.09-.028-.095z"/><path d="M17.729 11.156l.366 1.583.165-.013c.054-.005.105-.016.159-.025l.153-.041.141-.053.136-.061.127-.072.119-.078c.036-.025.071-.054.107-.083a.69.69 0 0 0 .099-.088l.087-.089.076-.089c.023-.03.044-.062.063-.093l.05-.086.038-.088c.008-.025.012-.052.019-.08.004-.022.005-.05.006-.077l-.353-1.59c-.001.028-.004.053-.007.078l-.02.082c-.016.027-.026.058-.04.085l-.048.092-.063.089-.076.092-.089.091-.098.088-.11.085-.119.077-.13.072-.137.061-.146.053c-.047.016-.098.027-.149.042l-.16.027-.166.009z"/><path d="M19.287 10.033l.353 1.59a.61.61 0 0 0-.01-.072l-.35-1.588.007.07zm-2.625 3.886l.375 1.561.011.253-.04.246-.078.227c-.041.063-.079.128-.113.194l-.133.153-.142.104-.378-1.547.146-.107c.045-.047.087-.1.131-.155a2.87 2.87 0 0 0 .111-.197l.08-.224.04-.25-.01-.258z"/><path d="M16.164 15.11l.378 1.547c-.025.013-.051.022-.078.033l-.088.022c-.031.006-.064.01-.098.01l-.103.004-.11-.01-.111-.016c-.039-.006-.077-.018-.116-.028l-.12-.04-.116-.046c-.042-.016-.081-.037-.123-.057s-.079-.046-.117-.068l-.114-.076c-.038-.026-.076-.056-.112-.087l-.107-.092-.1-.105-.093-.111-.395-1.56.093.115.102.103.109.098.111.086.115.077.121.069.119.056.12.048.122.038.118.03.113.015.108.011.105-.001.096-.013.091-.021.08-.031z"/><path d="M14.441 14.43l.395 1.56-.081-.122-.071-.121-.057-.121-.045-.123-.034-.121-.397-1.562.033.122c.012.043.031.085.045.123l.06.123.068.12.084.122z"/><path d="M11.387 14.356l.322 1.307.063.245.083.241.094.236.107.233.124.223.136.221.152.211.165.201.181.2.194.185.21.176.227.166.239.157.253.141.271.13.237.101.238.084.246.076.248.057.251.047.255.037.26.022.259.011.26-.003.261-.013.263-.03.263-.039.266-.052.266-.066.259-.078.263-.091.257-.102.256-.116.258-.125.25-.142.249-.152.243-.167.241-.177.235-.19.229-.205.227-.21.216-.229.211-.239.205-.25.199-.268.189-.275.179-.29.177-.303.162-.303.152-.297.133-.295.116-.292.102-.288.091-.283.074-.273.064-.272.045-.269.03-.261.02-.252.004-.25-.013-.244-.024-.232-.212-1.335.025.238.012.242-.006.251-.017.258-.033.263-.047.27-.059.273-.075.281-.089.285-.105.287-.12.291-.133.302-.153.299-.162.306-.179.305-.183.293-.189.279-.202.267-.203.252-.214.242-.221.228-.228.216-.229.208-.239.19-.239.178-.248.168-.252.154-.251.139-.258.129-.264.115-.256.105-.265.089-.267.08-.266.066-.266.053-.264.039-.269.028-.264.016h-.263l-.261-.009-.259-.022-.261-.036-.251-.048-.252-.062-.245-.075-.246-.086-.239-.1-.271-.13-.259-.147-.244-.156-.223-.17-.214-.176-.196-.188-.183-.197-.167-.204-.153-.215-.137-.219-.124-.227-.113-.236-.094-.24-.081-.242-.067-.25zm2.764-.536l.294 1.306c-.01-.037-.017-.077-.023-.118l-.006-.117.001-.111.018-.106.028-.106c.015-.032.027-.064.04-.098.018-.029.033-.06.05-.094.022-.024.043-.053.06-.082l.079-.075.086-.066.096-.059.107-.045.111-.033.116-.018c.043 0 .081-.005.12-.01.043.004.083.005.126.005l.123.015.126.026.128.038.123.048.123.06.121.066a1.06 1.06 0 0 0 .116.077l.112.088c.033.034.069.066.104.095l.1.105.091.113.139.245.071.258-.269-1.308-.07-.255-.141-.247-.093-.115-.102-.104-.106-.101c-.038-.026-.074-.053-.111-.085l-.119-.078-.121-.069c-.041-.016-.085-.038-.126-.058l-.124-.052-.129-.036-.127-.026-.124-.017c-.043 0-.084-.001-.124-.003l-.12.01-.122.018-.109.032-.109.047-.1.058-.084.068-.077.077-.063.082-.052.092a.47.47 0 0 1-.043.099c-.006.035-.015.07-.025.104l-.016.109-.007.115a.68.68 0 0 1 .01.118l.023.118zm3.79-3.24l-.166.009-.16.02-.153.024-.15.038-.139.041c-.041.018-.087.036-.133.05l-.125.057c-.034.023-.074.044-.112.064l-.101.07-.093.076-.079.079-.069.086-.05.09-.041.09-.022.098c0 .031-.003.063-.005.096l.011.097-.277-1.335-.011-.098.003-.098c.01-.031.016-.066.026-.097s.024-.061.037-.095c.02-.027.035-.054.052-.088a.65.65 0 0 0 .069-.086l.08-.08.092-.074c.036-.022.068-.048.104-.073l.114-.062.126-.06.133-.051.14-.042.151-.034.156-.028c.055-.003.107-.01.162-.017l.166-.009.167.002.159.012.154.019.149.028.14.038.133.045.122.049.115.055.101.06.095.064c.023.023.049.043.078.066l.067.07.053.072c.016.025.032.051.04.07l.03.075.244 1.335c-.006-.021-.017-.047-.025-.071l-.042-.072-.05-.07-.068-.071-.08-.064-.087-.062-.103-.062-.114-.055-.121-.047c-.045-.013-.086-.029-.131-.046l-.14-.035-.145-.031-.154-.019-.158-.009c-.055.003-.111-.002-.165-.004z"/></g><path d="M20.297 7.308c-1.236-.381-2.89-.226-4.41.292s-2.922 1.399-3.655 2.468c-1.654 2.41-1.315 5.937 1.681 7.285 1.257.566 2.738.586 4.136.069s2.725-1.578 3.678-3.165c1.981-3.298 1.423-6.068-1.43-6.949zm-4.231 2.924c.015.528.757.942 1.663.924.894-.025 1.561-.741 1.558-1.123-.011-.379-.71-.817-1.61-.795s-1.621.462-1.611.994zm-1.481 2.548c.556-.28 1.392.005 1.866.637s.105 1.49-.287 1.693c-.399.198-1.244-.045-1.723-.68s-.414-1.373.144-1.65z" fill="#ffd470"/><path d="M16.077 14.18l-.123-.06-.123-.048-.128-.038-.126-.026-.123-.015c-.043 0-.083-.001-.126-.005l-.12.01-.116.018c-.036.014-.074.022-.111.033l-.107.045-.096.059-.086.066-.079.075c-.017.029-.038.058-.06.082l-.05.094c-.005.008-.008.019-.012.025l.043.05.1.105.111.096.111.086.115.077.121.069.119.056a1 1 0 0 0 .12.048l.122.038.118.03.113.015c.035.005.076.01.109.01a.9.9 0 0 0 .104 0c.035-.002.066-.008.096-.013a.88.88 0 0 0 .091-.021l.08-.031a1.45 1.45 0 0 0 .146-.107c.047-.041.089-.094.131-.155a1.21 1.21 0 0 0 .111-.197c.014-.026.022-.055.034-.084-.024-.023-.039-.041-.056-.061l-.104-.095-.112-.088a1.06 1.06 0 0 1-.116-.077l-.121-.066zm1.322-3.035l.161.01.169.001c.057.003.11-.003.166-.009l.16-.027.149-.042c.052-.015.097-.033.146-.053l.137-.061.13-.072.119-.077.11-.085-.143-.052-.14-.035-.145-.031-.154-.019-.158-.009c-.055.003-.111-.002-.165-.004l-.166.009-.16.02-.153.024-.15.038-.139.041c-.041.018-.087.036-.133.05l-.125.057c-.034.023-.074.044-.112.064l-.101.07c.025.026.066.045.109.06l.135.043a1.41 1.41 0 0 0 .142.037l.151.03c.052.011.106.016.16.022z" fill="#f0b11e"/></svg>