<?xml version="1.0" encoding="UTF-8"?>
<svg xmlns="http://www.w3.org/2000/svg" width="798" height="466" viewBox="0 0 331.661 193.555" shape-rendering="geometricPrecision" image-rendering="optimizeQuality" fill-rule="evenodd" xmlns:v="https://vecta.io/nano"><style><![CDATA[.I{stroke-width:2.909}.J{stroke-linejoin:round}.K{stroke-miterlimit:2.61313}]]></style><g stroke="#f2f2f2" class="I J K"><path d="M137.586 144.439l13.759 23.83 13.758 23.831h27.518 27.517l13.759-23.831 13.758-23.83-13.758-23.831-13.759-23.831h-27.517-27.518l-13.758 23.831z" fill="#e6e6e6"/><path d="M220.138 96.777l13.759 23.831 13.758 23.831h27.517 27.518l13.758-23.831 13.759-23.831-13.759-23.83-13.758-23.831h-27.518-27.517l-13.758 23.831zm-165.104 0l13.759 23.831 13.759 23.831h27.517 27.517l13.759-23.831 13.758-23.831-13.758-23.83-13.759-23.831h-27.517-27.517L68.793 72.947z" fill="#ccc"/></g><path d="M137.586 49.116l13.759 23.831 13.758 23.83h27.518 27.517l13.759-23.83 13.758-23.831-13.758-23.831-13.759-23.83h-27.517-27.518l-13.758 23.83z" stroke="#f1f1f1" fill="#b3b3b3" class="I J K"/><path d="M0 96.777h27.517 27.517l13.759-23.83 13.759-23.831-13.759-23.83L55.034 1.455H27.517 0z" fill="#e6e6e6"/><path d="M0 96.777h27.517 27.517l13.759-23.83 13.759-23.831-13.759-23.83L55.034 1.455H0" stroke="#f2f2f2" fill="none" class="I J K"/><path d="M73.914 49.116L50.716 8.935l14.259 35.202-23.198 40.181-37.458 4.979h46.397l23.198-40.181zm247.655 47.661l-23.198-40.18 14.259 35.201-23.198 40.181-37.458 4.979h46.397l23.198-40.181zm-82.552-47.661L215.819 8.935l14.26 35.202-23.199 40.18-37.457 4.979h46.396l23.198-40.18zm0 95.323l-23.198-40.181 14.26 35.202-23.199 40.18-37.457 4.979h46.396l23.198-40.18zm-82.551-47.662l-23.199-40.18 14.26 35.201-23.198 40.181-37.458 4.979h46.396l23.199-40.181z" fill="#fff" fill-opacity=".2"/></svg>