<?xml version="1.0" encoding="UTF-8"?>
<svg xmlns="http://www.w3.org/2000/svg" width="48" height="48" viewBox="0 0 27.191 27.191" shape-rendering="geometricPrecision" image-rendering="optimizeQuality" fill-rule="evenodd" xmlns:v="https://vecta.io/nano"><g fill-rule="nonzero"><path d="M0 13.021C0 5.83 5.858 0 13.083 0a13.08 13.08 0 0 1 10.289 4.977c2.36 2.355 3.819 5.605 3.819 9.193 0 7.191-5.858 13.021-13.084 13.021-4.175 0-7.893-1.947-10.289-4.977C1.459 19.858 0 16.609 0 13.021z" fill="#333"/><path d="M1.006 13.021c0-6.639 5.407-12.02 12.077-12.02s12.078 5.381 12.078 12.02S19.754 25.04 13.083 25.04 1.006 19.659 1.006 13.021z" fill="#d0d0d0"/></g><path d="M13.021 6.764h0a1.22 1.22 0 0 1 1.216 1.216v3.825h3.825a1.22 1.22 0 0 1 1.216 1.216h0a1.22 1.22 0 0 1-1.216 1.215h-3.825v3.826a1.22 1.22 0 0 1-1.216 1.215h0a1.22 1.22 0 0 1-1.216-1.215v-3.826H7.98a1.22 1.22 0 0 1-1.216-1.215h0a1.22 1.22 0 0 1 1.216-1.216h3.825V7.98a1.22 1.22 0 0 1 1.216-1.216z" fill="#333"/></svg>
