<?xml version="1.0" encoding="UTF-8"?>
<svg xmlns="http://www.w3.org/2000/svg" width="44" height="44" viewBox="0 0 1.078 1.078" shape-rendering="geometricPrecision" image-rendering="optimizeQuality" fill-rule="evenodd" xmlns:v="https://vecta.io/nano"><rect width="1.078" height="1.078" rx=".539" fill="#c79521"/><path d="M.27.347S.182.506.182.703c0 0 .052.089.187.093L.41.745C.332.722.303.673.303.673l.019.012c.021.012.036.019.05.024a.44.44 0 0 0 .09.026c.046.009.1.012.158.001A.39.39 0 0 0 .709.71.39.39 0 0 0 .779.674s-.03.05-.11.072l.04.05C.844.792.896.703.896.703.896.506.808.347.808.347.72.281.636.282.636.282l-.008.01C.732.324.78.37.78.37.716.335.654.318.596.311.552.306.51.307.473.312.441.315.389.323.323.352L.287.37S.338.322.448.29L.442.282S.358.281.27.347zM.425.51C.46.51.488.541.487.578S.46.646.425.646.362.616.362.578.39.51.425.51zm.161.068C.586.541.613.51.648.51S.71.541.71.578.683.646.648.646.586.616.586.578z" fill="#fff"/></svg>