<?xml version="1.0" encoding="UTF-8"?>
<svg xmlns="http://www.w3.org/2000/svg" width="69" height="69" viewBox="0 0 1.842 1.842" shape-rendering="geometricPrecision" image-rendering="optimizeQuality" fill-rule="nonzero" xmlns:v="https://vecta.io/nano"><path d="M0 .882C0 .395.397 0 .886 0c.283 0 .535.132.697.337a.88.88 0 0 1 .259.623c0 .487-.397.882-.886.882-.283 0-.535-.132-.697-.337A.88.88 0 0 1 0 .882z" fill="#333"/><path d="M.068.882c0-.45.366-.814.818-.814s.819.364.819.814-.367.814-.819.814S.068 1.332.068.882z" fill="#ffbb06"/><path d="M.192.882C.192.5.503.191.886.191s.695.309.695.691-.311.691-.695.691S.192 1.264.192.882z" fill="#ffce0f"/><path d="M.314.945a.61.61 0 0 1 .613-.61c.198 0 .373.094.486.238C1.307.391 1.108.267.881.267a.61.61 0 0 0-.613.611.6.6 0 0 0 .127.371.6.6 0 0 1-.081-.304z" fill="#ffdc52"/><path d="M.944.436v.088a.19.19 0 0 1 .087.035.28.28 0 0 1 .064.081l-.088.049C.981.642.946.618.904.618.877.618.855.625.838.641S.811.676.811.699.819.738.833.752a.31.31 0 0 0 .084.049l.09.047c.024.014.042.028.054.042.034.036.051.08.051.132s-.016.096-.046.135a.22.22 0 0 1-.122.078v.093H.865v-.09c-.059-.01-.104-.03-.135-.061a.29.29 0 0 1-.069-.143l.099-.02c.014.045.031.078.05.097s.048.028.082.028.061-.011.083-.032.033-.048.033-.081S.999.972.98.954A.3.3 0 0 0 .939.925.63.63 0 0 0 .869.889C.811.863.772.839.754.817.725.785.71.746.71.7.71.679.714.659.721.64S.738.605.751.589.78.561.799.55A.26.26 0 0 1 .865.524V.436h.079z" fill="#2f2f2f"/></svg>