<?xml version="1.0" encoding="UTF-8"?>
<svg xmlns="http://www.w3.org/2000/svg" width="29" height="29" viewBox="0 0 0.331 0.331" shape-rendering="geometricPrecision" image-rendering="optimizeQuality" fill-rule="nonzero" xmlns:v="https://vecta.io/nano"><path d="M.165 0c.092 0 .166.074.166.165S.257.331.165.331 0 .257 0 .165.074 0 .165 0z" fill="#fff"/><path d="M.165.017c.082 0 .148.066.148.148S.247.313.165.313.017.247.017.165.083.017.165.017z" fill="#627eea"/><path d="M.17.136l.069.031L.17.136.1.167.17.136zm0 .072L.239.167.17.054.1.167.17.208h0zm0 .068L.239.18.17.221h0L.1.18z" fill="#fff"/></svg>