<?xml version="1.0" encoding="UTF-8"?>
<svg xmlns="http://www.w3.org/2000/svg" width="51" height="51" viewBox="0 0 154.806 154.806" shape-rendering="geometricPrecision" image-rendering="optimizeQuality" fill-rule="evenodd" xmlns:v="https://vecta.io/nano"><circle cx="77.403" cy="77.403" r="77.403" fill="#333"/><path d="M148.26 77.404c0 39.13-31.721 70.851-70.857 70.851-39.13 0-70.857-31.721-70.857-70.851 0-39.136 31.727-70.853 70.857-70.853 39.136 0 70.857 31.717 70.857 70.853zm-31.705-24.278c-2.459 1.109-5.172 1.782-7.817 2.228 1.254-.214 3.1-2.491 3.842-3.405 1.129-1.407 2.064-3.005 2.592-4.736l-.014-.406-.416.037c-2.956 1.58-6.014 2.729-9.272 3.543l-.635-.165-.808-.83c-1.373-1.166-2.835-2.078-4.488-2.75a15.63 15.63 0 0 0-6.886-1.11c-2.277.149-4.51.79-6.531 1.846a16.83 16.83 0 0 0-5.268 4.303c-1.487 1.836-2.583 4.003-3.145 6.299-.544 2.219-.498 4.414-.165 6.653l-.325.375c-12.726-1.895-23.27-6.447-31.837-16.205-.369-.427-.571-.427-.877.028-3.747 5.62-1.928 14.645 2.753 19.078.625.592 1.268 1.184 1.958 1.727-.259.047-3.369-.287-6.145-1.727l-.597.32c-.029.611.021 1.169.106 1.828.719 5.694 4.662 10.962 10.06 13.011.645.271 1.348.509 2.041.625-1.232.271-2.495.461-6.023.189-.442-.088-.607.135-.442.556 2.655 7.227 8.38 9.378 12.662 10.604.573.098 1.148.098 1.726.232l-.106.104c-1.419 2.164-6.349 3.778-8.647 4.583-4.171 1.458-8.714 2.112-13.131 1.682-.702-.107-.853-.098-1.047 0l.204.469c.897.591 1.809 1.116 2.737 1.623 2.802 1.484 5.718 2.665 8.778 3.509 15.772 4.357 33.541 1.157 45.392-10.613 9.297-9.24 12.56-21.985 12.56-34.748 0-.501.584-.771.939-1.037 2.424-1.818 4.371-3.995 6.178-6.426a1.96 1.96 0 0 0 .408-1.227v-.067h-.314z" fill="#f3c14d" fill-rule="nonzero"/></svg>