<?xml version="1.0" encoding="UTF-8"?>
<svg xmlns="http://www.w3.org/2000/svg" width="51" height="51" viewBox="0 0 17.061 17.061" shape-rendering="geometricPrecision" image-rendering="optimizeQuality" fill-rule="evenodd" xmlns:v="https://vecta.io/nano"><circle cx="8.531" cy="8.531" r="8.531" fill="#333"/><path d="M16.531 8.425a7.81 7.81 0 0 1-7.809 7.809A7.81 7.81 0 0 1 .913 8.425 7.81 7.81 0 0 1 8.722.616a7.81 7.81 0 0 1 7.809 7.809zm-6.448.147l-2.15 1.064c-.085.045-.371-.015-.371-.111V7.341c0-.097.289-.158.373-.11l2.058 1.12c.087.049.177.174.09.221zm2.82-1.283c0-1.035-.84-1.875-1.875-1.875H6.233c-1.036 0-1.875.84-1.875 1.875V9.52c0 1.036.839 1.876 1.875 1.876h4.795c1.035 0 1.875-.84 1.875-1.876V7.289z" fill="#f3c14d" fill-rule="nonzero"/></svg>