<?xml version="1.0" encoding="UTF-8"?>
<svg xmlns="http://www.w3.org/2000/svg" width="51" height="51" viewBox="0 0 10.222 10.222" shape-rendering="geometricPrecision" image-rendering="optimizeQuality" fill-rule="evenodd" xmlns:v="https://vecta.io/nano"><circle cx="5.111" cy="5.111" r="5.111" fill="#333"/><path d="M9.79 5.105A4.68 4.68 0 0 0 5.111.426 4.68 4.68 0 0 0 .433 5.105 4.68 4.68 0 0 0 4.38 9.726V6.457H3.192V5.105H4.38V4.074c0-1.173.699-1.82 1.767-1.82a7.24 7.24 0 0 1 1.048.091v1.151h-.59c-.581 0-.762.361-.762.731v.878H7.14l-.208 1.352H5.843v3.269A4.68 4.68 0 0 0 9.79 5.105z" fill="#f3c14d" fill-rule="nonzero"/></svg>