<?xml version="1.0" encoding="UTF-8"?>
<svg xmlns="http://www.w3.org/2000/svg" width="51" height="51" viewBox="0 0 21.886 21.886" shape-rendering="geometricPrecision" image-rendering="optimizeQuality" fill-rule="evenodd" xmlns:v="https://vecta.io/nano"><circle cx="10.943" cy="10.943" r="10.943" fill="#333"/><path d="M5.07 13.273V8.584c0-1.946 1.583-3.528 3.528-3.528h4.689a3.53 3.53 0 0 1 3.528 3.528v4.689a3.53 3.53 0 0 1-3.528 3.528H8.598c-1.945 0-3.528-1.582-3.528-3.528zm5.921-4.197c-1.022 0-1.853.831-1.853 1.852s.831 1.854 1.853 1.854 1.853-.832 1.853-1.854-.831-1.852-1.853-1.852zm-4.816-.492v4.689c0 1.336 1.087 2.423 2.423 2.423h4.689c1.336 0 2.423-1.087 2.423-2.423V8.584c0-1.337-1.087-2.423-2.423-2.423H8.598c-1.336 0-2.423 1.086-2.423 2.423zm4.816 5.237c-1.595 0-2.892-1.298-2.892-2.893s1.297-2.892 2.892-2.892 2.892 1.297 2.892 2.892-1.297 2.893-2.892 2.893zm2.372-5.98a.69.69 0 0 1 .689-.688.69.69 0 0 1 .689.688.69.69 0 0 1-.689.69.69.69 0 0 1-.689-.69zM10.943.926A10.02 10.02 0 0 0 .926 10.943a10.02 10.02 0 0 0 10.017 10.016 10.02 10.02 0 0 0 10.016-10.016A10.02 10.02 0 0 0 10.943.926z" fill="#f3c14d"/></svg>