<?xml version="1.0" encoding="UTF-8"?>
<svg xmlns="http://www.w3.org/2000/svg" xmlns:xlink="http://www.w3.org/1999/xlink" width="556" height="581" viewBox="0 0 239.247 250.065" shape-rendering="geometricPrecision" image-rendering="optimizeQuality" fill-rule="evenodd" xmlns:v="https://vecta.io/nano"><style><![CDATA[.n{fill:#fff}.o{fill:#f0b11e}.p{fill:#fba7c3}.q{fill:#2b676b}.r{fill:#224649}.s{fill:#cf5d83}.t{fill:#cb920e}.u{fill:#ffd470}.v{fill:#4d4d4d}.w{fill:#fbc7d8}.x{fill:#ffb5ce}.y{fill:#f596b4}.z{fill:url(#A)}.AA{fill:#d46360}.AB{fill:#33231f}.AC{fill:#bd7777}.AD{fill:#0c3033}.AE{fill:#9e513f}.AF{fill:#bd6c5a}.AG{fill:#9e3759}]]></style><defs><linearGradient id="A" x1="49.8849%" y1="84.666%" x2="49.8854%" y2="0%"><stop offset="0" stop-color="#ffd1e0"/><stop offset="1" stop-color="#fff"/></linearGradient><linearGradient id="B" x1="43.067" y1="86.272" x2="99.029" y2="77.544" xlink:href="#N"><stop offset="0" stop-color="#f0b11e"/><stop offset="1" stop-color="#cb920e"/></linearGradient><linearGradient id="C" x1="134.422" y1="83.568" x2="134.422" y2="41.501" xlink:href="#N"><stop offset="0" stop-color="#bd6c5a"/><stop offset="1" stop-color="#fff"/></linearGradient><linearGradient id="D" x1="49.611" y1="52.888" x2="-21.373" y2="-70.061" xlink:href="#N"><stop offset="0" stop-color="#ffc644"/><stop offset="1" stop-color="#eee"/></linearGradient><linearGradient id="E" x1="53.2051%" y1="80.1745%" x2="33.7212%" y2="0%" xlink:href="#N"><stop offset="0" stop-color="#ed82a6"/><stop offset="1" stop-color="#fff"/></linearGradient><linearGradient id="F" xlink:href="#D" x1="82.467" y1="73.388" x2="15.25" y2="83.871"/><linearGradient id="G" x1="211.937" y1="228.255" x2="211.938" y2="-195.933" xlink:href="#N"><stop offset="0" stop-color="#ff755d"/><stop offset="1" stop-color="#fff"/></linearGradient><linearGradient id="H" xlink:href="#E" x1="63.005" y1="157.925" x2="59.363" y2="114.088"/><linearGradient id="I" x1="130.053" y1="244.967" x2="130.054" y2="-143.51" xlink:href="#N"><stop offset="0" stop-color="#ffcd59"/><stop offset="1" stop-color="#fff"/></linearGradient><linearGradient id="J" x1="60.352" y1="286.359" x2="60.354" y2="-151.785" xlink:href="#N"><stop offset="0" stop-color="#85de7e"/><stop offset="1" stop-color="#fff"/></linearGradient><linearGradient id="K" xlink:href="#B" x1="99.916" y1="-10.836" x2="70.731" y2="64.658"/><linearGradient id="L" xlink:href="#B" x1="-5.113" y1="-14.108" x2="53.985" y2="88.253"/><linearGradient id="M" xlink:href="#D" x1="87.709" y1="47.131" x2="122.764" y2="-43.547"/><linearGradient id="N" gradientUnits="userSpaceOnUse"/></defs><path d="M50.688 59.399C57.111 50.49 57.07 36 49.669 23.181S29.74 3.082 18.813 4.19l-.888-1.538-7.065 4.079c-12.142 7.01-14.451 25.74-5.159 41.835s26.668 23.46 38.809 16.45l7.066-4.079-.888-1.538z" fill="url(#L)"/><path d="M51.576 60.937c12.141-7.01 14.451-25.74 5.158-41.835S30.067-4.358 17.925 2.652s-14.451 25.74-5.159 41.835 26.668 23.46 38.81 16.45z" fill="url(#D)"/><circle transform="matrix(.33837 -.195358 .258971 .448551 34.7504 31.7945)" r="46.872" class="o"/><g class="t"><path d="M52.662 46.588c3.25-6.457 2.721-15.685-2.051-23.95-6.704-11.612-19.24-16.925-27.999-11.868-3.476 2.007-5.834 5.346-6.996 9.368 1.315-2.613 3.249-4.773 5.773-6.231 8.76-5.057 21.295.257 27.999 11.868 4.044 7.004 5.041 14.699 3.274 20.813zm-7.119-8.026l-2.394 2.109.329-.31.296-.329.277-.342.244-.355.219-.37.194-.393.162-.399.133-.422.111-.431.079-.449.043-.457.021-.478-.017-.492-.037-.5-.074-.508-.106-.526-.12-.47-.148-.461-.179-.467-.206-.472-.232-.468-.254-.471-.282-.463-.306-.46-.323-.454-.338-.453-.365-.445-.382-.433-.392-.424-.412-.42-.421-.404-.434-.397-.455-.38-.458-.368-.47-.349-.476-.331-.482-.316-.487-.299-.489-.28-.496-.259-.502-.23-.494-.208-.501-.192-.491-.163-.494-.14-.487-.105-.484-.086-.477-.052-.535-.025-.532-.004-.526.022-.522.049-.518.069-.516.102-.507.117-.499.138-.487.169-.477.184-.463.215-.457.236-.443.254-.422.274-.406.299-.392.311-.378.341-.354.356 2.239-2.256.36-.36.371-.337.395-.322.413-.303.432-.276.439-.256.461-.234.47-.218.477-.185.497-.171.497-.145.513-.121.518-.095.52-.074.532-.051.531-.021.532.004.539.026.481.054.486.08.493.115.495.139.499.167.503.186.503.212.498.24.5.261.499.278.49.306.486.317.478.339.474.35.463.37.452.386.439.398.43.408.412.419.402.434.381.439.367.452.342.455.325.461.305.465.283.47.261.468.23.474.21.473.177.472.15.469.121.47.108.533.074.52.04.508.017.492-.015.473-.049.474-.079.449-.109.438-.136.421-.166.409-.194.393-.222.376-.247.366-.273.344-.305.325-.324.312zm-7.419-11.051l-2.334 2.213-.131.142-.11.164-.09.177a1.63 1.63 0 0 0-.07.203l-.054.223-.021.228c-.01.084-.009.165-.008.246l.012.254.037.269.059.272.075.284.095.28.121.289.137.283.162.28 2.337-2.181c-.059-.091-.113-.186-.165-.287l-.141-.285-.119-.294c-.036-.089-.065-.187-.097-.287l-.077-.278c-.024-.084-.039-.177-.059-.272l-.035-.275-.017-.255.004-.248c.013-.076.02-.154.028-.232l.055-.228c.017-.062.04-.128.069-.198a1.65 1.65 0 0 1 .092-.183l.11-.163.135-.141z"/><path d="M38.341 31.137l-2.337 2.181.185.27c.062.086.131.162.199.244l.221.222.228.187.238.172.248.145.249.127.248.101c.079.036.161.062.246.082l.238.06.226.043a2.78 2.78 0 0 0 .22.016h.197l.185-.022c.052-.011.102-.03.156-.046.043-.015.09-.04.137-.066l2.361-2.165c-.047.026-.092.045-.138.065l-.16.045c-.062.001-.124.014-.183.017l-.205.009-.214-.02-.232-.039-.242-.062-.246-.082-.252-.103-.25-.126-.249-.152-.239-.173-.234-.195-.219-.215-.203-.246-.179-.274z"/><path d="M41.786 32.688l-2.361 2.165c.031-.019.072-.053.113-.087l2.362-2.159-.114.081zm-9.201-.65l-2.291 2.174-.42.269-.459.172-.463.09-.442-.001-.392-.075-.316-.14 2.264-2.165.325.143c.125.029.257.049.394.07.146.007.293 0 .443-.004l.462-.085.465-.176.43-.272z"/><path d="M30.066 32.362l-2.264 2.165c-.047-.031-.088-.065-.133-.101s-.085-.088-.124-.128a.99.99 0 0 1-.114-.156l-.109-.172-.09-.197-.082-.206c-.028-.073-.045-.148-.067-.224l-.05-.244-.035-.244c-.014-.086-.017-.174-.024-.264-.005-.083 0-.181.002-.268l.016-.267c.007-.091.021-.185.038-.278l.052-.273.081-.274.097-.268 2.269-2.207-.103.272-.077.276-.059.282-.037.272-.018.274.001.274.021.257.038.251.054.245c.017.076.039.152.064.231l.087.207c.025.066.055.133.086.195l.107.178.116.15.126.136.131.106z"/><path d="M29.529 28.756l-2.269 2.207.128-.256.136-.241.152-.216.165-.198.171-.177 2.271-2.212-.176.175c-.06.064-.114.137-.165.199l-.149.223-.139.233-.125.263z"/><path d="M26.651 23.481l-1.909 1.834-.357.349-.328.378-.309.393-.292.411-.259.43-.242.449-.211.467-.18.479-.161.505-.125.513-.093.531-.061.549-.031.561.009.57.045.59.061.503.09.489.113.492.146.479.166.475.188.471.219.464.237.452.26.441.278.431.312.418c.103.146.212.275.323.411l.351.402.375.386.387.367.414.358.426.337.45.322.467.317.487.286.505.274.523.251.538.237.556.213.573.188.582.18.603.144.615.124.628.103.651.075.655.052.67.02.691.003.675-.021.656-.035.632-.063.612-.089.591-.11.571-.124.539-.142.526-.159.503-.188.474-.204.449-.214.429-.24.404-.263.371-.268 2.066-1.675-.38.278-.401.257-.434.239-.457.223-.479.203-.506.186-.524.166-.552.15-.573.129-.593.103-.615.082-.644.071-.66.033-.681.025-.695-.004-.679-.024-.661-.048-.654-.082-.629-.098-.623-.127-.606-.151-.592-.177-.58-.185-.558-.22-.539-.232-.53-.259-.509-.276-.485-.292-.473-.312-.456-.336-.432-.334-.412-.363-.397-.377-.376-.387-.35-.402-.328-.412-.312-.431-.287-.434-.258-.447-.241-.454-.219-.464-.194-.479-.167-.475-.142-.49-.113-.492-.094-.503-.065-.504-.046-.591-.003-.586.025-.57.069-.546.091-.538.127-.518.156-.507.183-.484.216-.472.238-.45.266-.434.291-.424.315-.396.333-.377.36-.36zm3.632 4.182l-1.935 1.786a1.51 1.51 0 0 1 .178-.155l.193-.126.191-.107.198-.074.207-.057c.069-.005.136-.017.207-.027l.209-.007c.063.012.132.019.199.02l.205.06c.066.032.13.056.198.082l.194.105.182.139.167.157.144.18c.042.072.088.133.134.195l.116.219.096.223.079.242.061.254.04.258.018.268.007.271c-.012.089-.017.187-.018.273l-.039.278a2.8 2.8 0 0 0-.06.27l-.08.274-.102.266-.281.478-.37.375 1.964-1.745.364-.371.283-.483.104-.271.076-.276.068-.279.037-.273.016-.28-.001-.274c-.013-.086-.019-.182-.026-.272l-.034-.262-.065-.255-.08-.243-.093-.228-.118-.214-.135-.195-.15-.188-.163-.156-.186-.14-.197-.112-.199-.077-.207-.054c-.063-.012-.134-.014-.202-.028l-.207.002c-.073.016-.143.026-.21.025-.067.024-.135.042-.204.059l-.2.079-.204.103c-.061.051-.124.095-.19.132l-.179.156zm9.248 3.27l-.178-.274-.191-.253-.192-.236-.213-.218-.205-.198a2.21 2.21 0 0 1-.218-.176l-.219-.159c-.074-.035-.149-.082-.219-.128l-.22-.102-.22-.085c-.071-.015-.144-.043-.211-.056l-.215-.032c-.067-.001-.134-.002-.203.003l-.194.019-.188.059-.169.084-.155.115 2.003-1.785.155-.115.171-.09.191-.052c.062-.013.127-.02.198-.03.065.006.127.006.2.002.072.015.14.029.215.033l.215.057.217.083c.072.041.148.07.227.106l.218.133.225.155.217.177.21.199.207.222.2.239.189.259.179.274.16.286.138.283.118.282.099.281.073.276.055.271.036.256.019.25-.003.23-.016.224c-.016.062-.025.128-.035.199-.021.06-.039.128-.054.184l-.07.16-.081.137-.097.125-2.036 1.73c.031-.032.065-.075.097-.113l.083-.142.068-.155c.021-.06.036-.117.054-.185l.031-.2.02-.21.005-.235-.019-.25-.038-.251c-.022-.089-.035-.175-.051-.268l-.078-.273-.091-.278-.118-.282-.14-.278c-.059-.091-.107-.19-.156-.284z"/></g><path d="M47.423 31.729c-.566-2.481-2.457-5.147-4.835-7.227s-5.257-3.602-7.8-3.8c-5.733-.446-11.408 3.6-10.758 10.032.272 2.696 1.694 5.239 3.951 7.112s5.369 3.092 9.01 3.155c7.567.13 11.737-3.545 10.432-9.272zm-9.144-4.333c-.885.545-.86 2.217.062 3.741.921 1.499 2.799 1.932 3.445 1.551.636-.392.694-2.013-.228-3.525-.916-1.515-2.38-2.307-3.279-1.767zm-5.797-.018c1.025.674 1.361 2.378.75 3.806-.612 1.434-2.434 1.645-3.166 1.178-.73-.485-1.147-2.165-.537-3.606.617-1.445 1.933-2.055 2.953-1.378z" class="u"/><path d="M31.564 31.298l-.018-.268-.04-.258-.061-.254-.079-.242-.096-.223-.116-.219-.134-.195-.144-.18c-.06-.048-.112-.105-.167-.157l-.182-.139-.194-.105-.198-.082-.205-.06c-.067-.001-.136-.008-.199-.02l-.209.007c-.019-.001-.04.003-.055.004l-.041.121-.081.274-.055.284-.037.272-.018.274.001.274.021.257a1.77 1.77 0 0 0 .038.251l.054.245c.017.076.041.147.064.231l.087.207a1.42 1.42 0 0 0 .09.197c.032.062.065.118.103.176s.079.105.116.15a1.29 1.29 0 0 0 .126.136l.131.106c.098.05.202.096.325.143a1.69 1.69 0 0 0 .394.07 2.35 2.35 0 0 0 .443-.004c.059-.003.117-.018.177-.026l.049-.155.06-.27.039-.278c.001-.086.006-.184.018-.273l-.007-.271zm6.471-.733l.141.285.165.287c.052.101.113.187.179.274l.203.246.219.215a2.57 2.57 0 0 0 .234.195l.239.173.249.152.25.126.252.103c.002-.005 0-.012-.001-.025-.022-.089-.035-.175-.051-.268l-.078-.273-.091-.278-.118-.282-.14-.278c-.059-.091-.107-.19-.156-.284l-.178-.274-.191-.253-.192-.236-.213-.218-.205-.198a2.21 2.21 0 0 1-.218-.176l-.219-.159c-.074-.035-.149-.082-.219-.128l-.22-.102c-.01-.011-.019-.014-.027-.017l.034.262.059.272c.02.095.046.186.077.278l.097.287a3.35 3.35 0 0 0 .119.294z" class="o"/><path d="M84.7 50.502c7.51-.403 15.218-6.651 18.873-16.105s2.154-19.263-3.133-24.613l.439-1.134-5.211-2.015C86.714 3.174 75.734 9.99 71.146 21.861s-1.05 24.299 7.904 27.761l5.211 2.014.439-1.134z" fill="url(#K)"/><path d="M84.261 51.636c8.955 3.462 19.934-3.354 24.523-15.225s1.05-24.299-7.905-27.761-19.934 3.355-24.523 15.225-1.049 24.3 7.905 27.761z" fill="url(#M)"/><circle transform="matrix(.249556 .096474 -.127888 .330818 92.5701 30.1431)" r="46.872" class="o"/><g class="t"><path d="M92.379 46.05c4.839-1.041 9.532-5.289 11.888-11.385 3.311-8.564.758-17.531-5.702-20.028-2.564-.991-5.357-.814-8.002.295 1.959-.421 3.942-.318 5.803.401 6.461 2.498 9.014 11.465 5.703 20.028-1.997 5.166-5.671 9.004-9.69 10.689zm1.22-7.245l-2.153-.37.307.042.302.017.302.001.294-.023.292-.042.292-.065.282-.085.283-.111.277-.126.273-.151.262-.173.264-.194.256-.22.25-.236.239-.257.235-.282.199-.267.182-.277.173-.296.162-.312.151-.325.141-.338.126-.349.114-.361.103-.367.097-.375.08-.386.067-.39.058-.391.046-.4.035-.398.025-.402.007-.406v-.402l-.017-.401-.027-.396-.039-.392-.05-.389-.06-.381-.076-.376-.093-.366-.101-.353-.113-.349-.124-.332-.138-.324-.153-.305-.162-.295-.177-.277-.217-.295-.226-.286-.238-.271-.251-.257-.259-.247-.276-.231-.28-.22-.289-.207-.298-.187-.304-.175-.313-.155-.322-.142-.326-.127-.328-.107-.333-.089-.335-.075-.343-.055-.343-.035 2.165.224.347.037.339.053.341.073.339.09.333.111.325.125.323.145.318.156.304.176.304.191.292.203.284.221.273.236.263.245.256.262.24.274.226.285.217.299.178.279.167.294.151.312.138.324.125.338.117.348.103.359.086.369.076.379.066.385.047.393.04.395.025.401.017.403.002.406-.011.407-.025.405-.032.404-.047.4-.058.401-.071.392-.083.389-.096.378-.106.372-.117.362-.129.353-.137.34-.154.326-.162.316-.176.297-.185.282-.199.266-.237.287-.246.263-.253.239-.255.22-.26.196-.273.177-.273.151-.281.13-.283.108-.289.088-.293.065-.296.043-.301.026c-.101 0-.201-.001-.301.002l-.304-.023-.306-.039zm2.705-8.704l-2.183-.293-.132-.009-.135.012-.133.028c-.05.015-.094.031-.139.05l-.141.067-.131.087c-.049.03-.092.066-.135.101l-.13.116-.128.135-.119.148-.119.162-.109.171-.102.188-.092.195-.079.207 2.166.309.083-.211.091-.198.106-.19c.032-.057.072-.114.111-.175l.115-.16c.035-.049.078-.097.12-.149l.131-.136.129-.119.134-.104.136-.085.145-.069c.04-.017.085-.034.135-.048.042-.012.089-.022.137-.03l.134-.011.134.011z"/><path d="M94.463 31.775l-2.166-.309-.065.215c-.019.07-.03.139-.045.211l-.023.213-.002.202.011.201.029.194.039.187.053.176a.87.87 0 0 0 .062.166l.07.153.075.139c.026.043.056.085.086.124l.084.105.091.09c.029.023.06.041.092.063.026.017.06.031.094.045l2.169.328c-.034-.014-.064-.029-.094-.045l-.093-.066c-.027-.033-.061-.061-.088-.091l-.092-.105-.082-.123-.078-.14-.072-.156-.062-.166-.053-.179-.04-.187-.026-.199-.011-.201.004-.209c.003-.067.014-.137.02-.209l.044-.214.069-.213z"/><path d="M95.117 34.278l-2.169-.328c.024.008.059.015.095.022l2.166.333-.092-.027zm-3.607-5.184l-2.144-.288-.323-.109-.29-.17-.247-.209-.189-.236-.128-.241-.062-.229 2.128.277.063.235c.038.079.085.158.132.24.059.081.126.157.193.235l.243.21.294.171.33.114z"/><path d="M90.255 27.889l-2.128-.277c-.004-.038-.003-.075-.003-.114l.015-.121c.008-.043.019-.086.034-.128l.046-.132.066-.133.074-.132c.027-.046.06-.087.091-.132l.109-.131.115-.124c.04-.044.085-.084.13-.126s.097-.077.143-.114l.15-.106a1.6 1.6 0 0 1 .165-.099c.056-.034.11-.06.168-.09l.18-.075.185-.063 2.152.262-.19.061-.18.078-.176.09-.161.097-.153.108-.146.118-.128.122-.118.128-.107.134-.095.133-.074.136a1.22 1.22 0 0 0-.066.13l-.05.133-.03.126-.018.126v.115z"/><path d="M91.947 26.054l-2.152-.262.192-.042.186-.031.181-.012.176.003.169.015 2.155.261-.169-.019c-.061-.004-.123-.002-.177-.002l-.183.016-.184.026-.194.047z"/><path d="M93.523 22.252l-1.798-.23-.34-.04-.343-.012-.342.003-.344.022-.341.046-.343.064-.34.089-.333.109-.338.132-.327.153-.323.179-.319.203-.313.225-.3.249-.295.278-.242.249-.222.258-.214.271-.193.284-.182.293-.17.302-.153.316-.139.321-.124.328-.11.333-.089.346c-.034.118-.055.231-.08.349l-.064.36-.045.366-.029.364-.013.374.003.373.022.378.032.385.057.382.07.388.092.386.104.389.125.388.146.386.155.388.182.383.198.382.215.378.239.38.254.371.277.366.295.37.302.351.301.334.305.31.31.288.313.268.311.252.308.226.311.212.315.188.313.165.307.147.313.126.313.102.303.083 1.78.382-.311-.084-.31-.103-.313-.129-.316-.147-.313-.168-.317-.191-.314-.207-.317-.23-.315-.25-.31-.272-.307-.293-.315-.313-.302-.338-.306-.352-.296-.373-.279-.372-.259-.373-.236-.384-.218-.377-.201-.387-.179-.388-.16-.392-.151-.388-.122-.392-.109-.388-.089-.393-.072-.391-.053-.384-.037-.386-.016-.387-.007-.374.016-.376.03-.374.045-.366.064-.359.079-.353.096-.351.108-.339.128-.33.138-.324.153-.315.172-.31.182-.293.2-.286.214-.272.227-.266.241-.252.295-.278.312-.253.314-.232.321-.198.326-.183.331-.155.337-.134.337-.111.344-.087.343-.067.345-.044.351-.027.347-.002.344.015.347.037zm-.669 3.734l-1.785-.265a1.04 1.04 0 0 1 .16.029l.15.049.139.055.125.074.119.086.103.099.094.108c.021.039.046.079.075.115l.056.135c.011.049.026.093.041.141l.027.149.005.156-.013.157-.033.154c-.021.053-.034.104-.047.155l-.066.156-.079.147-.094.146-.11.142-.12.132-.136.125-.141.12a1.68 1.68 0 0 0-.153.108l-.165.099c-.059.024-.116.054-.17.083l-.18.075-.186.06-.376.056-.359-.037 1.775.299.354.034.379-.057.19-.061.18-.078.177-.083.162-.098.156-.112.146-.118c.04-.044.088-.088.133-.131l.125-.131.109-.144.094-.146.082-.149.063-.154.047-.156.035-.161.014-.153-.006-.16-.024-.153-.045-.139-.06-.134-.072-.12-.09-.109a.63.63 0 0 1-.104-.102c-.041-.024-.08-.054-.119-.083l-.128-.072c-.05-.025-.101-.04-.142-.065a.87.87 0 0 1-.152-.044l-.16-.029zm2.23 6.336l.069-.213.053-.21.043-.204.025-.207.017-.195a1.74 1.74 0 0 1 .001-.191l-.01-.185a1.4 1.4 0 0 1-.026-.172l-.039-.161-.05-.154c-.023-.045-.039-.095-.061-.137l-.075-.128-.089-.107-.093-.095-.112-.076c-.039-.015-.078-.034-.118-.053l-.128-.033 1.813.3.128.034.121.052.11.079c.034.028.065.06.101.093a.89.89 0 0 0 .085.108c.023.045.044.086.075.128l.062.14.048.151c.01.056.027.109.042.167l.022.173.014.187-.001.192-.015.197-.03.205-.041.21-.058.212-.069.213-.083.208-.092.195-.1.185-.107.173-.116.158-.121.145-.121.13-.125.117-.124.097-.126.088c-.04.018-.079.042-.121.067l-.122.05-.115.032-.108.015-.108.003-1.797-.343.102.003.111-.017.112-.03c.041-.014.078-.031.122-.05l.12-.07.12-.079.128-.099.125-.117.117-.128.122-.143.112-.159.108-.168.1-.184.088-.194c.023-.071.056-.138.085-.205z"/></g><path d="M98.05 36.872c1.08-1.368 1.689-3.522 1.777-5.683s-.339-4.351-1.327-5.792c-2.225-3.248-6.821-4.536-9.971-1.426-1.32 1.304-2.065 3.155-2.094 5.163s.658 4.191 2.189 6.159c3.183 4.091 6.934 4.735 9.426 1.579zm-1.618-6.737c-.671-.239-1.552.494-1.969 1.64-.403 1.135.173 2.323.654 2.503.482.171 1.371-.495 1.781-1.636s.208-2.26-.466-2.507zm-2.482-3.099c.082.836-.683 1.747-1.707 2.035s-1.923-.591-1.988-1.182c-.055-.598.661-1.541 1.692-1.835s1.926.147 2.003.982z" class="u"/><path d="M91.465 28.231l.136-.125.12-.132.11-.142.094-.146.079-.147.066-.156.047-.155.033-.154c0-.053.008-.105.013-.157l-.005-.156-.027-.149-.041-.141-.056-.135c-.029-.036-.054-.076-.075-.115l-.094-.108c-.007-.011-.019-.02-.025-.027l-.083.029-.181.075a1.84 1.84 0 0 0-.175.093l-.161.097-.153.108-.146.118-.128.122a1.24 1.24 0 0 0-.118.128l-.107.134-.095.133-.074.136c-.024.041-.05.091-.066.132l-.05.131c-.014.045-.022.087-.03.126a1.06 1.06 0 0 0-.018.126v.115c.015.074.035.149.063.235.03.079.076.158.132.24a1.67 1.67 0 0 0 .193.235c.026.03.059.054.089.083l.104-.041.17-.083c.055-.037.109-.066.165-.099a1.68 1.68 0 0 1 .153-.108l.141-.12zm3.172 3.135c-.034.065-.062.131-.091.198l-.083.211c-.031.071-.05.141-.069.213l-.044.214-.02.209c-.006.072-.006.137-.004.209l.011.201.026.199.04.187.053.179.135-.154.112-.159.108-.168.1-.184.088-.194c.023-.071.056-.138.085-.205l.069-.213.053-.21.043-.204.025-.207.017-.195a1.74 1.74 0 0 1 .001-.191l-.01-.185a1.4 1.4 0 0 1-.026-.172l-.039-.161c.001-.011-.001-.016-.003-.022l-.125.13-.12.149c-.042.051-.079.104-.115.16l-.111.175c-.039.061-.073.125-.106.19z" class="o"/><path d="M85.563 74.032c-2.873-4.41-9.356-6.895-16.364-5.802S56.772 73.664 55.38 78.739l-.841.132.602 3.862c1.035 6.638 9.008 10.906 17.807 9.534s15.093-7.866 14.058-14.503l-.603-3.863-.84.131z" fill="url(#B)"/><path d="M86.403 73.901c-1.035-6.638-9.007-10.906-17.806-9.534s-15.093 7.866-14.058 14.504 9.007 10.906 17.807 9.533 15.093-7.865 14.057-14.503z" fill="url(#F)"/><circle transform="matrix(-.02885 -.184988 .245225 -.038245 70.4711 76.3857)" r="46.872" class="o"/><g class="t"><path d="M80.178 70.936c-2.324-2.568-6.54-3.926-11.059-3.221-6.348.99-10.889 5.675-10.142 10.463.296 1.901 1.381 3.531 2.978 4.746-.94-1.04-1.572-2.277-1.787-3.657-.747-4.789 3.794-9.474 10.142-10.464 3.829-.597 7.44.287 9.868 2.133zm-4.818 1.795l.529 1.435-.081-.201-.096-.189-.105-.183-.117-.17-.127-.163-.142-.154-.15-.141-.166-.132-.174-.124-.187-.114-.197-.098-.209-.092-.223-.077-.23-.07-.24-.055-.253-.043-.231-.028-.232-.013a3.84 3.84 0 0 1-.24-.001l-.246.011-.249.022-.255.033-.255.046-.259.057-.259.066-.26.073-.262.086-.26.096-.257.102-.259.111-.253.119-.253.125-.248.138-.244.141-.237.15-.23.155-.225.161-.217.166-.21.17-.202.177-.189.185-.179.185-.172.19-.158.192-.147.197-.132.199-.122.201-.106.205-.103.234-.094.237-.081.239-.068.242-.058.244-.044.248-.036.246-.024.248-.009.246.001.245.015.244.027.245.037.242.049.236.063.234.072.228.087.228.098.22-.621-1.39-.099-.224-.087-.224-.075-.232-.064-.237-.049-.241-.038-.24-.025-.247-.017-.247v-.246l.009-.251.021-.248.035-.249.047-.248.057-.246.069-.246.082-.241.094-.237.105-.236.107-.206.12-.204.136-.201.148-.196.161-.195.17-.192.181-.188.194-.182.203-.178.211-.175.221-.166.226-.162.234-.156.238-.151.245-.143.251-.136.254-.127.256-.122.259-.111.263-.105.262-.094.266-.086.262-.074.262-.066.261-.056.259-.045.254-.036.252-.021.247-.012.242.002.235.014.231.027.257.044.246.057.233.07.223.077.209.089.203.103.187.113.178.125.164.133.154.145.142.155.13.164.121.174.107.181.092.192.083.199zm-6.221 1.407l.586 1.425.041.083.054.078.064.071a.79.79 0 0 0 .079.066l.09.063.098.048c.036.019.072.033.109.047s.078.026.116.038l.126.03.132.021.14.015.141.006.15-.004.15-.012.154-.024-.571-1.422a1.32 1.32 0 0 1-.157.024l-.152.014-.152.002c-.046.001-.095-.003-.145-.005l-.138-.014c-.041-.004-.085-.013-.131-.021l-.129-.032-.117-.036-.11-.045-.099-.053-.092-.064c-.025-.018-.051-.039-.077-.064l-.066-.073-.054-.078-.04-.084z"/><path d="M70.798 74.667l.571 1.422.152-.037c.049-.012.095-.03.144-.046l.137-.061.123-.069c.04-.023.079-.05.118-.077l.108-.086.099-.089.088-.094c.03-.028.056-.061.079-.095s.045-.062.069-.096l.058-.094a1.02 1.02 0 0 0 .045-.095l.034-.088.022-.087c.004-.025.005-.05.006-.078.001-.021-.002-.047-.005-.072l-.56-1.429c.003.025.004.049.005.073l-.007.079c-.011.028-.015.058-.024.085l-.032.093-.046.092-.057.096-.07.098-.079.096-.089.095c-.031.031-.067.061-.1.089l-.111.086-.118.077-.128.071-.134.06-.145.049-.153.032z"/><path d="M72.086 73.396l.56 1.429c-.003-.017-.012-.042-.02-.066l-.556-1.429.016.066zm-1.88 4l.576 1.399.047.234-.002.235-.04.223-.077.197-.101.162-.117.117-.577-1.386.121-.12.099-.164c.028-.064.051-.131.075-.199l.041-.221.002-.238-.047-.239z"/><path d="M69.915 78.577l.577 1.386c-.022.016-.044.029-.068.043l-.079.033c-.028.01-.058.019-.089.024l-.096.018-.104.007-.106.001c-.037 0-.074-.005-.112-.009l-.117-.02-.115-.026c-.041-.009-.081-.023-.123-.035s-.08-.031-.119-.047l-.117-.054c-.039-.018-.079-.041-.117-.065s-.075-.046-.113-.07l-.109-.083-.103-.09-.594-1.396.104.094.11.081.116.076.115.063.119.056.123.047.118.035.119.026.119.018.114.011.108-.003.102-.005.098-.016.087-.026.082-.033c.024-.014.05-.026.07-.041z"/><path d="M68.211 78.194l.594 1.396-.092-.102-.084-.102-.071-.105-.06-.108-.049-.107-.596-1.398.048.109c.018.039.041.075.06.108l.074.106.08.102.096.101z"/><path d="M65.356 78.569l.49 1.171.094.219.113.212.121.206.134.202.147.19.159.186.173.174.182.164.198.159.208.144.221.134.235.122.246.111.256.094.271.082.236.06.234.044.239.035.24.017.241.008.242-.003.245-.018.243-.028.243-.039.24-.05.241-.067c.083-.021.159-.048.239-.074l.241-.087.237-.101.231-.11.232-.123.224-.132.222-.145.222-.155.212-.168.21-.178.202-.191.199-.199.191-.212.183-.223.181-.229.169-.245.161-.254.155-.262.146-.278.136-.284.125-.296.121-.308.107-.306.098-.299.081-.293.066-.289.053-.283.043-.277.03-.265.02-.263.003-.257-.01-.247-.018-.238-.033-.233-.048-.226-.056-.213-.391-1.212.059.218.045.224.032.235.021.242.008.249-.005.259-.016.263-.028.272-.042.279-.056.282-.07.289-.079.3-.1.301-.106.309-.122.31-.128.299-.136.288-.149.277-.153.265-.164.256-.172.245-.182.234-.183.227-.194.211-.197.202-.207.192-.212.18-.214.166-.221.158-.229.145-.224.135-.234.122-.237.112-.238.101-.24.087-.241.076-.246.065-.244.053-.244.038-.245.029-.245.018-.247.004-.242-.008-.243-.021-.239-.034-.242-.045-.236-.058-.272-.082-.263-.1-.25-.109-.232-.126-.225-.133-.21-.146-.199-.158-.185-.165-.174-.178-.16-.184-.148-.194-.139-.203-.122-.21-.111-.213-.099-.224zm2.497-.901l.463 1.174a.79.79 0 0 1-.038-.107l-.023-.107-.015-.104.001-.102c.002-.035.007-.069.011-.102l.023-.097.033-.095c.016-.026.032-.055.044-.085l.062-.082.071-.074.08-.068c.03-.021.061-.038.094-.058l.099-.047.105-.034c.04-.006.075-.016.11-.026l.118-.014.117-.004.122.006.124.017.122.027.123.038.122.044c.038.02.08.04.119.055l.117.065a1.26 1.26 0 0 0 .111.074l.108.083.102.092.165.208.103.23-.44-1.179-.103-.227-.167-.21-.104-.093-.109-.082-.113-.079c-.04-.019-.077-.039-.116-.063l-.123-.056-.122-.047c-.041-.009-.085-.023-.126-.035l-.123-.03-.125-.015-.122-.007-.119.003-.116.016-.11.026-.11.035-.098.046-.095.059-.084.068-.069.076-.06.083-.047.085-.035.093c-.005.035-.013.069-.025.099-.001.033-.005.067-.009.101l.001.103c.002.039.011.075.011.109.012.036.021.072.026.108l.039.106zm3.059-3.568l-.153.033-.146.041-.139.045-.134.058-.124.057c-.036.024-.076.047-.116.067l-.109.07a.99.99 0 0 1-.095.076l-.084.081-.076.084-.061.084-.052.091-.033.091-.026.09-.006.094.009.09.024.089-.452-1.203-.024-.09-.011-.091c.005-.031.005-.064.01-.095s.013-.06.021-.093c.014-.028.024-.056.035-.09a.57.57 0 0 0 .052-.09l.063-.086.074-.083c.031-.025.057-.054.087-.083l.097-.074.108-.074.117-.067.125-.059.135-.054.141-.048c.051-.011.098-.026.149-.04l.153-.033.156-.022.15-.012.146-.005.143.005.136.015.131.022.121.028.114.035.103.041.097.046c.025.018.053.033.083.05a.89.89 0 0 0 .073.056l.059.059a.45.45 0 0 1 .048.06l.039.064.421 1.209c-.009-.019-.023-.042-.034-.062l-.049-.062-.057-.057-.074-.056-.084-.049-.09-.045-.104-.043-.115-.035-.119-.026-.129-.024-.135-.012-.14-.007-.147.004-.148.015c-.051.01-.103.014-.154.02z"/></g><path d="M72.631 70.71c-1.206-.176-2.724.209-4.065.912s-2.518 1.728-3.046 2.831c-1.19 2.484-.362 5.72 2.625 6.541 1.252.344 2.634.148 3.861-.537s2.31-1.865 2.967-3.482c1.365-3.36.443-5.858-2.342-6.265zm-3.516 3.338c.09.49.842.768 1.683.619.829-.153 1.347-.917 1.288-1.271-.065-.352-.78-.658-1.615-.508s-1.442.666-1.356 1.16zm-1.01 2.589c.478-.342 1.298-.198 1.831.322s.315 1.372-.021 1.618c-.343.243-1.165.139-1.704-.383s-.584-1.219-.106-1.557z" class="u"/><path d="M69.699 77.724l-.123-.038-.122-.027-.124-.017-.122-.006-.117.004-.118.014-.11.026-.105.034c-.032.018-.067.032-.099.047l-.094.058-.08.068-.071.074-.062.082c-.012.03-.028.059-.044.085l-.033.095c-.003.008-.005.018-.007.025l.047.04.108.083c.037.026.078.051.118.074l.115.063.119.056.123.047.118.035a.89.89 0 0 0 .119.026l.119.018.114.011.108-.003c.033 0 .072-.001.103-.006l.097-.015c.032-.007.06-.018.087-.026a.82.82 0 0 0 .082-.033c.024-.014.05-.026.07-.041a1.51 1.51 0 0 0 .121-.12c.037-.045.068-.101.099-.164a1.12 1.12 0 0 0 .075-.199c.009-.027.012-.055.019-.083l-.061-.049a1.26 1.26 0 0 1-.111-.074c-.041-.02-.077-.043-.117-.065-.039-.015-.081-.035-.119-.055l-.122-.044zm.79-3.019c.051-.002.102-.008.152-.014l.157-.024c.054-.005.103-.018.153-.032l.145-.049.134-.06a1.34 1.34 0 0 0 .128-.071l.118-.077.111-.086.1-.089.089-.095-.14-.028-.135-.012-.14-.007-.147.004-.148.015c-.051.01-.103.014-.154.02l-.153.033-.146.041-.139.045-.134.058-.124.057c-.036.024-.076.047-.116.067l-.109.07a.99.99 0 0 1-.095.076l-.084.081a.27.27 0 0 0 .111.039l.131.021.138.014.145.005a1.29 1.29 0 0 0 .152-.002z" class="o"/><path d="M40.169 182.168h45.066a6.48 6.48 0 0 1 6.455 6.455v61.442H33.714v-61.442c0-3.55 2.904-6.455 6.455-6.455z" fill="url(#J)"/><path d="M63.993 208.926h-2.582v-13.829h2.582z" class="v"/><path d="M112.414 140.392h45.066a6.48 6.48 0 0 1 6.455 6.455v103.218h-57.976V146.847c0-3.55 2.904-6.455 6.455-6.455z" fill="url(#I)"/><path d="M133.235 167.284h-2.582v-13.829h2.582v13.829zm6.006 0h-2.582v-13.829h2.582v13.829z" class="v"/><path d="M110.19 103.663l-1.909-.794c-5.108-3.702-4.493-8.351-4.571-13.047-.036-2.166-.623-4.291-.805-6.449-.221-2.637 2.204-4.019 5.338-2.886 2.638.953 5.119 2.295 7.678 3.443l9.885 4.116-15.616 15.617zm49.514-1.053l1.575.012c6.351-4.506 5.01-8.974 5.088-13.671.036-2.165.44-4.473.621-6.631.222-2.637-2.204-4.201-5.337-3.069-2.638.953-5.119 2.569-7.679 3.717l-9.885 4.025 15.617 15.617z" class="w"/><path d="M115.189 97.987l-1.499-5.347c-1.629-1.118-3.629-4.351-6.005-8.207-.737-1.197-1.72-1.426-1.91-.119-.305 2.087-.01 4.026.279 6.021.202 1.393.446 2.834.754 4.225.541 2.443 1.753 4.1 2.967 4.98l5.414-1.553zm39.515-1.053c.5-1.782-.034-3.094.466-4.877 1.629-1.118 4.663-4.821 7.038-8.677.738-1.197 1.72-1.426 1.911-.119.304 2.087.01 4.026-.28 6.021-.202 1.393-.446 2.834-.753 4.225-.541 2.443-2.348 4.694-3.561 5.574-1.805-.518-3.016-1.629-4.821-2.147z" class="x"/><path d="M115.189 97.987l-1.499-5.347c-1.629-1.118-3.629-4.351-6.005-8.207-.737-1.197-1.72-1.426-1.91-.119-.139.952-.153 1.873-.1 2.783.021-.313.053-.629.1-.949.19-1.307 1.173-1.078 1.91.119 2.376 3.856 4.376 7.089 6.005 8.207l1.023 3.65.476-.137zm39.515-1.053c.5-1.782-.034-3.094.466-4.877 1.629-1.118 4.663-4.821 7.038-8.677.738-1.197 1.72-1.426 1.911-.119.139.952.153 1.874.1 2.784a12.06 12.06 0 0 0-.1-.95c-.191-1.307-1.173-1.078-1.911.119-2.375 3.856-5.409 7.559-7.038 8.677-.323 1.15-.215 2.104-.232 3.115a7.15 7.15 0 0 0-.234-.072z" class="y"/><path d="M151.513 86.565c6.27 9.532 12.444 16.99 12.37 28.055-.042 6.407-2.536 11.592-9.875 14.506-5.387 2.139-11.939 2.659-18.969 2.659s-13.582-.301-18.968-2.44c-7.34-2.914-10.296-7.568-10.296-13.976 0-11.05 5.612-19.263 11.834-28.804 3.709-4.2 6.559-4.877 15.983-4.877 9.155 0 13.938-.185 17.921 4.877z" class="z"/><path d="M136.42 125.935c6.814-.468 8.715-5.353 9.93-10.566-7.141 5.115-14.507 5.61-22.038 2.697 2.389 5.918 6.709 8.239 12.108 7.869z" class="AA"/><path d="M136.314 124.344c-4.752.66-7.569-1.593-9.983-4.502 5.522 2.305 11.978 2.003 18.325-2.241-.283 1.386-2.382 5.917-8.342 6.743z" class="AB"/><path d="M144.372 117.787l.001.001c-.323.723-.678 1.446-1.368 2.17-2.329 1.522-5.413 2.852-11.224 2.522-1.911-.108-3.145-1.166-4.102-2.134 5.126 1.7 10.948 1.176 16.693-2.559z" class="n"/><path d="M139.372 123.49c-1.081-.451-2.45-.587-4.041-.571-1.363.014-2.588.355-3.658 1.047 1.326.461 2.845.628 4.641.378a11.37 11.37 0 0 0 3.058-.854z" class="AC"/><path d="M127.374 112.893l2.35-7.014c-.234-8.856-3.055-11.522-6.583-11.777-3.782-.273-6.341 3.226-6.472 10.57-.045 2.579.449 5.131 1.719 7.596l8.986.625z" class="n"/><path d="M128.317 97.971c-1.671-.762-3.622-1.502-5.506-1.353-1.913.152-3.746.78-5.318 2.211 1.06-3.345 3.069-4.913 5.648-4.727 2.114.153 3.974 1.172 5.176 3.869z" class="p"/><path d="M120.619 112.423c-1.371-1.91-2.349-4.071-2.195-6.773.312-5.458 2.443-8.018 5.888-8.192 1.698-.085 4.242 1.09 5.029 4.128.208 1.236.339 2.659.383 4.293l-2.35 7.014-6.755-.47z" class="q"/><path d="M142.177 113.116l-2.5-6.926c.042-8.865 2.803-11.636 6.323-12.023 3.772-.414 6.405 2.99 6.695 10.329.101 2.577-.338 5.147-1.553 7.659l-8.965.961z" class="n"/><path d="M140.912 98.229c1.653-.824 3.586-1.637 5.471-1.558 1.916.08 3.761.639 5.362 2.012-1.131-3.305-3.173-4.799-5.745-4.516-2.11.232-3.946 1.32-5.088 4.062z" class="p"/><path d="M148.916 112.394c1.329-1.962 2.259-4.159 2.046-6.855-.429-5.447-2.614-7.927-6.06-7.972-1.699-.022-3.865 1.204-4.936 4.315-.18 1.244-.281 2.672-.289 4.308l2.5 6.926 6.739-.722z" class="q"/><path d="M128.304 106.068c-.179 2.433-1.602 6.325-4.35 5.884-2.101-.336-3.136-3.426-3.144-5.553-.014-3.483 1.66-6.217 4.014-6.215 2.279.002 3.649 3.612 3.48 5.884zm13.039.107c.232 2.426 1.737 6.265 4.475 5.721 2.091-.415 3.058-3.543 3.02-5.67-.061-3.484-1.793-6.155-4.146-6.065-2.276.087-3.567 3.748-3.349 6.014z" class="AD"/><path d="M126.645 102.501c-.433-.749-1.034-1.474-1.821-1.474-.227-.001-.45.035-.666.106-.802.267-1.384.99-1.755 1.72-.544 1.07-.756 2.352-.751 3.543.003.714.131 1.467.34 2.149-.142-2.271.57-4.179 1.463-4.882.998-.786 1.595.583 2.188.95 1.178.728 1.844-.654 1.002-2.112z" class="r"/><path d="M119.644 91.488c2.385-2.249 5.239-3.499 8.939-3.272 1.105.068 1.549.371 1.663.795.213.793-.567 1.84-1.835 1.963-2.952.286-5.705.389-8.474 1.026-.522.12-.628-.12-.547-.423.016-.057.199-.037.254-.089zm30.099-.535c-2.483-2.14-5.655-3.307-9.34-2.914-1.102.118-1.613.43-1.613.869 0 .854.635 1.813 1.908 1.879 2.961.153 5.717.133 8.512.645.605.111.707-.178.533-.479z" class="AE"/><path d="M149.479 90.615c-2.484-2.14-5.391-3.261-9.076-2.868-1.102.117-1.615.722-1.614 1.161.002.47.636 1.521 1.909 1.587 2.961.153 5.717.132 8.512.644.605.111.713-.141.269-.524zm-29.835.581c2.385-2.25 5.239-3.5 8.939-3.273 1.105.068 1.645.649 1.663 1.088.019.469-.567 1.548-1.835 1.671-2.952.286-5.705.388-8.474 1.025-.6.138-.72-.109-.293-.511z" class="AF"/><path d="M146.952 102.342c-.491-.712-1.148-1.386-1.932-1.324-.227.017-.446.07-.655.159-.779.33-1.302 1.097-1.613 1.853-.458 1.11-.567 2.404-.468 3.592.059.711.247 1.452.509 2.115-.322-2.252.237-4.211 1.071-4.983.933-.863 1.637.455 2.257.774 1.232.632 1.786-.798.831-2.186z" class="r"/><path d="M120.576 86.114c-2.675 1.36-5.291.174-4.533-2.925 1.226-5.015 4.556-8.058 10.054-8.701 3.329-.39 6.114.274 8.079 1.645 2.117-1.26 4.548-2.386 9.03-1.536 4.611.875 7.26 3.688 9.461 9.074 1.489 3.642-3.036 3.431-5.53 2.132-2.41-1.255-4.741-2.45-7.44-2.687-2.119-.186-3.494.961-5.283.95-2.018-.012-3.4-1.014-6.507-1.021-1.999-.005-5.035 1.901-7.331 3.069z" fill="#b1604e"/><path d="M120.576 84.798c-2.675 1.36-5.291 1.49-4.533-1.609 1.226-5.015 4.556-8.058 10.054-8.701 3.329-.39 6.114.274 8.079 1.645 2.117-1.26 4.548-2.386 9.03-1.536 4.611.875 7.26 3.688 9.461 9.074 1.489 3.642-2.737 2.329-5.231 1.03-2.41-1.254-5.04-3.176-7.739-3.413-2.119-.186-3.494.961-5.283.95-2.018-.012-3.4-1.013-6.507-1.021-1.999-.004-5.035 2.413-7.331 3.581z" fill="url(#C)"/><path d="M37.852 145.439l-1.908-.794c-5.108-3.702-4.494-8.351-4.572-13.047-.035-2.166-.622-4.291-.804-6.449-.221-2.637 2.204-4.019 5.338-2.886 2.638.953 5.119 2.295 7.678 3.443l9.885 4.116-15.617 15.617zm49.515-1.053l1.574.012c6.351-4.505 5.01-8.974 5.088-13.671.036-2.165.441-4.473.622-6.631.221-2.637-2.204-4.201-5.338-3.069-2.638.953-5.119 2.569-7.678 3.717l-9.885 4.025 15.617 15.617z" class="w"/><path d="M42.852 139.763l-1.499-5.346c-1.629-1.119-3.63-4.352-6.005-8.208-.737-1.197-1.72-1.426-1.911-.119-.304 2.087-.009 4.026.28 6.021.202 1.393.446 2.834.754 4.225.541 2.443 1.753 4.1 2.966 4.98l5.415-1.553zm39.515-1.053c.5-1.782-.034-3.094.465-4.876 1.629-1.119 4.664-4.822 7.039-8.678.737-1.197 1.72-1.426 1.911-.119.304 2.087.009 4.026-.28 6.021-.202 1.393-.446 2.834-.754 4.225-.54 2.443-2.347 4.694-3.56 5.574-1.805-.518-3.016-1.629-4.821-2.147z" class="x"/><path d="M42.852 139.763l-1.499-5.346c-1.629-1.119-3.63-4.352-6.005-8.208-.737-1.197-1.72-1.426-1.911-.119a13.54 13.54 0 0 0-.099 2.783 12.08 12.08 0 0 1 .099-.949c.191-1.307 1.174-1.078 1.911.119 2.375 3.856 4.376 7.089 6.005 8.207l1.023 3.65.476-.137zm39.515-1.053c.5-1.782-.034-3.094.465-4.876 1.629-1.119 4.664-4.822 7.039-8.678.737-1.197 1.72-1.426 1.911-.119a13.55 13.55 0 0 1 .099 2.784c-.02-.314-.053-.63-.099-.95-.191-1.306-1.174-1.078-1.911.119-2.375 3.856-5.41 7.559-7.039 8.677-.322 1.15-.214 2.104-.231 3.115-.077-.025-.155-.049-.234-.072z" class="y"/><path d="M79.176 128.341c6.269 9.532 12.444 16.99 12.37 28.055-.043 6.407-2.536 11.592-9.876 14.506-5.386 2.139-11.939 2.659-18.968 2.659s-13.582-.301-18.969-2.44c-7.339-2.914-10.296-7.568-10.296-13.976 0-11.05 5.613-19.263 11.834-28.804 3.709-4.2 6.56-4.877 15.984-4.877 9.155 0 13.938-.185 17.921 4.877z" class="z"/><path d="M64.083 167.711c6.814-.468 8.714-5.353 9.93-10.566-7.141 5.115-14.507 5.61-22.038 2.697 2.388 5.918 6.708 8.239 12.108 7.869z" class="AA"/><path d="M63.977 166.121c-4.752.659-7.569-1.594-9.983-4.503 5.522 2.305 11.978 2.003 18.325-2.241-.284 1.386-2.383 5.917-8.342 6.744z" class="AB"/><path d="M72.035 159.563v.001c-.322.723-.677 1.446-1.368 2.17-2.328 1.522-5.412 2.852-11.223 2.522-1.911-.108-3.146-1.166-4.103-2.134 5.127 1.7 10.949 1.176 16.694-2.559z" class="n"/><path d="M67.035 165.266c-1.081-.451-2.45-.587-4.041-.571-1.363.014-2.588.355-3.658 1.047 1.325.461 2.845.628 4.641.379 1.161-.162 2.175-.464 3.058-.855z" class="AC"/><path d="M55.036 154.67l2.35-7.015c-.234-8.856-3.054-11.522-6.583-11.777-3.781-.273-6.34 3.227-6.471 10.57-.046 2.579.449 5.131 1.719 7.596l8.985.626z" class="n"/><path d="M55.979 139.747c-1.671-.762-3.621-1.502-5.505-1.353-1.914.152-3.746.78-5.318 2.211 1.059-3.345 3.069-4.913 5.647-4.727 2.115.153 3.974 1.172 5.176 3.869z" class="p"/><path d="M48.282 154.199c-1.372-1.91-2.349-4.071-2.195-6.773.311-5.458 2.442-8.018 5.888-8.192 1.698-.085 4.242 1.09 5.029 4.128.208 1.236.339 2.659.382 4.293l-2.35 7.015-6.754-.471z" class="q"/><path d="M69.84 154.892l-2.5-6.926c.042-8.865 2.802-11.636 6.323-12.023 3.772-.414 6.404 2.99 6.694 10.329.102 2.577-.337 5.147-1.552 7.66l-8.965.96z" class="n"/><path d="M68.575 140.005c1.652-.824 3.586-1.637 5.471-1.558 1.916.08 3.76.639 5.362 2.012-1.131-3.305-3.173-4.799-5.745-4.516-2.11.232-3.946 1.32-5.088 4.062z" class="p"/><path d="M76.579 154.17c1.329-1.962 2.258-4.159 2.046-6.855-.429-5.446-2.614-7.927-6.06-7.972-1.699-.022-3.865 1.204-4.936 4.315-.181 1.244-.281 2.672-.289 4.308l2.5 6.926 6.739-.722z" class="q"/><path d="M55.967 147.844c-.18 2.433-1.602 6.325-4.351 5.884-2.1-.336-3.135-3.426-3.144-5.553-.013-3.483 1.661-6.217 4.015-6.215 2.279.002 3.648 3.612 3.48 5.884zm13.038.107c.233 2.426 1.738 6.265 4.475 5.721 2.091-.415 3.059-3.543 3.021-5.67-.062-3.484-1.794-6.155-4.146-6.065-2.277.087-3.567 3.748-3.35 6.014z" class="AD"/><path d="M54.307 144.277c-.432-.749-1.033-1.474-1.821-1.474-.227-.001-.45.035-.665.106-.803.267-1.384.99-1.755 1.72-.544 1.07-.756 2.352-.751 3.543.003.714.13 1.467.34 2.149-.143-2.271.57-4.179 1.462-4.882.998-.786 1.596.584 2.188.95 1.179.729 1.845-.653 1.002-2.112z" class="r"/><path d="M62.437 160.755c-6.89.191-9.378-3.412-9.378-7.458 0-4.123 5.541-7.063 9.643-6.836 3.889.214 9.195 3.421 9.048 7.75-.119 3.484-2.6 6.358-9.313 6.544z" fill="url(#H)"/><path d="M59.457 151.003c.751.123 1.163.886.799 1.856s-1.257 1.496-2.005 1.496-1.074-.966-.765-2.008 1.22-1.467 1.971-1.344zm5.559-.311c-.751.124-1.163.887-.799 1.856s1.257 1.496 2.004 1.496 1.075-.966.766-2.008-1.22-1.467-1.971-1.344z" class="AG"/><path d="M59.457 151.003c.68.112 1.082.748.882 1.586a1.07 1.07 0 0 0-.755-.494c-.752-.123-1.662.302-1.971 1.344a2.88 2.88 0 0 0-.091.418c-.183-.379-.207-.933-.036-1.51.309-1.043 1.22-1.467 1.971-1.344zm5.559-.311c-.751.124-1.163.887-.799 1.856l.03.075a1.07 1.07 0 0 1 .896-.838c.732-.121 1.615.279 1.945 1.264.036-.304.005-.654-.101-1.013-.309-1.043-1.22-1.467-1.971-1.344z" class="s"/><path d="M47.307 133.264c2.385-2.249 5.239-3.499 8.938-3.272 1.106.068 1.55.371 1.664.795.212.793-.567 1.84-1.836 1.963-2.951.286-5.705.389-8.474 1.026-.521.12-.627-.12-.546-.423.016-.057.198-.037.254-.089zm30.099-.535c-2.484-2.14-5.655-3.306-9.341-2.914-1.101.118-1.613.43-1.613.869 0 .854.636 1.813 1.909 1.879 2.961.153 5.716.133 8.511.645.605.111.708-.178.534-.479z" class="AE"/><path d="M77.142 132.391c-2.484-2.14-5.391-3.261-9.077-2.868-1.101.117-1.615.722-1.613 1.161.002.47.636 1.521 1.909 1.587 2.961.153 5.716.132 8.511.644.606.111.714-.141.27-.524zm-29.835.581c2.385-2.25 5.239-3.5 8.938-3.272 1.106.067 1.646.648 1.664 1.087.019.469-.567 1.548-1.836 1.671-2.951.286-5.705.388-8.474 1.025-.599.138-.719-.109-.292-.511z" class="AF"/><path d="M74.614 144.118c-.49-.712-1.147-1.386-1.932-1.324a2.06 2.06 0 0 0-.655.159c-.778.33-1.301 1.097-1.613 1.853-.457 1.11-.567 2.405-.467 3.592.059.711.246 1.452.509 2.115-.322-2.252.237-4.211 1.071-4.983.932-.863 1.637.455 2.256.774 1.233.632 1.787-.798.831-2.186z" class="r"/><path d="M182.435 61.887l-1.909-.794c-5.108-3.701-4.493-8.351-4.571-13.047-.036-2.166-.623-4.291-.805-6.449-.221-2.637 2.204-4.019 5.338-2.886 2.638.953 5.119 2.295 7.678 3.443l9.885 4.116-15.616 15.617zm49.514-1.053l1.575.012c6.351-4.505 5.01-8.974 5.088-13.671.036-2.165.44-4.473.621-6.631.222-2.637-2.204-4.201-5.337-3.069-2.638.953-5.119 2.57-7.679 3.717l-9.885 4.025 15.617 15.617z" class="w"/><path d="M187.434 56.211l-1.499-5.346c-1.629-1.119-3.629-4.352-6.005-8.208-.737-1.197-1.72-1.425-1.911-.119-.304 2.087-.009 4.026.28 6.022a58.73 58.73 0 0 0 .754 4.224c.541 2.443 1.753 4.1 2.966 4.98l5.415-1.553zm39.515-1.052c.5-1.783-.034-3.095.466-4.877 1.628-1.119 4.663-4.822 7.038-8.678.738-1.197 1.72-1.425 1.911-.119.304 2.087.01 4.026-.28 6.022-.202 1.392-.446 2.833-.753 4.224-.541 2.443-2.348 4.694-3.561 5.574-1.805-.518-3.016-1.629-4.821-2.146z" class="x"/><path d="M187.434 56.211l-1.499-5.346c-1.629-1.119-3.629-4.352-6.005-8.208-.737-1.197-1.72-1.425-1.911-.119-.138.952-.152 1.873-.099 2.783.021-.313.053-.629.099-.949.191-1.307 1.174-1.078 1.911.119 2.376 3.856 4.376 7.089 6.005 8.207l1.023 3.65.476-.137zm39.515-1.052c.5-1.783-.034-3.095.466-4.877 1.628-1.119 4.663-4.822 7.038-8.678.738-1.197 1.72-1.425 1.911-.119.139.952.153 1.874.1 2.784a12.06 12.06 0 0 0-.1-.95c-.191-1.306-1.173-1.078-1.911.119-2.375 3.856-5.41 7.559-7.038 8.677-.323 1.15-.215 2.104-.232 3.115-.077-.025-.154-.049-.234-.071z" class="y"/><path d="M223.758 44.789c6.27 9.532 12.444 16.99 12.37 28.055-.042 6.407-2.536 11.592-9.875 14.506-5.387 2.139-11.939 2.659-18.969 2.659s-13.582-.301-18.968-2.44c-7.34-2.914-10.297-7.568-10.297-13.976 0-11.05 5.613-19.263 11.835-28.804 3.709-4.2 6.559-4.877 15.983-4.877 9.155 0 13.938-.185 17.921 4.877z" class="z"/><path d="M208.665 84.159c6.814-.468 8.715-5.353 9.93-10.566-7.141 5.115-14.507 5.61-22.038 2.697 2.389 5.918 6.708 8.239 12.108 7.869z" class="AA"/><path d="M208.559 82.569c-4.752.659-7.569-1.594-9.983-4.503 5.522 2.305 11.978 2.003 18.325-2.241-.283 1.386-2.382 5.917-8.342 6.744z" class="AB"/><path d="M216.617 76.011l.001.001c-.323.723-.678 1.447-1.368 2.17-2.329 1.522-5.413 2.852-11.224 2.522-1.911-.108-3.145-1.166-4.102-2.134 5.126 1.7 10.948 1.176 16.693-2.559z" class="n"/><path d="M211.617 81.714c-1.081-.451-2.45-.587-4.041-.571-1.363.014-2.588.355-3.658 1.047 1.326.461 2.845.628 4.641.379 1.161-.162 2.175-.463 3.058-.855z" class="AC"/><path d="M199.619 71.118l2.35-7.015c-.234-8.856-3.055-11.522-6.584-11.777-3.781-.273-6.34 3.227-6.471 10.571-.045 2.578.449 5.13 1.719 7.595l8.986.626z" class="n"/><path d="M200.561 56.195c-1.67-.762-3.621-1.502-5.505-1.353-1.914.152-3.746.78-5.318 2.211 1.06-3.345 3.069-4.913 5.647-4.727 2.115.153 3.975 1.172 5.176 3.869z" class="p"/><path d="M192.864 70.647c-1.371-1.91-2.349-4.071-2.195-6.773.312-5.458 2.442-8.018 5.888-8.191 1.698-.086 4.242 1.089 5.029 4.127.208 1.236.339 2.659.383 4.293l-2.35 7.015-6.755-.471z" class="q"/><path d="M214.422 71.34l-2.5-6.926c.042-8.865 2.802-11.636 6.323-12.023 3.772-.414 6.405 2.99 6.694 10.329.102 2.577-.337 5.147-1.552 7.66l-8.965.96z" class="n"/><path d="M213.157 56.453c1.653-.824 3.586-1.637 5.471-1.558 1.916.08 3.761.639 5.362 2.012-1.131-3.305-3.173-4.798-5.745-4.516-2.11.232-3.946 1.32-5.088 4.062z" class="p"/><path d="M221.161 70.618c1.329-1.961 2.259-4.159 2.046-6.855-.429-5.446-2.614-7.927-6.06-7.972-1.699-.022-3.865 1.204-4.936 4.315-.18 1.244-.281 2.672-.289 4.308l2.5 6.926 6.739-.722z" class="q"/><path d="M200.549 64.292c-.18 2.433-1.602 6.325-4.35 5.884-2.101-.336-3.136-3.426-3.144-5.553-.014-3.483 1.66-6.217 4.014-6.215 2.279.002 3.648 3.612 3.48 5.884zm13.039.107c.232 2.426 1.737 6.265 4.474 5.722 2.092-.416 3.059-3.544 3.021-5.671-.061-3.484-1.793-6.155-4.146-6.065-2.276.087-3.567 3.748-3.349 6.014z" class="AD"/><path d="M198.89 60.725c-.433-.749-1.034-1.474-1.821-1.474-.227-.001-.45.035-.666.106-.802.267-1.384.991-1.755 1.72-.544 1.07-.756 2.352-.751 3.543.003.714.131 1.468.34 2.149-.143-2.271.57-4.179 1.463-4.882.998-.786 1.595.584 2.188.95 1.178.729 1.844-.653 1.002-2.112z" class="r"/><path d="M191.889 49.712c2.385-2.249 5.239-3.499 8.939-3.272 1.105.068 1.549.371 1.663.795.213.793-.567 1.84-1.835 1.963-2.952.286-5.705.389-8.475 1.026-.521.12-.627-.12-.546-.423.016-.057.198-.037.254-.089zm30.099-.535c-2.483-2.14-5.655-3.306-9.341-2.914-1.101.118-1.612.43-1.612.869 0 .854.635 1.813 1.908 1.879 2.961.154 5.717.133 8.512.645.605.111.707-.177.533-.479z" class="AE"/><path d="M221.724 48.839c-2.484-2.14-5.391-3.261-9.077-2.868-1.101.117-1.614.722-1.613 1.161.002.47.636 1.521 1.909 1.587 2.961.153 5.717.132 8.512.644.605.111.713-.141.269-.524zm-29.835.581c2.385-2.25 5.239-3.5 8.939-3.272 1.105.068 1.645.648 1.663 1.087.019.469-.567 1.548-1.835 1.671-2.952.286-5.705.389-8.475 1.026-.599.137-.719-.11-.292-.512z" class="AF"/><path d="M219.197 60.566c-.491-.712-1.148-1.386-1.933-1.324-.226.017-.445.07-.654.159-.779.33-1.302 1.097-1.613 1.853-.458 1.11-.567 2.405-.468 3.592.059.711.247 1.452.509 2.115-.322-2.252.237-4.211 1.071-4.983.933-.863 1.637.455 2.257.774 1.232.632 1.786-.798.831-2.186z" class="r"/><path d="M206.783 29.253c.524 0 .949.338.949.754s-.425.754-.949.754-.948-.338-.948-.754.425-.754.948-.754z" fill="#78beff"/><path d="M222.931 43.826c0-18.331-7.937-13.807-16.148-13.819s-16.454-3.358-16.454 14.259c5.438-2.262 10.722-4.608 18.26-4.354 6.464.217 10.611 1.577 14.342 3.914z" fill="#5298d9"/><path d="M222.931 42.892c1.9-1.141 4.196-2.152 4.372-3.405.239-1.706-.447-3.263-4.846-3.936-3.786-.563-8.019-.474-11.833-.303-15.474.691-17.357 4.809-20.295 8.084v.934c5.181-2.16 11.066-5.53 18.26-5.288 6.464.217 10.611 1.577 14.342 3.914z" fill="#78beff"/><path d="M222.931 43.826c4.624-2.778 6.993-6.199-.474-7.341-3.786-.563-8.019-.474-11.833-.303-15.474.691-17.357 4.809-20.295 8.084 5.438-2.262 10.722-4.608 18.26-4.354 6.464.217 10.611 1.577 14.342 3.914z" fill="#2c72b3"/><path d="M225.549 80.763c-1.126 3.983 7.96 3.137 9.99-3.124-1.106 4.189-3.771 7.678-9.174 9.823-5.386 2.139-12.053 2.596-19.081 2.697-7.165.102-13.949-.247-19.393-2.63-5.398-2.362-8.081-4.972-9.409-9.89 2.062 6.261 11.3 7.132 10.25 3.124-.436-1.167-.81-2.356-1.157-3.553-.879-3.727.299-5.381 2.501-5.544 3.258-.242 6.163.521 8.456 1.158l2.328.45-1.93.348c-2.472-.631-5.874-1.302-6.964-.477s-.253 3.312 1.3 6.518c2.272 4.689 5.195 8.118 9.108 7.695 3.983-.43.961-1.793 4.91-1.793s.913 1.363 4.834 1.793c3.852.423 6.73-3.006 8.967-7.695 1.528-3.206 2.356-5.691 1.28-6.518s-4.422-.154-6.856.477l-1.901-.348 2.292-.45c2.258-.637 5.118-1.4 8.325-1.158 2.169.163 3.327 1.817 2.462 5.544-.341 1.197-.8 2.357-1.138 3.553z" fill="#be6c5a"/><path d="M207.019 77.203c-6.89.191-9.378-3.412-9.378-7.458 0-4.123 5.541-7.063 9.643-6.836 3.889.214 9.195 3.421 9.048 7.75-.118 3.484-2.6 6.358-9.313 6.544z" fill="url(#E)"/><path d="M209.065 68.982c1.502.336 2.93 1.114 2.93 2.404 0 2.249-2.775 3.236-4.658 3.236s-4.658-.987-4.658-3.236c0-1.252.814-1.898 2.212-2.251-.007.194-.06.431-.132.623a2.21 2.21 0 0 1-.226.452c-.441.496-.478.612-.478 1.176 0 1.352 2.256 1.86 3.282 1.86s3.282-.509 3.282-1.86c0-.604-.451-1.04-1.042-1.337a2.38 2.38 0 0 1-.409-.702c-.047-.125-.081-.248-.103-.365z" class="s"/><path d="M204.039 67.451c.751.124 1.163.886.799 1.856s-1.257 1.496-2.004 1.496-1.075-.966-.766-2.008 1.22-1.467 1.971-1.344zm5.559-.311c-.751.124-1.163.887-.799 1.856s1.257 1.496 2.005 1.496 1.074-.966.765-2.008-1.22-1.467-1.971-1.344z" class="AG"/><path d="M204.039 67.451c.68.112 1.082.748.882 1.587-.162-.264-.426-.44-.755-.494-.751-.124-1.662.301-1.971 1.343-.042.142-.072.282-.091.419-.183-.38-.207-.934-.036-1.511.309-1.043 1.22-1.467 1.971-1.344zm5.559-.311c-.751.124-1.163.887-.799 1.856l.03.075a1.07 1.07 0 0 1 .896-.838c.732-.121 1.615.28 1.946 1.265.035-.305.004-.655-.102-1.014-.309-1.042-1.22-1.467-1.971-1.344z" class="s"/><path d="M208.696 68.63c1.502.337 2.93 1.115 2.93 2.404 0 2.25-2.775 3.237-4.658 3.237s-4.657-.987-4.657-3.237c0-1.252 1.261-1.998 2.66-2.351a2 2 0 0 1-.133.623 2.33 2.33 0 0 1-.226.452c-.532.295-.925.712-.925 1.276 0 1.352 2.255 1.861 3.281 1.861s3.282-.509 3.282-1.861c0-.604-.451-1.04-1.041-1.337-.168-.198-.309-.433-.41-.701-.047-.126-.081-.248-.103-.366z" fill="#e6e6e6" fill-rule="nonzero"/><path d="M153.322 122.47c-1.126 3.982 7.96 3.137 9.99-3.124-1.106 4.188-3.77 7.677-9.174 9.823-5.386 2.138-12.052 2.595-19.081 2.696-7.164.103-13.948-.247-19.392-2.629-5.398-2.363-8.081-4.973-9.41-9.89 2.062 6.261 11.301 7.131 10.25 3.124-.436-1.167-.81-2.356-1.157-3.553-.878-3.728.299-5.382 2.502-5.545 3.258-.242 6.162.521 8.455 1.158l2.329.45-1.931.348c-2.472-.63-5.874-1.302-6.964-.477s-.252 3.313 1.3 6.518c2.273 4.69 5.196 8.118 9.108 7.696 3.983-.43.961-1.794 4.91-1.794s.913 1.364 4.835 1.794c3.851.422 6.729-3.006 8.966-7.696 1.529-3.205 2.356-5.69 1.28-6.518s-4.422-.153-6.856.477l-1.9-.348 2.292-.45c2.258-.637 5.117-1.4 8.324-1.158 2.169.163 3.328 1.817 2.463 5.545-.342 1.197-.801 2.356-1.139 3.553z" fill="#ffaec8"/><path d="M134.774 118.979c-6.89.191-9.378-3.412-9.378-7.458 0-4.123 5.542-7.063 9.643-6.836 3.889.214 9.195 3.421 9.048 7.75-.118 3.484-2.6 6.358-9.313 6.544z" fill="url(#E)"/><path d="M131.794 109.227c.751.123 1.163.886.799 1.855s-1.257 1.497-2.004 1.497-1.074-.966-.766-2.009 1.22-1.466 1.971-1.343zm5.559-.311c-.751.124-1.163.886-.799 1.856s1.257 1.496 2.005 1.496 1.074-.966.765-2.008-1.22-1.467-1.971-1.344z" class="AG"/><path d="M131.794 109.227c.68.112 1.082.748.882 1.586-.162-.263-.426-.44-.755-.494-.751-.123-1.662.302-1.971 1.344a2.88 2.88 0 0 0-.091.418c-.183-.379-.207-.933-.036-1.511.309-1.042 1.22-1.466 1.971-1.343zm5.559-.311c-.751.124-1.163.886-.799 1.856l.03.075c.107-.451.439-.763.896-.839.732-.12 1.615.28 1.946 1.265.035-.304.005-.654-.102-1.013-.309-1.043-1.22-1.467-1.971-1.344z" class="s"/><path d="M184.658 98.616h45.067a6.48 6.48 0 0 1 6.455 6.455v144.994h-57.977V105.071c0-3.55 2.905-6.455 6.455-6.455z" fill="url(#G)"/><path d="M202.477 125.508h-2.582v-13.829h2.582v13.829zm6.006 0h-2.582v-13.829h2.582v13.829zm6.005 0h-2.582v-13.829h2.582v13.829z" class="v"/></svg>