<?xml version="1.0" encoding="UTF-8"?>
<svg xmlns="http://www.w3.org/2000/svg" xmlns:xlink="http://www.w3.org/1999/xlink" width="593" height="543" viewBox="0 0 272.19 249.091" shape-rendering="geometricPrecision" image-rendering="optimizeQuality" fill-rule="evenodd" xmlns:v="https://vecta.io/nano"><style><![CDATA[.o{fill:#fff}.p{fill:#f0b11e}.q{fill:#fba7c3}.r{fill:#2b676b}.s{fill:#224649}.t{fill:#cf5d83}.u{fill:#cb920e}.v{fill:#ffd470}.w{fill:#4d4d4d}.x{fill:#fbc7d8}.y{fill:#ffb5ce}.z{fill:#f596b4}.AA{fill:url(#A)}.AB{fill:#d46360}.AC{fill:#33231f}.AD{fill:#bd7777}.AE{fill:#0c3033}.AF{fill:#9e3759}.AG{fill:#9e513f}.AH{fill:#bd6c5a}]]></style><defs><linearGradient id="A" x1="49.8849%" y1="84.666%" x2="49.8854%" y2="0%"><stop offset="0" stop-color="#ffd1e0"/><stop offset="1" stop-color="#fff"/></linearGradient><linearGradient id="B" x1="143.367" y1="89.129" x2="143.367" y2="44.263" xlink:href="#N"><stop offset="0" stop-color="#bd6c5a"/><stop offset="1" stop-color="#fff"/></linearGradient><linearGradient id="C" x1="45.933" y1="92.013" x2="105.619" y2="82.704" xlink:href="#N"><stop offset="0" stop-color="#f0b11e"/><stop offset="1" stop-color="#cb920e"/></linearGradient><linearGradient id="D" x1="67.296" y1="168.434" x2="63.412" y2="121.68" xlink:href="#N"><stop offset="0" stop-color="#ed82a6"/><stop offset="1" stop-color="#fff"/></linearGradient><linearGradient id="E" x1="52.913" y1="56.408" x2="-22.795" y2="-74.723" xlink:href="#N"><stop offset="0" stop-color="#ffc644"/><stop offset="1" stop-color="#eee"/></linearGradient><linearGradient id="F" xlink:href="#D" x1="53.2051%" y1="80.1745%" x2="33.7212%" y2="0%"/><linearGradient id="G" xlink:href="#E" x1="87.955" y1="78.272" x2="16.265" y2="89.452"/><linearGradient id="H" x1="138.706" y1="292.185" x2="138.71" y2="-236.994" xlink:href="#N"><stop offset="0" stop-color="#ffcd59"/><stop offset="1" stop-color="#fff"/></linearGradient><linearGradient id="I" x1="226.041" y1="262.196" x2="226.042" y2="-251.575" xlink:href="#N"><stop offset="0" stop-color="#ff755d"/><stop offset="1" stop-color="#fff"/></linearGradient><linearGradient id="J" xlink:href="#C" x1="106.565" y1="-11.557" x2="75.438" y2="68.961"/><linearGradient id="K" xlink:href="#C" x1="-5.454" y1="-15.046" x2="57.577" y2="94.126"/><linearGradient id="L" x1="64.366" y1="366.159" x2="64.373" y2="-356.583" xlink:href="#N"><stop offset="0" stop-color="#85de7e"/><stop offset="1" stop-color="#fff"/></linearGradient><linearGradient id="M" xlink:href="#E" x1="93.545" y1="50.267" x2="130.933" y2="-46.445"/><linearGradient id="N" gradientUnits="userSpaceOnUse"/></defs><path d="M54.061 63.352c6.851-9.502 6.807-24.957-1.087-38.628S31.719 3.287 20.065 4.469l-.947-1.64-7.536 4.35C-1.367 14.656-3.83 34.632 6.081 51.798s28.442 25.021 41.391 17.545l7.536-4.351-.947-1.64z" fill="url(#K)"/><path d="M55.008 64.992c12.949-7.476 15.413-27.453 5.502-44.619S32.067-4.648 19.118 2.829 3.705 30.281 13.616 47.447s28.443 25.021 41.392 17.545z" fill="url(#E)"/><circle transform="matrix(.33837 -.195358 .258971 .448551 37.0629 33.9104)" r="49.992" class="p"/><g class="u"><path d="M56.167 49.688c3.466-6.886 2.901-16.728-2.188-25.544-7.151-12.384-20.52-18.051-29.862-12.657-3.708 2.14-6.222 5.701-7.462 9.991 1.403-2.787 3.466-5.091 6.158-6.645 9.342-5.394 22.712.273 29.862 12.657 4.312 7.47 5.376 15.677 3.492 22.198zm-7.593-8.56l-2.553 2.249.35-.33.316-.351.296-.365.259-.378.235-.395.207-.419.172-.425.141-.451.119-.46.084-.479.046-.487.023-.509-.018-.525-.04-.533-.079-.542-.113-.561-.128-.501-.158-.492-.19-.499-.221-.502-.247-.5-.271-.503-.3-.493-.327-.491-.345-.484-.36-.483-.389-.475-.408-.462-.417-.452-.44-.447-.449-.432-.463-.423-.485-.405-.489-.393-.501-.372-.508-.354-.513-.336-.52-.319-.521-.299-.53-.276-.535-.245-.527-.222-.534-.204-.524-.175-.527-.149-.519-.112-.517-.092-.508-.056-.571-.025-.567-.005-.561.024-.557.052-.553.074-.55.108-.54.125-.533.147-.519.18-.508.197-.495.229-.487.252-.473.27-.45.292-.433.319-.417.332-.403.364-.378.379 2.387-2.406.384-.384.397-.359.421-.343.44-.323.461-.295.468-.272.492-.25.501-.233.509-.197.529-.182.531-.156.547-.129.552-.1.555-.08.568-.054.566-.023.567.005.575.028.513.057.518.086.527.122.527.149.533.178.535.198.537.226.531.256.534.278.532.297.523.327.518.338.51.361.506.373.493.395.483.411.467.425.459.435.439.447.429.463.406.468.392.482.364.486.347.491.325.497.303.501.278.498.245.506.224.505.189.503.16.5.129.501.115.569.079.555.043.541.018.525-.017.505-.052.505-.084.479-.116.467-.145.449-.177.437-.207.418-.237.401-.263.391-.291.367-.325.346-.346.333zm-7.913-11.787l-2.489 2.361-.14.152-.117.174-.096.189c-.031.075-.055.145-.075.217l-.057.237-.023.244c-.01.089-.01.176-.009.262l.014.271.038.287.064.29.079.303.102.298.129.309.146.301.173.299 2.493-2.326a3.25 3.25 0 0 1-.176-.306l-.151-.303-.127-.315c-.038-.094-.069-.199-.104-.305l-.081-.297c-.025-.09-.042-.189-.064-.29l-.036-.293-.019-.273.005-.264.03-.248.058-.243c.018-.066.043-.136.074-.211.026-.063.06-.129.098-.195l.117-.174.144-.151z"/><path d="M40.893 33.209L38.4 35.535l.198.288c.065.092.139.173.211.261l.236.236.244.2.253.183.264.155.266.135.265.108c.084.039.172.066.262.087l.254.064.241.046c.078.01.159.015.235.017l.209.001.198-.024c.056-.012.109-.032.166-.05a.96.96 0 0 0 .147-.069l2.518-2.31c-.05.028-.099.049-.147.07l-.171.048c-.066.001-.133.015-.195.018l-.219.009-.228-.021-.247-.042-.259-.066-.262-.087-.269-.11-.266-.135-.266-.162-.255-.184-.25-.208-.233-.229-.217-.262-.19-.293z"/><path d="M44.567 34.863l-2.518 2.31c.033-.021.076-.057.12-.094l2.52-2.302-.122.086zm-9.814-.692l-2.443 2.318-.448.286-.489.184-.495.096-.471-.001-.418-.08-.337-.149 2.415-2.31.346.154.42.074c.157.007.313 0 .473-.005l.493-.09.496-.188.458-.289z"/><path d="M32.067 34.515l-2.415 2.31c-.051-.033-.094-.07-.142-.108l-.132-.137c-.044-.05-.086-.106-.122-.166l-.115-.184-.097-.209-.088-.22c-.029-.078-.047-.158-.07-.24l-.054-.259-.037-.261c-.015-.091-.018-.186-.026-.281-.005-.089.001-.193.002-.286l.017-.285c.008-.097.022-.197.041-.296l.055-.292.086-.292.104-.286 2.42-2.353-.11.29-.082.294-.063.301-.039.29-.02.292.001.292.023.275.04.268.058.261.069.245.092.222.092.208.114.19.123.16.135.144.14.113z"/><path d="M31.494 30.67l-2.42 2.353.136-.273.145-.257.162-.23.176-.211.184-.189 2.421-2.359-.187.187c-.065.068-.122.146-.176.211l-.159.238-.148.249-.134.281z"/><path d="M28.424 25.043l-2.036 1.956-.38.373-.35.404-.33.418-.311.438-.277.459-.258.479-.224.498-.193.511-.171.539-.133.546-.099.567-.065.586-.034.598.01.608.048.629.065.537.096.521.12.525.156.511.178.507.2.501.233.495.253.482.277.471.297.46.332.446c.11.155.227.292.345.437l.374.429.4.413.413.391.441.381.455.36.48.344.498.337.519.305.539.293.558.267.574.253.592.227.612.201.62.192.644.153.656.132.669.11.694.081.699.055.715.021.736.004.72-.023.7-.037.674-.067.653-.096.63-.117.609-.131.576-.152.561-.17.535-.2.506-.218.479-.228.458-.256.43-.28.397-.287 2.203-1.786-.405.297-.429.274-.462.255-.488.237-.51.217-.54.198-.559.178-.588.159-.612.138-.632.11-.656.087-.686.075-.705.036-.726.027-.742-.005-.724-.025-.705-.051-.697-.088-.67-.104-.666-.136-.646-.161-.631-.189-.619-.197-.595-.235-.575-.247-.565-.276-.543-.295-.518-.311-.504-.333-.485-.358-.461-.356-.44-.388-.424-.402-.4-.412-.374-.429-.35-.44-.332-.459-.306-.463-.275-.477-.258-.484-.233-.495-.207-.51-.178-.507-.151-.523-.121-.524-.101-.537-.069-.538-.048-.63-.004-.625.026-.608.075-.583.096-.574.135-.552.167-.541.195-.516.23-.503.254-.48.284-.463.31-.452.337-.422.354-.403.384-.384zm3.874 4.461l-2.064 1.905a1.65 1.65 0 0 1 .191-.166l.205-.134.204-.114.211-.079.221-.061c.074-.005.145-.018.22-.029l.223-.007a1.36 1.36 0 0 0 .213.022l.219.064.21.087.207.112.195.148.178.168.154.191a1.94 1.94 0 0 0 .142.208l.124.234.102.238.085.258.065.271.043.275.018.286.008.289c-.013.094-.018.199-.019.291l-.041.296c-.028.096-.048.195-.065.288l-.086.293-.108.283-.3.51-.395.4 2.095-1.86.389-.396.302-.515.11-.29.082-.294.072-.298c.008-.097.021-.191.04-.291l.016-.299-.001-.292c-.014-.092-.02-.194-.027-.29l-.037-.279-.069-.273-.085-.258-.1-.244-.126-.228-.143-.207-.161-.201-.173-.166-.199-.15-.209-.12-.213-.081-.221-.058c-.067-.013-.143-.016-.215-.03l-.221.002c-.077.017-.153.027-.224.027-.071.026-.144.044-.217.063l-.213.084-.218.109c-.065.055-.132.102-.203.142l-.191.166zm9.864 3.488l-.191-.292-.203-.271-.205-.251-.227-.233-.219-.211a2.51 2.51 0 0 1-.232-.188l-.233-.169a2.12 2.12 0 0 1-.234-.136l-.234-.11-.235-.09c-.077-.016-.154-.046-.226-.06l-.228-.034c-.072-.001-.143-.002-.217.003l-.207.02-.201.063-.18.09-.165.123 2.136-1.905.166-.122.182-.096.203-.055c.067-.015.135-.021.211-.032.07.006.136.006.214.002.077.016.149.031.229.035l.23.061.231.089c.077.043.158.074.242.113l.233.142.24.165.232.188.223.212.22.237.214.255.202.277.19.292.171.305.147.301.126.301.106.3c.021.101.049.198.077.295l.059.288.038.274.02.267-.002.244-.017.24c-.018.066-.027.136-.037.211-.023.065-.042.137-.058.197l-.075.171-.086.146-.103.133-2.172 1.845.103-.12.089-.152.072-.165a2.42 2.42 0 0 0 .058-.197l.033-.213.022-.225.005-.25-.021-.267-.04-.268c-.023-.095-.038-.187-.054-.286l-.084-.291-.097-.296-.126-.301-.149-.296c-.063-.098-.114-.203-.166-.303z"/></g><path d="M50.579 33.84c-.603-2.646-2.621-5.489-5.156-7.708s-5.608-3.841-8.32-4.052c-6.114-.476-12.167 3.839-11.474 10.699.29 2.875 1.807 5.588 4.214 7.586s5.726 3.297 9.609 3.364c8.071.139 12.519-3.781 11.127-9.889zm-9.752-4.621c-.945.581-.918 2.365.066 3.99.982 1.599 2.985 2.061 3.674 1.654.678-.417.74-2.147-.244-3.759-.976-1.617-2.538-2.461-3.496-1.885zm-6.184-.019c1.094.718 1.452 2.536.801 4.06s-2.597 1.754-3.377 1.255c-.779-.517-1.223-2.308-.573-3.845.658-1.541 2.062-2.192 3.149-1.47z" class="v"/><path d="M33.664 33.381l-.018-.286-.043-.275-.065-.271-.085-.258-.102-.238-.124-.234-.142-.208-.154-.191c-.065-.052-.12-.113-.178-.168l-.195-.148-.207-.112-.21-.087-.219-.064a1.36 1.36 0 0 1-.213-.022l-.223.007c-.02-.001-.042.004-.058.005l-.044.129-.086.292c-.024.097-.045.202-.059.303l-.039.29-.02.292.001.292.023.275c.008.096.022.188.04.268l.058.261.069.245.092.222c.027.07.061.149.097.21.033.066.069.126.109.188s.084.111.123.16a1.46 1.46 0 0 0 .135.144l.14.113a3.48 3.48 0 0 0 .346.154 1.92 1.92 0 0 0 .42.074 2.5 2.5 0 0 0 .473-.005c.063-.002.125-.018.189-.027l.052-.166.065-.288c.009-.102.026-.195.041-.296.001-.092.006-.197.019-.291l-.008-.289zm6.902-.781l.151.303.176.306c.055.108.12.199.19.293l.217.262.233.229c.081.077.161.141.25.208l.255.184.266.162.266.135.269.11c.002-.006 0-.013-.001-.027-.023-.095-.038-.187-.054-.286l-.084-.291-.097-.296-.126-.301-.149-.296c-.063-.098-.114-.203-.166-.303l-.191-.292-.203-.271-.205-.251-.227-.233-.219-.211a2.51 2.51 0 0 1-.232-.188l-.233-.169a2.12 2.12 0 0 1-.234-.136l-.234-.11c-.012-.011-.021-.014-.03-.018l.036.28.064.29a2.84 2.84 0 0 0 .081.297l.104.305c.035.107.081.211.127.315z" class="p"/><path d="M90.336 53.863c8.01-.43 16.232-7.094 20.129-17.177s2.298-20.545-3.341-26.251l.468-1.21-5.557-2.148c-9.551-3.692-21.261 3.578-26.155 16.238s-1.12 25.917 8.431 29.609l5.557 2.149.468-1.21z" fill="url(#J)"/><path d="M89.868 55.073c9.551 3.692 21.261-3.579 26.155-16.239s1.12-25.916-8.431-29.609-21.26 3.579-26.154 16.239-1.12 25.916 8.43 29.609z" fill="url(#M)"/><circle transform="matrix(.249556 .096474 -.127888 .330818 98.7304 32.149)" r="49.992" class="p"/><g class="u"><path d="M98.526 49.115c5.161-1.111 10.167-5.641 12.68-12.143 3.531-9.134.808-18.698-6.082-21.361-2.734-1.057-5.714-.868-8.534.315 2.089-.45 4.204-.34 6.189.428 6.89 2.663 9.613 12.227 6.083 21.361-2.13 5.509-6.049 9.602-10.336 11.4zm1.302-7.727l-2.296-.395.327.045.322.018h.322l.313-.024.312-.045.312-.069.301-.091.301-.118.296-.134.291-.161.28-.185.281-.207.272-.235.267-.251.255-.274.251-.301.212-.284.195-.296.183-.315.174-.334.16-.346.151-.361.135-.372.121-.385.11-.392.103-.4.086-.411.071-.416.061-.417.05-.426.037-.426.027-.428.007-.433v-.429l-.017-.427-.03-.423-.041-.418-.054-.414-.064-.407-.08-.401-.099-.39-.109-.377-.12-.372-.132-.355-.147-.345-.163-.325-.174-.315-.188-.295-.231-.315-.242-.305-.254-.289-.267-.274-.277-.263-.293-.247-.299-.234-.308-.221-.319-.199-.323-.187-.335-.165-.343-.152-.348-.136-.349-.114-.356-.094-.356-.08-.367-.059-.365-.038 2.308.239.37.04.362.057.364.077.362.096.355.119.346.133.345.154.339.167.324.187.325.204.31.216.304.236.291.252.281.262.273.279.255.292.241.304.232.319.19.298.177.313.161.333.148.346.134.36.124.371.11.383.092.393.081.405.07.411.051.419.042.421.026.427.019.431.001.432-.011.434-.026.432-.035.432-.049.426-.063.428-.075.417-.089.416-.102.403-.113.396-.125.387-.137.377-.146.362-.165.348-.172.336-.188.318-.198.3-.212.283-.253.306-.262.281-.27.255-.272.235-.277.209-.291.189-.292.161-.299.139-.302.115-.309.093-.312.07-.315.046-.322.027-.321.003-.324-.025-.326-.041zm2.884-9.284l-2.327-.313-.142-.009-.143.013-.142.03c-.053.015-.101.032-.148.053l-.151.072-.14.092a1.41 1.41 0 0 0-.143.108l-.139.123-.136.144-.128.159-.127.172-.115.183c-.038.062-.074.132-.109.201l-.098.207-.085.221 2.311.33a2.01 2.01 0 0 1 .088-.225l.097-.211.113-.203c.033-.061.076-.122.118-.187l.123-.171c.037-.052.083-.103.128-.158s.093-.097.14-.146l.138-.126.142-.112.145-.09.155-.073c.043-.019.091-.036.144-.052.045-.013.095-.024.146-.031l.143-.013.142.012z"/><path d="M100.75 33.89l-2.311-.33-.069.229c-.021.075-.032.149-.048.225l-.025.227-.002.216.011.214.032.207.042.2.056.188c.015.061.039.12.066.177s.048.106.075.163l.079.148c.028.046.061.091.092.132l.09.112.097.096c.031.024.064.044.098.067.028.018.064.033.101.048l2.313.351-.101-.049-.098-.07c-.03-.035-.066-.065-.094-.097l-.099-.112-.087-.131-.084-.15-.076-.166-.066-.177-.057-.191-.042-.2-.028-.211-.012-.215.004-.223.022-.223.047-.228.074-.227z"/><path d="M101.447 36.56l-2.313-.351c.024.009.063.016.101.024l2.31.355-.098-.028zm-3.848-5.53l-2.285-.307-.346-.116-.308-.182-.264-.222-.202-.252-.137-.257-.065-.244 2.269.295.067.251c.041.084.091.168.141.256l.206.25.259.224.314.183.351.121z"/><path d="M96.261 29.745l-2.269-.295c-.004-.041-.004-.08-.004-.122l.017-.129c.007-.046.019-.092.036-.137l.048-.14.071-.142.079-.141c.029-.049.064-.093.097-.14l.116-.141.122-.131c.043-.048.092-.09.14-.135s.103-.083.153-.122l.159-.113a1.91 1.91 0 0 1 .176-.106l.179-.096.193-.079.197-.068 2.294.28-.202.065-.192.083-.187.096c-.057.03-.117.066-.172.103l-.164.116-.155.126-.137.13-.125.136-.115.143-.101.142-.078.145a1.51 1.51 0 0 0-.072.138l-.052.142-.033.135-.019.134v.123z"/><path d="M98.065 27.788l-2.294-.28.204-.045.199-.032.192-.013.189.003.179.016 2.299.278-.181-.02c-.064-.005-.13-.002-.188-.002l-.195.017-.197.028-.207.05z"/><path d="M99.746 23.733l-1.917-.245-.362-.043-.366-.013-.365.004-.367.022-.364.05-.366.068-.362.095-.355.116-.361.14-.349.164-.344.191-.341.217-.333.239-.32.267-.315.296-.258.265-.237.275-.228.29-.206.302-.193.313-.182.322-.164.337-.148.342-.132.35-.117.356-.096.369-.085.372-.068.383-.048.391-.031.388-.013.399.003.397.023.404.034.41.061.408.075.413.098.413.111.414.133.414.156.412.165.413.194.409.212.407.228.404.256.405.271.396.295.39.315.395.322.374.32.357.326.33.331.308.333.285.332.268.328.242.332.226.337.2.333.176.328.157.333.134.334.109.323.089 1.899.407-.332-.089-.33-.11-.335-.137-.336-.158-.335-.179-.337-.203-.335-.222-.338-.245-.336-.267-.33-.29-.329-.312-.335-.334-.322-.36-.326-.375-.316-.398-.298-.397-.276-.398-.252-.409-.233-.403-.213-.412-.192-.414-.171-.418-.16-.414-.131-.418-.115-.414-.096-.419-.076-.417-.057-.409-.039-.412-.017-.413-.008-.399.017-.401.032-.399.049-.39.067-.384.084-.375.103-.375.115-.362.136-.352.148-.345.163-.337.184-.329.193-.313.214-.306.228-.289.243-.285.256-.268.315-.296.333-.271.335-.247.342-.211.348-.195.353-.165.36-.143.359-.118.367-.094.365-.071.368-.047.375-.029.37-.002.366.016.37.04zm-.713 3.982l-1.903-.282a1.19 1.19 0 0 1 .17.03l.16.052.148.06.133.079.128.091c.034.037.071.07.11.106l.099.115c.023.042.05.085.08.123l.06.144c.012.052.028.099.044.15l.029.158.005.168-.013.166-.036.165a1.46 1.46 0 0 0-.05.165l-.071.167-.083.157c-.037.051-.069.105-.101.156l-.117.151c-.044.043-.086.09-.128.141l-.145.132-.15.129a1.6 1.6 0 0 0-.164.115l-.176.105c-.063.026-.124.059-.181.089l-.193.08-.198.064-.4.059-.383-.038 1.892.318.378.037.405-.061.202-.066.192-.082.189-.09a1.82 1.82 0 0 1 .172-.103l.167-.12.155-.127.143-.139.133-.139.116-.154.101-.156.087-.158.067-.165.05-.166.038-.172.014-.164-.006-.17-.026-.163-.048-.149-.064-.142c-.022-.042-.053-.083-.076-.128l-.096-.117c-.043-.034-.081-.069-.111-.108-.044-.026-.085-.057-.127-.088l-.137-.078-.151-.069a.93.93 0 0 1-.163-.047l-.17-.031zm2.378 6.758l.074-.227.057-.225.046-.217.027-.221.018-.207a1.75 1.75 0 0 1 0-.205l-.01-.197c-.014-.058-.021-.122-.028-.183l-.042-.172-.053-.164-.065-.146-.08-.137-.094-.114-.1-.101-.12-.081-.125-.057-.137-.035 1.933.32.137.036.129.056.117.085c.036.029.07.063.108.098a.92.92 0 0 0 .091.116c.024.047.047.092.08.136l.066.149.052.161c.01.06.028.117.044.178l.024.185.015.199-.001.205-.017.21-.032.219-.044.224-.061.226-.073.227-.09.222-.097.208-.107.197-.114.185c-.045.055-.084.111-.124.168l-.129.155-.129.138-.133.126-.132.103-.135.094c-.043.019-.084.044-.129.071l-.13.054-.123.033c-.042.008-.084.017-.115.017l-.115.003-1.917-.366c.032.003.073.002.109.004l.119-.019c.037-.009.079-.017.119-.032s.083-.033.13-.053l.128-.074.128-.085.136-.105.133-.126.126-.136c.041-.054.084-.101.129-.152l.12-.17.116-.179.106-.197.094-.206c.025-.076.06-.148.09-.219z"/></g><path d="M104.575 39.325c1.152-1.458 1.801-3.755 1.895-6.061s-.362-4.64-1.415-6.177c-2.373-3.464-7.275-4.838-10.635-1.521-1.408 1.391-2.203 3.365-2.233 5.507s.702 4.47 2.335 6.569c3.394 4.363 7.395 5.05 10.053 1.683zm-1.726-7.185c-.716-.254-1.655.527-2.099 1.75-.43 1.211.184 2.477.697 2.67.514.181 1.462-.529 1.9-1.746s.221-2.411-.498-2.674zm-2.647-3.305c.087.892-.728 1.864-1.82 2.171s-2.051-.631-2.121-1.261c-.059-.637.705-1.644 1.804-1.957 1.105-.312 2.055.157 2.137 1.047z" class="v"/><path d="M97.552 30.109l.145-.132.128-.141.117-.151.101-.156.083-.157.071-.167.05-.165.036-.165c0-.056.008-.112.013-.166l-.005-.168-.029-.158-.044-.15-.06-.144c-.03-.038-.057-.081-.08-.123l-.099-.115c-.008-.012-.021-.021-.028-.03l-.088.032-.192.08a1.97 1.97 0 0 0-.187.099c-.057.03-.117.066-.172.103l-.164.116-.155.126-.137.13a1.18 1.18 0 0 0-.125.136l-.115.143-.101.142-.078.145c-.026.044-.054.097-.071.141a1.47 1.47 0 0 0-.053.139c-.016.048-.024.093-.033.135-.01.05-.015.09-.019.134v.123a2.44 2.44 0 0 0 .067.251 1.29 1.29 0 0 0 .141.256 1.82 1.82 0 0 0 .206.25c.028.032.063.058.095.089l.111-.044.181-.089.176-.105a1.6 1.6 0 0 1 .164-.115l.15-.129zm3.383 3.345a2.86 2.86 0 0 0-.097.211c-.034.075-.065.146-.088.225-.034.075-.054.15-.074.227l-.047.228-.022.223a1.84 1.84 0 0 0-.004.223l.012.215.028.211.042.2.057.191.143-.164.12-.17.116-.179.106-.197.094-.206c.025-.076.06-.148.09-.219l.074-.227.057-.225.046-.217.027-.221.018-.207a1.75 1.75 0 0 1 0-.205l-.01-.197c-.014-.058-.021-.122-.028-.183l-.042-.172c.001-.011-.001-.017-.003-.024l-.133.14-.128.158a1.9 1.9 0 0 0-.123.171c-.043.061-.086.123-.118.187-.042.064-.078.133-.113.203z" class="p"/><path d="M91.257 78.959c-3.064-4.704-9.979-7.355-17.453-6.189S60.55 78.566 59.065 83.979l-.897.14.643 4.12c1.104 7.079 9.607 11.632 18.991 10.168S93.9 90.018 92.796 82.938l-.643-4.119-.896.14z" fill="url(#C)"/><path d="M92.153 78.819c-1.104-7.08-9.607-11.632-18.991-10.169s-16.098 8.39-14.994 15.469 9.607 11.632 18.992 10.169 16.097-8.39 14.993-15.469z" fill="url(#G)"/><circle transform="matrix(-.02885 -.184988 .245225 -.038245 75.1607 81.4689)" r="49.992" class="p"/><g class="u"><path d="M85.513 75.657c-2.478-2.739-6.975-4.188-11.794-3.436-6.771 1.056-11.614 6.052-10.817 11.16.316 2.027 1.473 3.766 3.176 5.061-1.003-1.109-1.677-2.429-1.906-3.9-.797-5.108 4.046-10.104 10.817-11.16 4.084-.637 7.935.306 10.524 2.275zm-5.138 1.914l.565 1.53-.088-.214-.102-.202-.112-.195-.124-.181-.136-.173-.152-.165-.16-.151-.177-.141-.185-.132-.199-.121-.21-.104-.224-.098-.237-.083-.246-.074-.255-.059-.271-.046-.246-.029-.247-.015a3.64 3.64 0 0 1-.256-.001l-.262.012-.266.024-.272.034-.272.049-.276.062-.276.07-.278.077-.28.092-.277.103-.274.108-.276.119-.27.127-.269.134-.265.146-.26.151-.253.16-.246.165-.239.172-.232.177-.224.181-.215.189-.202.197-.19.197-.184.203-.168.205-.158.21-.14.212-.13.215-.113.218-.11.25-.1.253-.086.255-.073.258-.063.26-.047.264-.037.263-.026.264-.009.263v.261l.017.261.028.261.039.258.053.252.068.248.076.244.093.243.104.234-.663-1.482-.105-.238-.092-.239-.081-.248-.068-.252-.052-.257-.041-.257-.027-.263-.017-.264v-.261l.01-.269.022-.264.037-.266.05-.264.061-.262.073-.263.088-.257.1-.253.112-.252.114-.219.128-.217.146-.215.157-.209.172-.208.181-.205.194-.201.206-.193.217-.19.224-.187.236-.177.241-.173.25-.166.254-.161.262-.153.267-.144.27-.136.274-.13.276-.119.281-.111.279-.101.283-.092.28-.079.28-.07.278-.06.276-.048.271-.039.268-.021.265-.014.258.003.251.015.246.029.274.047.261.06.25.074.237.083.223.095.217.11.2.121.188.132.176.143.164.155.152.164.138.175.129.185.114.194.099.205.088.212zm-6.635 1.5l.625 1.521.044.088.058.083.068.075a.92.92 0 0 0 .084.072l.096.066.105.052c.038.02.077.035.115.05l.124.04.135.033.141.021.148.017.151.006.16-.004.161-.013.163-.026-.609-1.516a1.49 1.49 0 0 1-.167.026l-.162.015-.162.002c-.049.001-.101-.004-.155-.006l-.147-.015c-.044-.004-.091-.014-.14-.022l-.137-.034-.125-.039-.118-.048-.105-.056-.099-.068c-.026-.019-.054-.043-.081-.069s-.048-.049-.071-.078l-.057-.082-.043-.091z"/><path d="M75.509 79.636l.609 1.516.163-.038c.052-.014.101-.033.153-.05l.146-.065c.045-.022.085-.049.131-.074l.126-.082.115-.091.106-.095.094-.1c.032-.031.06-.066.085-.102l.072-.103.062-.099.049-.102.036-.094.024-.093c.004-.026.004-.053.006-.082a.43.43 0 0 0-.006-.078l-.597-1.524a.7.7 0 0 1 .006.078l-.008.084c-.011.03-.016.062-.026.091l-.033.099-.049.098-.062.103-.074.105-.084.102-.096.101c-.033.033-.07.065-.106.095l-.118.092-.127.082-.136.075-.143.065-.154.051-.164.035z"/><path d="M76.883 78.28l.597 1.524c-.003-.018-.012-.044-.021-.07l-.593-1.524.017.07zm-2.005 4.266l.614 1.493.051.249-.003.251-.042.237-.082.211-.108.173-.125.125-.615-1.479.128-.128c.037-.054.071-.114.106-.175l.08-.212.044-.236.002-.254-.05-.255z"/><path d="M74.568 83.806l.615 1.479c-.023.017-.047.03-.073.045l-.084.035c-.03.011-.062.02-.095.026l-.102.02-.111.006-.113.002c-.04 0-.079-.006-.119-.01l-.125-.021-.123-.028c-.044-.01-.087-.024-.131-.038s-.086-.033-.127-.049l-.125-.058c-.041-.02-.084-.043-.125-.069l-.121-.075-.115-.089-.11-.096-.634-1.488.111.099.117.088.124.08a1.21 1.21 0 0 0 .123.068l.127.059.131.05.126.037.127.029.127.019.121.011.115-.003a.79.79 0 0 0 .109-.005l.104-.018.093-.027.088-.035.075-.044z"/><path d="M72.75 83.398l.634 1.488-.099-.108-.089-.109-.075-.112-.064-.115-.053-.115-.636-1.49.051.116c.019.041.044.08.064.115l.079.113.086.109.102.108z"/><path d="M69.705 83.798l.522 1.248.101.234.12.226.13.22.143.215.157.203.169.198.184.186.195.175.211.169.222.154.236.142.25.131.262.118.273.101.29.087.251.064.249.047.256.037.255.018.257.009.259-.003.261-.019.26-.03.258-.042.257-.054.257-.071c.088-.022.169-.05.255-.079l.256-.093.253-.107.246-.117.247-.131.24-.141.236-.156.237-.164.226-.179.224-.191.216-.203.212-.212.204-.226.195-.239.193-.244.18-.261.172-.27.165-.28.156-.297.145-.302.134-.316.129-.329.114-.326.104-.319.086-.313.071-.308.056-.302.046-.295.032-.283.021-.28.003-.274-.01-.264-.019-.253-.035-.25-.051-.24-.06-.227-.417-1.293.062.232.049.239.034.251.022.259.008.265-.004.276-.017.28-.031.291-.044.297-.06.301-.074.309-.085.32-.106.321-.114.329-.13.33-.136.32-.145.306-.16.296-.162.282-.176.274-.183.261-.194.249-.195.243-.207.225-.21.215-.221.204-.226.192-.229.178-.235.168-.245.155-.238.144-.25.13-.252.12-.254.107-.256.094-.257.08-.263.069-.259.057-.261.04-.261.032-.261.019-.264.004-.258-.008-.26-.023-.255-.037-.257-.047-.253-.062-.289-.087-.28-.107-.268-.117-.247-.134-.24-.142-.224-.156-.212-.168-.198-.176-.184-.19-.171-.196-.158-.207-.148-.217-.131-.223-.119-.228-.105-.238zm2.663-.961l.495 1.252a.67.67 0 0 1-.041-.114l-.025-.115-.016-.111.002-.108.011-.109c.01-.034.017-.068.025-.104l.035-.101c.017-.028.034-.059.046-.091l.067-.087c.027-.025.05-.051.075-.078l.086-.074.1-.061.106-.051.112-.035c.042-.007.08-.017.117-.028l.126-.015.124-.005.13.007.133.018a1.24 1.24 0 0 0 .13.028l.131.041.13.047a1.32 1.32 0 0 0 .127.059l.126.069c.038.029.078.055.117.079l.116.089.108.097.176.222.111.246-.47-1.258-.11-.242-.178-.224-.11-.099-.118-.088-.12-.083-.123-.068-.131-.059-.131-.05-.134-.038-.131-.032-.134-.016-.13-.007-.126.002-.124.017-.118.029-.117.037-.104.049-.102.063-.089.072-.074.081-.064.089-.05.091-.037.099c-.006.038-.014.073-.027.105a1.31 1.31 0 0 1-.009.108v.11l.012.116a.69.69 0 0 1 .028.115l.041.114zm3.263-3.806l-.163.035-.156.044-.148.048-.143.061-.132.062a1.16 1.16 0 0 1-.125.071l-.115.075c-.031.029-.067.056-.102.081l-.089.086-.081.089c-.02.032-.047.061-.066.091l-.055.096-.035.097-.027.096-.007.101.009.096.026.095-.482-1.284-.026-.095-.011-.098c.005-.032.005-.068.01-.1s.014-.064.022-.1a.6.6 0 0 0 .038-.096c.021-.031.04-.06.056-.096l.067-.092.079-.088c.033-.027.061-.058.092-.089l.104-.079.115-.079.125-.071.133-.063.144-.057.151-.052.158-.042.164-.035.166-.024.16-.013.156-.005.152.005c.049.008.097.012.145.016l.14.024.129.03.122.037.109.044.104.048c.027.02.056.036.088.054l.078.06.064.062.05.064.042.069.449 1.29-.036-.067-.053-.066-.061-.061-.078-.06-.089-.052-.097-.048-.111-.045-.123-.037-.126-.029c-.047-.006-.09-.015-.138-.025l-.144-.013-.149-.008-.157.005-.158.015c-.054.012-.11.016-.164.022z"/></g><path d="M77.465 75.416c-1.287-.188-2.906.223-4.336.973s-2.686 1.842-3.249 3.018c-1.269 2.65-.386 6.102 2.799 6.977 1.336.367 2.81.158 4.119-.573s2.463-1.989 3.164-3.714c1.457-3.583.473-6.248-2.497-6.681zm-3.751 3.56c.097.523.899.819 1.795.66.884-.163 1.437-.978 1.374-1.356-.069-.375-.832-.702-1.722-.541s-1.539.71-1.447 1.237zm-1.077 2.761c.51-.365 1.385-.211 1.953.343s.336 1.464-.022 1.726c-.366.259-1.243.148-1.818-.408s-.623-1.3-.113-1.661z" class="v"/><path d="M74.337 82.896l-.131-.041a1.24 1.24 0 0 1-.13-.028l-.133-.018-.13-.007-.124.005-.126.015c-.037.011-.075.021-.117.028l-.112.035c-.035.02-.071.035-.106.051l-.1.061-.086.074-.075.078-.067.087c-.012.032-.029.063-.046.091l-.035.101c-.004.009-.006.02-.008.027l.05.042.115.089a1.48 1.48 0 0 0 .126.079 1.21 1.21 0 0 0 .123.068l.127.059.131.05.126.037a.99.99 0 0 0 .127.029l.127.019.121.011a.86.86 0 0 0 .115-.003.56.56 0 0 0 .11-.007.85.85 0 0 0 .103-.016c.035-.007.065-.018.093-.027.034-.011.06-.022.088-.035l.075-.044c.042-.037.083-.078.128-.128s.074-.108.106-.175a1.19 1.19 0 0 0 .08-.212c.009-.028.013-.059.02-.089l-.065-.052-.117-.079-.126-.069-.127-.059-.13-.047zm.843-3.219l.162-.015.167-.026c.058-.006.11-.019.164-.035l.154-.051.143-.065a1.2 1.2 0 0 0 .136-.075l.127-.082.118-.092.106-.095.096-.101-.15-.03-.144-.013-.149-.008-.157.005-.158.015c-.054.012-.11.016-.164.022l-.163.035-.156.044-.148.048-.143.061-.132.062a1.16 1.16 0 0 1-.125.071l-.115.075c-.031.029-.067.056-.102.081l-.089.086c.029.021.073.034.118.042l.14.022c.049.008.097.012.147.015l.155.006c.053.003.108 0 .162-.002z" class="p"/><ellipse cx="143.927" cy="235.447" rx="128.262" ry="13.644" fill="#333"/><path d="M42.842 194.291h48.065a6.91 6.91 0 0 1 6.885 6.884v47.005c-25.582-1.049-47.207-2.945-61.835-5.365v-41.64c0-3.786 3.098-6.884 6.885-6.884z" fill="url(#L)"/><path d="M68.251 222.829h-2.753v-14.748h2.753z" class="w"/><path d="M119.894 149.735h48.066a6.91 6.91 0 0 1 6.884 6.884v92.072l-30.917.4a1180.87 1180.87 0 0 1-30.917-.4v-92.072c0-3.786 3.098-6.884 6.884-6.884z" fill="url(#H)"/><path d="M142.101 178.416h-2.754v-14.749h2.754v14.749zm6.406 0h-2.754v-14.749h2.754v14.749z" class="w"/><path d="M40.47 155.118l-2.036-.848c-5.448-3.947-4.792-8.907-4.875-13.915-.039-2.31-.665-4.576-.858-6.878-.236-2.812 2.35-4.286 5.693-3.078 2.813 1.016 5.459 2.448 8.189 3.672l10.543 4.391-16.656 16.656zm52.809-1.124l1.68.013c6.773-4.805 5.343-9.571 5.426-14.58.039-2.31.47-4.771.663-7.073.236-2.812-2.35-4.481-5.693-3.273-2.813 1.016-5.459 2.74-8.189 3.964l-10.543 4.294 16.656 16.655z" class="x"/><path d="M45.802 149.064l-1.599-5.702c-1.737-1.194-3.871-4.642-6.404-8.754-.787-1.277-1.835-1.521-2.038-.127-.324 2.226-.01 4.294.298 6.422.216 1.486.476 3.022.804 4.506.577 2.605 1.87 4.373 3.164 5.311l5.775-1.656zm42.145-1.123c.533-1.901-.037-3.3.496-5.201 1.737-1.193 4.974-5.143 7.507-9.255.787-1.277 1.835-1.521 2.038-.127.324 2.226.01 4.294-.298 6.422-.216 1.486-.476 3.022-.804 4.506-.577 2.605-2.504 5.006-3.797 5.944-1.925-.552-3.217-1.737-5.142-2.289z" class="y"/><path d="M45.802 149.064l-1.599-5.702c-1.737-1.194-3.871-4.642-6.404-8.754-.787-1.277-1.835-1.521-2.038-.127-.148 1.015-.163 1.998-.106 2.969.022-.335.056-.672.106-1.013.203-1.394 1.251-1.15 2.038.127 2.533 4.112 4.667 7.56 6.404 8.753l1.091 3.893.508-.146zm42.145-1.123c.533-1.901-.037-3.3.496-5.201 1.737-1.193 4.974-5.143 7.507-9.255.787-1.277 1.835-1.521 2.038-.127a14.51 14.51 0 0 1 .106 2.969c-.022-.335-.056-.672-.106-1.013-.203-1.394-1.251-1.15-2.038.127-2.533 4.112-5.77 8.061-7.507 9.255-.344 1.226-.229 2.243-.247 3.321l-.249-.076z" class="z"/><path d="M84.543 136.882c6.687 10.166 13.273 18.12 13.194 29.921-.046 6.834-2.705 12.364-10.533 15.472-5.745 2.281-12.734 2.836-20.231 2.836s-14.486-.321-20.231-2.602c-7.828-3.108-10.981-8.072-10.981-14.906 0-11.785 5.986-20.545 12.622-30.721 3.955-4.479 6.995-5.202 17.047-5.202 9.764 0 14.865-.197 19.113 5.202z" class="AA"/><path d="M68.446 178.872c7.268-.499 9.294-5.71 10.59-11.269-7.616 5.455-15.472 5.983-23.504 2.876 2.548 6.312 7.155 8.788 12.914 8.393z" class="AB"/><path d="M68.333 177.175c-5.069.703-8.073-1.7-10.648-4.802 5.89 2.459 12.776 2.137 19.545-2.39-.302 1.478-2.541 6.311-8.897 7.192z" class="AC"/><path d="M76.927 170.182h.001c-.345.772-.723 1.543-1.459 2.315-2.484 1.623-5.773 3.042-11.971 2.69-2.038-.116-3.355-1.244-4.375-2.276 5.467 1.812 11.677 1.254 17.804-2.729z" class="o"/><path d="M71.595 176.264c-1.154-.481-2.613-.626-4.311-.609-1.454.015-2.76.379-3.901 1.116 1.414.492 3.034.67 4.95.404 1.238-.172 2.32-.494 3.262-.911z" class="AD"/><path d="M58.797 164.962l2.507-7.481c-.25-9.445-3.258-12.288-7.021-12.561-4.034-.291-6.762 3.441-6.902 11.274-.049 2.75.479 5.472 1.832 8.101l9.584.667z" class="o"/><path d="M59.803 149.047c-1.782-.813-3.863-1.602-5.872-1.443-2.041.162-3.995.831-5.672 2.358 1.13-3.567 3.274-5.24 6.024-5.042 2.255.163 4.238 1.25 5.52 4.127z" class="q"/><path d="M51.593 164.461c-1.462-2.038-2.505-4.343-2.34-7.224.331-5.821 2.604-8.552 6.279-8.737 1.811-.091 4.524 1.162 5.364 4.402.221 1.319.362 2.836.408 4.579l-2.507 7.481-7.204-.501z" class="r"/><path d="M74.586 165.2l-2.666-7.388c.044-9.454 2.988-12.41 6.743-12.822 4.024-.442 6.831 3.188 7.14 11.016.109 2.748-.36 5.489-1.655 8.169l-9.562 1.025z" class="o"/><path d="M73.237 149.322c1.762-.879 3.824-1.746 5.835-1.662 2.043.086 4.011.682 5.719 2.146-1.207-3.525-3.385-5.118-6.128-4.816-2.25.247-4.208 1.408-5.426 4.332z" class="q"/><path d="M81.774 164.43c1.417-2.093 2.408-4.436 2.182-7.312-.458-5.809-2.788-8.454-6.464-8.502-1.812-.024-4.122 1.284-5.264 4.602-.193 1.327-.3 2.85-.308 4.594l2.666 7.388 7.188-.77z" class="r"/><path d="M59.79 157.683c-.192 2.594-1.709 6.746-4.64 6.276-2.24-.36-3.344-3.654-3.353-5.923-.015-3.715 1.771-6.631 4.282-6.629 2.43.002 3.89 3.852 3.711 6.276zm13.906.113c.248 2.588 1.853 6.682 4.773 6.103 2.23-.443 3.262-3.779 3.221-6.048-.065-3.715-1.913-6.565-4.421-6.469-2.429.093-3.805 3.998-3.573 6.414z" class="AE"/><path d="M58.02 153.878c-.461-.799-1.103-1.572-1.942-1.572-.242-.001-.48.037-.71.113-.856.285-1.476 1.057-1.872 1.835-.58 1.141-.806 2.508-.801 3.778a8.1 8.1 0 0 0 .362 2.292c-.151-2.421.609-4.457 1.561-5.206 1.064-.839 1.701.622 2.333 1.013 1.257.777 1.967-.697 1.069-2.253z" class="s"/><path d="M66.69 171.453c-7.348.204-10.002-3.64-10.002-7.954 0-4.398 5.91-7.533 10.285-7.292 4.147.229 9.807 3.649 9.65 8.266-.126 3.716-2.773 6.782-9.933 6.98z" fill="url(#D)"/><path d="M63.512 161.052c.801.131 1.24.945.852 1.979s-1.34 1.596-2.138 1.596-1.145-1.031-.816-2.142 1.301-1.565 2.102-1.433zm5.929-.332c-.801.132-1.24.946-.852 1.979s1.34 1.596 2.138 1.596 1.145-1.03.816-2.142-1.301-1.564-2.102-1.433z" class="AF"/><path d="M63.512 161.052c.725.119 1.154.797.941 1.692-.174-.281-.455-.469-.806-.527-.801-.132-1.772.321-2.102 1.433-.045.151-.077.301-.097.446-.195-.404-.22-.995-.038-1.611.329-1.112 1.301-1.565 2.102-1.433zm5.929-.332c-.801.132-1.24.946-.852 1.979l.032.08c.114-.481.468-.813.955-.894.781-.128 1.723.299 2.075 1.349.038-.324.006-.698-.108-1.081-.33-1.111-1.301-1.564-2.102-1.433z" class="t"/><path d="M50.553 142.132c2.544-2.399 5.588-3.732 9.534-3.489 1.179.072 1.653.395 1.774.848.227.845-.605 1.962-1.958 2.093-3.147.305-6.084.415-9.038 1.094-.556.128-.669-.127-.582-.451.016-.061.211-.039.27-.095zm32.103-.57c-2.649-2.283-6.032-3.527-9.963-3.108-1.174.125-1.72.458-1.72.927 0 .91.678 1.934 2.035 2.004 3.159.163 6.098.141 9.079.687.645.119.754-.189.569-.51z" class="AG"/><path d="M82.374 141.201c-2.649-2.282-5.75-3.478-9.681-3.059-1.174.126-1.722.77-1.72 1.239.002.501.678 1.622 2.035 1.692 3.159.164 6.098.141 9.079.687.645.119.76-.151.287-.559zm-31.821.619c2.544-2.398 5.588-3.732 9.534-3.489 1.179.072 1.755.691 1.774 1.16.02.5-.605 1.65-1.958 1.782-3.147.304-6.084.414-9.038 1.093-.639.147-.767-.117-.312-.546z" class="AH"/><path d="M79.678 153.709c-.523-.76-1.223-1.479-2.061-1.413-.241.019-.475.075-.698.17-.831.352-1.388 1.17-1.72 1.977-.488 1.184-.605 2.564-.499 3.83.063.759.263 1.549.543 2.256-.343-2.402.253-4.492 1.142-5.314.995-.921 1.746.485 2.407.825 1.314.675 1.905-.851.886-2.331z" class="s"/><path d="M194.575 66.005l-2.035-.847c-5.448-3.947-4.793-8.907-4.876-13.915-.038-2.31-.664-4.576-.858-6.878-.236-2.812 2.351-4.286 5.693-3.078 2.813 1.016 5.459 2.448 8.189 3.672l10.543 4.391-16.656 16.655zm52.809-1.123l1.68.013c6.774-4.805 5.343-9.571 5.426-14.58.039-2.31.47-4.771.663-7.073.236-2.812-2.35-4.481-5.692-3.273-2.814 1.016-5.46 2.74-8.19 3.964l-10.543 4.294 16.656 16.655z" class="x"/><path d="M199.907 59.952l-1.599-5.703c-1.737-1.193-3.871-4.641-6.404-8.753-.787-1.277-1.835-1.521-2.038-.127-.324 2.226-.01 4.294.299 6.422.215 1.486.475 3.022.803 4.506.577 2.605 1.87 4.373 3.164 5.311l5.775-1.656zm42.145-1.123c.533-1.901-.037-3.301.496-5.201 1.738-1.194 4.974-5.143 7.507-9.255.787-1.277 1.835-1.521 2.038-.127.325 2.226.01 4.293-.298 6.422-.216 1.486-.476 3.022-.804 4.506-.577 2.605-2.503 5.006-3.797 5.944-1.925-.552-3.217-1.737-5.142-2.289z" class="y"/><path d="M199.907 59.952l-1.599-5.703c-1.737-1.193-3.871-4.641-6.404-8.753-.787-1.277-1.835-1.521-2.038-.127a14.5 14.5 0 0 0-.106 2.968 12.73 12.73 0 0 1 .106-1.012c.203-1.394 1.251-1.15 2.038.127 2.533 4.112 4.667 7.56 6.404 8.753l1.092 3.893.507-.146zm42.145-1.123c.533-1.901-.037-3.301.496-5.201 1.738-1.194 4.974-5.143 7.507-9.255.787-1.277 1.835-1.521 2.038-.127.148 1.016.163 1.998.107 2.969-.022-.335-.057-.672-.107-1.013-.203-1.394-1.251-1.15-2.038.127-2.533 4.112-5.769 8.061-7.507 9.255-.343 1.226-.228 2.243-.246 3.321l-.25-.076z" class="z"/><path d="M238.648 47.77c6.687 10.166 13.273 18.12 13.194 29.921-.046 6.834-2.705 12.364-10.533 15.472-5.745 2.281-12.734 2.836-20.231 2.836s-14.485-.321-20.231-2.602c-7.827-3.108-10.981-8.072-10.981-14.906 0-11.785 5.986-20.545 12.622-30.721 3.956-4.48 6.996-5.202 17.047-5.202 9.764 0 14.865-.197 19.113 5.202z" class="AA"/><path d="M222.551 89.76c7.268-.499 9.295-5.71 10.591-11.269-7.617 5.455-15.472 5.983-23.505 2.876 2.548 6.312 7.155 8.788 12.914 8.393z" class="AB"/><path d="M222.438 88.063c-5.068.703-8.073-1.7-10.648-4.802 5.89 2.459 12.776 2.137 19.545-2.39-.302 1.478-2.541 6.311-8.897 7.192z" class="AC"/><path d="M231.033 81.07h0c-.344.772-.723 1.543-1.459 2.315-2.484 1.623-5.773 3.042-11.971 2.69-2.038-.116-3.354-1.244-4.375-2.276 5.468 1.812 11.677 1.254 17.805-2.729z" class="o"/><path d="M225.7 87.152c-1.154-.481-2.613-.626-4.31-.609-1.454.014-2.76.379-3.902 1.116 1.414.492 3.035.67 4.95.404 1.238-.172 2.32-.494 3.262-.911z" class="AD"/><path d="M212.903 75.85l2.506-7.481c-.25-9.445-3.258-12.289-7.021-12.561-4.033-.291-6.762 3.441-6.902 11.274-.049 2.75.479 5.472 1.833 8.101l9.584.667z" class="o"/><path d="M213.908 59.935c-1.782-.813-3.862-1.602-5.871-1.443-2.042.162-3.996.831-5.672 2.358 1.13-3.567 3.273-5.24 6.023-5.042 2.255.163 4.238 1.25 5.52 4.127z" class="q"/><path d="M205.698 75.349c-1.462-2.038-2.504-4.343-2.34-7.224.332-5.821 2.604-8.552 6.279-8.737 1.812-.091 4.525 1.162 5.364 4.402.222 1.319.362 2.836.408 4.579l-2.506 7.481-7.205-.501z" class="r"/><path d="M228.691 76.088l-2.666-7.388c.045-9.454 2.989-12.41 6.743-12.822 4.024-.442 6.831 3.188 7.14 11.016.109 2.748-.359 5.489-1.655 8.169l-9.562 1.025z" class="o"/><path d="M227.342 60.21c1.763-.879 3.824-1.746 5.835-1.662 2.043.086 4.011.682 5.719 2.146-1.207-3.525-3.384-5.118-6.128-4.816-2.249.247-4.208 1.408-5.426 4.332z" class="q"/><path d="M235.879 75.318c1.417-2.093 2.409-4.436 2.182-7.312-.458-5.809-2.788-8.454-6.464-8.502-1.812-.024-4.122 1.284-5.264 4.602-.192 1.327-.3 2.85-.308 4.594l2.666 7.388 7.188-.77z" class="r"/><path d="M213.895 68.571c-.192 2.594-1.708 6.746-4.64 6.275-2.24-.359-3.344-3.654-3.353-5.922-.015-3.715 1.771-6.631 4.282-6.629 2.43.002 3.891 3.852 3.711 6.276zm13.906.113c.248 2.588 1.854 6.682 4.773 6.103 2.23-.443 3.262-3.779 3.222-6.048-.066-3.715-1.913-6.565-4.422-6.469-2.428.093-3.804 3.997-3.573 6.414z" class="AE"/><path d="M212.125 64.766c-.461-.799-1.102-1.572-1.942-1.572-.242-.001-.48.037-.71.113-.856.285-1.476 1.056-1.872 1.835-.58 1.141-.806 2.508-.801 3.778a8.07 8.07 0 0 0 .363 2.292c-.152-2.421.608-4.457 1.56-5.207 1.064-.838 1.702.623 2.334 1.014 1.256.777 1.966-.697 1.068-2.253z" class="s"/><path d="M204.658 53.02c2.544-2.399 5.588-3.732 9.534-3.49 1.179.073 1.653.396 1.774.848.227.846-.604 1.963-1.957 2.094-3.148.305-6.085.415-9.038 1.094-.556.128-.669-.127-.583-.451.017-.061.211-.039.27-.095zm32.103-.57c-2.649-2.283-6.032-3.527-9.963-3.108-1.174.125-1.72.458-1.72.927 0 .91.678 1.933 2.036 2.004 3.158.163 6.097.141 9.078.687.645.119.754-.189.569-.51z" class="AG"/><path d="M236.479 52.089c-2.649-2.282-5.75-3.478-9.681-3.059-1.174.125-1.722.77-1.72 1.239.002.501.678 1.622 2.036 1.692 3.158.164 6.097.141 9.078.687.645.119.761-.151.287-.559zm-31.821.619c2.545-2.399 5.588-3.732 9.534-3.489 1.179.072 1.755.691 1.774 1.159.021.501-.604 1.651-1.957 1.783-3.148.304-6.085.414-9.038 1.093-.64.147-.767-.117-.313-.546z" class="AH"/><path d="M233.783 64.597c-.523-.76-1.223-1.479-2.06-1.413-.241.019-.476.075-.699.17-.83.352-1.388 1.17-1.72 1.977-.488 1.184-.605 2.564-.499 3.83a8.12 8.12 0 0 0 .543 2.256c-.343-2.402.253-4.492 1.142-5.314.995-.921 1.746.485 2.407.825 1.314.675 1.905-.851.886-2.331z" class="s"/><path d="M220.544 31.2c.559 0 1.012.36 1.012.804s-.453.804-1.012.804-1.011-.36-1.011-.804.453-.804 1.011-.804z" fill="#78beff"/><path d="M237.767 46.742c0-19.551-8.466-14.725-17.223-14.738s-17.549-3.582-17.549 15.207c5.8-2.412 11.435-4.914 19.475-4.643 6.894.231 11.317 1.681 15.297 4.174z" fill="#5298d9"/><path d="M237.767 45.746c2.026-1.217 4.475-2.295 4.662-3.632.255-1.819-.476-3.48-5.168-4.198-4.038-.599-8.553-.505-12.62-.323-16.505.738-18.513 5.13-21.646 8.622v.996c5.526-2.303 11.802-5.897 19.475-5.64 6.894.232 11.317 1.682 15.297 4.175z" fill="#78beff"/><path d="M237.767 46.742c4.931-2.962 7.458-6.611-.506-7.83-4.038-.599-8.553-.505-12.62-.323-16.505.738-18.513 5.13-21.646 8.622 5.8-2.412 11.435-4.914 19.475-4.643 6.894.231 11.317 1.681 15.297 4.174z" fill="#2c72b3"/><path d="M240.558 86.138c-1.201 4.247 8.49 3.346 10.655-3.332-1.179 4.467-4.021 8.188-9.784 10.477-5.745 2.28-12.855 2.768-20.351 2.875-7.641.11-14.877-.263-20.683-2.804-5.757-2.52-8.619-5.304-10.036-10.548 2.2 6.678 12.053 7.606 10.932 3.332-.464-1.245-.864-2.513-1.233-3.789-.937-3.976.318-5.74 2.667-5.914 3.475-.258 6.573.556 9.019 1.235l2.483.48-2.059.371c-2.637-.672-6.265-1.389-7.427-.509s-.27 3.533 1.386 6.952c2.424 5.002 5.541 8.658 9.714 8.208 4.248-.459 1.025-1.913 5.237-1.913s.974 1.454 5.156 1.913c4.108.45 7.177-3.206 9.563-8.208 1.631-3.419 2.513-6.069 1.365-6.952s-4.716-.163-7.312.509l-2.027-.371 2.445-.48c2.408-.679 5.458-1.493 8.878-1.235 2.313.174 3.549 1.938 2.627 5.914-.364 1.276-.854 2.512-1.215 3.789z" fill="#be6c5a"/><path d="M220.795 82.341c-7.348.203-10.001-3.64-10.001-7.954 0-4.398 5.91-7.533 10.284-7.292 4.148.229 9.807 3.649 9.65 8.266-.126 3.716-2.773 6.782-9.933 6.98z" fill="url(#F)"/><path d="M222.977 73.572c1.602.359 3.125 1.189 3.125 2.564 0 2.399-2.959 3.452-4.967 3.452s-4.968-1.053-4.968-3.452c0-1.335.867-2.024 2.359-2.401-.008.207-.065.461-.141.665a2.35 2.35 0 0 1-.241.482c-.47.529-.509.653-.509 1.254 0 1.442 2.405 1.984 3.5 1.984s3.5-.542 3.5-1.984c0-.644-.481-1.109-1.111-1.426-.179-.212-.329-.462-.437-.748a2.4 2.4 0 0 1-.11-.39z" class="t"/><path d="M217.617 71.94c.801.131 1.24.945.852 1.979s-1.34 1.596-2.137 1.596-1.146-1.031-.817-2.142 1.301-1.565 2.102-1.433zm5.929-.332c-.801.132-1.24.946-.852 1.979s1.341 1.596 2.138 1.596 1.146-1.03.816-2.142-1.301-1.564-2.102-1.433z" class="AF"/><path d="M217.617 71.94c.726.119 1.154.797.941 1.692-.173-.281-.455-.47-.806-.527-.801-.132-1.772.321-2.102 1.433-.044.151-.076.3-.097.446-.195-.404-.22-.995-.038-1.611.33-1.112 1.301-1.565 2.102-1.433zm5.929-.332c-.801.132-1.24.946-.852 1.979l.032.08c.114-.481.468-.814.955-.894.781-.128 1.723.299 2.076 1.349.038-.325.005-.698-.109-1.081-.329-1.111-1.301-1.564-2.102-1.433z" class="t"/><path d="M222.584 73.197c1.602.359 3.125 1.189 3.125 2.565 0 2.398-2.959 3.451-4.967 3.451s-4.968-1.052-4.968-3.451c0-1.336 1.345-2.132 2.837-2.508a2.14 2.14 0 0 1-.141.665c-.066.174-.147.334-.241.481-.568.315-.988.76-.988 1.362 0 1.441 2.406 1.983 3.501 1.983s3.499-.542 3.499-1.983c0-.645-.481-1.11-1.11-1.427a2.53 2.53 0 0 1-.437-.748 2.3 2.3 0 0 1-.11-.39z" fill="#e6e6e6" fill-rule="nonzero"/><path d="M117.523 110.561l-2.036-.847c-5.448-3.947-4.793-8.907-4.876-13.915-.038-2.31-.664-4.576-.857-6.878-.237-2.812 2.35-4.286 5.692-3.078 2.814 1.016 5.46 2.448 8.189 3.672l10.543 4.391-16.655 16.655zm52.809-1.123l1.679.013c6.774-4.805 5.344-9.572 5.427-14.58.038-2.31.469-4.771.663-7.073.236-2.812-2.351-4.481-5.693-3.273-2.813 1.016-5.46 2.74-8.189 3.964l-10.543 4.293 16.656 16.656z" class="x"/><path d="M122.855 104.508l-1.599-5.703c-1.738-1.193-3.871-4.641-6.404-8.753-.787-1.277-1.835-1.521-2.039-.127-.324 2.226-.01 4.293.299 6.422a62.15 62.15 0 0 0 .804 4.506c.577 2.605 1.87 4.373 3.164 5.311l5.775-1.656zM165 103.385c.533-1.901-.037-3.301.496-5.201 1.737-1.194 4.973-5.143 7.507-9.255.786-1.277 1.834-1.521 2.038-.127.324 2.226.01 4.293-.299 6.422a62.15 62.15 0 0 1-.804 4.506c-.576 2.605-2.503 5.006-3.797 5.944-1.925-.552-3.216-1.737-5.141-2.289z" class="y"/><path d="M122.855 104.508l-1.599-5.703c-1.738-1.193-3.871-4.641-6.404-8.753-.787-1.277-1.835-1.521-2.039-.127a14.5 14.5 0 0 0-.106 2.968c.022-.334.057-.671.106-1.012.204-1.394 1.252-1.15 2.039.127 2.533 4.112 4.666 7.56 6.404 8.753l1.091 3.893.508-.146zM165 103.385c.533-1.901-.037-3.301.496-5.201 1.737-1.194 4.973-5.143 7.507-9.255.786-1.277 1.834-1.521 2.038-.127a14.51 14.51 0 0 1 .106 2.969 13.19 13.19 0 0 0-.106-1.013c-.204-1.394-1.252-1.15-2.038.127-2.534 4.112-5.77 8.061-7.507 9.254-.344 1.227-.229 2.244-.247 3.322l-.249-.076z" class="z"/><path d="M161.596 92.326c6.687 10.166 13.272 18.12 13.193 29.921-.045 6.834-2.705 12.364-10.533 15.472-5.745 2.281-12.733 2.836-20.23 2.836s-14.486-.321-20.231-2.602c-7.828-3.108-10.982-8.073-10.982-14.906 0-11.786 5.987-20.545 12.622-30.721 3.956-4.48 6.996-5.202 17.048-5.202 9.764 0 14.865-.197 19.113 5.202z" class="AA"/><path d="M145.498 134.315c7.268-.498 9.295-5.709 10.591-11.268-7.616 5.455-15.472 5.983-23.504 2.876 2.547 6.312 7.155 8.787 12.913 8.392z" class="AB"/><path d="M145.386 132.619c-5.069.703-8.074-1.7-10.648-4.802 5.89 2.459 12.775 2.137 19.545-2.39-.303 1.478-2.541 6.311-8.897 7.192z" class="AC"/><path d="M153.98 125.626h0c-.344.772-.722 1.543-1.459 2.314-2.483 1.624-5.772 3.043-11.97 2.691-2.039-.116-3.355-1.244-4.376-2.276 5.468 1.812 11.677 1.254 17.805-2.729z" class="o"/><path d="M148.647 131.708c-1.153-.481-2.613-.626-4.31-.609-1.454.014-2.76.379-3.902 1.116 1.414.492 3.035.67 4.951.404 1.238-.172 2.319-.494 3.261-.911z" class="AD"/><path d="M135.85 120.406l2.506-7.481c-.249-9.445-3.257-12.289-7.021-12.561-4.033-.291-6.762 3.441-6.902 11.274-.049 2.75.479 5.472 1.833 8.101l9.584.667z" class="o"/><path d="M136.856 104.491c-1.782-.813-3.863-1.602-5.872-1.443-2.041.162-3.996.831-5.672 2.358 1.13-3.568 3.273-5.24 6.023-5.042 2.255.163 4.239 1.25 5.521 4.127z" class="q"/><path d="M128.646 119.905c-1.463-2.038-2.505-4.343-2.341-7.224.332-5.821 2.605-8.552 6.28-8.737 1.811-.091 4.524 1.162 5.364 4.402.221 1.319.361 2.836.407 4.579l-2.506 7.481-7.204-.501z" class="r"/><path d="M151.639 120.644l-2.667-7.388c.045-9.454 2.989-12.41 6.744-12.823 4.023-.441 6.831 3.189 7.14 11.017.108 2.748-.36 5.489-1.656 8.169l-9.561 1.025z" class="o"/><path d="M150.289 104.766c1.763-.879 3.825-1.746 5.836-1.662 2.043.086 4.01.682 5.718 2.146-1.206-3.525-3.384-5.118-6.127-4.817-2.25.248-4.209 1.409-5.427 4.333z" class="q"/><path d="M158.826 119.873c1.417-2.092 2.409-4.436 2.182-7.311-.458-5.809-2.787-8.454-6.463-8.502-1.812-.024-4.122 1.284-5.265 4.602-.192 1.327-.299 2.85-.308 4.594l2.667 7.388 7.187-.771z" class="r"/><path d="M136.843 113.127c-.192 2.594-1.709 6.746-4.641 6.275-2.24-.359-3.344-3.654-3.353-5.922-.014-3.715 1.771-6.631 4.282-6.629 2.431.002 3.891 3.852 3.712 6.276zm13.906.113c.247 2.588 1.853 6.682 4.772 6.103 2.23-.443 3.262-3.779 3.222-6.048-.066-3.716-1.913-6.565-4.422-6.469-2.428.093-3.804 3.997-3.572 6.414z" class="AE"/><path d="M135.072 109.322c-.461-.799-1.102-1.572-1.942-1.572-.242-.001-.48.037-.709.113-.856.285-1.477 1.056-1.872 1.834-.58 1.142-.807 2.509-.801 3.779.003.761.139 1.565.362 2.292-.152-2.421.609-4.457 1.56-5.207 1.065-.838 1.702.623 2.334 1.014 1.257.777 1.967-.697 1.068-2.253z" class="s"/><path d="M127.606 97.576c2.544-2.399 5.588-3.732 9.533-3.49 1.179.073 1.653.396 1.775.848.226.846-.605 1.963-1.958 2.094-3.148.305-6.085.415-9.038 1.094-.556.128-.669-.127-.582-.451.016-.061.211-.039.27-.095zm32.102-.57c-2.649-2.283-6.031-3.527-9.962-3.108-1.175.125-1.72.458-1.72.927 0 .91.678 1.933 2.035 2.004 3.158.163 6.097.141 9.078.687.645.118.755-.189.569-.51z" class="AG"/><path d="M159.426 96.645c-2.649-2.283-5.749-3.478-9.68-3.059-1.175.125-1.722.77-1.721 1.239.003.5.679 1.622 2.036 1.692 3.158.164 6.097.141 9.078.687.645.119.761-.151.287-.559zm-31.82.619c2.544-2.399 5.588-3.732 9.533-3.49 1.18.073 1.756.692 1.775 1.16.02.501-.605 1.651-1.958 1.782-3.148.305-6.085.415-9.038 1.094-.639.147-.767-.117-.312-.546z" class="AH"/><path d="M156.731 109.153c-.523-.76-1.224-1.479-2.061-1.413-.241.019-.475.075-.698.17-.831.351-1.388 1.17-1.721 1.977-.487 1.183-.604 2.564-.498 3.83.063.759.263 1.549.543 2.256-.344-2.402.253-4.492 1.142-5.314.994-.921 1.745.485 2.406.825 1.315.674 1.906-.851.887-2.331z" class="s"/><path d="M128.6 91.844c-2.854 1.451-5.643.186-4.835-3.119 1.308-5.349 4.86-8.595 10.723-9.28 3.551-.416 6.521.292 8.617 1.754 2.258-1.343 4.85-2.544 9.631-1.637 4.917.933 7.743 3.933 10.091 9.677 1.588 3.884-3.238 3.659-5.898 2.274-2.571-1.338-5.057-2.613-7.936-2.866-2.259-.199-3.726 1.025-5.634 1.014-2.153-.013-3.626-1.082-6.941-1.089-2.131-.005-5.369 2.027-7.818 3.272z" fill="#b1604e"/><path d="M128.6 90.441c-2.853 1.451-5.643 1.589-4.835-1.716 1.308-5.348 4.86-8.595 10.723-9.28 3.551-.416 6.521.292 8.617 1.754 2.258-1.343 4.85-2.544 9.631-1.637 4.917.933 7.743 3.933 10.091 9.677 1.588 3.884-2.92 2.484-5.58 1.099-2.57-1.338-5.375-3.388-8.254-3.641-2.259-.198-3.726 1.025-5.634 1.014-2.153-.013-3.626-1.081-6.941-1.089-2.131-.005-5.369 2.573-7.818 3.819z" fill="url(#B)"/><path d="M163.525 130.62c-1.201 4.247 8.49 3.346 10.655-3.332-1.179 4.467-4.021 8.188-9.784 10.476-5.745 2.281-12.855 2.769-20.351 2.876-7.641.11-14.877-.263-20.683-2.804-5.758-2.52-8.619-5.304-10.036-10.548 2.199 6.678 12.053 7.606 10.932 3.332-.465-1.245-.864-2.513-1.233-3.79-.938-3.976.318-5.739 2.667-5.913 3.475-.258 6.573.555 9.019 1.235l2.483.48-2.059.371c-2.637-.672-6.265-1.389-7.427-.509s-.27 3.533 1.386 6.952c2.424 5.002 5.541 8.658 9.714 8.208 4.248-.459 1.025-1.913 5.237-1.913s.974 1.454 5.156 1.913c4.108.45 7.177-3.206 9.563-8.208 1.631-3.419 2.513-6.069 1.365-6.952s-4.716-.163-7.312.509l-2.027-.371 2.445-.48c2.408-.68 5.458-1.493 8.878-1.235 2.313.174 3.549 1.937 2.626 5.913-.363 1.277-.853 2.513-1.214 3.79z" fill="#ffaec8"/><path d="M143.743 126.897c-7.348.203-10.002-3.64-10.002-7.954 0-4.398 5.91-7.533 10.285-7.292 4.147.229 9.806 3.649 9.65 8.266-.127 3.716-2.773 6.782-9.933 6.98z" fill="url(#F)"/><path d="M140.565 116.496c.801.131 1.24.945.852 1.979s-1.341 1.596-2.138 1.596-1.146-1.031-.816-2.142 1.3-1.565 2.102-1.433zm5.929-.332c-.801.132-1.241.945-.853 1.979s1.341 1.596 2.138 1.596 1.146-1.03.816-2.142-1.3-1.564-2.101-1.433z" class="AF"/><path d="M140.565 116.496c.725.119 1.154.797.94 1.692-.173-.281-.454-.47-.805-.527-.801-.132-1.773.321-2.102 1.433-.045.151-.077.3-.097.446-.195-.405-.221-.995-.038-1.611.329-1.112 1.3-1.565 2.102-1.433zm5.929-.332c-.801.132-1.241.945-.853 1.979l.032.08c.115-.481.468-.814.956-.894.781-.128 1.723.299 2.075 1.349.038-.325.005-.698-.109-1.081-.329-1.111-1.3-1.564-2.101-1.433z" class="t"/><path d="M196.947 105.179h48.066a6.91 6.91 0 0 1 6.884 6.884v130.752c-14.627 2.42-36.254 4.316-61.835 5.365V112.063c0-3.786 3.098-6.884 6.885-6.884z" fill="url(#I)"/><path d="M215.951 133.86h-2.754v-14.749h2.754v14.749zm6.406 0h-2.754v-14.749h2.754v14.749zm6.405 0h-2.754v-14.749h2.754v14.749z" class="w"/></svg>