<?xml version="1.0" encoding="UTF-8"?>
<svg xmlns="http://www.w3.org/2000/svg" width="51" height="51" viewBox="0 0 8.127 8.127" shape-rendering="geometricPrecision" image-rendering="optimizeQuality" fill-rule="evenodd" xmlns:v="https://vecta.io/nano"><circle cx="4.063" cy="4.063" r="4.063" fill="#333"/><path d="M7.783 4.064a3.72 3.72 0 0 0-7.44 0c0 1.63 1.05 3.016 2.51 3.518.089-.064.192-.143.192-.277l-.005-.731s-.161.028-.392.028c-.58 0-.764-.369-.851-.575-.114-.269-.262-.395-.418-.495-.097-.062-.119-.135-.007-.156.514-.097.645.579.988.687.245.077.56.044.717-.057.021-.206.17-.385.295-.479-.873-.083-1.391-.385-1.659-.87l-.029-.054-.067-.154-.02-.055c-.084-.246-.122-.528-.122-.843 0-.559.176-.769.411-1.067-.18-.637.064-1.073.064-1.073s.378-.078 1.092.431c.387-.165 1.42-.179 1.908-.037.3-.197.848-.476 1.069-.398.06.096.189.376.079.99.075.134.465.421.467 1.233-.007.299-.038.551-.096.765l-.032.109-.039.101-.023.054c-.259.566-.791.777-1.649.865.278.174.358.393.358.984l-.006.806c.001.121.098.207.184.272a3.72 3.72 0 0 0 2.521-3.522z" fill="#f3c14d" fill-rule="nonzero"/></svg>