<?xml version="1.0" encoding="UTF-8"?>
<svg xmlns="http://www.w3.org/2000/svg" width="126" height="70" viewBox="0 0 20.572 11.543" shape-rendering="geometricPrecision" image-rendering="optimizeQuality" fill-rule="evenodd" xmlns:v="https://vecta.io/nano"><path d="M17.66 11.299l1.531-.697.105-.053.102-.059.099-.064.095-.068.092-.072.089-.077.084-.08.081-.085.077-.088.072-.092.068-.096.063-.099.059-.101.054-.105.049-.108.044-.11.038-.113.033-.116.027-.117.022-.12.015-.121.01-.123.003-.125V2.433l-.003-.125-.01-.123-.015-.121-.022-.12-.027-.117-.033-.115-.038-.113-.044-.111-.049-.107-.054-.105-.059-.102-.063-.099-.068-.095-.072-.092-.077-.089-.081-.084-.084-.081-.089-.077-.092-.072-.095-.068-.099-.063-.102-.059-.105-.054-.108-.049-.11-.044L18.86.11l-.115-.033-.117-.027-.12-.022-.121-.015-.123-.01L18.139 0H4.141l-.125.003-.123.01-.121.015-.12.022-.117.027-.116.033-.112.038-1.692.591.114-.038.116-.034.119-.027.121-.022.122-.016.125-.009.126-.003h14.139l.126.003.124.009.123.016.121.022.118.027.117.034.114.038.111.045.109.049.106.054.103.06.1.064.096.069.093.073.089.077.086.082.081.085.078.089.073.093.068.097.065.099.059.103.054.106.05.109.044.112.039.114.033.116.028.119.021.12.016.123.009.124.004.126v6.038l-.004.126-.009.124-.016.123-.021.12-.028.119-.033.117-.039.114-.044.111-.05.109-.054.106-.059.103-.065.1-.068.096-.073.093-.078.089-.081.086-.086.081-.089.077-.093.074-.096.068-.1.064-.103.06z" fill="#9c3456"/><path d="M16.597.59H2.458C1.106.59 0 1.696 0 3.047v6.038c0 1.352 1.106 2.458 2.458 2.458h14.139c1.352 0 2.458-1.106 2.458-2.458V3.047c0-1.351-1.106-2.457-2.458-2.457z" fill="#bd5577"/><path d="M7.71 5.823a2.56 2.56 0 0 1-.162.925 2.17 2.17 0 0 1-.451.726 2.04 2.04 0 0 1-.685.472 2.2 2.2 0 0 1-.866.169H4.125l.497-4.042h1.424c.257 0 .488.044.694.131a1.49 1.49 0 0 1 .523.364c.143.155.254.339.331.554s.116.447.116.701zm-.743.015c0-.18-.022-.344-.067-.491a1.08 1.08 0 0 0-.194-.376.85.85 0 0 0-.311-.239 1.01 1.01 0 0 0-.422-.084h-.695l-.354 2.886h.695c.203 0 .387-.039.552-.117a1.21 1.21 0 0 0 .427-.337 1.56 1.56 0 0 0 .273-.533c.064-.21.096-.446.096-.709zm3.44.08c0 .129-.025.246-.076.353s-.143.202-.275.286a1.97 1.97 0 0 1-.537.216 5.63 5.63 0 0 1-.865.145v.036c0 .446.191.67.573.67.082 0 .154-.009.217-.024s.119-.035.167-.057a.83.83 0 0 0 .128-.076l.106-.075.096-.058a.24.24 0 0 1 .104-.023c.022 0 .044.006.067.016s.041.025.055.046l.176.213c-.098.098-.195.184-.29.257s-.192.132-.29.179a1.34 1.34 0 0 1-.313.104 1.76 1.76 0 0 1-.36.034c-.168 0-.319-.029-.455-.086a1.01 1.01 0 0 1-.349-.24 1.07 1.07 0 0 1-.224-.374 1.43 1.43 0 0 1-.08-.49 2.01 2.01 0 0 1 .049-.445 2.03 2.03 0 0 1 .14-.413 1.71 1.71 0 0 1 .227-.36 1.49 1.49 0 0 1 .303-.286 1.39 1.39 0 0 1 .371-.187 1.36 1.36 0 0 1 .434-.067 1.1 1.1 0 0 1 .395.064.88.88 0 0 1 .282.167.68.68 0 0 1 .169.229.6.6 0 0 1 .055.246zm-.94-.226a.6.6 0 0 0-.26.058.72.72 0 0 0-.216.164 1.02 1.02 0 0 0-.167.25 1.54 1.54 0 0 0-.114.319l.558-.104c.14-.038.249-.08.326-.126a.38.38 0 0 0 .154-.144.37.37 0 0 0 .037-.165c0-.028-.006-.057-.018-.087s-.03-.058-.056-.081-.057-.044-.097-.06a.4.4 0 0 0-.147-.024zm4.071-1.038h-1.625l-.15 1.228h1.37l-.075.581h-1.365l-.204 1.655h-.729l.497-4.045h2.354zm1.218.597l-.343 2.864h-.681l.343-2.864h.681zm.173-.837c0 .061-.012.117-.037.169a.48.48 0 0 1-.098.138c-.04.039-.086.069-.138.093a.38.38 0 0 1-.162.035.37.37 0 0 1-.157-.035c-.051-.023-.097-.054-.136-.093s-.07-.086-.093-.138-.036-.108-.036-.169a.41.41 0 0 1 .037-.17.48.48 0 0 1 .095-.141.44.44 0 0 1 .135-.095c.052-.023.104-.036.158-.036s.11.013.162.036.098.054.138.093a.46.46 0 0 1 .096.14c.024.054.036.112.036.173z" fill="#fff" fill-rule="nonzero"/></svg>