<?xml version="1.0" encoding="UTF-8"?>
<svg xmlns="http://www.w3.org/2000/svg" width="195" height="80" viewBox="0 0 58.57 24.064" shape-rendering="geometricPrecision" image-rendering="optimizeQuality" fill-rule="evenodd" xmlns:v="https://vecta.io/nano"><path d="M7.094.235l-3.47 1.102-.239.082-.233.092-.228.104-.222.114-.216.124-.209.135-.202.144-.195.153-.187.162-.18.171-.17.179-.163.188-.153.194-.144.202-.134.21-.125.215-.114.222-.103.228-.093.234-.081.239-.07.244-.058.249-.045.253-.033.257-.02.261L0 6.257v12.655l.007.264.02.261.033.257.045.253.058.249.07.244.081.239.093.234.103.228.114.222.125.216.134.209.144.202.153.195.163.187.17.179.18.171.187.162.195.153.202.144.209.135.216.124.222.114.228.104.233.093.239.081.244.069.249.058.253.046.257.033.261.02.264.006h44.283l.264-.006.26-.02.258-.033.253-.046 3.942-.874-.256.046-.26.034-.263.02-.267.007H8.637l-.267-.007-.264-.02-.259-.034-.256-.046-.251-.058-.246-.07-.242-.083-.236-.093-.23-.105-.225-.115-.218-.126-.211-.135-.204-.146-.197-.155-.189-.164-.181-.172-.172-.181-.164-.189-.155-.197-.146-.204-.135-.211-.126-.218-.115-.225-.105-.23-.093-.236-.083-.241-.07-.247-.058-.251-.046-.256-.033-.26-.021-.263-.006-.267V5.204l.006-.267.021-.263.033-.26.046-.255.058-.251.07-.247.083-.241.093-.237.105-.23.115-.224.126-.218.135-.211.146-.204.155-.197.164-.189.172-.181.181-.173.189-.164.197-.155.204-.145.211-.136.218-.126.225-.115.23-.104.236-.094z" fill="#3177b8"/><path d="M53.366 0H8.637a5.22 5.22 0 0 0-5.204 5.204v12.783a5.22 5.22 0 0 0 5.204 5.205h44.729a5.22 5.22 0 0 0 5.204-5.205V5.204A5.22 5.22 0 0 0 53.366 0z" fill="#5298d9"/><g fill="#fff"><path d="M23.052 10.594l.047-.155c.385-.7.5-.993 1.433-.947.439.025 1.002.174 1.213.598h0c.16.04.289.374.323.519.067.284.028.412-.035.622l-.028.094-.098.399c-.085.362-.19.815-.273.945a.32.32 0 0 1-.079.092c-.023.019-.044.036-.105.154-.042.082-.06.132-.08.187l-.05.126-.592 1.063c-.076.119-.186.227-.309.324a2.95 2.95 0 0 1-.388.252c-.237.132-.495.1-.738.005-.387-.161-.89-.581-1.053-.983-.283-.694-.056-1.391.144-1.999l.039-.121c.055-.169.078-.186.108-.208.016-.012.034-.025.061-.071.036-.058.029-.093.019-.143-.032-.173-.026-.127.128-.219a.31.31 0 0 0 .16-.262c.011-.089.021-.141.126-.178l.027-.094zm.996-.044l-.009.019c-.022.054-.077.099-.127.14l-.025.021c-.464.392-.766 1.444-.77 1.458-.014.031-.103.111-.121.123-.005.009-.007.058-.009.072l-.043.379c-.041.301-.074.541.121.73.25-.113.407-.319.522-.47.18-.238.385-.359.476-.666.02-.066.044-.162.127-.176h0c.005-.171.058-.342.105-.505l.074-.25c.105-.309.017-.56-.056-.766-.033-.122-.176-.29-.265-.109zm.607-3.982c.217.045.284.095.356.149.046.034.095.07.19.108.088.036.201.073.32.112l.538.205.387.206a5.06 5.06 0 0 0 .453.281c.298.168.5.283.716.699.088.169.184.36.247.568s.092.435.044.673a3.73 3.73 0 0 0-.001.423c.007.175.013.346-.012.501l-.272 1.422a1.71 1.71 0 0 1-.195.586c-.081.164-.171.345-.243.674a1.02 1.02 0 0 1-.163.362l-.118.203-.302.525c-.036.053-.057.101-.078.149s-.04.09-.072.142l-.073.119-.069.124c-.087.16-.218.354-.366.534-.129.157-.271.304-.406.407-.115.089-.165.158-.211.223-.055.078-.105.149-.251.235l-1.088.568c-.192.111-.629.201-1.059.222-.363.017-.722-.016-.926-.128-.118-.065-.234-.105-.325-.156-.048-.027-.095-.054-.255-.055l-.132-.003a2.72 2.72 0 0 0-.271 0 1.6 1.6 0 0 1-.511-.052 1.18 1.18 0 0 1-.423-.202.7.7 0 0 1-.085-.079c-.025-.025-.048-.05-.096-.085l-.444-.329c-.51-.423-.639-.979-.733-1.382l-.081-.305c-.314-.887-.152-1.276-.043-1.537.029-.071.055-.132.065-.19.041-.229.02-.292.006-.335-.024-.072-.033-.098.209-.584l.052-.11c.005-.013.009-.021.013-.029l.401-.9c.131-.205.156-.413.309-.587.035-.041.076-.087.132-.187.042-.074.1-.198.151-.306l.055-.119.11-.224c.112-.227.204-.41.276-.648.042-.139.09-.186.145-.24.029-.029.061-.061.096-.111.079-.116.145-.243.212-.372.075-.145.151-.293.251-.432.285-.388.446-.777.89-.965.066-.02.1-.023.14-.028l.11-.016.222-.048c.153-.035.182-.042.617-.044a1.42 1.42 0 0 1 .257.019c.091.016.178.046.233.099l1.101.25zm-.384 1.201c-.321.104-.412.033-.47-.013-.051-.04-.073-.057-.284.172-.047.05-.072.069-.101.091-.022.017-.046.035-.084.072a.51.51 0 0 0-.147.264c-.021.068-.042.139-.095.217-.108.159-.148.157-.174.156-.018-.001-.024-.001-.112.273-.022.067-.042.121-.074.172a.66.66 0 0 1-.143.155l-.027.023c.002.018-.041.037-.043.019l-.003.001c-.038.158-.112.293-.175.442a1.17 1.17 0 0 1-.095.18c-.028.046-.059.096-.104.196l-.635 1.369c-.078.115-.199.439-.313.788l-.292 1.079c-.038.362.006.806.122 1.217.106.375.273.722.491.952.293.308 1.017.606 1.35.522l.544-.13c.625-.14 1.34-.67 1.682-1.132l.358-.419c.497-.519.693-1.074.833-1.468l.116-.305c.04-.09.073-.14.103-.184.049-.073.088-.133.139-.348l.111-.381.068-.216.126-.653c.111-.431.232-1.779-.107-2.22-.162-.212-.313-.37-.492-.503s-.389-.245-.669-.364c-.46-.195-.469-.19-.554-.144-.316.157-.548.023-.85.12z" fill-rule="nonzero"/><path d="M33.469 9.965l.092-.06c.23-.151.547-.19.84-.182.346.009.67.101.823.227.229.19.114.459-.086.7-.194.234-.469.443-.58.528-.297.228-.616.437-.884.7-.049.048-.052.087-.106.115s-.213.044-.224.2c-.011.15.172.229.283.33.162.148.502.556.605.637l1.039.823a1.09 1.09 0 0 1 .22.241 2.43 2.43 0 0 1 .175.299c.299.577.555.603-.065 1.214a.81.81 0 0 1-.101.086c-.355.251-.842.161-1.264-.015s-.782-.434-.871-.535l-.016-.018c-.155-.176-.576-.286-.829-.488l-.204-.156-.95-.774c-.067-.055-.162-.063-.243-.093l-.1-.037c-.159-.06-.022.408-.029.671-.017.681-.014 1.548-.255 1.746l-.106.087c-.284.234-.612.308-.925.318a2.18 2.18 0 0 1-.948-.205c-.401-.177-.371-.604-.342-1.036l.016-.324.016-1.149.005-2.256a9.54 9.54 0 0 1 .042-1.231c.038-.452.072-.844-.037-1.656-.039-.286.042-.32.083-.343.193-.107.128-.286.294-.383l.06-.035.218-.119c.161-.072.304-.087.468-.11s.346-.048.473-.028c.163.026.23.092.301.161a.65.65 0 0 0 .127.105c.075.045.124.064.16.077.085.031.106.038.197.267.183.463.165.552.14.677-.015.079-.034.174-.002.399.023.162.022.339.022.51v.109l.031.739c.025.232.029.521.308.327l.942-.655c.128-.089.362-.187.597-.267.218-.074.465-.056.59-.138zm2.959.364c-.109-.125-.194-.109-.281-.339-.079-.21-.06-.142-.091-.26-.01-.038-.029-.075-.033-.122l-.04-.425c-.007-.132.058-.358.147-.574.094-.226.217-.442.31-.527.037-.032.14-.072.255-.107.15-.046.332-.055.395-.094.146-.091.355-.206.536-.202a3.02 3.02 0 0 1 .31.039l.356.07 1.639-.008.857-.009c.364-.003.783-.007 1.085.082.344.102.548.245.66.401.068.097.102.199.112.299a.78.78 0 0 1-.032.291c-.067.226-.214.407-.26.44s-.204.082-.376.127l-.562.114c-.189.014-.246.033-.308.053-.049.016-.1.034-.217.05l-1.598.213-.129-.026-.148.146.181 1.114c.032.195.577.169 1.159.153.476-.012 1.01-.026 1.424.066.429.096.757.329.662.807-.117.598-.374.584-.833.808-.274.134-.473.153-.769.169-.507.029-.368.045-.752.143l-.138.035c-.063.016-.111.019-.151.021-.335.025-.272.49-.258.72.011.171-.114.433-.005.442l.141.012c.155.052.285.039.394.057.245.041.428.072.867.04l.334-.03c.299-.03.625-.063.905-.043.439.032.771.192.735.685-.051.717-.817.987-1.399 1.164-.415.125-.863.225-1.11.232-.377.012-.563.043-.726.07-.229.038-.415.06-1.025.032l-.126-.006c-.092-.004-.822-.383-.901-.458-.095-.09-.07-.258-.179-.336-.28-.2-.324-.826-.326-1.251v-.131l-.244-2.219c-.016-.151-.065-.336-.101-.536-.098-.542-.182-1.204-.346-1.392zm7.236.22c-.092-.133-.216-.335-.298-.534-.058-.142-.095-.284-.082-.397.025-.22.073-.243.138-.274.039-.019.086-.042.139-.125.048-.074.068-.136.085-.19.029-.093.051-.168.183-.241l.204-.116c.006-.005.009-.013.014-.027.081-.213.175-.18.273-.19.35-.035.899-.022 1.083.086.152.09.367.084.542.239.374.331.869 1.1.973 1.244l.25.376c.296.451.623.998 1.023 1.361l1.13 1.024c.119.108.119-.16.121-.198.002-.048-.003-.137-.008-.213l-.013-.204-.143-1.698c-.077-.907-.005-1.27.923-1.058.252.058.507.146.63.242.342.268.718 1.067.835 1.511.066.25.132.677.18 1.104l.07 1.139c-.019.554.068.78.134.951.152.393-.086 1.391-.563 1.549-.103.034-.231.115-.329.141-.106.029-.206.025-.309.028l-.12.004c-.723 0-.638.018-1.196-.31-.272-.16-.414-.414-.681-.587a1.71 1.71 0 0 1-.195-.148l-1.146-.897-.223-.158c-.041-.029-.394-.242-.401-.313.006.1.004.139.028.263.057.289.058.532.136.829.066.256.07.506.016.746a1.78 1.78 0 0 1-.343.702c-.064.084-.11.131-.177.159s-.149.037-.29.044c-1.508.083-1.563-.497-1.645-1.376l-.104-.779c-.09-.498-.539-3.27-.844-3.709zm-27.417 2.295l.082.818c.032.914.02.945-.121 1.341-.246.693-.426 1.408-1.401 1.289-.601-.073-1.19-.533-1.066-1.19.118-.623.038-1.367.05-2.082l-.049-2.386c-.004-.13-.008-.202-.036-.239-.157-.21-1.88-.007-2.327-.089-.64-.118-1.599-.649-1.458-1.353.056-.273.187-.436.391-.534s.475-.139.815-.151c.857-.032 2.659.107 3.525-.16l.098-.025c.395-.075.946-.074 1.386-.14.667-.101 1.296-.196 2.107-.002.586.14 1.198.512 1.162 1.196-.044.828-.819.704-1.442.663-.941-.061-1.202.104-1.995.272.243.776.182 2.004.279 2.772z"/></g></svg>