<?xml version="1.0" encoding="UTF-8"?>
<svg xmlns="http://www.w3.org/2000/svg" width="164" height="75" viewBox="0 0 30.058 13.719" shape-rendering="geometricPrecision" image-rendering="optimizeQuality" fill-rule="evenodd" xmlns:v="https://vecta.io/nano"><path d="M2.539 13.304l2.172.381.148.019.15.011.152.004h21.934l.152-.004.15-.011.148-.019.145-.027.143-.033.141-.04.137-.047.135-.053.131-.059.128-.066.124-.072.12-.077.116-.083.112-.088.108-.093.103-.099.098-.103.094-.107.088-.112.083-.117.077-.12.071-.124.066-.128.06-.131.053-.134.047-.138.04-.14.033-.143.026-.146.019-.148.012-.149.003-.152V3.477l-.003-.152-.012-.15-.019-.148-.026-.145-.033-.144-.04-.14-.047-.137-.053-.135-.06-.131-.066-.128-.071-.124-.077-.12-.083-.116-.088-.112-.094-.108-.098-.103-.103-.098-.108-.094-.112-.088-.116-.083-.12-.077-.124-.071-.128-.066-.131-.06-.135-.053-.137-.047-.141-.04-1.938-.512.141.04.139.047.136.054.133.06.129.067.125.072.121.078.118.084.113.089.109.094.104.099.099.104.094.109.089.113.084.118.078.121.072.125.067.13.06.132.054.136.047.139.04.141.034.145.026.147.02.149.011.152.004.153v7.353l-.004.153-.011.151-.02.15-.026.147-.034.144-.04.142-.047.139-.054.136-.06.132-.067.129-.072.126-.078.121-.084.118-.089.113-.094.108-.099.104-.104.1-.109.094-.113.089-.118.084-.121.078-.125.072-.129.066-.133.061-.136.053-.139.048-.141.04-.145.034-.147.026-.149.019-.152.012-.153.004H2.993l-.153-.004-.152-.012z" fill="#de573f"/><path d="M25.149 0H2.993C1.347 0 0 1.347 0 2.993v7.353c0 1.646 1.347 2.993 2.993 2.993h22.156c1.646 0 2.993-1.347 2.993-2.993V2.993C28.142 1.347 26.795 0 25.149 0z" fill="#ff7860"/><path d="M8.293 8.936H5.055v-.66h-.648v-.635h-.648V5.698h.648V5.05h.648v-.648h3.238v.648H5.702v.648h-.647v1.943h.647v.648h1.296V6.993H6.35v-.647h1.943zm5.364 0h-1.296V7.641h-1.943v1.295H9.122V5.698h.648V5.05h.648v-.648h1.943v.648h.648v.648h.648v3.238zm-1.296-1.943V5.698h-.648V5.05h-.647v.648h-.648v1.295h1.943zm6.659 1.943h-1.295V6.993h-.648v.648h-.648v-.648h-.648v1.943h-1.295V4.402h1.295v.648h.648v.648h.648V5.05h.648v-.648h1.295zm5.363 0h-4.534V4.402h4.534v.648h-3.238v1.296h2.591v.647h-2.591v1.296h3.238z" fill="#fff" fill-rule="nonzero"/></svg>