<?xml version="1.0" encoding="UTF-8"?>
<svg xmlns="http://www.w3.org/2000/svg" width="146" height="83" viewBox="0 0 21.38 12.133" shape-rendering="geometricPrecision" image-rendering="optimizeQuality" fill-rule="evenodd" xmlns:v="https://vecta.io/nano"><path d="M1.975 11.636l1.522.415.126.029.128.023.13.016.131.01.134.004h14.63l.134-.004.131-.01.13-.016.128-.023.126-.029.123-.036.121-.041.118-.047.115-.052.113-.058.109-.062.105-.068.103-.073.098-.078.094-.082.091-.086.086-.09.082-.095.078-.098.073-.103.068-.105.062-.109.058-.112.052-.116.047-.118.041-.121.035-.123.03-.126.023-.128.016-.129.01-.132.004-.134V3.134l-.004-.133-.01-.132-.016-.13-.023-.128-.03-.125-.035-.124-.041-.12-.047-.119-.052-.115-.058-.112-.062-.109-.068-.106-.073-.102-.078-.098-.082-.095-.086-.09-.091-.087-.094-.082-.098-.077-.103-.073-.105-.068-.109-.063-.113-.057-.115-.053-.118-.047L18.31.16l.119.047.117.053.113.059.11.063.107.069.103.073.099.078.096.083.091.087.088.092.082.096.079.099.073.103.069.107.063.11.059.113.052.117.048.119.041.122.036.125.029.127.023.129.017.131.01.133.004.135v6.459l-.004.135-.01.133-.017.132-.023.129-.029.127-.036.124-.041.122-.048.12-.052.116-.059.113-.063.11-.069.107-.073.103-.079.1-.082.095-.088.092-.091.087-.096.083-.099.078-.103.074-.107.068-.11.064-.113.058-.117.053-.119.047-.122.042-.125.035-.127.03-.129.023-.131.017-.133.01-.135.003H2.63l-.135-.003-.133-.01-.131-.017-.129-.023z" fill="#de9900"/><path d="M17.408 0H2.63A2.64 2.64 0 0 0 0 2.63v6.459a2.64 2.64 0 0 0 2.63 2.63h14.778a2.64 2.64 0 0 0 2.63-2.63V2.63A2.64 2.64 0 0 0 17.408 0z" fill="#ffba19"/><path d="M8.309 8.288h-1.72L4.816 4.867h-.03l.063 1.232v2.189H3.687V3.431h1.714l1.766 3.375h.02l-.046-1.179V3.431h1.168v4.857zm2.341 0H9.359V3.431h2.869v1.055H10.65v.925h1.455v1.054H10.65zm4.518 0h-1.312V4.506h-1.187V3.431h3.682v1.075h-1.183z" fill="#fff" fill-rule="nonzero"/></svg>