<?xml version="1.0" encoding="UTF-8"?>
<svg xmlns="http://www.w3.org/2000/svg" width="207" height="63" viewBox="0 0 85.604 26.209" shape-rendering="geometricPrecision" image-rendering="optimizeQuality" fill-rule="evenodd" xmlns:v="https://vecta.io/nano"><path d="M80.767.862L76.336.065l-.282-.036-.286-.022L75.479 0H5.645l-.289.007-.286.022-.281.036-.278.05-.272.064-.268.076-.262.089-.256.101-.25.114-.243.125-.236.136-.229.148-.222.157-.213.168-.205.178-.197.187-.187.197-.178.205-.168.213-.157.222-.148.229-.136.236-.125.244-.114.25-.101.256-.089.261-.076.268-.064.273-.05.277-.036.282-.022.285-.007.29v13.867l.007.29.022.285.036.282.05.277.064.273.076.267.089.262.101.256.114.25.125.244.136.236.148.229.157.222.168.213.178.205.187.197.197.187.205.177.213.169.222.157.229.148.236.136.243.125.25.113.256.102.262.089.268.076 3.703 1.049-.27-.077-.265-.09-.258-.103-.253-.114-.246-.127-.238-.138-.232-.148-.223-.16-.216-.169-.207-.18-.199-.189-.189-.198-.179-.208-.17-.215-.159-.224-.149-.231-.138-.239-.126-.246-.115-.252-.102-.259-.09-.265-.077-.27-.064-.275-.051-.28-.036-.285-.022-.288-.008-.293V6.499l.008-.292.022-.289.036-.285.051-.28.064-.275.077-.27.09-.265.102-.258.115-.253.126-.246.138-.239.149-.231.159-.224.17-.215.179-.207.189-.199.199-.189.207-.179.216-.17.223-.16.232-.148.238-.138.246-.126.253-.115.258-.102.265-.09.27-.078.275-.063.28-.051.285-.036.289-.022.292-.008h70.539l.292.008.289.022z" fill="#5caf56"/><path d="M79.902.796H9.363A5.72 5.72 0 0 0 3.66 6.499v14.007a5.72 5.72 0 0 0 5.703 5.703h70.539a5.72 5.72 0 0 0 5.702-5.703V6.499A5.72 5.72 0 0 0 79.902.796z" fill="#7dd077"/><path d="M11.785 14.629v2.993h3.976c.443 0 .849-.058 1.217-.174a2.65 2.65 0 0 0 .952-.522c.267-.231.474-.529.62-.891s.219-.786.219-1.27c0-.434-.088-.842-.265-1.225s-.466-.67-.869-.861c.323-.182.562-.449.718-.801a2.77 2.77 0 0 0 .234-1.134c0-.343-.053-.66-.158-.952a1.98 1.98 0 0 0-.484-.756 2.28 2.28 0 0 0-.816-.499 3.29 3.29 0 0 0-1.142-.181H11.8v2.932h3.416c.262 0 .394.136.394.408s-.132.408-.394.408h-3.007v1.588h2.841c.393 0 .59.161.59.483 0 .303-.197.454-.59.454h-3.265zm.182 4.535l-.711-1.013v-4.036h.423v-1.738l-.408-.56V7.842h4.716c.383 0 .734.042 1.051.128a2.9 2.9 0 0 1 .884.408c.272.187.522.426.749.718s.44.65.642 1.074c.282.453.423.997.423 1.632 0 .353-.045.688-.136 1.005a2.3 2.3 0 0 1-.453.854c.312.484.519.892.619 1.225a3.23 3.23 0 0 1 .152.937c0 .564-.086 1.055-.257 1.474a2.83 2.83 0 0 1-.718 1.043c-.308.277-.676.483-1.104.619s-.899.205-1.413.205h-4.459zm11.805-4.52v-3.326h.197c.332 0 .617.046.854.136a1.48 1.48 0 0 1 .567.363 1.41 1.41 0 0 1 .31.529c.065.202.098.413.098.635 0 .232-.033.449-.098.65a1.35 1.35 0 0 1-.318.529c-.146.151-.34.27-.582.355s-.539.129-.892.129h-.136zm.136 2.978c.736 0 1.411-.109 2.026-.325a4.65 4.65 0 0 0 1.587-.922 4.11 4.11 0 0 0 1.035-1.459c.247-.575.371-1.224.371-1.95a4.73 4.73 0 0 0-.355-1.844c-.237-.564-.572-1.051-1.006-1.459a4.68 4.68 0 0 0-1.564-.96c-.61-.231-1.288-.347-2.033-.347h-3.386v9.266h3.325zm-3.144 1.542l-.695-1.013V7.842h3.9c1.209 0 2.272.292 3.189.876s1.638 1.441 2.162 2.57l.521 1.3a4.27 4.27 0 0 1 .235 1.436c0 .796-.137 1.512-.409 2.146a4.59 4.59 0 0 1-1.141 1.618 5.04 5.04 0 0 1-1.746 1.02c-.675.237-1.415.356-2.222.356h-3.794zm16.416-3.386h.847c.554 0 1.058-.071 1.511-.212s.842-.363 1.164-.665.572-.688.748-1.157.265-1.025.265-1.67-.088-1.202-.265-1.67-.42-.854-.733-1.156-.688-.527-1.126-.673a4.49 4.49 0 0 0-1.428-.219h-4.172v9.266h3.189v-1.844zm0-2.963v-1.497h.605c.453 0 .68.252.68.756 0 .494-.227.741-.68.741h-.605zm-3.023 6.349l-.695-1.013V7.842h4.701c.433 0 .841.045 1.224.136a3.6 3.6 0 0 1 1.081.453c.338.211.652.489.945.832s.559.771.801 1.284c.423.635.635 1.492.635 2.57 0 .736-.101 1.368-.303 1.897s-.483.965-.846 1.308-.801.594-1.315.756-1.083.241-1.708.241h-.348v1.845h-4.172zm15.872-5.079c.443-.293.771-.658.982-1.096s.318-.985.318-1.64c0-1.038-.305-1.797-.915-2.275s-1.428-.718-2.456-.718h-4.353v9.266h3.189v-3.039l1.663 3.039h3.567l-1.995-3.537zm-3.235-1.678v-1.089h.786c.333 0 .499.182.499.545s-.166.544-.499.544h-.786zm2.026 6.757l-.681-1.013-.196-.378v1.391h-4.172l-.695-1.013V7.842h4.882a5.65 5.65 0 0 1 1.239.128c.383.086.741.227 1.074.423s.637.456.914.779.537.725.779 1.209c.332.534.498 1.209.498 2.026 0 .655-.093 1.212-.279 1.67s-.471.854-.854 1.187l2.176 3.9H48.82zm8.026-10.808h-3.22v9.266h3.22V8.356zm-3.038 10.808l-.696-1.013V7.842h4.263l.605 1.088v10.234h-4.172zM67.155 8.356h-2.963v3.068l-1.965-3.068h-3.068v9.266h2.932v-3.598l2.343 3.598h2.721V8.356zm-2.328 10.808l-1.602-2.404v2.404h-3.9l-.695-1.013V7.842h3.885l1.148 1.753V7.842h4.021l.605 1.088v10.234h-3.462zm9.765-7.846h2.268V8.356h-7.936v2.962h2.312v6.304h3.356v-6.304zm-3.189 7.846l-.696-1.013V12.86H69.09l-.695-1.013V7.842h8.994l.619 1.088v3.93h-2.282v6.304h-4.323z" fill="#fff" fill-rule="nonzero"/></svg>