<?xml version="1.0" encoding="UTF-8"?>
<svg xmlns="http://www.w3.org/2000/svg" width="1017" height="277" viewBox="0 0 1039.138 283.271" shape-rendering="geometricPrecision" image-rendering="optimizeQuality" fill-rule="evenodd" xmlns:v="https://vecta.io/nano"><style><![CDATA[.j{fill:#fff}.k{fill-rule:nonzero}]]></style><defs><linearGradient id="A" gradientUnits="userSpaceOnUse" x1="505.931" y1="217.994" x2="505.932" y2="-214.501"><stop offset="0" stop-color="#ffd1e0"/><stop offset="1" stop-color="#fefefe"/></linearGradient><linearGradient id="B" gradientUnits="userSpaceOnUse" x1="508.419" y1="183.877" x2="492.797" y2="-4.14"><stop offset="0" stop-color="#ed82a6"/><stop offset="1" stop-color="#fefefe"/></linearGradient></defs><path d="M225.786 281.308l9.547-4.345.654-.336.635-.366.616-.396.596-.424.573-.451.551-.478.528-.503.503-.528.478-.551.451-.574.424-.595.396-.616.366-.635.337-.654.305-.672.272-.688.24-.704.205-.719.17-.732.134-.745.097-.757.059-.768.02-.778v-37.269l-.02-.778-.059-.767-.097-.757-.134-.746-.17-.732-.205-.719-.24-.703-.272-.689-.305-.671-.337-.655-.366-.635-.396-.616-.424-.595-.451-.574-.478-.551-.503-.527-.528-.503-.551-.478-.573-.452-.596-.423-.616-.396-.635-.367-.654-.336-.672-.305-.687-.272-.704-.24-.719-.205-.732-.17-.746-.135-.757-.096-.767-.059-.778-.02h-87.283l-.778.02-.768.059-.757.096-.745.135-.732.17-.719.205-.703.24-10.548 3.686.71-.242.726-.208.74-.171.753-.136.765-.098.775-.059.786-.02h88.164l.786.02.775.059.765.098.752.136.74.171.726.208.711.242.695.275.679.308.66.339.642.371.622.399.601.428.579.457.557.482.533.508.508.533.483.557.456.58.428.601.4.622.37.641.34.661.308.679.275.695.242.711.207.726.172.74.136.752.097.765.06.776.02.785v37.645l-.02.786-.06.776-.097.764-.136.753-.172.74-.207.726-.242.711-.275.695-.308.679-.34.66-.37.642-.4.622-.428.601-.456.58-.483.556-.508.533-.533.508-.557.483-.579.456-.601.428-.622.4-.642.37z" fill="#9c3456"/><path d="M219.157 214.529h-88.164c-8.429 0-15.325 6.896-15.325 15.325v37.645c0 8.43 6.896 15.326 15.325 15.326h88.164c8.428 0 15.325-6.896 15.325-15.326v-37.645c0-8.429-6.897-15.325-15.325-15.325z" fill="#bd5577"/><path d="M163.74 247.163c0 2.088-.336 4.015-1.009 5.767s-1.608 3.26-2.809 4.526c-1.2 1.259-2.628 2.239-4.276 2.941s-3.446 1.056-5.396 1.056h-8.859l3.098-25.204h8.877c1.601 0 3.046.272 4.328.818s2.368 1.3 3.261 2.269c.894.963 1.584 2.111 2.066 3.452.481 1.334.719 2.791.719 4.375zm-4.63.092c0-1.125-.139-2.146-.418-3.063s-.678-1.7-1.207-2.344a5.33 5.33 0 0 0-1.943-1.491c-.766-.348-1.642-.523-2.629-.523h-4.334l-2.21 17.998h4.334c1.265 0 2.414-.243 3.446-.73a7.52 7.52 0 0 0 2.658-2.101c.736-.911 1.305-2.019 1.705-3.324.401-1.312.598-2.78.598-4.422zm21.453.499a5.03 5.03 0 0 1-.476 2.2c-.319.661-.893 1.259-1.718 1.781s-1.937.974-3.347 1.352-3.209.678-5.39.899v.226c0 2.785 1.189 4.178 3.568 4.178.51 0 .963-.053 1.358-.151s.742-.215 1.038-.354.563-.296.801-.47l.661-.47a5.21 5.21 0 0 1 .598-.36c.197-.098.412-.145.644-.145.139 0 .278.035.418.099a.87.87 0 0 1 .348.284l1.096 1.329c-.615.615-1.218 1.149-1.81 1.607a10.06 10.06 0 0 1-1.81 1.114c-.615.296-1.265.511-1.95.65s-1.433.209-2.245.209c-1.045 0-1.99-.18-2.837-.534s-1.573-.853-2.176-1.497-1.068-1.422-1.398-2.332-.5-1.933-.5-3.058c0-.94.105-1.863.308-2.774.203-.905.493-1.764.876-2.576s.853-1.561 1.41-2.245c.557-.69 1.19-1.283 1.892-1.781a8.64 8.64 0 0 1 2.315-1.167 8.55 8.55 0 0 1 2.703-.417c.941 0 1.764.133 2.466.4s1.288.615 1.759 1.038c.469.43.817.9 1.049 1.428.233.522.349 1.033.349 1.537zm-5.866-1.409c-.58 0-1.12.121-1.619.359-.499.244-.946.586-1.346 1.021s-.748.958-1.045 1.561a9.88 9.88 0 0 0-.708 1.99l3.476-.65c.876-.238 1.555-.499 2.037-.783.481-.278.8-.58.957-.899a2.29 2.29 0 0 0 .232-1.027c0-.174-.035-.36-.11-.546-.076-.191-.192-.359-.348-.504a1.94 1.94 0 0 0-.61-.372c-.25-.099-.557-.15-.916-.15zm25.386-6.476h-10.131l-.939 7.659h8.546l-.47 3.621h-8.512l-1.27 10.321h-4.543l3.098-25.221h14.673zm7.597 3.725l-2.141 17.859h-4.247l2.141-17.859h4.247zm1.079-5.216a2.37 2.37 0 0 1-.232 1.05 3.13 3.13 0 0 1-.609.859 2.94 2.94 0 0 1-.865.58c-.325.145-.661.221-1.009.221-.337 0-.662-.076-.981-.221s-.603-.336-.847-.58-.435-.534-.58-.859a2.54 2.54 0 0 1-.221-1.05 2.57 2.57 0 0 1 .227-1.062c.151-.336.348-.632.591-.881a2.81 2.81 0 0 1 .848-.593c.319-.144.644-.22.98-.22.348 0 .685.076 1.009.22s.616.337.865.581a2.88 2.88 0 0 1 .598.876c.151.336.226.696.226 1.079z" class="j k"/><path d="M964.253 152.956l-10.96-1.971-.697-.089-.707-.054-.716-.018H778.452l-.716.018-.706.054-.697.089-.686.124-.674.156-.662.189-.647.221-.634.251-.618.28-.602.309-.585.338-.566.364-.548.39-.528.416-.507.44-.486.463-.463.485-.439.507-.416.528-.39.548-.364.567-.338.585-.309.601-.281.619-.25.633-.221.647-.188.662-.157.674-.123.686-.09.697-.054.707-.018.715v34.299l.018.716.054.707.09.697.123.685.157.675.188.661.221.648.25.633.281.618.309.602.338.585.364.567.39.547.416.528.439.508.463.485.486.463.507.44.528.416.548.39.566.364.585.337.602.309.618.281.634.251.647.221.662.188 9.159 2.593-.668-.19-.654-.223-.64-.254-.624-.283-.609-.312-.59-.341-.572-.368-.554-.394-.533-.42-.512-.444-.491-.468-.468-.49-.444-.513-.419-.533-.394-.553-.368-.573-.341-.591-.312-.607-.284-.625-.253-.64-.223-.654-.19-.668-.159-.681-.124-.692-.09-.704-.055-.714-.019-.723v-34.646l.019-.722.055-.714.09-.704.124-.693.159-.681.19-.668.223-.654.253-.64.284-.625.312-.607.341-.591.368-.573.394-.553.419-.533.444-.513.468-.49.491-.468.512-.444.533-.42.554-.394.572-.368.59-.34.609-.313.624-.283.64-.254.654-.222.668-.191.681-.158.693-.125.704-.09.714-.055.723-.018h174.465l.723.018.714.055z" fill="#5caf56"/><path d="M962.112 152.793H787.647a14.15 14.15 0 0 0-14.105 14.104v34.646c0 7.758 6.346 14.104 14.105 14.104h174.465c7.758 0 14.104-6.346 14.104-14.104v-34.646a14.15 14.15 0 0 0-14.104-14.104z" fill="#7dd077"/><path d="M793.637 187.005v7.403h9.833c1.097 0 2.1-.143 3.01-.43s1.695-.716 2.355-1.29 1.172-1.308 1.533-2.206.542-1.944.542-3.14a7.16 7.16 0 0 0-.654-3.029c-.436-.947-1.153-1.657-2.15-2.13.798-.449 1.39-1.11 1.776-1.982a6.85 6.85 0 0 0 .58-2.804c0-.848-.131-1.633-.393-2.355a4.92 4.92 0 0 0-1.196-1.87c-.536-.523-1.209-.934-2.019-1.234s-1.751-.448-2.823-.448h-10.356v7.253h8.449c.648 0 .972.336.972 1.009s-.324 1.01-.972 1.01h-7.439v3.925h7.028c.972 0 1.458.399 1.458 1.197 0 .748-.486 1.121-1.458 1.121h-8.076zm.449 11.216l-1.757-2.505v-9.982h1.047v-4.299l-1.01-1.383v-9.833h11.665c.947 0 1.813.106 2.598.318a7.11 7.11 0 0 1 2.187 1.009c.673.461 1.291 1.053 1.851 1.776s1.091 1.608 1.589 2.654c.698 1.122 1.047 2.468 1.047 4.038 0 .873-.112 1.701-.336 2.486a5.69 5.69 0 0 1-1.122 2.113c.772 1.196 1.284 2.206 1.533 3.028s.374 1.595.374 2.318c0 1.396-.212 2.611-.636 3.645s-1.016 1.894-1.776 2.58-1.67 1.196-2.729 1.532-2.225.505-3.496.505h-11.029zm29.2-11.178v-8.225h.485c.823 0 1.527.112 2.113.336s1.053.523 1.402.898a3.47 3.47 0 0 1 .766 1.308c.162.498.243 1.022.243 1.57 0 .574-.081 1.109-.243 1.608a3.34 3.34 0 0 1-.785 1.308c-.361.373-.841.667-1.439.879s-1.334.318-2.206.318h-.336zm.336 7.365c1.819 0 3.489-.268 5.009-.804s2.83-1.296 3.926-2.281 1.951-2.187 2.561-3.607.916-3.029.916-4.823c0-1.645-.293-3.166-.878-4.561a10.44 10.44 0 0 0-2.487-3.608c-1.072-1.009-2.361-1.801-3.869-2.374s-3.184-.86-5.029-.86h-8.374v22.918h8.225zm-7.777 3.813l-1.719-2.505v-25.497h9.645c2.991 0 5.621.723 7.889 2.168s4.05 3.564 5.346 6.356l1.29 3.215c.387 1.097.58 2.281.58 3.552 0 1.969-.337 3.739-1.01 5.309s-1.614 2.904-2.823 4-2.648 1.938-4.318 2.524-3.501.878-5.495.878h-9.385zm40.603-8.374h2.093c1.371 0 2.617-.175 3.739-.524s2.081-.897 2.879-1.645 1.414-1.701 1.85-2.86.655-2.536.655-4.131-.219-2.972-.655-4.131-1.04-2.113-1.813-2.86-1.701-1.303-2.785-1.664-2.262-.542-3.533-.542h-10.319v22.918h7.889v-4.561zm0-7.328v-3.701h1.495c1.122 0 1.683.623 1.683 1.869 0 1.221-.561 1.832-1.683 1.832h-1.495zm-7.478 15.702l-1.719-2.505v-25.497h11.627a13.13 13.13 0 0 1 3.028.336 8.84 8.84 0 0 1 2.673 1.122c.835.523 1.614 1.209 2.337 2.056s1.383 1.907 1.981 3.178c1.047 1.57 1.57 3.689 1.57 6.356 0 1.819-.249 3.383-.747 4.692s-1.197 2.386-2.094 3.234-1.981 1.47-3.252 1.869-2.68.598-4.225.598h-.86v4.561H848.97zm39.256-12.562c1.097-.723 1.907-1.626 2.431-2.71s.785-2.437.785-4.056c0-2.568-.754-4.443-2.262-5.627s-3.533-1.776-6.076-1.776h-10.767v22.918h7.889v-7.515l4.112 7.515h8.823l-4.935-8.749zm-8-4.149v-2.692h1.944c.822 0 1.234.448 1.234 1.346s-.412 1.346-1.234 1.346h-1.944zm5.009 16.711l-1.682-2.505-.486-.934v3.439h-10.319l-1.719-2.505v-25.497h12.075c1.097 0 2.119.106 3.066.318s1.832.56 2.655 1.046a9.07 9.07 0 0 1 2.262 1.926c.686.798 1.327 1.794 1.925 2.991.822 1.321 1.233 2.991 1.233 5.01 0 1.62-.23 2.997-.691 4.131s-1.165 2.112-2.112 2.935l5.383 9.645h-11.59zm19.852-26.731h-7.963v22.918h7.963V171.49zm-7.514 26.731l-1.72-2.505v-25.497h10.543l1.496 2.692v25.31h-10.319zm33.012-26.731h-7.327v7.589l-4.861-7.589h-7.589v22.918h7.253v-8.898l5.795 8.898h6.729V171.49zm-5.757 26.731l-3.963-5.944v5.944h-9.646l-1.72-2.505v-25.497h9.609l2.841 4.337v-4.337h9.945l1.495 2.692v25.31h-8.561zm24.151-19.403h5.609v-7.328H934.96v7.328h5.72v15.59h8.299v-15.59zm-7.888 19.403l-1.72-2.505v-13.085h-4l-1.72-2.505v-9.907h22.245l1.533 2.692v9.72h-5.646v15.59h-10.692z" class="j k"/><path d="M864.117 36.437l-11.795 3.749-.813.276-.794.315-.775.352-.755.388-.734.423-.711.457-.687.489-.662.522-.637.551-.609.581-.581.61-.552.636-.521.662-.489.687-.457.711-.424.734-.387.754-.352.776-.315.795-.277.813-.237.83-.196.845-.155.861-.112.874-.067.886-.024.898V99.94l.024.898.067.886.112.874.155.861.196.845.237.831.277.812.315.795.352.776.387.754.424.733.457.712.489.687.521.662.552.637.581.609.609.581.637.551.662.522.687.489.711.457.734.423.755.388.775.352.794.315.813.276.83.237.846.197.86.155.874.112.886.067.899.023h150.559l.898-.023.887-.067.874-.112.86-.155 13.403-2.972-.868.157-.883.113-.896.068-.907.023h-152.08l-.907-.023-.896-.068-.883-.113-.869-.157-.854-.198-.838-.239-.821-.28-.802-.318-.784-.355-.762-.392-.741-.427-.718-.462-.695-.495-.668-.526-.643-.557-.616-.587-.587-.616-.557-.642-.526-.669-.495-.694-.461-.719-.428-.741-.391-.762-.356-.783-.318-.803-.279-.821-.24-.838-.198-.854-.156-.869-.114-.883-.068-.896-.023-.907V53.333l.023-.907.068-.896.114-.883.156-.869.198-.854.24-.838.279-.821.318-.803.356-.783.391-.763.428-.741.461-.718.495-.694.526-.669.557-.643.587-.615.616-.587.643-.557.668-.527.695-.494.718-.462.741-.427.762-.392.784-.355.802-.319z" fill="#3177b8"/><path d="M1021.444 35.638h-152.08c-9.732 0-17.694 7.963-17.694 17.695v43.462c0 9.733 7.962 17.694 17.694 17.694h152.08c9.732 0 17.694-7.961 17.694-17.694V53.333c0-9.732-7.962-17.695-17.694-17.695z" fill="#5298d9"/><circle cx="354.79" cy="86.906" r="6.728" fill="#ffba19"/><circle cx="365.469" cy="157.835" r="6.728" fill="#ff7860"/><circle cx="374.593" cy="222.069" r="6.728" fill="#bd5577"/><circle cx="645.97" cy="160.869" r="6.728" fill="#7dd077"/><circle cx="658.994" cy="80.842" r="6.728" fill="#5298d9"/><path d="M13.755 81.054l10.605 2.887.875.204.891.16.905.116.918.07.93.024h101.912l.93-.024.917-.07.905-.116.891-.16.875-.204.859-.245.842-.286.823-.326.802-.365.782-.401.76-.438.736-.474.711-.506.686-.54.659-.571.63-.601.602-.631.571-.659.539-.686.508-.711.473-.736.438-.76.401-.781.365-.803.325-.823.287-.841.245-.859.204-.876.16-.891.116-.904.07-.918.024-.93V21.833l-.024-.929-.07-.918-.116-.905-.16-.891-.204-.875-.245-.86-.287-.841-.325-.822-.365-.803-.401-.782-.438-.76-.473-.735-.508-.712-.539-.685-.571-.66-.602-.63-.63-.602-.659-.571-.686-.539-.711-.507-.736-.473-.76-.438-.782-.402-.802-.365-.823-.325-9.468-3.687.831.329.811.368.79.406.767.443.743.478.719.512.693.545.665.577.637.607.608.637.577.666.545.692.512.719.477.743.443.767.406.79.368.811.329.831.289.85.248.868.205.884.162.9.117.914.071.927.024.939v44.996l-.024.939-.071.927-.117.914-.162.9-.205.884-.248.868-.289.85-.329.83-.368.811-.406.79-.443.767-.477.743-.512.719-.545.692-.577.666-.608.637-.637.608-.665.577-.693.545-.719.512-.743.478-.767.442-.79.406-.811.368-.831.329-.85.289-.867.248-.885.206-.899.161-.915.117-.927.071-.939.024H18.319l-.939-.024-.927-.071-.914-.117-.9-.161z" fill="#de9900"/><path d="M121.26 0H18.319C8.243 0 0 8.243 0 18.319v44.996C0 73.39 8.243 81.633 18.319 81.633H121.26c10.076 0 18.319-8.243 18.319-18.318V18.319C139.579 8.243 131.336 0 121.26 0z" fill="#ffba19"/><path d="M57.882 57.731H45.895L33.546 33.9h-.206l.434 8.583v15.248h-8.093V23.903H37.62L49.922 47.41h.142l-.323-8.212V23.903h8.141v33.828zm16.306 0h-8.994V23.903H85.18v7.343H74.188v6.444h10.131v7.343H74.188zm31.467 0h-9.136V31.388h-8.268v-7.485h25.648v7.485h-8.244z" class="j k"/><path d="M65.174 184.438l12.119 2.123.826.106.837.064.847.021h122.373l.848-.021.836-.064.826-.106.812-.146.798-.185.783-.224.767-.261.75-.297.732-.332.712-.367.693-.399.671-.431.648-.462.625-.492.601-.52.575-.549.548-.575.521-.601.492-.624.462-.649.431-.671.399-.692.367-.713.332-.732.297-.75.261-.767.223-.783.186-.798.146-.812.106-.825.064-.837.021-.847v-40.61l-.021-.847-.064-.837-.106-.825-.146-.812-.186-.798-.223-.783-.261-.768-.297-.749-.332-.732-.367-.713-.399-.692-.431-.671-.462-.649-.492-.624-.521-.601-.548-.575-.575-.548-.601-.521-.625-.492-.648-.462-.671-.431-.693-.399-.712-.367-.732-.332-.75-.297-.767-.261-.783-.224-10.818-2.86.792.226.774.264.758.3.739.336.72.37.699.403.678.435.655.467.631.497.607.526.581.554.554.581.526.606.497.631.466.656.436.677.403.7.37.72.336.738.3.758.263.775.226.791.188.806.147.82.107.834.065.845.021.856v41.02l-.021.856-.065.845-.107.833-.147.82-.188.807-.226.79-.263.775-.3.758-.336.739-.37.72-.403.699-.436.678-.466.655-.497.631-.526.607-.554.581-.581.554-.607.526-.631.497-.655.466-.678.436-.699.403-.72.37-.739.335-.758.3-.774.264-.792.226-.806.187-.82.148-.833.107-.846.064-.856.022H67.708l-.856-.022-.845-.064z" fill="#de573f"/><path d="M191.317 110.212H67.708c-9.185 0-16.7 7.515-16.7 16.7v41.02c0 9.185 7.515 16.699 16.7 16.699h123.609c9.186 0 16.7-7.514 16.7-16.699v-41.02c0-9.185-7.514-16.7-16.7-16.7z" fill="#ff7860"/><path d="M97.278 160.07H79.209v-3.686h-3.614v-3.541h-3.614v-10.842h3.614v-3.614h3.614v-3.614h18.069v3.614H82.823v3.614h-3.614v10.842h3.614v3.614h7.227v-7.228h-3.613v-3.614h10.841zm29.923 0h-7.228v-7.227h-10.841v7.227h-7.228v-18.069h3.614v-3.614h3.614v-3.614h10.841v3.614h3.614v3.614h3.614v18.069zm-7.228-10.841v-7.228h-3.614v-3.614h-3.613v3.614h-3.614v7.228h10.841zm37.151 10.841h-7.228v-10.841h-3.614v3.614h-3.614v-3.614h-3.613v10.841h-7.228v-25.297h7.228v3.614h3.613v3.614h3.614v-3.614h3.614v-3.614h7.228zm29.923 0H161.75v-25.297h25.297v3.614h-18.07v7.228h14.456v3.614h-14.456v7.228h18.07z" class="j k"/><g stroke-width="5.109" stroke-linecap="round" stroke-miterlimit="2.61313" fill="none"><path d="M658.994 80.842L844.9 74.318" stroke="#5298d9"/><path d="M645.97 160.869l121.871 22.308" stroke="#7dd077"/><path d="M374.593 222.069l-134.105 26.347" stroke="#bd5577"/><path d="M365.469 157.345l-150.888-9.828" stroke="#ff7860"/><path d="M354.79 86.906L145.047 40.924" stroke="#ffba19"/></g><path d="M540.668 262.314c-56.074 0-101.531 4.691-101.531 10.478s45.457 10.479 101.531 10.479 101.531-4.691 101.531-10.479-45.457-10.478-101.531-10.478zm-140.612 4.005c-15.912 0-28.811 2.898-28.811 6.473s12.899 6.474 28.811 6.474 28.81-2.898 28.81-6.474-12.899-6.473-28.81-6.473z" fill-opacity=".102"/><path d="M400.538 130.325l-8.185-3.406c-21.908-15.875-19.273-35.819-19.607-55.96-.155-9.29-2.672-18.401-3.45-27.659-.95-11.308 9.451-17.235 22.893-12.379 11.314 4.088 21.955 9.845 32.932 14.768l42.398 17.656-66.981 66.98zm212.369-4.516l6.754.052c27.24-19.324 21.488-38.492 21.822-58.634.154-9.288 1.888-19.185 2.666-28.443.949-11.308-9.452-18.019-22.894-13.163-11.313 4.087-21.954 11.021-32.931 15.943l-42.398 17.265 66.981 66.98z" fill="#fbc7d8"/><path d="M421.982 105.982l-6.431-22.933c-6.986-4.798-15.566-18.665-25.753-35.201-3.164-5.136-7.379-6.115-8.196-.51-1.305 8.95-.041 17.266 1.2 25.825.867 5.974 1.912 12.152 3.233 18.119 2.319 10.477 7.519 17.587 12.723 21.359l23.224-6.659zm169.481-4.516c2.144-7.644-.147-13.273 1.996-20.917 6.987-4.798 20.001-20.681 30.188-37.217 3.163-5.136 7.379-6.115 8.196-.51 1.305 8.95.041 17.265-1.2 25.825-.867 5.974-1.912 12.152-3.233 18.119-2.319 10.476-10.067 20.134-15.27 23.906-7.741-2.219-12.935-6.986-20.677-9.206z" fill="#ffb5ce"/><path d="M421.982 105.982l-6.431-22.933c-6.986-4.798-15.566-18.665-25.753-35.201-3.164-5.136-7.379-6.115-8.196-.51-.595 4.083-.656 8.034-.428 11.937a51.94 51.94 0 0 1 .428-4.071c.817-5.605 5.032-4.626 8.196.51 10.187 16.536 18.767 30.403 25.753 35.201l4.389 15.652 2.042-.585zm169.481-4.516c2.144-7.644-.147-13.273 1.996-20.917 6.987-4.798 20.001-20.681 30.188-37.217 3.163-5.136 7.379-6.115 8.196-.51.595 4.084.656 8.034.428 11.937a51.94 51.94 0 0 0-.428-4.071c-.817-5.605-5.033-4.626-8.196.51-10.187 16.536-23.201 32.418-30.188 37.217-1.382 4.93-.92 9.022-.993 13.358-.329-.106-.663-.21-1.003-.307z" fill="#f596b4"/><path d="M577.776 56.992c26.89 40.881 53.374 72.871 53.057 120.327-.184 27.482-10.879 49.718-42.358 62.218-23.102 9.173-51.207 11.405-81.356 11.405s-58.253-1.291-81.357-10.464c-31.479-12.5-44.16-32.462-44.16-59.944 0-47.394 24.072-82.62 50.757-123.542 15.908-18.013 28.132-20.917 68.554-20.917 39.266 0 59.779-.795 76.863 20.917z" fill="url(#A)"/><path d="M513.041 225.85c29.227-2.005 37.377-22.96 42.589-45.316-30.628 21.938-62.219 24.062-94.52 11.567 10.244 25.382 28.772 35.338 51.931 33.749z" fill="#d46360"/><path d="M512.589 219.029c-20.384 2.828-32.467-6.836-42.821-19.311 23.687 9.888 51.377 8.591 78.598-9.613-1.216 5.944-10.219 25.379-35.777 28.924z" fill="#33231f"/><path d="M547.15 190.905v.002c-1.384 3.103-2.905 6.205-5.867 9.307-9.987 6.53-23.214 12.235-48.139 10.819-8.197-.465-13.49-5.002-17.594-9.152 21.987 7.288 46.958 5.041 71.6-10.976z" class="j"/><path d="M525.704 215.363c-4.638-1.933-10.508-2.517-17.334-2.448-5.846.059-11.099 1.524-15.689 4.489 5.687 1.977 12.204 2.694 19.908 1.625 4.979-.691 9.327-1.986 13.115-3.666z" fill="#bd7777"/><path d="M474.241 169.915l10.079-30.085c-1.004-37.984-13.1-49.417-28.235-50.511-16.218-1.173-27.193 13.838-27.755 45.336-.197 11.059 1.926 22.003 7.37 32.578l38.541 2.682z" class="j"/><path d="M478.284 105.913c-7.165-3.267-15.532-6.443-23.611-5.803-8.209.651-16.069 3.344-22.81 9.482 4.544-14.346 13.163-21.073 24.222-20.273 9.069.655 17.045 5.026 22.199 16.594z" fill="#fba7c3"/><path d="M445.269 167.899c-5.881-8.194-10.072-17.463-9.412-29.05 1.335-23.41 10.475-34.391 25.253-35.135 7.284-.366 18.193 4.672 21.571 17.702.89 5.303 1.454 11.405 1.639 18.414l-10.079 30.085-28.972-2.016z" fill="#2b676b"/><path d="M537.734 170.871l-10.723-29.709c.181-38.021 12.019-49.906 27.118-51.565 16.18-1.778 27.471 12.823 28.714 44.3.437 11.052-1.447 22.076-6.658 32.853l-38.451 4.121z" class="j"/><path d="M532.307 107.02c7.089-3.535 15.381-7.023 23.467-6.684 8.216.344 16.128 2.743 22.996 8.63-4.851-14.176-13.608-20.581-24.641-19.369-9.047.994-16.923 5.663-21.822 17.423z" fill="#fba7c3"/><path d="M566.639 167.774c5.698-8.414 9.686-17.84 8.775-29.402-1.842-23.36-11.212-34-25.994-34.192-7.286-.094-16.576 5.162-21.17 18.507-.774 5.336-1.205 11.459-1.239 18.475l10.723 29.709 28.905-3.097z" fill="#2b676b"/><path d="M478.233 140.642c-.772 10.434-6.871 27.128-18.661 25.237-9.008-1.445-13.448-14.695-13.484-23.818-.059-14.939 7.122-26.665 17.219-26.656 9.774.009 15.647 15.49 14.926 25.237zm55.922.457c.997 10.405 7.452 26.871 19.192 24.54 8.969-1.781 13.119-15.197 12.957-24.321-.264-14.942-7.694-26.399-17.783-26.013-9.765.373-15.298 16.074-14.366 25.794z" fill="#0c3033"/><path d="M471.114 125.339c-1.855-3.212-4.433-6.319-7.81-6.321a8.95 8.95 0 0 0-2.853.458c-3.443 1.145-5.938 4.246-7.528 7.375-2.333 4.59-3.243 10.086-3.222 15.196.012 3.062.56 6.294 1.457 9.216-.61-9.737 2.448-17.924 6.274-20.938 4.281-3.372 6.843 2.503 9.385 4.075 5.053 3.125 7.91-2.803 4.297-9.061z" fill="#224649"/><path d="M505.98 196.017c-29.548.819-40.22-14.636-40.22-31.988 0-17.684 23.766-30.293 41.359-29.322 16.678.921 39.437 14.674 38.806 33.242-.507 14.943-11.151 27.27-39.945 28.068z" fill="url(#B)"/><path d="M493.201 154.19c3.221.53 4.987 3.801 3.426 7.958s-5.391 6.418-8.596 6.418-4.608-4.143-3.283-8.613 5.231-6.293 8.453-5.763zm23.843-1.333c-3.222.53-4.988 3.801-3.427 7.958s5.391 6.418 8.597 6.418 4.607-4.143 3.282-8.614-5.23-6.292-8.452-5.762z" fill="#9e3759"/><path d="M493.201 154.19c2.917.479 4.64 3.207 3.782 6.804-.696-1.129-1.827-1.887-3.239-2.119-3.222-.529-7.128 1.292-8.453 5.762-.18.608-.309 1.209-.391 1.795-.783-1.627-.886-4.003-.152-6.479 1.325-4.471 5.231-6.293 8.453-5.763zm23.843-1.333c-3.222.53-4.988 3.801-3.427 7.958.041.109.083.216.127.322.461-1.935 1.882-3.273 3.843-3.595 3.139-.516 6.928 1.2 8.345 5.425.154-1.307.021-2.808-.436-4.348-1.325-4.47-5.23-6.292-8.452-5.762z" fill="#cf5d83"/><path d="M441.088 78.107c10.23-9.647 22.472-15.009 38.339-14.034 4.74.291 6.647 1.59 7.134 3.41.912 3.401-2.432 7.893-7.872 8.42-12.658 1.227-24.469 1.667-36.346 4.399-2.236.514-2.69-.513-2.342-1.813.066-.247.849-.158 1.087-.382zm129.097-2.294c-10.653-9.179-24.256-14.183-40.063-12.498-4.723.503-6.918 1.842-6.917 3.726-.001 3.661 2.726 7.777 8.185 8.06 12.7.657 24.519.568 36.507 2.764 2.594.475 3.034-.76 2.288-2.052z" fill="#9e513f"/><path d="M569.051 74.362c-10.652-9.179-23.122-13.986-38.929-12.301-4.723.504-6.926 3.095-6.918 4.98.008 2.014 2.727 6.523 8.186 6.806 12.7.657 24.519.567 36.507 2.764 2.594.476 3.059-.607 1.154-2.249zm-127.963 2.491c10.23-9.648 22.472-15.009 38.339-14.035 4.741.292 7.058 2.782 7.134 4.665.082 2.013-2.432 6.639-7.872 7.166-12.658 1.226-24.469 1.666-36.346 4.399-2.571.591-3.084-.47-1.255-2.195z" fill="#bd6c5a"/><path d="M558.212 124.661c-2.104-3.055-4.921-5.947-8.288-5.682-.97.076-1.911.303-2.808.683-3.341 1.415-5.581 4.705-6.918 7.95-1.962 4.761-2.432 10.311-2.006 15.404.255 3.05 1.058 6.229 2.184 9.071-1.381-9.658 1.017-18.062 4.592-21.37 4-3.701 7.021 1.952 9.679 3.317 5.286 2.714 7.662-3.422 3.565-9.373z" fill="#224649"/><g class="j"><path d="M918.377 71.657l.16-.526c1.309-2.379 1.698-3.376 4.872-3.22 1.49.085 3.404.593 4.125 2.034h0c.543.136.981 1.27 1.097 1.762.226.968.095 1.404-.121 2.118l-.095.32-.333 1.355c-.287 1.231-.646 2.77-.928 3.212-.132.206-.202.263-.267.315-.079.064-.152.123-.357.521-.143.28-.206.451-.274.637l-.169.43-2.013 3.614c-.258.403-.632.771-1.05 1.099a10.18 10.18 0 0 1-1.319.86c-.808.445-1.684.337-2.51.014-1.317-.545-3.024-1.975-3.581-3.341-.963-2.361-.188-4.728.489-6.797l.135-.412c.185-.573.265-.633.367-.707a.69.69 0 0 0 .208-.24c.12-.198.097-.317.065-.488-.112-.587-.09-.431.433-.743.478-.317.515-.63.544-.89.039-.303.074-.48.429-.608l.093-.319zm3.384-.15l-.03.065c-.075.184-.26.336-.431.476l-.085.071c-1.579 1.333-2.605 4.911-2.618 4.96-.046.103-.35.375-.412.416-.015.032-.024.197-.029.247l-.147 1.286c-.139 1.025-.251 1.841.411 2.483.85-.383 1.383-1.084 1.773-1.598.615-.81 1.311-1.219 1.62-2.263.069-.226.149-.551.433-.598v-.001c.015-.581.195-1.163.357-1.717l.25-.85c.358-1.05.057-1.903-.19-2.604-.111-.417-.6-.988-.902-.373zm2.065-13.537c.738.153.965.323 1.212.505a2.56 2.56 0 0 0 .643.369l1.09.379 1.829.698 1.317.702c.596.42 1.099.705 1.538.953 1.015.574 1.701.962 2.435 2.378.298.573.626 1.223.84 1.932s.312 1.477.15 2.286c-.039.471-.02.96-.003 1.44.022.593.044 1.176-.042 1.704l-.926 4.834c-.128.909-.381 1.419-.662 1.99-.275.558-.581 1.176-.827 2.292-.122.553-.323.869-.554 1.232l-.4.689-1.029 1.786a3.02 3.02 0 0 0-.264.507c-.067.151-.135.306-.245.483l-.246.403-.237.424c-.294.542-.742 1.202-1.243 1.813-.439.535-.921 1.035-1.381 1.387-.392.3-.561.537-.717.758-.186.262-.358.505-.852.797l-3.699 1.932c-.656.376-2.142.684-3.601.753-1.235.058-2.457-.053-3.151-.434-.4-.219-.794-.356-1.104-.531-.162-.091-.322-.181-.867-.186l-.447-.01-.923-.001c-.595.04-1.197-.028-1.739-.175-.566-.154-1.07-.394-1.436-.687-.139-.112-.217-.193-.29-.27-.084-.086-.163-.169-.326-.288l-1.51-1.12c-1.732-1.438-2.172-3.329-2.491-4.699l-.275-1.036c-1.068-3.015-.517-4.339-.148-5.227.1-.239.187-.447.222-.645.139-.777.068-.991.019-1.14-.081-.244-.11-.332.713-1.984l.176-.375c.017-.042.03-.071.045-.096l1.362-3.06c.445-.699.529-1.407 1.049-1.999.122-.14.259-.295.452-.634.142-.251.34-.674.511-1.042l.19-.403.373-.762c.381-.77.691-1.395.938-2.204.144-.473.305-.631.491-.815.1-.099.209-.206.327-.378.269-.393.493-.826.721-1.266l.853-1.468c.971-1.318 1.516-2.642 3.027-3.281.224-.066.339-.078.478-.093l.373-.055.752-.163c.521-.121.622-.145 2.098-.151a5.01 5.01 0 0 1 .876.064c.309.055.603.157.79.338l3.745.85zm-1.307 4.084c-1.09.353-1.399.111-1.596-.045-.175-.137-.248-.193-.967.584a2.3 2.3 0 0 1-.342.311c-.074.057-.157.119-.287.242-.325.308-.411.598-.5.898-.069.233-.14.473-.322.739-.368.539-.504.533-.591.53-.063-.003-.082-.003-.382.929-.073.228-.142.41-.25.583s-.257.337-.487.528l-.091.08c.006.06-.141.123-.147.064l-.009.003c-.132.538-.382.996-.597 1.502-.128.298-.222.45-.322.612s-.202.327-.355.667l-2.156 4.656c-.268.391-.68 1.492-1.065 2.679l-.995 3.668c-.129 1.23.022 2.741.417 4.137.36 1.275.925 2.455 1.667 3.236.998 1.049 3.46 2.06 4.591 1.774l1.849-.439c2.126-.479 4.557-2.279 5.718-3.851l1.22-1.422c1.688-1.767 2.356-3.652 2.83-4.993l.394-1.036c.139-.306.251-.475.352-.626.166-.25.3-.452.473-1.185.123-.526.253-.916.378-1.296l.231-.734.426-2.22c.38-1.464.789-6.047-.362-7.548-.552-.72-1.065-1.255-1.675-1.71s-1.322-.831-2.273-1.235c-1.563-.664-1.594-.649-1.884-.493-1.074.537-1.864.08-2.891.411z" class="k"/><path d="M953.793 69.521l.312-.205c.782-.513 1.862-.646 2.857-.62 1.177.031 2.279.344 2.797.773.78.647.388 1.56-.292 2.38-.659.794-1.592 1.505-1.97 1.794-1.009.775-2.095 1.488-3.006 2.38-.167.163-.177.297-.362.392-.198.101-.724.151-.761.681-.036.508.586.777.963 1.121.552.504 1.706 1.891 2.055 2.167l3.534 2.798c.349.276.551.544.747.818s.371.584.595 1.015c1.019 1.962 1.89 2.052-.219 4.13-.109.107-.225.206-.345.29-1.205.856-2.861.55-4.295-.051-1.428-.597-2.661-1.474-2.964-1.819l-.054-.061c-.526-.598-1.958-.971-2.819-1.657l-.692-.532-3.229-2.631c-.23-.187-.551-.214-.828-.317l-.338-.126c-.543-.202-.077 1.389-.099 2.281-.059 2.316-.048 5.265-.867 5.938l-.361.296c-.967.794-2.082 1.046-3.147 1.083s-2.142-.223-3.221-.7c-1.365-.602-1.264-2.053-1.164-3.521l.054-1.101.054-3.907.018-7.672c-.055-1.891.048-3.091.142-4.183.131-1.539.246-2.87-.126-5.631-.13-.974.145-1.09.283-1.167l.033-.018c.625-.346.401-.953.968-1.284l.203-.118.74-.405c.549-.245 1.035-.297 1.591-.374s1.177-.164 1.61-.095c.554.088.782.312 1.023.547a2.34 2.34 0 0 0 .432.357c.253.154.421.216.545.26.289.106.361.131.668.91.622 1.573.562 1.877.478 2.3-.054.27-.119.591-.008 1.358.079.549.075 1.153.074 1.734l-.001.368.106 2.515c.087.789.101 1.771 1.048 1.112l3.203-2.227c.435-.302 1.23-.638 2.03-.909.741-.252 1.581-.189 2.005-.467zm10.062 1.237c-.372-.426-.66-.372-.955-1.152-.271-.716-.204-.486-.311-.885-.034-.13-.097-.256-.112-.417l-.137-1.443c-.023-.451.198-1.219.501-1.951.321-.769.736-1.505 1.055-1.792.124-.11.475-.245.867-.365.507-.155 1.127-.186 1.342-.319.497-.309 1.208-.7 1.823-.687.199.004.626.064 1.053.134l1.209.236 5.575-.025 2.913-.031c1.239-.013 2.661-.025 3.688.278 1.171.345 1.865.832 2.244 1.363a2.09 2.09 0 0 1 .381 1.018 2.66 2.66 0 0 1-.108.987c-.227.771-.726 1.385-.883 1.496-.163.116-.694.281-1.28.431l-1.909.389c-.645.05-.838.113-1.049.181-.164.053-.341.116-.736.168l-5.434.726-.439-.089-.504.497.617 3.789c.108.663 1.96.572 3.938.52 1.622-.042 3.437-.09 4.845.223 1.459.325 2.573 1.119 2.251 2.745-.4 2.032-1.272 1.983-2.834 2.747-.931.453-1.607.519-2.616.574-1.723.097-1.251.154-2.556.485l-.469.119c-.212.054-.377.064-.514.074-1.139.083-.925 1.663-.875 2.445.038.583-.389 1.472-.018 1.504l.478.042c.528.175.969.131 1.342.193.833.14 1.454.244 2.945.136l1.136-.103c1.017-.102 2.125-.213 3.078-.144 1.492.107 2.621.65 2.5 2.327-.176 2.437-2.777 3.357-4.756 3.957-1.411.427-2.936.764-3.774.79-1.284.041-1.914.146-2.468.238-.78.13-1.414.204-3.486.107l-.428-.02c-.313-.014-2.797-1.302-3.066-1.556-.323-.305-.237-.878-.607-1.141-.953-.68-1.102-2.809-1.107-4.253l-.002-.446-.828-7.545c-.056-.516-.223-1.144-.345-1.824-.333-1.844-.619-4.093-1.175-4.731zm24.6.746c-.313-.45-.734-1.139-1.01-1.813-.199-.486-.323-.968-.28-1.352.086-.747.247-.825.468-.931a1 1 0 0 0 .475-.425c.16-.251.228-.462.286-.647.1-.315.175-.57.624-.817l.694-.394c.019-.02.03-.048.048-.095.275-.722.594-.61.927-.644 1.189-.12 3.058-.076 3.681.293.516.305 1.248.284 1.843.81 1.273 1.127 2.955 3.742 3.309 4.232l.849 1.278c1.007 1.533 2.118 3.391 3.48 4.626l3.841 3.483c.406.367.406-.545.411-.672.008-.165-.01-.468-.026-.725l-.045-.696-.487-5.773c-.262-3.083-.016-4.318 3.14-3.595.855.195 1.723.496 2.141.823 1.164.909 2.443 3.625 2.841 5.136.224.851.448 2.301.61 3.754l.239 3.872c-.065 1.884.231 2.652.455 3.234.515 1.337-.294 4.73-1.913 5.268-.35.115-.789.39-1.118.479-.364.097-.703.085-1.052.095l-.41.012c-2.458 0-2.167.063-4.064-1.053-.925-.544-1.407-1.41-2.317-1.998-.146-.095-.31-.201-.661-.501l-3.897-3.049-.759-.537c-.14-.099-1.341-.823-1.363-1.066.021.34.013.473.095.894.192.983.198 1.81.461 2.818a5.33 5.33 0 0 1 .056 2.538c-.189.837-.585 1.638-1.165 2.387-.22.284-.377.445-.602.54s-.509.125-.989.151c-5.126.279-5.312-1.692-5.59-4.679l-.355-2.649c-.306-1.693-1.832-11.119-2.871-12.612zm-93.215 7.803l.277 2.782c.108 3.106.07 3.214-.409 4.559-.838 2.357-1.449 4.789-4.766 4.385-2.042-.249-4.045-1.815-3.623-4.049.4-2.117.128-4.646.17-7.079l-.166-8.111c-.016-.443-.027-.685-.122-.813-.534-.715-6.392-.024-7.914-.303-2.176-.399-5.436-2.205-4.955-4.599.187-.93.634-1.482 1.327-1.817.685-.33 1.614-.471 2.773-.513 2.914-.108 9.038.363 11.985-.542.105-.032.204-.064.332-.087 1.342-.255 3.216-.249 4.712-.475 2.269-.344 4.406-.667 7.164-.008 1.992.477 4.074 1.74 3.951 4.066-.148 2.817-2.784 2.394-4.903 2.255-3.199-.206-4.088.355-6.782.924.824 2.639.619 6.816.949 9.425z"/></g></svg>