<?xml version="1.0" encoding="UTF-8"?>
<svg xmlns="http://www.w3.org/2000/svg" width="269" height="254" viewBox="0 0 265.567 250.381" shape-rendering="geometricPrecision" image-rendering="optimizeQuality" fill-rule="evenodd" xmlns:v="https://vecta.io/nano"><defs><linearGradient id="A" gradientUnits="userSpaceOnUse" x1="132.019" y1="187.338" x2="132.02" y2="-230.361"><stop offset="0" stop-color="#ffd1e0"/><stop offset="1" stop-color="#fefefe"/></linearGradient><linearGradient id="B" gradientUnits="userSpaceOnUse" x1="134.422" y1="154.388" x2="119.334" y2="-27.197"><stop offset="0" stop-color="#ed82a6"/><stop offset="1" stop-color="#fefefe"/></linearGradient></defs><path d="M165.567 230.142c-54.155 0-98.057 4.53-98.057 10.119s43.902 10.12 98.057 10.12 98.059-4.53 98.059-10.12-43.902-10.119-98.059-10.119zm-135.801 3.867c-15.368 0-27.825 2.799-27.825 6.252s12.457 6.253 27.825 6.253 27.825-2.799 27.825-6.253-12.458-6.252-27.825-6.252z" fill-opacity=".102"/><path d="M30.232 102.668l-7.906-3.29C1.167 84.046 3.713 64.785 3.39 45.332 3.241 36.361.81 27.562.058 18.62-.859 7.698 9.186 1.974 22.168 6.664c10.927 3.948 21.204 9.509 31.806 14.263l40.947 17.052-64.689 64.689zm205.103-4.362l6.523.051c26.308-18.664 20.753-37.176 21.076-56.628.148-8.971 1.823-18.529 2.574-27.471.917-10.921-9.128-17.402-22.11-12.712-10.926 3.947-21.204 10.643-31.805 15.398l-40.947 16.673 64.689 64.689z" fill="#fbc7d8"/><path d="M50.941 79.158l-6.21-22.149c-6.747-4.634-15.033-18.026-24.872-33.997-3.056-4.96-7.127-5.906-7.916-.492-1.26 8.644-.04 16.675 1.159 24.941.837 5.77 1.846 11.736 3.122 17.5 2.24 10.118 7.263 16.985 12.288 20.628l22.429-6.431zm163.684-4.362c2.07-7.382-.142-12.819 1.928-20.202 6.747-4.633 19.316-19.973 29.155-35.943 3.055-4.96 7.126-5.906 7.915-.492 1.26 8.643.04 16.674-1.159 24.941-.837 5.769-1.846 11.736-3.122 17.499-2.239 10.118-9.722 19.445-14.747 23.089-7.477-2.144-12.493-6.748-19.97-8.892z" fill="#ffb5ce"/><path d="M50.941 79.158l-6.21-22.149c-6.747-4.634-15.033-18.026-24.872-33.997-3.056-4.96-7.127-5.906-7.916-.492-.575 3.943-.633 7.759-.413 11.529a50.21 50.21 0 0 1 .413-3.932c.789-5.414 4.86-4.468 7.916.492 9.839 15.971 18.125 29.363 24.872 33.997l4.239 15.117 1.971-.565zm163.684-4.362c2.07-7.382-.142-12.819 1.928-20.202 6.747-4.633 19.316-19.973 29.155-35.943 3.055-4.96 7.126-5.906 7.915-.492.575 3.943.634 7.759.413 11.528-.085-1.298-.219-2.608-.413-3.932-.789-5.414-4.86-4.467-7.915.492-9.839 15.971-22.408 31.31-29.155 35.944-1.336 4.762-.889 8.714-.959 12.901l-.969-.296z" fill="#f596b4"/><path d="M201.406 31.844c25.97 39.482 51.548 70.377 51.242 116.211-.178 26.541-10.506 48.016-40.909 60.088-22.312 8.86-49.455 11.016-78.573 11.016s-56.26-1.247-78.573-10.107c-30.403-12.072-42.65-31.351-42.65-57.893 0-45.772 23.249-79.793 49.021-119.315 15.364-17.397 27.169-20.202 66.209-20.202 37.922 0 57.734-.768 74.233 20.202z" fill="url(#A)"/><path d="M138.885 194.925c28.228-1.937 36.099-22.175 41.133-43.766-29.58 21.188-60.091 23.239-91.287 11.172 9.894 24.513 27.788 34.129 50.154 32.594z" fill="#d46360"/><path d="M138.449 188.337c-19.686 2.731-31.356-6.602-41.356-18.65 22.877 9.549 49.619 8.297 75.909-9.284-1.174 5.74-9.869 24.51-34.553 27.934z" fill="#33231f"/><path d="M171.828 161.175v.002c-1.337 2.997-2.806 5.993-5.667 8.989-9.645 6.306-22.419 11.816-46.491 10.449-7.917-.45-13.029-4.831-16.993-8.839 21.235 7.039 45.352 4.868 69.151-10.601z" fill="#fff"/><path d="M151.115 184.797c-4.479-1.867-10.148-2.432-16.74-2.365-5.647.057-10.719 1.473-15.153 4.336 5.492 1.91 11.787 2.602 19.227 1.569 4.808-.667 9.008-1.918 12.666-3.54z" fill="#bd7777"/><path d="M101.413 140.904l9.734-29.057c-.969-36.684-12.652-47.726-27.269-48.783-15.663-1.132-26.262 13.365-26.805 43.785-.19 10.682 1.859 21.251 7.118 31.464l37.222 2.591z" fill="#fff"/><path d="M105.318 79.091c-6.92-3.155-15.001-6.223-22.804-5.604-7.927.628-15.518 3.229-22.029 9.157 4.389-13.855 12.712-20.352 23.393-19.58 8.758.634 16.462 4.855 21.44 16.027z" fill="#fba7c3"/><path d="M73.432 138.956c-5.68-7.914-9.728-16.866-9.09-28.056 1.29-22.609 10.116-33.215 24.389-33.933 7.035-.354 17.571 4.512 20.833 17.097.86 5.121 1.404 11.014 1.583 17.783l-9.734 29.057-27.981-1.948z" fill="#2b676b"/><path d="M162.734 141.827l-10.356-28.693c.174-36.72 11.608-48.199 26.19-49.801 15.627-1.717 26.531 12.385 27.732 42.785.422 10.674-1.397 21.32-6.43 31.729l-37.136 3.98z" fill="#fff"/><path d="M157.493 80.16c6.846-3.414 14.854-6.782 22.664-6.455 7.934.332 15.576 2.649 22.21 8.335-4.686-13.691-13.144-19.878-23.799-18.707-8.737.96-16.344 5.469-21.075 16.827z" fill="#fba7c3"/><path d="M190.65 138.835c5.503-8.126 9.355-17.229 8.475-28.396-1.779-22.561-10.828-32.836-25.105-33.022-7.037-.091-16.009 4.986-20.445 17.874-.748 5.154-1.165 11.067-1.197 17.843l10.356 28.693 27.916-2.992z" fill="#2b676b"/><path d="M105.268 112.632c-.745 10.076-6.636 26.199-18.022 24.373-8.7-1.395-12.988-14.192-13.023-23.002-.057-14.428 6.879-25.753 16.63-25.744 9.439.008 15.112 14.96 14.415 24.373zm54.009.441c.963 10.049 7.198 25.952 18.536 23.7 8.662-1.719 12.67-14.676 12.513-23.488-.255-14.431-7.43-25.496-17.174-25.124-9.431.361-14.775 15.525-13.875 24.912z" fill="#0c3033"/><path d="M98.393 97.853c-1.791-3.103-4.281-6.103-7.543-6.106-.94-.001-1.863.146-2.755.443-3.326 1.105-5.735 4.101-7.271 7.123-2.253 4.433-3.131 9.741-3.112 14.676.012 2.957.541 6.079 1.408 8.901-.589-9.404 2.364-17.312 6.059-20.222 4.135-3.257 6.609 2.417 9.064 3.936 4.88 3.017 7.639-2.707 4.15-8.751z" fill="#224649"/><path d="M132.066 166.113c-28.537.79-38.844-14.136-38.844-30.894 0-17.079 22.953-29.256 39.944-28.319 16.108.889 38.088 14.172 37.479 32.105-.49 14.432-10.77 26.337-38.579 27.108z" fill="url(#B)"/><path d="M119.724 125.717c3.112.511 4.817 3.67 3.31 7.685s-5.207 6.199-8.303 6.199-4.45-4.002-3.17-8.319 5.051-6.077 8.163-5.565zm23.028-1.288c-3.112.511-4.817 3.671-3.31 7.685s5.206 6.199 8.303 6.199 4.449-4.001 3.17-8.319-5.052-6.077-8.163-5.565z" fill="#9e3759"/><path d="M119.724 125.717c2.817.462 4.481 3.096 3.653 6.571-.672-1.091-1.765-1.823-3.128-2.047-3.112-.511-6.884 1.248-8.164 5.565a11.76 11.76 0 0 0-.377 1.734c-.757-1.571-.857-3.866-.147-6.258 1.279-4.318 5.051-6.077 8.163-5.565zm23.028-1.288c-3.112.511-4.817 3.671-3.31 7.685l.123.312c.445-1.869 1.817-3.161 3.711-3.473 3.032-.498 6.691 1.16 8.06 5.24.148-1.262.02-2.712-.421-4.199-1.28-4.317-5.052-6.077-8.163-5.565z" fill="#cf5d83"/><path d="M69.394 52.236c9.88-9.317 21.703-14.495 37.027-13.554 4.579.281 6.42 1.536 6.891 3.293.88 3.285-2.349 7.624-7.603 8.133-12.225 1.184-23.632 1.609-35.103 4.248-2.159.496-2.598-.495-2.262-1.751.064-.239.82-.152 1.05-.369zm124.681-2.215c-10.289-8.865-23.427-13.698-38.692-12.071-4.562.486-6.682 1.779-6.681 3.598-.001 3.536 2.633 7.512 7.905 7.785 12.265.635 23.68.548 35.258 2.67 2.505.459 2.93-.735 2.21-1.982z" fill="#9e513f"/><path d="M192.98 48.619c-10.288-8.865-22.331-13.507-37.597-11.88-4.562.486-6.69 2.989-6.682 4.809.008 1.946 2.634 6.3 7.906 6.573 12.265.636 23.68.549 35.258 2.671 2.506.459 2.954-.587 1.115-2.173zM69.394 51.025c9.881-9.318 21.703-14.496 37.027-13.555 4.579.282 6.817 2.687 6.891 4.505.079 1.945-2.349 6.412-7.603 6.921-12.225 1.185-23.632 1.61-35.103 4.249-2.483.571-2.978-.454-1.212-2.12z" fill="#bd6c5a"/><path d="M182.511 97.197c-2.032-2.95-4.752-5.743-8.004-5.487a8.67 8.67 0 0 0-2.712.66c-3.227 1.366-5.39 4.543-6.682 7.678-1.894 4.598-2.348 9.958-1.937 14.876.246 2.947 1.022 6.017 2.11 8.761-1.334-9.328.982-17.444 4.435-20.639 3.863-3.574 6.78 1.885 9.348 3.204 5.104 2.621 7.4-3.305 3.442-9.053z" fill="#224649"/></svg>