<?xml version="1.0" encoding="UTF-8"?>
<svg xmlns="http://www.w3.org/2000/svg" width="69" height="69" viewBox="0 0 1.842 1.842" shape-rendering="geometricPrecision" image-rendering="optimizeQuality" fill-rule="nonzero" xmlns:v="https://vecta.io/nano"><path d="M0 .882C0 .395.397 0 .886 0c.283 0 .535.132.697.337a.88.88 0 0 1 .259.623c0 .487-.397.882-.886.882-.283 0-.535-.132-.697-.337A.88.88 0 0 1 0 .882z" fill="#333"/><path d="M.068.882c0-.45.366-.814.818-.814s.819.364.819.814-.367.814-.819.814S.068 1.332.068.882z" fill="#ffbb06"/></svg>