<?xml version="1.0" encoding="UTF-8"?>
<svg xmlns="http://www.w3.org/2000/svg" width="51" height="51" viewBox="0 0 9.03 9.03" shape-rendering="geometricPrecision" image-rendering="optimizeQuality" fill-rule="evenodd" xmlns:v="https://vecta.io/nano"><circle cx="4.515" cy="4.515" r="4.515" fill="#333"/><path d="M8.648 4.515c0 2.282-1.851 4.133-4.133 4.133S.382 6.797.382 4.515 2.232.382 4.515.382s4.133 1.85 4.133 4.133zM3.362 6.424V3.599h-.878v2.825h.878zm.503-2.825l.023.901v1.924h.878V4.795c0-.081.006-.162.029-.22.064-.162.208-.329.451-.329.317 0 .445.248.445.612v1.566h.878v-1.67c0-.832-.433-1.219-1.011-1.219-.474 0-.757.271-.873.456h-.017l-.041-.392h-.762zm-1.404-.786c0 .242.179.439.456.439.295 0 .474-.197.474-.439-.006-.249-.179-.44-.462-.44s-.468.191-.468.44z" fill="#f3c14d" fill-rule="nonzero"/></svg>