<?xml version="1.0" encoding="UTF-8"?>
<svg xmlns="http://www.w3.org/2000/svg" width="29" height="22" viewBox="0 0 2.728 2.061" shape-rendering="geometricPrecision" image-rendering="optimizeQuality" fill-rule="evenodd" xmlns:v="https://vecta.io/nano"><path d="M1.116 1.219l-.039.009c-.198.004-.275.016-.381-.19C.647.941.61.802.674.704h0C.663.665.719.596.746.571.798.521.831.513.884.501L.907.495C.929.49.965.479 1.005.467c.088-.027.198-.06.236-.058.018 0 .024.003.03.005s.013.005.045.004l.051-.006C1.376.41 1.386.408 1.4.407l.301-.005a.35.35 0 0 1 .107.026c.036.015.071.033.103.052.057.035.082.094.092.158.014.103-.014.262-.08.347-.114.147-.292.184-.447.217l-.031.006c-.042.009-.049.007-.058.003-.004-.002-.009-.004-.022-.005s-.024.006-.033.014c-.033.029-.024.022-.063 0s-.058-.01-.076-.002-.033.013-.054-.005l-.023.006zm-.133-.208l.005-.001c.015-.002.031.005.046.01l.008.003c.141.051.404-.014.408-.015s.036.008.041.01l.103-.044c.07-.029.125-.052.141-.117C1.68.818 1.617.81 1.57.804c-.073-.009-.124-.039-.201-.02-.017.004-.041.011-.054-.005h0c-.037.02-.08.03-.121.04l-.063.015C1.052.849 1.009.899.974.94c-.023.023-.041.074.009.071zm-.929.363C.037 1.321.04 1.301.042 1.279a.19.19 0 0 0 0-.054.85.85 0 0 0-.016-.083l-.022-.14L0 .893C.005.84.004.798.004.761a.36.36 0 0 1 .061-.24C.091.482.12.437.157.398A.33.33 0 0 1 .295.305C.326.291.356.272.386.253.423.23.459.207.495.194L.834.076A.42.42 0 0 1 .983.045c.045-.003.095-.006.175-.031.039-.012.066-.011.098-.01.017.001.035.002.058 0h.15c.016.001.028 0 .041-.002L1.545 0l.034.001L1.614 0a.86.86 0 0 1 .16.013c.05.008.099.02.138.036.033.014.054.016.073.018.024.002.045.004.082.025l.256.163c.048.027.121.11.179.199.048.076.086.157.087.215l.007.089c0 .013 0 .027.02.061l.015.029.034.058c.024.036.042.076.052.116s.014.082.009.115c-.002.013-.004.021-.006.029s-.005.016-.007.031l-.015.136c-.028.161-.131.258-.206.328l-.055.055c-.151.177-.255.19-.324.199-.019.003-.035.005-.049.01-.054.019-.065.032-.073.04-.012.014-.017.019-.151.027l-.03.003-.25.026c-.06-.002-.108.018-.164.007-.014-.003-.028-.006-.057-.006a.97.97 0 0 0-.084.006l-.032.003-.062.004c-.062.004-.113.007-.173.021-.035.008-.051.004-.069-.001-.01-.003-.021-.006-.036-.007-.035-.003-.07-.001-.106 0H.653c-.118-.013-.221.001-.317-.071-.012-.012-.017-.019-.023-.027s-.009-.012-.017-.021l-.038-.042a.56.56 0 0 1-.086-.127c-.009-.015-.02-.036-.027-.057s-.012-.044-.008-.062l-.083-.267zm.306-.067c.061.056.057.084.055.103s-.003.022.072.039c.016.004.024.007.032.01s.013.006.025.01c.032.009.053.004.075-.001s.035-.009.059-.007c.047.004.052.012.055.018s.002.005.072-.01c.017-.003.031-.006.046-.005s.031.004.051.011l.008.003.01.008c.039-.012.077-.013.117-.018l.05-.002c.013.001.028.001.055-.001l.372-.034c.034.003.119-.011.208-.03l.267-.071a.85.85 0 0 0 .246-.177c.067-.069.121-.148.143-.223.03-.101.004-.293-.055-.354L2.228.475c-.108-.116-.31-.204-.451-.22L1.643.23C1.47.188 1.327.214 1.225.233l-.08.013c-.024.003-.039.002-.052.001-.022-.002-.039-.003-.092.013C.964.271.934.277.906.283L.851.296.696.35C.589.379.286.52.233.647.207.708.192.76.186.815a.81.81 0 0 0 .005.188c.015.123.017.124.037.137.073.048.073.115.132.167z" fill="#333" fill-rule="nonzero"/></svg>