<?xml version="1.0" encoding="UTF-8"?>
<svg width="700pt" height="700pt" version="1.1" viewBox="0 -25 700 675" xmlns="http://www.w3.org/2000/svg" xmlns:xlink="http://www.w3.org/1999/xlink">
 <g>
  <path fill="#F3F3F3" d="m521.99 338.69h-66.586l0.003906-138.7c0-58.129-47.281-105.41-105.41-105.41s-105.41 47.285-105.41 105.41v138.7h-66.586l0.003906-138.7c0-94.84 77.156-171.99 171.99-171.99 94.84 0 171.99 77.152 171.99 171.99z"/>
  <path fill="#F3F3F3" d="m538.64 254.59h-377.28c-18.316 0-33.293 14.984-33.293 33.285v210.82c0 18.316 14.973 33.285 33.293 33.285h377.27c18.316 0 33.293-14.98 33.293-33.285v-210.82c0.007813-18.301-14.969-33.285-33.281-33.285zm-169.4 137.86v48.926c0 10.617-8.6172 19.227-19.242 19.227-10.617 0-19.242-8.5977-19.242-19.227v-48.926c-10.078-6.3945-16.824-17.586-16.824-30.414 0-19.926 16.145-36.055 36.059-36.055 19.914 0 36.055 16.141 36.055 36.055 0.011719 12.832-6.7383 24.02-16.805 30.414z"/>
  <use x="70" y="644" xlink:href="#v"/>
  <use x="90.550781" y="644" xlink:href="#d"/>
  <use x="104.359375" y="644" xlink:href="#a"/>
  <use x="123.347656" y="644" xlink:href="#c"/>
  <use x="142.242188" y="644" xlink:href="#b"/>
  <use x="155.628906" y="644" xlink:href="#a"/>
  <use x="174.617188" y="644" xlink:href="#f"/>
  <use x="204.410156" y="644" xlink:href="#k"/>
  <use x="224.453125" y="644" xlink:href="#j"/>
  <use x="252.453125" y="644" xlink:href="#i"/>
  <use x="275.695312" y="644" xlink:href="#c"/>
  <use x="294.589844" y="644" xlink:href="#u"/>
  <use x="312.839844" y="644" xlink:href="#h"/>
  <use x="322.4375" y="644" xlink:href="#f"/>
  <use x="352.226562" y="644" xlink:href="#t"/>
  <use x="373.925781" y="644" xlink:href="#g"/>
  <use x="393.859375" y="644" xlink:href="#c"/>
  <use x="412.753906" y="644" xlink:href="#h"/>
  <use x="70" y="672" xlink:href="#s"/>
  <use x="82.183594" y="672" xlink:href="#d"/>
  <use x="95.992188" y="672" xlink:href="#e"/>
  <use x="115.226562" y="672" xlink:href="#r"/>
  <use x="154.152344" y="672" xlink:href="#b"/>
  <use x="167.535156" y="672" xlink:href="#g"/>
  <use x="187.46875" y="672" xlink:href="#a"/>
  <use x="216.207031" y="672" xlink:href="#q"/>
  <use x="239.640625" y="672" xlink:href="#e"/>
  <use x="258.878906" y="672" xlink:href="#p"/>
  <use x="278.8125" y="672" xlink:href="#o"/>
  <use x="308.492188" y="672" xlink:href="#n"/>
  <use x="329.015625" y="672" xlink:href="#d"/>
  <use x="342.820312" y="672" xlink:href="#e"/>
  <use x="362.058594" y="672" xlink:href="#m"/>
  <use x="371.65625" y="672" xlink:href="#a"/>
  <use x="390.648438" y="672" xlink:href="#l"/>
  <use x="407.242188" y="672" xlink:href="#b"/>
 </g>
</svg>