<?xml version="1.0" encoding="UTF-8"?>
<svg xmlns="http://www.w3.org/2000/svg" width="26" height="28" viewBox="0 0 2.569 2.708" shape-rendering="geometricPrecision" image-rendering="optimizeQuality" fill-rule="evenodd" xmlns:v="https://vecta.io/nano"><path d="M.086 1.081v1.033l1.199.594 1.198-.594V1.086l.086-.043V.637L1.285 0 0 .637v.4z" fill="#eaad73"/><path d="M1.195 1.579c0-.063.016-.12.047-.173s.075-.093.129-.123c.027-.014.048-.035.064-.063s.023-.059.023-.092-.008-.062-.023-.088-.037-.046-.064-.062a.17.17 0 0 0-.087-.022c-.031 0-.061.007-.087.022a.17.17 0 0 0-.063.062c-.015.026-.023.056-.023.088H.909c0-.069.017-.132.051-.188s.079-.102.136-.135a.36.36 0 0 1 .188-.051c.069 0 .132.017.189.051s.102.078.136.135.051.119.051.188a.38.38 0 0 1-.052.195c-.034.059-.082.105-.142.138-.021.011-.038.028-.05.048s-.019.045-.019.07h-.202zm.108.375c-.029 0-.053-.01-.073-.031s-.031-.045-.031-.074a.1.1 0 0 1 .031-.073c.02-.019.044-.029.073-.029s.053.01.073.029.03.044.03.073-.01.054-.03.074-.044.031-.073.031z" fill="#333" fill-rule="nonzero"/></svg>