<?xml version="1.0" encoding="UTF-8"?>
<svg xmlns="http://www.w3.org/2000/svg" xmlns:xlink="http://www.w3.org/1999/xlink" width="123" height="123" viewBox="0 0 16.43 16.429" shape-rendering="geometricPrecision" image-rendering="optimizeQuality" fill-rule="evenodd" xmlns:v="https://vecta.io/nano"><defs><linearGradient id="A" gradientUnits="userSpaceOnUse" x1="10.122" y1="8.926" x2="10.901" y2="3.995"><stop offset="0" stop-color="#ed82a6"/><stop offset="1" stop-color="#fefefe"/></linearGradient><linearGradient id="B" gradientUnits="userSpaceOnUse" x1="8.555" y1="8.689" x2="9.097" y2="-6.175"><stop offset="0" stop-color="#ffd1e0"/><stop offset="1" stop-color="#fefefe"/></linearGradient><linearGradient id="C" xlink:href="#B" x1="3.525" y1="5.771" x2="3.932" y2="-3.825"/><linearGradient id="D" gradientUnits="userSpaceOnUse" x1="6.889" y1="7.673" x2="-9.171" y2="15.005"><stop offset="0" stop-color="#ffaec8"/><stop offset="1" stop-color="#9e3759"/></linearGradient></defs><path d="M16.43 16.257V0H0v16.429z" fill="#7dd077"/><path d="M13.373 6.994l.111-.689c.24-.404.334-.944.238-1.673-.053-.399-.031-.808-.026-1.241.002-.192.031-.338-.048-.529-.115-.278-.538-.358-.848-.248-.458.163-.864.447-1.296.67l-.223 1.848 2.092 1.862z" fill="#fbc7d8"/><path d="M12.217 4.963l.274-.411c.2-.381.348-.842.601-1.265.128-.214.344-.136.343.102l.019 1.452c.015.359-.035.71-.195 1.014l-.399.199-.643-1.091z" fill="#ef84a6"/><path d="M13.057 3.346c.11-.043.222.045.221.217l.019 1.451c.015.359-.089.6-.25.904l-.198.178-.019.01-.643-1.092.274-.41c.198-.379.346-.837.596-1.258z" fill="#fba7c3"/><path d="M7.755 2.837l2.839 9.467c-.905.187-2.116.379-3.364.313-1.12-.06-2.148-.243-3.147-.544-1.064-.322-1.551-1.083-1.679-1.744-.279-1.429.001-2.454.577-3.671.558-1.18 1.621-2.039 2.574-2.932.919-.613 1.61-.838 2.2-.889z" fill="url(#D)"/><path d="M2.476 7.962c.119-.429.292-.853.505-1.304l.162-.309.733.984-1.4.629z" fill="#ed82a6"/><path d="M4.863 4.953l.028.308c-.28.481-.488.944-.656 1.398l-1.283-1.61-.194-2.157.742.249 1.363 1.812z" fill="#ffb5ce"/><path d="M5.169 3.933l-.021 1.071-.257.257c-.355-.228-.582-.614-.838-.95-.215-.28-.358-.611-.573-.891-.079-.104-.201-.27-.34-.285l-.389-.326.818-.215 1.6 1.339z" fill="#f596b4"/><path d="M10.899 2.978c-.893-.192-1.857-.136-2.685-.162-.866-.027-1.72.32-2.129.972-.687 1.096-1.402 2.613-1.803 4.029-.319 1.126-.074 2.492.68 3.377.729.856 2.007 1.164 3.126 1.262 1.425.126 2.891-.161 4.249-.613a2.91 2.91 0 0 0 1.584-1.325c.433-.793.402-1.809.142-2.707-.345-1.197-.955-2.317-1.636-3.358-.388-.593-.837-1.326-1.528-1.475z" fill="url(#B)"/><path d="M9.906 11.292c.96-.095 1.485-.901 1.893-1.696l-.14.012c-.448.257-.932.503-1.722.511-.639.006-1.418-.223-1.818-.66l-.136.032c.206.978.872 1.905 1.923 1.801z" fill="#ad5855"/><path d="M10.046 11.279c.98-.097 1.524-.72 1.753-1.683-.448.256-.932.503-1.722.51-.686.007-1.351-.277-1.958-.647.207.978.876 1.925 1.927 1.82z" fill="#d46360"/><path d="M4.264 7.116l-.388.217c-.429-.225-.809-.486-1.04-.855-.301-.479-.371-1.018-.386-1.543-.02-.681-.111-1.249-.242-1.761-.084-.33.005-.604.216-.766.371-.286.705-.273 1.005-.146.667.283 1.288.663 1.948.962a1.35 1.35 0 0 0 .894.077c-.478.342-.771.984-1.127 1.703a2.78 2.78 0 0 1-.774-.852c-.265-.442-.521-.847-.817-1.144-.11-.102-.222-.145-.341-.004-.149.176-.075.385-.036.578.171.842.155 1.468.484 2.143.182.374.516.638.824.788l-.22.603z" fill="url(#C)"/><path d="M4.264 7.116l-.388.217c-.429-.225-.809-.486-1.04-.855-.301-.479-.371-1.018-.386-1.543-.02-.681-.111-1.249-.242-1.761-.039-.154-.041-.295-.01-.418.634 1.954.072 3.307 2.066 4.36z" fill="#ffc9db"/><path d="M8.41 4.583c.135-.025.301-.083.39-.224-.156-.004-.067-.047-.069-.071-.01-.155-.226-.237-.381-.244-.467-.022-.838.066-1.203.282-.122.073-.294.199-.378.314-.061.082-.005.121.074.109l.934-.126c.203-.01.434-.002.633-.04zm3.517.143c.024.004.041.001.051-.008l.096-.055-.095-.112-.093.032c-.22-.216-.447-.404-.815-.488-.186-.043-.347-.111-.528-.05-.369.125-.175.495.056.531.21.032.425.014.636.039l.692.111z" fill="#9e513f"/><path d="M8.921 8.489c-.111.18-.233.24-.344.42l-1.668-.047c-.25-.612-.4-1.125-.381-1.768.026-.921.312-1.823 1.068-1.891.73-.066 1.112.775 1.281 1.842.075.476.038.962.044 1.444z" fill="#fff"/><path d="M6.679 6.105c.31-.18.617-.364.993-.39.339-.023.649.097.918.261-.217-.501-.538-.814-.994-.773-.471.042-.76.409-.917.902z" fill="#fba7c3"/><path d="M10.653 7.319l1.175 1.211.665-.108c.549-.698.221-3.217-.964-3.33-.377-.036-.871.375-.932 1.593-.015.28.015.489.056.634z" fill="#fff"/><path d="M12.46 5.92c-.477-.453-1.172-.523-1.723-.073.187-.574.52-.781.792-.755.4.038.741.296.931.828z" fill="#fba7c3"/><path d="M7.344 8.874c-.272-.307-.424-.736-.459-1.21-.079-1.056.343-1.692.892-1.74.469-.04.903.466 1.039.793l.061.328c.075.476.038.962.044 1.444-.111.18-.233.24-.344.42l-1.233-.035zm4.864-.406h0c.181-.364.257-.751.22-1.164-.108-1.181-.613-1.567-1.067-1.526-.34.031-.609.305-.768 1.008a1.88 1.88 0 0 0 .06.533l1.175 1.211.38-.062z" fill="#2b676b"/><path d="M8.055 8.739c.437.022.698-.721.682-1.173-.017-.462-.306-1.168-.767-1.153-.445.015-.61.752-.594 1.198.016.438.241 1.106.679 1.128zm3.787-.353c.344-.038.432-.776.372-1.186-.056-.388-.351-1.007-.685-.957-.434.066-.556.79-.493 1.226.059.403.402.963.806.917z" fill="#0c3033"/><path d="M11.657 7.177c-.316.098-.445-.796-.081-.766.144.013.299.303.35.417a1.61 1.61 0 0 1 .12.397c.02.143.019.301.004.445l-.029.269c-.028-.941-.205-.812-.364-.762z" fill="#224649"/><path d="M8.515 4.524c.159-.03.332-.134.321-.296-.01-.155-.226-.237-.381-.244-.467-.022-.908.104-1.272.32-.123.073-.24.18-.325.295-.06.082.011.103.09.091l.934-.127c.203-.01.434-.002.633-.039zm3.506.148c.067.012.086-.034.018-.102-.237-.235-.469-.444-.863-.535-.186-.043-.37-.059-.556-.016-.357.083-.147.461.084.497.21.033.425.015.636.04.228.027.454.077.681.116z" fill="#bd6c5a"/><path d="M11.602 8.581c.035-.718-.564-1.065-1.572-1.38-.775.185-1.425.695-1.472 1.488-.049.842.733 1.2 1.551 1.187.168-.003.41-.016.544-.042.806-.158.922-.71.949-1.253z" fill="#cf5d83"/><path d="M11.828 8.53c.034-.736-.733-1.435-1.628-1.355-.691.063-1.382.635-1.427 1.449-.048.863.747 1.243 1.565 1.231 1.185-.016 1.461-.675 1.49-1.325z" fill="url(#A)"/><path d="M10.642 8.334c-.033-.107.003-.313.115-.323.151-.012.279.124.334.266s.019.328-.092.338c-.15.013-.293-.078-.357-.281zm-.647.011c.023-.161-.071-.34-.203-.329-.154.013-.245.173-.265.311-.018.129.042.341.171.345.153.004.276-.176.297-.327z" fill="#cf5d83"/><path d="M9.586 8.601a.46.46 0 0 0 .106-.229c.013-.097-.015-.2-.069-.265h0c-.053.062-.085.144-.096.22a.43.43 0 0 0 .059.274zm1.201-.046c.026-.069.025-.166-.008-.25-.027-.07-.071-.138-.128-.188-.024.07-.027.158-.009.217.032.101.083.174.145.221z" fill="#9e3759"/><path d="M11.52 9.948c-.251.544-.808 1.025-1.498 1.093-.735.073-1.451-.676-1.663-1.247.537.346 1.176.557 1.721.551.506-.005 1.035-.127 1.44-.397z" fill="#33231f"/><path d="M10.45 10.943l-.011-.122c-.163-.073-.389-.098-.586-.092a1.46 1.46 0 0 0-.575.13l.055.03c.217.114.452.176.689.152a1.72 1.72 0 0 0 .428-.098z" fill="#bd7777"/><path d="M8.607 10.244c.028.024.059.048.095.069.461.28 1.053.428 1.883.22.314-.078.417-.233.524-.374a2.97 2.97 0 0 1-1.029.186c-.545.006-1.184-.205-1.721-.551a1.97 1.97 0 0 0 .248.45z" fill="#b3b3b3"/><path d="M11.157 10.139a1.93 1.93 0 0 1-1.409.893c.091.015.182.019.274.009.69-.068 1.247-.549 1.498-1.093-.113.075-.235.139-.363.191h0z" fill="#7f423e"/><path d="M8.494 9.877h0c.077.143.146.311.334.425.461.28 1.053.427 1.883.22.364-.091.445-.285.576-.441h0c-.364.178-.794.26-1.207.264-.5.005-1.08-.172-1.586-.468z" fill="#fff"/><path d="M10.702 7.005l-.007-.207c.073-.316.22-.797.572-.899a.6.6 0 0 1 .103-.019c.234-.021.43.091.575.268.178.216.277.518.332.811-.058-.255-.153-.507-.307-.694-.146-.177-.342-.289-.575-.268a.53.53 0 0 0-.104.019c-.342.1-.576.706-.589.989zM7.045 8.043c-.03-.128-.049-.258-.058-.387-.028-.368.001-.782.162-1.12.105-.222.277-.422.521-.489.038-.01.077-.017.115-.021.387-.033.792.392.933.721l.023.113c-.143-.329-.546-.75-.931-.717-.039.003-.078.01-.115.021-.245.067-.416.267-.522.489-.161.338-.19.752-.162 1.12l.034.27z" fill="#379299"/><path d="M8.106 7.328c-.352.097-.482-.742-.079-.718.16.009.328.279.382.386.059.114.108.246.127.371.021.135.017.283-.001.419l-.037.253c-.017-.884-.215-.76-.392-.711z" fill="#224649"/><path d="M9.488 13.345c-2.103 0-3.808.203-3.808.454s1.705.454 3.808.454 3.809-.203 3.809-.454-1.705-.454-3.809-.454zm-5.274.173c-.597 0-1.081.126-1.081.281s.484.28 1.081.28 1.08-.125 1.08-.28-.483-.281-1.08-.281z" fill-opacity=".102"/></svg>