<?xml version="1.0" encoding="UTF-8"?>
<svg xmlns="http://www.w3.org/2000/svg" xmlns:xlink="http://www.w3.org/1999/xlink" width="123" height="123" viewBox="0 0 16.43 16.429" shape-rendering="geometricPrecision" image-rendering="optimizeQuality" fill-rule="evenodd" xmlns:v="https://vecta.io/nano"><defs><linearGradient id="A" gradientUnits="userSpaceOnUse" x1="10.122" y1="8.926" x2="10.901" y2="3.996"><stop offset="0" stop-color="#ed82a6"/><stop offset="1" stop-color="#fefefe"/></linearGradient><linearGradient id="B" gradientUnits="userSpaceOnUse" x1="8.555" y1="8.689" x2="9.097" y2="-6.175"><stop offset="0" stop-color="#ffd1e0"/><stop offset="1" stop-color="#fefefe"/></linearGradient><linearGradient id="C" xlink:href="#B" x1="3.525" y1="5.771" x2="3.932" y2="-3.825"/><linearGradient id="D" gradientUnits="userSpaceOnUse" x1="6.889" y1="7.673" x2="-9.171" y2="15.005"><stop offset="0" stop-color="#ffaec8"/><stop offset="1" stop-color="#9e3759"/></linearGradient></defs><path d="M0 0h16.43v16.429H0z" fill="#ffba19"/><path d="M13.373 6.995l.111-.69c.239-.403.334-.944.238-1.672-.053-.4-.031-.808-.026-1.242.002-.192.031-.338-.048-.529-.115-.278-.538-.358-.848-.247-.458.163-.864.446-1.296.67l-.223 1.847 2.092 1.863z" fill="#fbc7d8"/><path d="M12.217 4.963l.274-.411c.2-.381.348-.842.601-1.265.128-.214.344-.136.343.102l.019 1.452c.015.359-.035.71-.195 1.014l-.399.199-.643-1.091z" fill="#ef84a6"/><path d="M13.057 3.347c.11-.044.222.044.221.216l.019 1.451c.015.359-.089.6-.25.904l-.198.178-.019.01-.643-1.091.274-.411c.198-.379.346-.837.596-1.257z" fill="#fba7c3"/><path d="M7.755 2.837l2.839 9.467c-.905.188-2.116.379-3.364.313-1.12-.06-2.148-.243-3.147-.544-1.064-.322-1.551-1.083-1.679-1.744-.279-1.429.001-2.453.577-3.671.558-1.18 1.621-2.039 2.574-2.932.919-.613 1.61-.838 2.2-.889z" fill="url(#D)"/><path d="M2.476 7.962c.119-.428.292-.853.505-1.304l.162-.309.733.984-1.4.629z" fill="#ed82a6"/><path d="M4.863 4.954l.028.307c-.28.481-.488.944-.656 1.398l-1.283-1.61-.194-2.157.742.249 1.363 1.813z" fill="#ffb5ce"/><path d="M5.169 3.933l-.021 1.071-.257.257c-.355-.228-.582-.614-.839-.949-.214-.281-.357-.611-.572-.892-.079-.104-.201-.27-.34-.285l-.389-.326.818-.215 1.6 1.339z" fill="#f596b4"/><path d="M10.899 2.978c-.893-.192-1.857-.136-2.685-.162-.866-.027-1.721.32-2.129.972-.687 1.096-1.402 2.613-1.803 4.029-.32 1.126-.074 2.492.68 3.377.729.856 2.006 1.164 3.125 1.263 1.426.125 2.892-.162 4.25-.614a2.91 2.91 0 0 0 1.584-1.325c.432-.793.402-1.809.142-2.707-.345-1.197-.955-2.317-1.637-3.358-.387-.592-.836-1.326-1.527-1.475z" fill="url(#B)"/><path d="M9.906 11.292c.96-.095 1.485-.901 1.893-1.696l-.14.012c-.448.257-.932.503-1.722.511-.639.006-1.418-.223-1.818-.66l-.136.032c.206.978.871 1.905 1.923 1.801z" fill="#ad5855"/><path d="M10.046 11.28c.98-.098 1.524-.721 1.753-1.684-.448.256-.932.503-1.722.51-.686.007-1.351-.277-1.958-.647.206.978.876 1.925 1.927 1.821z" fill="#d46360"/><path d="M4.264 7.116l-.388.217c-.429-.225-.809-.486-1.04-.854-.301-.48-.371-1.019-.386-1.543-.02-.682-.111-1.25-.242-1.762-.085-.33.005-.603.216-.766.371-.286.705-.273 1.005-.146.666.283 1.288.663 1.948.962a1.35 1.35 0 0 0 .894.077c-.478.343-.771.984-1.127 1.704-.328-.245-.562-.498-.774-.853-.265-.442-.521-.847-.817-1.144-.11-.102-.222-.145-.341-.004-.149.176-.075.385-.036.578.171.842.155 1.468.484 2.143.182.374.516.638.823.788l-.219.603z" fill="url(#C)"/><path d="M4.264 7.116l-.388.217c-.429-.225-.809-.486-1.04-.854-.301-.48-.371-1.019-.386-1.543-.02-.682-.111-1.25-.242-1.762-.039-.154-.041-.295-.01-.418.634 1.954.072 3.307 2.066 4.36z" fill="#ffc9db"/><path d="M8.41 4.583c.135-.025.3-.083.39-.224-.156-.004-.067-.046-.069-.071-.01-.155-.226-.237-.381-.244-.467-.022-.838.066-1.203.282-.122.073-.294.199-.378.314-.061.082-.005.121.074.109l.934-.126c.203-.01.434-.002.633-.04zm3.517.143c.024.004.041.001.051-.008l.096-.055-.095-.111-.093.031c-.22-.216-.447-.404-.815-.488-.186-.043-.347-.111-.528-.05-.369.126-.175.495.056.531.21.033.425.015.636.039l.692.111z" fill="#9e513f"/><path d="M8.921 8.489c-.111.18-.233.24-.344.42l-1.668-.047c-.25-.612-.4-1.124-.381-1.768.026-.921.312-1.823 1.068-1.891.73-.065 1.112.776 1.281 1.842.075.476.037.962.044 1.444z" fill="#fff"/><path d="M6.679 6.105c.31-.18.617-.364.993-.39.339-.023.649.097.918.261-.217-.501-.538-.814-.994-.773-.471.043-.76.409-.917.902z" fill="#fba7c3"/><path d="M10.653 7.319l1.175 1.211.665-.108c.549-.698.221-3.217-.964-3.33-.377-.035-.871.375-.933 1.593-.014.28.016.49.057.634z" fill="#fff"/><path d="M12.46 5.92c-.477-.452-1.172-.523-1.723-.072.187-.575.52-.782.792-.756.4.039.741.296.931.828z" fill="#fba7c3"/><path d="M7.344 8.874c-.272-.307-.424-.736-.459-1.21-.079-1.056.343-1.692.892-1.739.469-.041.903.465 1.039.792l.061.328c.075.476.037.962.044 1.444-.111.18-.233.24-.344.42l-1.233-.035zm4.863-.405h0c.182-.365.258-.752.221-1.165-.108-1.181-.613-1.566-1.067-1.526-.341.031-.609.305-.768 1.008a1.88 1.88 0 0 0 .06.533l1.175 1.211.379-.061z" fill="#2b676b"/><path d="M8.055 8.739c.437.022.698-.721.682-1.173-.017-.461-.306-1.168-.767-1.153-.445.015-.61.752-.594 1.198.016.439.241 1.106.679 1.128zm3.787-.353c.344-.038.432-.776.372-1.186-.056-.388-.351-1.007-.685-.957-.434.066-.557.79-.493 1.226.059.403.401.963.806.917z" fill="#0c3033"/><path d="M11.657 7.177c-.316.098-.445-.796-.081-.765.144.012.299.302.35.416.054.123.1.264.12.397.02.143.019.301.004.445l-.029.269c-.028-.941-.205-.812-.364-.762z" fill="#224649"/><path d="M8.515 4.524c.159-.03.332-.134.321-.295s-.226-.238-.381-.245c-.467-.022-.908.104-1.273.32-.122.073-.239.18-.324.295-.06.082.011.103.09.091l.934-.127c.203-.01.434-.002.633-.039zm3.506.148c.067.012.086-.034.018-.102-.237-.235-.469-.444-.863-.535-.186-.042-.37-.058-.556-.016-.357.083-.147.462.084.497.21.033.425.015.636.04.228.027.454.077.681.116z" fill="#bd6c5a"/><path d="M11.602 8.581c.035-.718-.564-1.065-1.572-1.38-.775.185-1.425.695-1.472 1.488-.049.842.733 1.2 1.551 1.187a3.71 3.71 0 0 0 .543-.042c.807-.157.923-.709.95-1.253z" fill="#cf5d83"/><path d="M11.828 8.53c.034-.736-.733-1.435-1.628-1.354-.691.062-1.382.635-1.427 1.448-.048.863.747 1.243 1.565 1.232 1.185-.017 1.461-.676 1.49-1.326z" fill="url(#A)"/><path d="M10.642 8.334c-.033-.107.003-.313.115-.322.151-.013.279.123.334.265s.019.328-.092.338c-.15.014-.293-.078-.357-.281zm-.647.011c.023-.161-.071-.34-.203-.329-.154.013-.245.173-.265.311-.018.129.042.341.171.345.152.004.276-.176.297-.327z" fill="#cf5d83"/><path d="M9.586 8.601a.46.46 0 0 0 .106-.229.36.36 0 0 0-.069-.265h0c-.053.062-.085.144-.096.22a.43.43 0 0 0 .059.274zm1.201-.046c.026-.069.025-.166-.008-.25-.027-.07-.071-.138-.128-.188-.024.07-.027.158-.009.217.032.101.083.174.145.221z" fill="#9e3759"/><path d="M11.519 9.948c-.25.545-.807 1.025-1.497 1.094-.735.072-1.451-.676-1.663-1.247.536.345 1.176.556 1.721.55.505-.004 1.035-.127 1.439-.397z" fill="#33231f"/><path d="M10.45 10.943l-.011-.122c-.163-.073-.389-.098-.586-.092a1.46 1.46 0 0 0-.575.13l.055.03c.217.114.452.176.689.153.15-.015.293-.049.428-.099z" fill="#bd7777"/><path d="M8.607 10.244a.65.65 0 0 0 .095.07c.461.279 1.053.427 1.883.219.314-.078.417-.233.524-.374a2.97 2.97 0 0 1-1.029.186c-.545.006-1.185-.205-1.721-.55.054.143.139.298.248.449z" fill="#b3b3b3"/><path d="M11.157 10.139c-.284.457-.807.834-1.41.893.092.015.183.019.275.01.69-.069 1.247-.549 1.497-1.094-.112.075-.234.139-.362.191h0z" fill="#7f423e"/><path d="M8.494 9.877h0c.077.143.146.311.334.425.461.28 1.053.427 1.883.22.364-.091.445-.285.576-.441h0c-.364.178-.794.26-1.207.264-.5.005-1.08-.172-1.586-.468z" fill="#fff"/><path d="M10.702 7.005l-.007-.207c.073-.316.22-.796.572-.898.034-.01.068-.016.103-.02.234-.021.43.091.575.268.178.216.277.518.332.811-.058-.255-.153-.507-.307-.694-.146-.177-.342-.289-.575-.268a.53.53 0 0 0-.104.019c-.342.1-.576.706-.589.989zM7.045 8.043a2.55 2.55 0 0 1-.059-.387c-.027-.368.002-.782.163-1.12.105-.222.277-.422.521-.489a.66.66 0 0 1 .115-.02c.387-.034.792.391.933.721l.023.112c-.143-.328-.546-.75-.931-.717a.73.73 0 0 0-.115.021c-.245.067-.416.267-.522.489-.161.338-.19.752-.162 1.12l.034.27z" fill="#379299"/><path d="M8.106 7.328c-.352.097-.482-.742-.079-.718.16.009.328.279.382.386.059.115.107.246.127.371.021.135.017.284-.001.419l-.037.253c-.017-.884-.215-.76-.392-.711z" fill="#224649"/><path d="M9.488 13.345c-2.103 0-3.808.203-3.808.454s1.705.454 3.808.454 3.809-.203 3.809-.454-1.706-.454-3.809-.454zm-5.274.174c-.597 0-1.081.125-1.081.28s.484.281 1.081.281 1.08-.126 1.08-.281-.483-.28-1.08-.28z" fill-opacity=".102"/></svg>