<?xml version="1.0" encoding="UTF-8"?>
<svg xmlns="http://www.w3.org/2000/svg" xmlns:xlink="http://www.w3.org/1999/xlink" width="123" height="123" viewBox="0 0 12.966 12.966" shape-rendering="geometricPrecision" image-rendering="optimizeQuality" fill-rule="evenodd" xmlns:v="https://vecta.io/nano"><defs><linearGradient id="A" gradientUnits="userSpaceOnUse" x1="5.436" y1="6.189" x2="-7.237" y2="11.975"><stop offset="0" stop-color="#ffaec8"/><stop offset="1" stop-color="#9e3759"/></linearGradient><linearGradient id="B" gradientUnits="userSpaceOnUse" x1="7.988" y1="7.178" x2="8.603" y2="3.287"><stop offset="0" stop-color="#ed82a6"/><stop offset="1" stop-color="#fefefe"/></linearGradient><linearGradient id="C" gradientUnits="userSpaceOnUse" x1="2.782" y1="4.688" x2="3.103" y2="-2.885"><stop offset="0" stop-color="#ffd1e0"/><stop offset="1" stop-color="#fefefe"/></linearGradient><linearGradient id="D" xlink:href="#C" x1="6.751" y1="6.991" x2="7.179" y2="-4.739"/></defs><path d="M12.966 12.966H0V0h12.966z" fill="#ff7860"/><path d="M10.553 5.654l.088-.544c.189-.319.264-.746.188-1.32-.042-.316-.025-.638-.021-.98.002-.152.025-.267-.037-.417-.091-.22-.425-.283-.669-.196-.362.129-.683.352-1.024.529l-.175 1.458 1.65 1.47z" fill="#fbc7d8"/><path d="M9.642 4.05l.215-.324c.158-.301.275-.664.475-.998.101-.169.271-.108.27.08l.015 1.146c.012.283-.027.561-.154.801l-.314.156-.507-.861z" fill="#ef84a6"/><path d="M10.304 2.775c.087-.035.175.035.175.17l.015 1.146c.012.283-.071.473-.197.713l-.157.14-.015.008-.507-.861.216-.324c.156-.299.273-.66.47-.992z" fill="#fba7c3"/><path d="M6.12 2.372l2.24 7.472c-.714.148-1.67.299-2.654.246a10.39 10.39 0 0 1-2.484-.429c-.84-.254-1.224-.854-1.325-1.376-.22-1.128.001-1.936.455-2.897.441-.931 1.28-1.609 2.032-2.314.725-.484 1.271-.661 1.736-.702z" fill="url(#A)"/><path d="M1.954 6.417c.094-.338.23-.673.398-1.029l.128-.244.579.776-1.105.497z" fill="#ed82a6"/><path d="M3.838 4.043l.022.242c-.221.38-.385.746-.518 1.104L2.33 4.118l-.153-1.702.585.196 1.076 1.431z" fill="#ffb5ce"/><path d="M4.08 3.238l-.017.845-.203.202c-.281-.179-.459-.484-.662-.749-.169-.221-.282-.482-.451-.704-.063-.081-.16-.212-.269-.224l-.307-.257.646-.17L4.08 3.238z" fill="#f596b4"/><path d="M8.601 2.484c-.705-.152-1.465-.107-2.118-.128-.684-.021-1.359.253-1.681.767-.542.865-1.106 2.062-1.423 3.179-.252.889-.058 1.967.537 2.666.575.676 1.583.918 2.466.996 1.126.099 2.282-.128 3.354-.484.515-.171.99-.568 1.25-1.046.341-.626.317-1.427.112-2.136-.272-.945-.753-1.828-1.291-2.65-.306-.468-.66-1.047-1.206-1.164z" fill="url(#D)"/><path d="M7.817 9.045c.758-.075 1.172-.711 1.494-1.338l-.11.009c-.353.203-.736.397-1.359.403-.504.005-1.119-.175-1.434-.52l-.108.025c.163.772.688 1.503 1.517 1.421z" fill="#ad5855"/><path d="M7.928 9.035c.773-.076 1.203-.568 1.383-1.328-.353.202-.735.396-1.358.402-.542.006-1.067-.218-1.545-.51.162.772.69 1.518 1.52 1.436z" fill="#d46360"/><path d="M3.365 5.75l-.306.17c-.339-.177-.638-.383-.821-.674-.237-.378-.293-.803-.305-1.217a6.18 6.18 0 0 0-.191-1.391c-.066-.26.005-.476.171-.604.293-.225.556-.215.793-.115.526.223 1.017.523 1.537.759a1.07 1.07 0 0 0 .706.061c-.377.27-.609.777-.89 1.344-.259-.193-.443-.393-.61-.672-.209-.35-.411-.669-.645-.903-.087-.081-.175-.114-.269-.003-.118.138-.059.303-.028.456.134.664.122 1.158.381 1.691.144.295.407.503.65.621l-.173.477z" fill="url(#C)"/><path d="M3.365 5.75l-.306.17c-.339-.177-.638-.383-.821-.674-.237-.378-.293-.803-.305-1.217a6.18 6.18 0 0 0-.191-1.391c-.031-.121-.032-.232-.008-.33.501 1.542.057 2.611 1.631 3.442z" fill="#ffc9db"/><path d="M6.637 3.751c.107-.02.237-.066.308-.177-.124-.004-.053-.037-.055-.056-.008-.123-.178-.187-.301-.193a1.61 1.61 0 0 0-.949.223c-.096.057-.232.157-.298.248-.048.064-.004.095.058.086l.737-.1c.161-.008.343-.002.5-.031zm2.775.112c.019.004.033.001.041-.006l.076-.044-.076-.087-.073.024c-.174-.17-.353-.318-.643-.385-.147-.033-.274-.087-.416-.039-.292.099-.139.391.043.419.166.026.336.011.502.031l.546.087z" fill="#9e513f"/><path d="M7.04 6.833c-.088.142-.184.19-.271.331l-1.317-.036c-.197-.483-.315-.888-.301-1.396.021-.727.247-1.438.843-1.492.577-.052.878.612 1.011 1.453.059.376.03.76.035 1.14z" fill="#fff"/><path d="M5.271 4.951c.244-.141.487-.286.784-.307.267-.018.511.076.724.206-.172-.395-.425-.642-.785-.61-.371.033-.599.322-.723.711z" fill="#fba7c3"/><path d="M8.407 5.91l.927.955.525-.085c.433-.551.174-2.538-.761-2.627-.297-.029-.687.295-.736 1.257-.011.22.013.386.045.5z" fill="#fff"/><path d="M9.833 4.806c-.376-.357-.925-.413-1.36-.058.148-.453.411-.616.625-.595.316.03.585.233.735.653z" fill="#fba7c3"/><path d="M5.795 7.137c-.214-.243-.334-.581-.362-.955-.062-.834.271-1.336.704-1.373.371-.032.713.368.82.625l.048.259c.059.376.03.76.035 1.14-.088.142-.184.19-.271.331l-.974-.027zm3.839-.32h0a1.69 1.69 0 0 0 .174-.919c-.085-.932-.484-1.236-.842-1.204-.269.024-.481.24-.606.795-.003.181.019.321.047.421l.927.955.3-.048z" fill="#2b676b"/><path d="M6.356 7.03c.346.018.552-.568.539-.925-.013-.365-.242-.922-.605-.91-.351.011-.482.593-.469.945.013.346.19.873.535.89zm2.989-.278c.272-.031.341-.612.294-.936-.045-.307-.277-.795-.54-.755-.343.052-.44.623-.39.967.047.318.317.76.636.724z" fill="#0c3033"/><path d="M9.199 5.797c-.249.078-.351-.628-.064-.603.114.009.237.238.276.328a1.23 1.23 0 0 1 .095.313 1.48 1.48 0 0 1 .004.352l-.023.212c-.023-.743-.162-.641-.288-.602z" fill="#224649"/><path d="M6.72 3.704c.125-.024.262-.106.253-.233s-.178-.187-.301-.193c-.368-.017-.716.082-1.004.252-.097.058-.189.142-.256.233-.047.065.009.081.071.072l.737-.1c.161-.008.343-.002.5-.031zm2.767.117c.052.009.068-.027.014-.081-.187-.185-.37-.35-.682-.422-.146-.033-.291-.046-.438-.012-.281.065-.116.364.066.392.166.026.336.011.502.031.18.021.358.061.538.092z" fill="#bd6c5a"/><path d="M9.156 6.905c.027-.566-.445-.84-1.241-1.088-.611.146-1.124.548-1.161 1.174-.039.664.578.947 1.224.937a2.94 2.94 0 0 0 .429-.034c.636-.124.728-.559.749-.989z" fill="#cf5d83"/><path d="M9.334 6.865c.027-.58-.578-1.132-1.284-1.069-.546.05-1.091.502-1.127 1.144-.037.681.59.981 1.236.971.934-.013 1.152-.533 1.175-1.046z" fill="url(#B)"/><path d="M8.399 6.711c-.027-.085.002-.247.09-.255.12-.01.22.098.264.21s.015.259-.073.266c-.119.011-.231-.061-.281-.221zm-.511.009c.018-.128-.056-.269-.16-.26-.122.01-.194.136-.209.245-.015.102.032.269.135.272.12.004.217-.138.234-.257z" fill="#cf5d83"/><path d="M7.565 6.922a.36.36 0 0 0 .083-.181.28.28 0 0 0-.054-.209h0c-.041.048-.067.113-.075.173-.01.065.006.158.046.217zm.948-.037c.021-.054.02-.131-.006-.197a.4.4 0 0 0-.101-.148c-.02.054-.022.124-.007.171a.34.34 0 0 0 .114.174z" fill="#9e3759"/><path d="M9.091 7.985c-.198.429-.638.809-1.182.862-.58.058-1.145-.533-1.312-.984.423.273.928.439 1.358.435.399-.004.817-.1 1.136-.313z" fill="#33231f"/><path d="M8.247 8.769l-.009-.096c-.128-.057-.307-.077-.462-.072-.141.004-.331.038-.454.102l.043.024c.171.09.357.139.544.12a1.31 1.31 0 0 0 .338-.078z" fill="#bd7777"/><path d="M6.793 8.218c.022.019.046.038.074.055.364.221.831.337 1.487.173.247-.061.329-.184.413-.295-.254.098-.538.144-.812.147-.43.004-.935-.162-1.358-.435.042.114.109.236.196.355z" fill="#b3b3b3"/><path d="M8.805 8.136c-.224.36-.637.657-1.113.704a.83.83 0 0 0 .217.007c.544-.053.984-.433 1.182-.862-.089.059-.185.109-.286.151h0z" fill="#7f423e"/><path d="M6.703 7.928v.001c.061.112.115.245.264.335.364.221.831.337 1.486.173.287-.071.351-.224.454-.347h0c-.287.14-.626.205-.952.208-.395.004-.852-.136-1.252-.37z" fill="#fff"/><path d="M8.446 5.662l-.005-.163c.057-.25.173-.629.45-.709.027-.008.055-.013.082-.016.184-.016.339.072.454.212.14.17.218.408.262.64-.046-.202-.121-.4-.243-.548-.115-.14-.269-.228-.454-.212-.027.003-.055.008-.081.016-.271.078-.455.557-.465.78zm-2.886.819c-.024-.101-.039-.203-.046-.305-.022-.291.001-.618.127-.884.084-.175.219-.333.412-.386a.47.47 0 0 1 .091-.016c.305-.026.625.309.736.569l.018.089c-.112-.26-.431-.592-.735-.566a.58.58 0 0 0-.091.016c-.193.053-.328.211-.411.386-.127.267-.15.593-.128.884a1.94 1.94 0 0 0 .027.213z" fill="#379299"/><path d="M6.397 5.917c-.278.077-.38-.586-.062-.567.126.007.258.221.301.305.046.09.085.194.1.293a1.14 1.14 0 0 1-.001.33l-.029.2c-.013-.698-.169-.6-.309-.561z" fill="#224649"/><path d="M7.488 10.665c-1.66 0-3.006.161-3.006.359s1.346.358 3.006.358 3.005-.16 3.005-.358-1.345-.359-3.005-.359zm-4.163.137c-.471 0-.853.099-.853.222s.382.221.853.221.853-.099.853-.221-.382-.222-.853-.222z" fill-opacity=".102"/></svg>