<?xml version="1.0" encoding="UTF-8"?>
<svg xmlns="http://www.w3.org/2000/svg" width="384" height="384" viewBox="0 0 76.8 76.8" shape-rendering="geometricPrecision" image-rendering="optimizeQuality" fill-rule="evenodd" xmlns:v="https://vecta.io/nano"><path d="M24.158 62.173l.006-.017.012-.035.006-.017.005-.013.001-.004.006-.017.011-.034.007-.022.021-.065v-.002l.001-.003.005-.014.016-.055.006-.021.014-.048.005-.018.005-.017.018-.067v-.001l.001-.004.014-.054.005-.018.001-.006.003-.012.013-.055.004-.015.001-.003.001-.004.015-.069.002-.006v-.001l.016-.078.001-.005.001-.002v-.002l.014-.072.002-.008v-.002l.015-.081v-.001-.001-.001l.013-.074.001-.009.002-.01.012-.076.063-.64c.099-1.949-.947-4.15-2.567-5.968-1.633-1.832-3.838-3.263-6.04-3.651l-.009-.001-.107-.019-.045-.007-.06-.009-.052-.008-.062-.01-.042-.006-.069-.009-.045-.006-.007-.001-.098-.013h0l-.112-.013-.025-.002-.085-.01-.035-.003-.079-.008-.035-.003-.08-.007-.03-.002-.112-.009h0l-.108-.007-.04-.003-.076-.004-.036-.002-.079-.003-.031-.002-.076-.002-.046-.002h-.006l-.099-.003h-.001l-.099-.001h-.004l-.06-.001h-.053-.054-.058-.052l-.061.001-.051.001h-.007l-.099.002h-.001l-.028.001-.084.003-.028.001-.082.003-.042.002-.066.004-.054.003-.043.002-.071.005h-.009l-.187.015h-.005l-.069.006-.043.004-.064.006-.042.004-.068.007-.038.004-.068.008-.032.004-.156.019-.017.002-.087.012-.014.002-.077.012-.035.005-.073.011-.024.004-.083.013-.097.016-.001.001-.098.017-.005.001-.065.012-.037.007-.073.014-.03.006-.076.016-.022.004-.364.082-.012.003-.086.021-.013.003-.086.022-.011.003-.369.102-.007.002-.092.027-.001.001-.093.028-.002.001-.459.154-.01.004a10.92 10.92 0 0 0-1.224.526c-2.171 1.099-3.835 2.905-4.26 5.313l-.029.18c-.287 1.951.344 3.927 1.775 5.546 1.452 1.643 3.726 2.921 6.706 3.446l.449.073 1.876.189c2.659.135 4.899-.339 6.536-1.316 1.255-.748 2.155-1.797 2.617-3.096zm38.435-13.677c.859.401 1.801.346 2.579.081a3.73 3.73 0 0 0 1.009-.525c.302-.225.529-.48.645-.728l-.002-.001.002.001c.234-.503.139-1.204-.246-1.871-.357-.618-.969-1.224-1.795-1.614l-.017-.01c-.834-.388-1.709-.495-2.45-.352-.783.15-1.423.577-1.734 1.242s-.225 1.429.163 2.126a3.52 3.52 0 0 0 .451.628c.389.432.869.776 1.395 1.023zm-23.506 5.795c-.922-.597-2.293-.706-3.64-.427-1.358.282-2.682.956-3.494 1.923l-.077.095-.008.009-.006.008-.036.045-.001.002-.036.046-.004.005-.011.014-.024.032-.016.022-.066.088-.004.006-.012.017-.024.033-.003.005-.004.005-.029.042-.006.008-.005.007-.03.045-.007.01-.026.038-.006.01-.002.002-.008.013-.022.034-.007.01-.006.009-.022.035-.002.003-.013.021-.029.046-.032.053-.004.005-.007.012-.022.036-.001.002-.014.024-.006.009-.019.033-.001.003-.004.005-.024.042-.005.009-.008.016-.021.036-.004.007-.016.029-.017.031-.002.005-.02.036-.001.003-.016.029-.002.005-.019.037-.003.005-.006.012-.023.043-.002.005-.004.008-.019.037-.007.016-.004.007-.02.042-.005.009-.001.003-.017.035-.005.011-.011.024-.049.106-.004.009h0l-.004.009-.019.043-.004.01-.006.013-.016.038h0l-.011.026-.005.012-.015.036-.001.002-.016.039-.009.022-.006.016-.015.038h0l-.01.026-.01.027-.01.024-.014.039-.007.019-.003.007-.018.051-.002.006-.001.002-.018.052-.004.01-.003.008-.017.052-.003.008-.019.057h0a6.46 6.46 0 0 0-.311 1.633c-.075 1.37.337 2.69 1.391 3.575l.079.064c.869.689 2.01.937 3.202.695 1.213-.246 2.482-.999 3.582-2.31l.163-.2.625-.868c.819-1.265 1.22-2.495 1.205-3.572-.015-.993-.388-1.858-1.121-2.495l-.002-.002-.002-.001-.002-.002-.015-.013-.002-.002-.002-.001-.002-.002-.002-.002-.002-.001-.001-.002-.002-.002-.002-.001-.002-.002-.002-.001-.002-.002-.002-.002-.01-.008-.002-.002-.002-.001-.001-.002-.002-.001-.002-.002-.002-.002-.002-.001-.002-.002-.002-.001-.002-.002-.002-.002-.004-.003-.002-.001-.002-.002-.002-.002-.002-.001h0l-.002-.002-.002-.001v-.001l-.004-.003-.002-.001-.02-.016-.002-.002-.002-.001-.002-.002-.002-.002-.293-.21zm-3.745-.938c1.471-.305 2.985-.174 4.026.5.121.077.233.157.336.239a3.7 3.7 0 0 1 1.372 2.274c.203.473.309.992.317 1.546.017 1.179-.413 2.511-1.288 3.864l-.653.908-.172.211c-1.18 1.406-2.555 2.217-3.879 2.485-1.346.274-2.639-.01-3.629-.795l-.09-.074c-.797-.668-1.27-1.55-1.471-2.516-.288-.714-.396-1.505-.352-2.308.083-1.503.705-3.055 1.694-4.234.889-1.06 2.324-1.796 3.789-2.1zm.214 3.777a1.53 1.53 0 0 0 .71.315c.314.055.624-.049.863-.21.111-.074.205-.158.275-.239a1.52 1.52 0 0 0-.623-.257h0c-.334-.059-.65-.016-.89.1-.148.072-.266.172-.335.291zm2.196.252l-.005.005h0l-.004.005-.023.023-.004.005-.005.005-.001.001-.004.004-.005.004-.004.005h0l-.005.005-.005.005-.003.003-.002.001-.004.005-.005.005-.002.002-.003.002-.005.005-.005.004-.001.001-.004.004-.005.005-.005.004-.005.005-.005.004-.003.003-.002.002-.005.005-.005.004-.002.002-.003.003-.005.004-.006.005h0l-.005.004-.005.005-.005.004h0l-.006.004-.005.005-.01.009-.006.004-.002.002-.003.003-.006.004-.005.004-.001.001-.004.004-.006.004-.004.003-.001.001-.006.004-.005.005-.004.002-.002.002-.006.004-.005.004-.002.002-.004.003-.006.004-.005.004h0l-.006.004-.006.004-.004.004h-.001l-.006.005-.006.004-.003.002-.003.002-.006.004-.005.004-.002.001-.004.003-.006.004-.006.004c-.337.226-.781.372-1.244.29l.001-.005-.002.005-.008-.001-.009-.002h-.003l-.006-.001-.009-.002-.008-.002-.009-.001-.009-.002h-.001l-.008-.002-.008-.002-.004-.001-.005-.001-.009-.002-.007-.001-.001-.001-.009-.002-.008-.002h-.002l-.007-.002-.008-.002-.005-.001-.004-.001-.009-.002-.007-.002h-.001l-.009-.002-.008-.002-.002-.001-.007-.002-.008-.002-.005-.001-.003-.001-.009-.002-.008-.003h0l-.008-.002-.009-.003h-.003l-.005-.002-.008-.003-.006-.001-.003-.001-.008-.003-.008-.002h-.001l-.007-.003-.009-.002-.003-.002-.005-.001-.008-.003-.006-.002h-.002l-.008-.003-.008-.003h-.002l-.006-.003-.008-.003-.004-.001-.004-.002-.008-.002-.007-.003h-.001l-.008-.003-.008-.003-.002-.001-.006-.002-.008-.003-.005-.002-.003-.001-.015-.006-.001-.001-.015-.006-.003-.001-.013-.005-.005-.002-.003-.001-.007-.004-.008-.003h0l-.008-.003-.007-.004-.003-.001-.005-.002-.007-.003-.006-.003-.002-.001a1.83 1.83 0 0 1-.559-.387c-.279-.288-.42-.651-.355-1.02s.322-.661.683-.837c.335-.162.764-.224 1.208-.145h0c.446.078.817.29 1.066.539.276.276.413.611.363.897-.03.168-.139.361-.302.54zm-4.662 3.387a1.41 1.41 0 0 0 .38.407c.181.127.357.18.468.139.15-.054.335-.283.443-.582a1.36 1.36 0 0 0 .076-.345c-.099-.145-.217-.263-.343-.349-.196-.133-.41-.182-.595-.114l-.001-.003.001.003c-.186.067-.319.242-.384.471-.032.114-.048.24-.045.373zm1.608.497l-.006.009-.002.003-.008.012-.001.002-.022.033-.001.002h0l-.008.012-.003.005-.006.007-.006.009-.002.003-.008.011-.002.003-.007.009-.005.007-.012.016h0l-.008.011-.004.004-.005.007-.007.009-.002.002-.009.011-.001.002-.007.009-.006.006-.003.004-.009.011h0l-.009.01-.004.004-.005.006-.007.009-.002.001-.009.01-.002.003-.007.007-.006.006-.003.004-.009.009-.001.001-.009.009-.004.004-.005.005-.008.008-.001.001-.009.009-.003.003-.007.006-.006.006-.003.003-.009.009h-.001l-.009.008-.004.004-.005.004-.009.007-.001.001-.009.008-.003.003-.007.005-.006.006-.003.002-.01.008-.006.005-.003.002-.005.004-.005.003-.008.007h-.001l-.009.007-.004.002-.006.005-.007.005-.003.001-.009.007-.001.001-.009.005-.005.003-.004.003-.009.006h-.001l-.009.006-.003.002-.007.004-.007.004-.002.001-.009.005-.002.001-.008.004-.005.003-.004.002-.009.005h-.001l-.009.005-.004.001-.006.003-.007.003-.002.001-.009.004-.002.001-.008.003-.005.002-.004.002-.009.003-.009.003-.004.002-.005.001-.008.003h-.001l-.009.003-.003.001-.012.003-.001.001h-.003l-.009.003h-.002l-.008.002-.005.001-.004.001-.009.002h0l-.01.002-.004.001-.005.001-.009.002h-.001l-.01.001-.002.001-.007.001-.007.001h-.003l-.01.001-.001.001h-.009l-.005.001h-.005l-.009.001h-.001l-.009.001h-.005l-.005.001h-.01-.01-.003l-.008.001h-.007-.003-.01-.001-.009l-.006-.001h-.004-.011 0-.01l-.005-.001h-.005l-.009-.001h-.002l-.01-.001h-.003l-.015-.001-.003-.001-.01-.001h-.002l-.009-.001-.006-.001-.004-.001-.011-.001h0l-.01-.002-.005-.001-.006-.001-.009-.001-.002-.001-.01-.002h-.003-.002l-.014-.003-.002-.001-.011-.002-.002-.001-.009-.002-.006-.001-.004-.001-.011-.003h0l-.011-.003-.005-.001-.006-.002-.009-.003h-.001l-.011-.003-.004-.001-.007-.002-.008-.003-.003-.001-.01-.003-.002-.001-.009-.003-.007-.002-.004-.002-.011-.004h0l-.011-.003-.005-.002-.005-.003-.01-.003-.001-.001-.011-.004c-.099-.04-.198-.094-.294-.161-.29-.203-.562-.531-.717-.956v-.001c-.154-.424-.168-.858-.067-1.215.11-.386.354-.689.706-.817l.001.002-.001-.002c.352-.128.734-.053 1.067.172a2 2 0 0 1 .73.973v.001c.143.393.105.802-.02 1.148a1.93 1.93 0 0 1-.172.357zM15.92 16.968c-.75-2.032-2.774-3.821-5.217-4.967-2.46-1.155-5.331-1.651-7.747-1.087l-.011.003A13.29 13.29 0 0 0 0 11.997v-.828c.896-.425 1.834-.757 2.787-.979l.012-.003c2.578-.599 5.622-.077 8.218 1.141 2.61 1.225 4.782 3.161 5.602 5.383l.236.749a7.04 7.04 0 0 1-.513 5.046c-.229.957-.663 1.874-1.286 2.732-1.329 1.827-3.522 3.378-6.43 4.45l-2.056.645-.51.127c-2.21.516-4.257.561-6.06.232v-.379-.378-.921-.765c1.866.467 4.059.488 6.462-.073l.49-.122 1.989-.625c2.766-1.019 4.84-2.478 6.083-4.188.873-1.2 1.334-2.527 1.334-3.914h0v-.004-.031l-.001-.068v-.001-.006-.007l-.002-.072-.001-.026-.003-.07v-.007l-.001-.019-.003-.065-.001-.008v-.005-.002l-.006-.077v-.007l-.001-.019-.006-.063-.002-.021-.007-.072h0l-.001-.009v-.006l-.009-.078-.001-.008v-.004h0l-.01-.079-.002-.009v-.003l-.012-.085v-.004l-.001-.004v-.002l-.012-.077-.004-.02-.013-.08-.001-.002v-.003l-.015-.081-.003-.018-.017-.082v-.002-.002l-.017-.079-.003-.012-.001-.005-.02-.088v-.001l-.019-.079-.003-.013-.001-.002-.023-.091-.216-.681zM1.318 22.374l-.083.047h0l-.004.002-.017.009-.006.004-.015.007-.009.005-.012.006-.011.006-.009.005-.015.008-.006.003-.018.008-.003.002-.02.01-.001.001-.021.01h-.002l-.019.01-.005.002-.016.008-.021.009-.01.005-.011.005-.013.005-.008.004-.016.007-.006.002-.017.008-.004.001-.02.009H.899l-.021.009-.002.001-.019.008-.005.002-.016.006-.008.003-.013.005-.011.004-.01.004-.021.008-.016.006-.005.002-.019.007-.002.001-.021.007H.709l-.02.007-.003.001-.018.007-.006.001-.015.006-.009.002-.023.008-.01.003-.014.004-.007.003-.016.005-.005.001-.019.006H.542l-.021.006h0l-.02.006-.004.001-.017.005-.006.001-.015.004-.009.002-.011.004-.012.002-.009.003-.014.003-.007.002-.016.004-.004.001-.019.004H.356l-.02.005H.335l-.019.005H.312l-.016.004-.007.001-.014.003-.009.002-.011.002-.012.002-.008.002-.014.002-.006.001-.017.003-.003.001-.019.003H.175l-.02.003H.154l-.018.003-.005.001-.015.002-.007.001-.022.003-.01.001-.012.001-.007.001-.015.002H.038l-.016.002H.019L0 22.815v-.739c.317-.038.709-.183 1.078-.425a2.7 2.7 0 0 0 .576-.506c.022-.375-.024-.729-.13-1.036-.163-.474-.47-.829-.88-.953-.208-.063-.427-.062-.644-.006v-.381-.379-.522-.859c.461-.214.956-.269 1.431-.126.651.197 1.125.727 1.366 1.425.227.657.245 1.468 0 2.276-.225.742-.737 1.309-1.311 1.687l-.168.103zm8.968-2.284l-.01.003-.004.001-.014.003-.013.003-.002.001-.026.006h-.002-.001l-.014.003-.014.004h-.004l-.011.003-.015.003-.006.001-.008.002-.015.003-.009.001-.006.001-.015.003-.011.002-.003.001-.015.003-.015.002h0l-.015.003-.015.002h-.003l-.013.002-.015.003-.005.001-.01.001-.015.002-.008.001-.007.001-.027.004h-.004l-.016.002-.013.002h-.002l-.016.002-.015.002h-.001l-.015.001-.015.002h-.004l-.012.001-.016.002-.007.001h-.008l-.016.002h-.01l-.006.001-.016.001-.013.001h-.003l-.016.001-.015.001H9.68l-.016.001-.016.001h-.002l-.014.001h-.016-.005-.002l-.025.001-.009.001h-.007-.016-.012-.004l-.017.001h-.014-.002-.016-.017-.015-.001-.016-.005-.012l-.016-.001h-.007-.009l-.027-.001h-.006l-.017-.001h-.013-.003l-.017-.001-.016-.001c-.753-.04-1.573-.314-2.17-.945h0l-.007-.008-.017-.018-.01-.011-.007-.008-.017-.018-.003-.003-.014-.015-.012-.015-.02-.022-.006-.007-.01-.012-.016-.018v-.001l-.016-.018-.009-.011-.007-.008-.016-.019-.002-.003-.013-.016-.012-.014-.024-.03-.01-.013-.014-.018-.001-.001-.014-.019-.008-.01-.007-.009-.015-.02-.001-.002-.013-.017-.01-.014-.004-.005-.014-.02-.004-.005-.01-.014-.013-.018-.001-.002-.014-.019-.006-.01-.007-.01-.014-.019-.001-.002-.012-.018-.009-.013-.017-.027-.003-.005-.021-.031-.001-.003-.013-.02-.006-.009-.006-.011-.013-.02v-.001l-.012-.019-.008-.013-.004-.007-.012-.02-.003-.005-.001-.002-.017-.03-.002-.003-.011-.02-.005-.009-.018-.032h0l-.011-.02-.007-.012-.004-.008-.011-.021-.002-.004-.008-.016-.008-.016-.003-.004-.01-.021-.004-.007-.016-.033h0l-.01-.021-.006-.012-.004-.008-.009-.021-.002-.003-.008-.017-.007-.016-.002-.005-.009-.02-.009-.02v-.001l-.009-.019v-.001l-.026-.062-.001-.003-.007-.018-.006-.015-.003-.005c-.102-.261-.17-.524-.203-.78-.093-.727.095-1.409.585-1.873l-.001-.001.009-.007c.497-.466 1.193-.613 1.916-.473.678.131 1.386.519 1.963 1.131h.001l.007.009c.547.583.862 1.268.974 1.893.134.745-.021 1.426-.411 1.799l.001.001-.009.007c-.194.181-.494.327-.851.416zm-3.423-2.847c.096.494.361 1.015.783 1.468l.008.008c.45.481 1.086.69 1.674.721.329.017.635-.018.879-.091-.116-.435-.354-.894-.73-1.298h-.001l-.008-.01c-.469-.499-1.034-.813-1.568-.917-.384-.074-.748-.038-1.037.119zM76.8 11.997l-.065.033-.009.005-.025.012-.044.023-.005.003-.045.023-.013.007-.039.021-.024.012-.047.025-.005.003-.048.026-.005.003-.068.038-.006.003-.063.035-.004.002-.06.033-.013.008-.049.028-.008.005-.037.021-.03.017-.043.026-.008.004-.041.024-.021.013-.051.03-.011.007-.06.036-.002.001-.062.038-.007.005-.063.039-.008.005-.044.028-.051.032-.01.006-.035.023-.026.016-.018.012-.04.026-.003.002-.053.034-.007.005-.06.04-.002.001-.058.039-.047.032-.019.013-.033.023-.036.024-.013.01-.03.021-.016.011-.1.071-.002.001-.055.039-.003.003-.059.042-.005.004-.053.039-.013.01-.044.033-.009.006-.038.029-.019.015-.043.032-.015.012-.044.034-.004.002-.048.038-.008.006-.057.045h0l-.056.044-.008.007-.048.038-.005.005-.035.028-.024.02-.033.026-.013.012-.034.027-.021.018-.015.013-.094.08-.055.046-.003.003-.05.044-.001.001-.05.043-.004.004-.051.045-.002.002-.104.094-.002.002-.203.19-.004.003-.097.094-.01.01-.042.041-.006.006-.292.3h0l-.452.507c-1.736 2.068-2.645 4.637-2.027 7.281l.048.196c.558 2.116 2.064 3.857 4.231 4.885.579.274 1.204.498 1.871.664v.765.921.378.379c-1-.182-1.924-.479-2.759-.875-2.369-1.124-4.019-3.037-4.633-5.369l-.054-.216c-.453-1.936-.164-3.828.639-5.538.379-1.427 1.121-2.765 2.113-3.948 1.243-1.481 2.883-2.719 4.694-3.577v.828zm0 5.012v.859.522.379.381c-.211.055-.421.161-.617.311-.202.153-.389.351-.552.585-.039.393-.001.763.091 1.082.142.491.399.843.68.928.108.032.244.039.398.02v.739c-.231.021-.441.006-.614-.046l-.022-.007-.002-.001-.02-.007-.004-.001-.008-.003-.014-.005-.007-.003-.015-.006-.012-.004-.006-.003-.01-.004-.005-.002-.013-.006-.011-.005-.011-.005-.011-.005-.004-.002-.016-.008-.021-.011-.002-.001-.003-.002-.02-.011h-.002l-.021-.012v-.001l-.02-.012-.003-.001-.018-.011-.005-.003-.016-.011-.003-.001-.014-.01-.005-.003-.015-.011-.007-.005-.014-.01-.008-.005-.014-.011-.004-.003-.016-.012-.001-.001-.016-.013-.004-.003-.018-.014-.002-.002-.019-.016h0l-.02-.017-.001-.002-.018-.016-.003-.003-.016-.014-.005-.005-.014-.013-.002-.003-.014-.013-.004-.004-.014-.014-.006-.007-.013-.014-.004-.004-.034-.037h0l-.015-.017-.003-.004h-.001l-.082-.101-.006-.008-.046-.064-.002-.003-.015-.022-.011-.016-.005-.008-.003-.004-.028-.044-.015-.024-.001-.001-.014-.025-.042-.072-.004-.007-.092-.187-.012-.028-.001-.001-.012-.028-.045-.115-.001-.003-.011-.028h0l-.06-.186c-.176-.611-.199-1.364.033-2.129.245-.809.71-1.474 1.262-1.894a2.73 2.73 0 0 1 .496-.302zM56.009 0l-.032.063-.007.012-.008.015-.025.05-.012.024-.027.054-.006.013-.025.05-.01.021-.006.013-.031.063h0l-.03.064-.006.013-.024.051-.005.009-.018.039-.007.016-.017.038-.003.005-.025.055-.007.017-.006.013-.029.064v.001l-.1.231v.002l-.064.155v.001l-.026.065-.005.013-.021.053-.002.004-.019.05-.009.024-.018.045-.003.008-.019.052-.006.014-.024.065v.001l-.024.066-.005.012-.019.054-.009.026-.014.04-.014.039-.003.009-.015.046-.014.039h0l-.022.066v.001l-.022.066-.001.003-.016.051-.006.018-.013.043-.006.019-.013.039-.008.028-.006.02-.014.046-.001.001-.019.065-.001.002-.019.067-.004.012-.006.021-.013.047-.011.038-.008.03-.012.044-.003.009-.014.053-.004.015-.018.066v.001l-.017.068-.004.012-.013.055-.002.006-.03.125-.004.015-.087.396v.001l-.013.068-.013.066-.001.001-.025.136h0l-.009.055-.004.022-.032.196-.011.068-.008.057-.003.016-.007.056-.002.014-.008.053-.001.008h0l-.081.868c-.144 2.602.64 5.111 2.647 6.795l.149.124c1.656 1.311 3.828 1.784 6.098 1.323 2.298-.466 4.698-1.89 6.778-4.368l.308-.376 1.176-1.636c1.547-2.39 2.306-4.719 2.276-6.76L74.001 0h.228.384.131.253a7.9 7.9 0 0 1 .215 1.74c.031 2.186-.767 4.657-2.395 7.173l-1.218 1.692-.32.394c-2.193 2.614-4.746 4.12-7.203 4.618-2.486.505-4.873-.02-6.702-1.469l-.168-.135c-1.475-1.238-2.349-2.87-2.72-4.661-.534-1.325-.736-2.791-.653-4.283.094-1.716.567-3.466 1.345-5.069h.831zm7.101 0h.454.405.016.464a1.19 1.19 0 0 0-.203.301c.36.323.866.57 1.452.673l.002.001c.624.109 1.234-.096 1.703-.411.258-.173.47-.372.615-.564h.006.549.295c-.076.178-.192.363-.341.543l-.009.011-.009.011-.009.011-.003.003-.006.007-.009.011-.001.001-.009.01-.008.009-.001.001-.009.011-.006.007-.004.004-.01.01-.004.005-.005.006-.01.01-.002.003-.008.008-.009.01-.001.001-.009.01-.008.008-.003.003-.01.01-.005.006-.005.004-.01.011-.004.004-.006.006-.011.011-.001.001-.009.009-.01.01h-.001l-.01.011-.008.007-.003.003-.011.01-.005.005-.005.005-.011.011-.003.002-.008.008-.011.01-.001.001-.01.009-.01.009-.001.001-.011.01-.008.007-.004.003-.011.01-.005.004-.006.006-.012.01-.002.002-.021.018h0l-.012.01-.009.007-.002.002-.012.01-.007.006-.005.004-.012.01-.004.003-.008.006-.012.01-.001.001-.035.027-.009.007-.003.003-.013.009-.006.005-.019.014-.003.002-.009.007-.013.009-.001.001-.011.009-.011.007-.002.002-.013.009-.008.006-.004.003-.013.009-.006.004-.007.005-.013.009-.003.002-.01.006-.013.009c-.61.409-1.411.674-2.245.527h-.001l-.037-.007-.009-.001-.022-.005-.007-.001-.004-.001-.033-.006-.002-.001-.023-.005-.013-.002-.01-.002-.022-.005-.005-.001-.018-.004-.019-.005-.003-.001-.023-.005-.01-.003-.012-.002-.022-.006-.003-.001-.019-.005-.017-.004-.006-.002-.022-.006-.008-.002-.035-.01h-.001l-.036-.01h0l-.007-.002-.022-.007-.007-.002-.014-.004-.021-.007h-.001l-.003-.001-.061-.02-.005-.002-.016-.005-.019-.006-.003-.001-.021-.008-.011-.004-.01-.003-.021-.008-.003-.001-.034-.013-.004-.001-.062-.024-.002-.001-.033-.013-.006-.003-.02-.008-.007-.003-.033-.014h0l-.033-.015-.007-.003-.079-.036-.011-.005-.124-.062L63.11 0zm-3.455 7.126c.214.351.482.629.76.824.37.259.739.363.985.273.309-.112.685-.568.899-1.161a2.64 2.64 0 0 0 .152-.719 2.61 2.61 0 0 0-.696-.718c-.398-.27-.837-.366-1.222-.226s-.657.496-.789.959c-.067.235-.098.495-.089.768zm3.253.409l-.014.032-.001.001-.014.031-.029.06-.001.003-.006.011-.01.021-.015.03-.001.001-.031.059-.001.002-.012.023-.005.007-.014.026-.002.004-.017.029v.001l-.018.029-.001.002-.016.027-.003.005-.015.024-.001.001-.016.026-.001.003-.015.022-.005.009-.013.018-.003.006-.011.016-.008.012-.004.005-.013.02-.001.002-.016.021-.003.006-.018.024-.001.002-.02.027h0l-.019.026-.011.015-.013.016-.015.02-.007.008-.013.017-.004.004-.033.041-.003.003-.013.016-.007.008-.015.018-.006.006-.007.008-.013.015-.02.022-.001.001-.02.022-.002.001-.019.021-.003.003-.018.018-.014.015-.007.006-.008.008-.013.013v.001l-.019.018-.004.004-.019.017-.015.014-.006.006-.017.015-.005.004-.019.017-.002.002-.021.018h0l-.022.018-.002.001-.019.016-.005.004-.017.013-.006.005-.005.003-.016.013-.003.002-.013.009-.011.008-.004.003-.014.01-.006.004-.008.005-.015.011-.006.004-.018.012-.024.015-.001.001-.021.013h-.002l-.02.012-.003.002-.007.004-.015.008-.006.003-.017.01-.006.003-.016.008-.009.004-.015.007-.005.003-.017.008-.005.002-.007.003-.016.007-.021.009h-.002l-.003.001-.021.008-.02.007-.002.001-.02.006-.018.006-.003.001-.004.001-.007.002-.014.004-.008.002-.016.004-.004.001-.017.004-.009.002-.015.004-.006.001-.017.003-.006.002-.044.007h-.003l-.018.003-.005.001h-.006l-.018.003h-.005l-.02.002h-.003l-.022.002h-.001l-.023.002h0l-.024.001h-.002-.022-.003l-.02.001h-.021-.003-.006l-.018-.001h-.008l-.016-.001h-.003-.014l-.007-.001h-.012l-.012-.001-.013-.001-.012-.001-.014-.002h-.004l-.041-.005-.014-.001-.02-.003-.005-.001-.022-.003-.003-.001-.023-.004h-.002l-.025-.004h0l-.025-.005-.001-.001-.024-.005h-.003l-.022-.005-.02-.005-.005-.001-.007-.002-.018-.005-.009-.002-.002-.001-.023-.006-.005-.001-.02-.006-.004-.001-.013-.004-.014-.004-.012-.004-.006-.002-.016-.005-.003-.001-.017-.006-.009-.003-.019-.006-.006-.003-.021-.007-.005-.002-.022-.008-.003-.001-.024-.01h-.002l-.025-.011-.026-.01-.002-.001-.023-.01-.004-.002-.022-.01-.025-.011-.001-.001-.021-.009-.004-.003-.009-.004-.017-.008-.001-.001-.023-.011-.001-.001-.013-.006-.013-.007-.006-.003-.016-.009-.003-.001-.016-.009-.01-.005-.008-.005-.043-.024-.02-.012-.005-.003-.022-.013-.003-.002-.024-.015h-.002l-.025-.016-.107-.072c-.522-.365-1.013-.956-1.295-1.72-.287-.789-.314-1.574-.129-2.221.194-.684.623-1.221 1.24-1.45l.011-.004.001.002-.001-.002c.622-.226 1.3-.091 1.893.311.557.377 1.043.996 1.323 1.767.258.708.19 1.445-.036 2.072l-.089.222zm-2.667 1.18l-.043-.024.043.024zm10.828 62.937c-1.754-1.135-4.354-1.344-6.906-.815-2.569.532-5.074 1.81-6.612 3.644-.593.707-1.111 1.49-1.542 2.319h-.831c.487-1.005 1.094-1.952 1.802-2.797h.001c1.648-1.965 4.312-3.33 7.033-3.894 2.73-.566 5.534-.326 7.46.92l.616.442c1.385 1.097 2.229 2.54 2.533 4.206a7.01 7.01 0 0 1 .374 1.123h-.253-.131-.384-.228c-.058-1.384-.489-2.631-1.293-3.665l-.015-.019-.042-.053-.001-.002-.015-.018-.03-.036-.014-.018-.046-.054-.015-.018-.03-.036-.016-.017-.015-.018-.031-.034-.001-.001-.016-.018-.031-.035-.016-.017-.016-.018-.005-.005-.025-.026-.038-.041-.016-.016-.047-.048-.001-.001-.005-.005-.005-.005-.047-.047-.018-.018-.044-.042-.01-.01-.007-.007-.053-.049-.003-.004h0l-.059-.053-.006-.006-.003-.003-.002-.002-.052-.046-.008-.008-.01-.008-.055-.048-.002-.002-.003-.002-.06-.051-.005-.004-.005-.004-.057-.047-.007-.006-.012-.01-.057-.046-.562-.401zM68.868 76.8h-.295-.549-.006l.002-.003c-.34-.266-.788-.48-1.311-.572h-.002c-.651-.115-1.268-.031-1.74.198a1.69 1.69 0 0 0-.518.377h-.464-.016-.405-.454c-.155-.348-.211-.722-.145-1.098.115-.653.572-1.173 1.217-1.486.606-.294 1.384-.405 2.191-.262v.001l.001-.001c.81.143 1.483.526 1.936.979.49.49.735 1.079.648 1.576l-.001.001a1.31 1.31 0 0 1-.089.29zM39.372 12.587c1.296-2.002 1.535-4.967.933-7.877-.343-1.655-.958-3.287-1.806-4.71h.855c.78 1.404 1.35 2.974 1.679 4.562.639 3.086.369 6.256-1.038 8.43l-.499.696c-1.238 1.564-2.869 2.516-4.75 2.858-.988.427-2.076.649-3.236.666-2.47.036-5.266-.868-8.113-2.711-.635-.41-1.275-.87-1.917-1.379l-.446-.362c-2.958-2.482-4.662-5.369-5.226-8.148-.326-1.606-.271-3.176.142-4.612h.388.388.835.763c-.301 1.236-.321 2.574-.043 3.942.532 2.62 2.153 5.355 4.975 7.723l.429.351 1.861 1.338c2.721 1.761 5.374 2.625 7.701 2.591 1.515-.022 2.894-.428 4.062-1.218l.028-.018.218-.156.001-.001.027-.02.107-.082.026-.021.027-.021.03-.024.041-.033.032-.027.045-.037.041-.035.036-.031.032-.028.047-.042.029-.026.048-.044.029-.026.048-.046.024-.022.052-.051.018-.017.054-.054.022-.022.048-.05.026-.027.048-.05.018-.019.059-.064.004-.004.005-.006.061-.069.003-.003.002-.001.065-.075h0l.002-.002.004-.005.062-.073.001-.001.001-.002.003-.003.061-.074.003-.003.001-.001.004-.006.062-.077.458-.641zM25.126 3.321l-.006-.002-.014-.005-.065-.026-.003-.002-.031-.013-.009-.004-.008-.003-.028-.012-.004-.002-.028-.013h-.002l-.03-.014-.011-.005-.029-.013-.007-.004-.03-.014-.006-.003-.015-.007-.022-.012-.007-.003-.025-.013-.011-.006-.02-.01-.028-.015-.002-.001-.035-.019-.003-.002-.027-.015-.019-.01-.014-.008-.019-.011-.028-.017-.002-.001-.027-.016-.018-.011-.009-.005-.024-.015-.005-.003-.023-.015-.011-.007-.024-.015-.009-.007-.025-.016-.008-.006-.026-.017-.021-.015-.018-.013-.027-.019h-.001l-.032-.023-.004-.003-.028-.021-.003-.002-.028-.022-.002-.002-.029-.022-.002-.001-.029-.024h0l-.029-.024h-.001l-.028-.024-.002-.001-.027-.023-.002-.002-.025-.023-.003-.002-.025-.022-.003-.004-.024-.021-.004-.004-.022-.021-.005-.004-.021-.021-.005-.005-.02-.019-.001-.002-.019-.019-.006-.006-.014-.015-.015-.016-.003-.003-.02-.021-.003-.003-.015-.016-.008-.01-.006-.006-.014-.016-.008-.01-.014-.016-.004-.004-.012-.015-.004-.005-.011-.013-.013-.017-.005-.006-.015-.019-.007-.009-.011-.014-.01-.014-.011-.016-.005-.007-.014-.018-.006-.01-.01-.014-.009-.013-.003-.004-.011-.017-.005-.009-.012-.018-.002-.003-.01-.018-.005-.007-.01-.018-.005-.008a.49.49 0 0 1-.024-.045l-.004-.006-.002-.004-.011-.022-.002-.004-.011-.022-.001-.003-.011-.023-.001-.002-.01-.024v-.001l-.01-.025h0l-.01-.025c-.19-.523-.034-1.212.407-1.843L23.822 0h.977a2.96 2.96 0 0 0-.377.437c-.304.434-.424.87-.317 1.165.132.363.662.802 1.348 1.049.266.096.553.161.847.177.352-.231.639-.511.843-.812.315-.466.428-.98.263-1.433-.084-.23-.233-.426-.43-.583h.524.449 1.179.781c.16.634-.002 1.309-.407 1.908-.423.624-1.117 1.168-1.982 1.483-.791.288-1.616.212-2.317-.041l-.077-.029zm8.006 1.432c-.385.419-.679 1.013-.801 1.703-.127.723.11 1.428.474 1.971.211.315.458.572.695.74.32-.396.579-.927.689-1.548v-.003c.132-.749.035-1.46-.229-2.004-.195-.402-.481-.708-.828-.859zm-.177 4.925l-.013-.01-.009-.007-.004-.003-.013-.011-.01-.008-.003-.002-.013-.011-.011-.009-.002-.001-.012-.011-.012-.01-.001-.001-.013-.011-.013-.011h0l-.012-.012-.013-.011-.001-.001-.012-.01-.013-.012-.002-.002-.01-.009-.013-.012-.003-.003-.009-.009-.013-.012-.004-.003-.009-.009-.012-.012-.005-.004-.008-.008-.012-.012-.006-.006-.007-.007-.012-.012-.007-.007-.005-.005-.013-.013-.007-.008-.005-.005-.012-.013-.009-.008-.003-.004-.013-.013-.009-.01-.003-.003-.012-.014-.01-.011-.002-.002-.012-.013-.011-.013-.001-.001-.024-.027-.012-.013-.012-.014-.008-.009-.004-.005-.012-.014-.001-.002-.045-.054-.004-.004h0l-.019-.025-.005-.005-.007-.009-.011-.015-.005-.006-.018-.023-.006-.008-.016-.022-.007-.009-.004-.006-.019-.025-.004-.005-.019-.026-.002-.004-.041-.058-.002-.002v-.002l-.011-.015-.011-.016c-.457-.683-.754-1.579-.59-2.511l.005-.029.003-.014.003-.014.005-.028v-.001l.006-.028.002-.013.003-.015.006-.027v-.001l.003-.011.006-.028v-.001l.004-.016.006-.026v-.001l.007-.028.003-.012.001-.004.008-.034.001-.003v-.002l.007-.027.003-.012.005-.016.006-.024.001-.003.007-.027.006-.021.002-.006.007-.024.001-.003.008-.027.007-.022.001-.004.007-.024.001-.003.009-.026.003-.01.005-.017.008-.022.001-.004.009-.026.003-.009.006-.017.008-.022.001-.004.009-.026.004-.009.006-.017.008-.021.001-.004.01-.026.003-.008.007-.017.008-.021.002-.004.01-.026.008-.018.002-.007.009-.02.002-.005.01-.024.004-.008.016-.036.002-.006.011-.024.003-.007.008-.018.002-.003.009-.021.012-.024.003-.006.008-.018.009-.018.003-.006.011-.024.003-.005.009-.018.009-.017.003-.007.013-.023.002-.005.01-.018.009-.017.003-.006.013-.023.002-.005.01-.018.009-.016.004-.007.013-.023.002-.004.011-.018.009-.015.004-.007.013-.023.002-.003.012-.019.008-.014.005-.008.014-.021.002-.004.011-.018.009-.014.005-.008.014-.021c.147-.224.311-.425.49-.597.573-.556 1.288-.836 2.011-.708s1.301.635 1.649 1.353c.33.679.453 1.551.294 2.457v.001c-.161.908-.59 1.663-1.098 2.171-.544.544-1.196.817-1.744.72h-.001c-.269-.047-.574-.201-.87-.435zM38.499 76.8c-.651-1.093-1.44-2.062-2.347-2.824h-.001l-.11-.091-.001-.001-.109-.089-.003-.003-.035-.027-.191-.15-.002-.002-.107-.081-.008-.006-.043-.032-.068-.051-.048-.035-.071-.052-.039-.028-.077-.055-.058-.041-.058-.04-.056-.038-.065-.045-.052-.035-.068-.045-.06-.04-.059-.039-.06-.039-.064-.041-.046-.029-.08-.05-.039-.024-.084-.051-.046-.028-.075-.045-.058-.034-.066-.039-.056-.033-.072-.041-.055-.031-.07-.039-.06-.033-.067-.037-.053-.029-.081-.043-.041-.022-.083-.043-.056-.029-.074-.038-.051-.026-.08-.04-.05-.024-.08-.039-.058-.028-.066-.031-.067-.031-.072-.034-.055-.025-.073-.033-.066-.03-.063-.027-.069-.03-.071-.031-.053-.022-.083-.034-.059-.025-.066-.027-.071-.028-.065-.026-.07-.027-.063-.024-.077-.029-.056-.021-.074-.027-.068-.025-.068-.025-.066-.023-.071-.024-.067-.023-.069-.023-.069-.023-.069-.022-.064-.021-.077-.024-.058-.018-.081-.024-.054-.016-.083-.025-.061-.017-.073-.021-.068-.018-.073-.02-.065-.017-.071-.019-.077-.019-.059-.016-.08-.019-.061-.015-.07-.016-.074-.017-.063-.014-.075-.017-.063-.013-.078-.016-.064-.013-.076-.015-.054-.011-.089-.016-.049-.009-.088-.016-.059-.01-.081-.013-.05-.008-.095-.015-.028-.004-.11-.016-.035-.005-.106-.015-.04-.005-.095-.012-.055-.006-.089-.01-.034-.004-.103-.01-.046-.005-.096-.009-.026-.002-.114-.009-.011-.001-.128-.009h-.001l-.133-.008c-2.968-.164-5.832.731-7.755 3.022v.001l-.141.172v-.001c-.707.892-1.2 1.915-1.469 3.019h-.763-.835-.388-.388a8.54 8.54 0 0 1 1.516-2.955v-.002l.153-.187c1.398-1.666 3.243-2.653 5.266-3.071 1.498-.605 3.157-.834 4.845-.741 3.158.175 6.42 1.482 8.899 3.562h.001c1.075.903 1.992 2.075 2.724 3.394h-.855zm-8.59 0h-.781-1.179-.449-.524c-.191-.152-.427-.268-.693-.344a2.91 2.91 0 0 0-.9-.102 3.34 3.34 0 0 0-.584.446h-.977l.029-.041a4.11 4.11 0 0 1 1.91-1.405v.001h.001l-.001-.001c.866-.315 1.746-.345 2.471-.139.762.217 1.359.693 1.613 1.378l.004.012h-.002.002c.024.064.044.129.06.195zm31.898-51.361c.079-1.566-.764-3.338-2.07-4.803-1.317-1.479-3.096-2.633-4.87-2.946l-.077-.013-.03-.005-.008-.002-.058-.009-.016-.002-.013-.002-.169-.025-.018-.002-.082-.011-.012-.001-.078-.009-.009-.001-.008-.001-.082-.009-.014-.001-.079-.008-.009-.001-.01-.001-.081-.007h-.006l-.081-.007-.027-.002-.079-.005h-.004l-.079-.005-.03-.001-.079-.004h-.012l-.087-.004h-.003 0-.002l-.09-.002h-.007l-.077-.002h-.017-.014l-.073-.001h-.01-.004l-.086.001h-.01l-.184.003h-.006-.009l-.084.003h-.009l-.169.008-.03.001-.075.005-.024.002-.08.005h-.004l-.005.001-.082.006-.016.002-.083.007-.019.002-.084.008h-.001l-.096.011h0l-.088.01-.025.004-.079.01h-.004l-.075.011-.03.004-.07.01-.012.002-.014.002-.064.01-.032.006-.065.011-.032.005-.168.031-.009.002-.08.015-.029.006-.073.016h0a9.19 9.19 0 0 0-2.24.781c-1.747.883-3.085 2.335-3.426 4.269l-.023.144c-.231 1.566.276 3.152 1.425 4.453 1.171 1.324 3.006 2.355 5.412 2.779l.364.059 1.518.153c2.148.109 3.955-.273 5.275-1.06 1.217-.727 2.019-1.805 2.284-3.165v-.004l.001-.003.001-.004.004-.021v-.004l.001-.003.001-.004v-.003l.001-.004.001-.003v-.004l.001-.003.001-.004v-.004l.001-.003.001-.004v-.003l.001-.004v-.003l.001-.004.001-.003h0l.001-.008.001-.003v-.004l.001-.003v-.004l.001-.003.001-.007.001-.004.002-.011v-.003l.001-.004v-.004l.001-.003.001-.004v-.003h0l.001-.004v-.003l.001-.004v-.004l.008-.046v-.004l.001-.004.051-.512zm-1.514-5.298c1.427 1.601 2.346 3.565 2.256 5.333l-.057.585c-.199 1.35-.837 2.472-1.831 3.319-.439.588-1.006 1.089-1.685 1.494-1.445.863-3.397 1.282-5.694 1.165l-1.588-.159-.384-.062c-2.58-.455-4.563-1.575-5.84-3.02-1.298-1.469-1.869-3.269-1.606-5.053l.026-.164c.258-1.462 1.01-2.675 2.061-3.613.678-.865 1.577-1.563 2.602-2.082 1.917-.97 4.279-1.309 6.441-.928 1.945.343 3.879 1.591 5.299 3.185zm-4.516 2.96c-.056.332-.022.717.118 1.101.156.429.507.736.875.917a1.97 1.97 0 0 0 .493.17c.028-.292-.007-.622-.127-.954v-.001c-.166-.454-.444-.814-.76-1.027-.195-.132-.401-.206-.599-.206zm1.256 2.893l-.018-.004-.009-.002-.007-.002-.002-.001-.009-.002-.009-.002-.005-.001-.005-.001-.009-.003-.009-.002h-.002l-.007-.002-.009-.003-.009-.002h-.001l-.009-.003-.009-.002-.009-.003-.009-.003-.01-.002-.036-.011-.01-.003-.018-.006-.009-.003-.007-.002-.003-.001-.009-.003-.009-.003-.004-.001-.005-.002-.01-.003h0l-.018-.007-.009-.003-.009-.003h-.001l-.009-.003-.009-.004-.009-.003-.01-.004-.009-.003-.003-.001-.006-.003-.009-.003-.01-.004h-.001l-.008-.004-.009-.003-.008-.003-.001-.001-.01-.004-.009-.004-.005-.002-.004-.001-.009-.004-.01-.004-.002-.001-.007-.003-.009-.004-.009-.004h-.001l-.008-.004-.01-.004-.007-.004-.002-.001-.009-.004-.009-.004-.005-.002-.004-.002-.009-.005-.01-.004-.002-.001-.007-.003-.009-.005-.009-.004c-.52-.256-1.018-.7-1.247-1.331l.007-.002-.007.002-.005-.012-.004-.012-.002-.004-.002-.008-.004-.012-.003-.009-.002-.003-.004-.012-.004-.012v-.001l-.004-.011-.004-.012-.001-.005-.002-.007-.004-.012-.003-.01-.001-.002-.004-.012-.003-.012-.001-.002-.003-.01-.004-.012-.002-.007-.001-.005-.004-.012-.003-.011v-.001-.001l-.007-.024-.001-.003-.002-.009-.003-.012-.002-.007-.001-.005-.003-.012-.003-.012H55.1l-.003-.012-.003-.012v-.004l-.002-.008-.003-.012-.002-.008-.001-.004-.003-.012-.002-.012-.001-.001-.002-.011-.003-.012-.001-.005-.001-.007-.003-.012-.002-.009v-.003l-.003-.012-.004-.024-.002-.012-.002-.006-.001-.006-.002-.012-.002-.01v-.002l-.002-.012-.002-.012-.002-.012-.002-.012-.001-.007-.001-.004-.001-.012-.002-.012h0l-.002-.012-.002-.012v-.004l-.001-.008-.002-.012h0l-.001-.012-.002-.012-.002-.023-.002-.012-.001-.012-.001-.012-.001-.009v-.003a2.62 2.62 0 0 1 .079-.966c.157-.551.505-.983 1.008-1.167s1.046-.074 1.521.247c.44.298.822.784 1.042 1.389v.001c.221.607.224 1.215.094 1.702-.144.537-.46.946-.849 1.087-.229.083-.546.088-.884.013zm-7.512-3.345a2.02 2.02 0 0 0-.232.76c-.028.315.032.569.161.678.175.147.59.212 1.037.132.162-.029.326-.079.48-.152a1.9 1.9 0 0 0 .187-.672c.024-.338-.069-.638-.284-.818l.003-.003-.003.003c-.216-.181-.527-.221-.856-.138-.164.041-.331.112-.493.21zm.533 2.341h-.015-.006l-.021-.001-.041-.002-.021-.002h0l-.021-.001-.02-.002h0l-.021-.002-.02-.002-.018-.002h-.003l-.012-.002-.008-.001-.02-.002h0l-.02-.003-.018-.002h-.002l-.016-.003h-.003l-.02-.003-.039-.007-.019-.003-.001-.001-.019-.003-.008-.002-.011-.002-.005-.001-.014-.003-.018-.004-.005-.001-.014-.003-.012-.003-.007-.002-.053-.013-.001-.001-.016-.004h-.002l-.018-.006-.014-.004-.003-.001-.012-.003-.006-.002-.017-.005-.002-.001-.015-.005-.009-.003-.008-.003-.015-.005-.002-.001-.017-.005-.013-.005-.003-.002-.012-.004-.005-.002-.016-.006-.001-.001-.015-.006-.008-.003-.007-.003-.015-.006-.001-.001-.015-.007-.005-.002-.01-.005-.011-.005-.004-.002-.015-.007-.002-.001-.012-.006-.002-.001-.011-.006h-.002l-.013-.008h-.001l-.014-.008-.005-.002-.009-.005-.01-.006-.003-.002-.013-.008-.002-.001-.011-.007h0l-.013-.008-.012-.008-.001-.001-.012-.008-.005-.003-.007-.005-.009-.007-.003-.002-.012-.009-.002-.001-.009-.007-.002-.002-.008-.007-.012-.009-.01-.009-.005-.004-.001-.001-.012-.011-.001-.001-.002-.001-.01-.01-.003-.002-.007-.007-.007-.007-.002-.003-.01-.009-.001-.002-.009-.008-.001-.002-.008-.008-.009-.011h0-.001l-.012-.014-.006-.006-.007-.01-.002-.001-.008-.011-.003-.003-.006-.008-.006-.008-.003-.003-.008-.011-.001-.002-.007-.009-.001-.001-.008-.011-.008-.012h0l-.008-.011-.003-.006-.005-.006v-.001l-.007-.011-.008-.013-.002-.003-.005-.009-.002-.003-.006-.009-.007-.013-.001-.002-.006-.011-.004-.007-.003-.005-.007-.013v-.001l-.007-.012-.003-.006-.003-.008-.006-.011-.001-.002-.006-.013-.002-.005-.004-.009-.007-.014-.006-.013v-.003l-.005-.011-.004-.009-.002-.005-.006-.014-.005-.015-.003-.006-.003-.008-.004-.013-.001-.001-.005-.015-.01-.029-.004-.015-.009-.03-.005-.016-.008-.03h0l-.003-.014-.001-.002-.003-.015-.008-.032-.003-.015v-.003l-.003-.013-.009-.049-.001-.007-.002-.009-.002-.015v-.001l-.003-.017a2.1 2.1 0 0 1-.01-.478c.043-.502.255-1.073.67-1.568l.001-.001c.414-.493.94-.82 1.454-.949.556-.14 1.104-.054 1.513.289l-.002.003.003-.003c.409.344.589.87.548 1.441-.038.529-.269 1.103-.682 1.597h-.001c-.384.457-.915.703-1.433.796a2.71 2.71 0 0 1-.564.04zm20.598 17.616c-1.599-1.77-4.401-2.768-7.366-2.939-2.986-.172-6.121.496-8.355 2.061l-.116.082-.002.001-.114.083-.003.002-.111.082-.006.004-.108.082-.002.002-.066.051-.045.035-.009.006-.046.037-.063.05-.043.034-.07.056-.05.042-.059.048-.049.041-.065.055-.04.034-.067.058-.052.044-.057.051-.05.044-.058.052-.06.054-.044.04-.059.054-.051.048-.046.044-.059.056-.047.045-.058.056-.045.044-.058.057-.046.047-.056.056-.045.046-.057.058-.041.042-.063.066-.035.037-.061.065-.048.052-.047.051-.053.058-.047.052-.044.05-.053.06-.045.051-.048.055-.051.06-.043.05-.048.057-.045.054-.05.061-.043.053-.042.052-.054.066-.037.047-.049.062-.046.059-.041.053-.044.058-.048.064-.035.047-.054.072-.033.045-.05.069-.036.05-.05.071-.032.045-.05.071-.035.051-.044.065-.038.056-.043.064-.039.059-.039.06-.038.058-.041.064-.038.059-.038.062-.039.062-.04.065-.031.051-.045.075-.03.05-.044.076-.029.049-.043.075-.027.048-.041.072-.033.06-.032.058-.035.065-.04.075-.025.048-.041.078-.026.05-.038.075-.028.055-.029.058-.037.074-.026.055-.033.069-.031.066-.03.064-.03.064-.029.064-.033.074-.024.054-.03.071-.028.063-.023.056-.031.073-.026.064-.027.067-.025.063-.027.068-.029.076-.021.054-.022.059-.029.078v.001l-.044.123-.003.008-.043.126-.002.006-.043.127c-.927 2.826-.804 5.825.911 8.275l.006.006-.001.001.126.173c1.438 1.936 3.692 3.099 6.33 3.261 2.671.165 5.733-.693 8.75-2.806l.449-.324 1.773-1.449c2.405-2.172 3.926-4.511 4.496-6.767.372-1.473.336-2.912-.127-4.246v-.001l-.031-.089-.003-.008-.03-.08-.01-.025-.018-.049-.013-.031-.004-.011-.021-.051-.012-.032-.004-.007-.022-.055h-.001l-.013-.031-.002-.005-.025-.057-.014-.031-.014-.031-.013-.028-.001-.002-.014-.031-.014-.031-.014-.028-.027-.056-.016-.033-.03-.059-.013-.027-.034-.066-.014-.025-.036-.068-.01-.019-.041-.074h-.001l-.003-.006-.005-.008-.039-.068-.014-.024-.043-.074-.003-.004-.003-.006-.048-.078h0l-.003-.004-.003-.006-.048-.076-.002-.003-.002-.003-.007-.01-.049-.075-.001-.003-.001-.001-.056-.083v-.001l-.002-.002-.002-.003-.055-.08-.001-.002-.001-.001-.004-.005-.053-.075-.004-.006h-.001l-.005-.008-.057-.078-.499-.608zm-7.325-3.681c3.147.181 6.14 1.262 7.875 3.183l.545.664c1.19 1.601 1.688 3.422 1.531 5.327.158 1.065.091 2.172-.193 3.296-.605 2.396-2.202 4.863-4.719 7.137l-1.829 1.496-.467.336c-3.164 2.215-6.392 3.114-9.219 2.94-2.86-.176-5.312-1.446-6.883-3.561l-.142-.198c-1.248-1.781-1.724-3.819-1.604-5.882-.196-1.602.012-3.263.538-4.869.986-3.004 3.094-5.817 5.745-7.674 2.376-1.664 5.685-2.376 8.822-2.195zm-1.858 7.681c.304.48.802.918 1.438 1.215l-.002.003.002-.003c.664.309 1.407.262 2.026.051.359-.122.671-.295.895-.479a3.41 3.41 0 0 0-1.303-1.06l-.017-.007c-.689-.321-1.401-.411-1.995-.297-.439.084-.808.281-1.044.577zm-3.456 7.366l-.002.003-.024.031-.003.004-.022.03-.004.006-.022.028-.005.006-.022.027-.005.007-.021.026-.007.008-.02.025-.003.003-.016.02-.012.013-.018.021-.008.01-.016.018-.016.017-.004.005-.017.019-.005.005-.022.024-.002.003-.021.022-.015.016-.01.01-.019.019-.011.011-.021.022-.006.006-.021.021-.006.006-.013.012-.017.017-.012.011-.009.008-.017.017-.009.007-.023.022-.001.001-.02.018-.01.009-.008.007-.019.017-.003.002-.022.019-.001.001-.02.017-.01.008-.007.006-.024.02-.006.005-.025.02-.006.005-.026.02-.004.004-.027.02-.004.003-.028.021-.002.002-.029.021-.002.002-.03.021h0l-.031.022h0l-.031.021-.001.001-.029.02-.003.001-.031.021-.028.017-.004.003-.027.016-.005.003-.025.015-.006.004-.025.014-.001.001-.029.016-.001.001-.021.012-.009.005-.009.004-.022.012-.009.005-.008.004-.021.011-.003.001-.019.01-.012.006-.019.008-.004.003-.02.009-.011.005-.015.007-.021.009-.007.003-.022.009-.01.004-.022.009-.007.003-.022.009-.009.003-.018.007-.016.006-.011.003-.017.006-.014.005-.017.006-.011.003-.018.006-.003.001-.021.006-.004.001-.023.006-.003.001-.022.005-.007.002-.006.002-.011.002-.015.004h-.002l-.023.005-.005.001-.024.004-.003.001-.025.004h-.003l-.01.002-.017.002-.026.004h0l-.027.002c-.554.049-1.18-.28-1.676-.871v-.001h-.001l-.001-.001v-.001l-.001-.001h0l-.001-.001-.001-.001-.001-.001v-.001l-.001-.001-.001-.001-.001-.001h0l-.001-.001v-.001l-.001-.001-.002-.002h0l-.001-.001-.001-.001v-.001h-.001v-.001l-.001-.001h-.001v-.001l-.001-.001v-.001h-.001l-.001-.001v-.001h0l-.001-.001h0l-.001-.001-.001-.001h0l-.001-.001v-.001l-.001-.001h-.001v-.001l-.001-.001v-.001h-.001l-.001-.001v-.001h-.001v-.001l-.001-.001v-.001h-.001l-.001-.001v-.001l-.001-.001h0l-.001-.001-.001-.001h0l-.001-.001c-.443-.547-.789-1.32-.866-2.212v-.001c-.08-.915.12-1.774.507-2.422.41-.684 1.029-1.14 1.761-1.204s1.419.278 1.941.881c.494.57.84 1.382.92 2.298.074.839-.213 1.617-.639 2.229l-.049.069zm-3.571-1.229c.133.461.351.856.605 1.16.34.404.729.633 1.041.606.385-.034.945-.432 1.363-1.031a3.02 3.02 0 0 0 .389-.771c-.132-.4-.328-.749-.566-1.024-.367-.425-.835-.666-1.316-.624s-.898.361-1.186.843a2.89 2.89 0 0 0-.33.841zm-9.283-14.634c.154-3.024-1.46-6.43-3.962-9.238-2.515-2.822-5.918-5.027-9.319-5.627-3.837-.676-8.021-.077-11.412 1.639l-.149.076-.008.004-.01.006c-.046.023-.091.047-.136.071l-.021.012-.119.064-.019.01-.019.011-.123.068-.035.02-.094.054-.018.01-.051.029-.057.034-.018.01-.018.011-.069.041-.002.001-.018.011-.017.011-.018.01-.018.011-.088.054-.017.011-.018.011h0c-2.786 1.726-4.857 4.293-5.438 7.588l-.045.278c-.447 3.032.532 6.1 2.752 8.612 2.241 2.535 5.747 4.507 10.334 5.316l.691.112c.993.146 1.953.242 2.877.289 4.092.208 7.544-.524 10.073-2.033 1.402-.837 2.52-1.915 3.306-3.206l.001-.001.004-.008a3.41 3.41 0 0 0 .057-.095l.009-.015.051-.089.011-.018.054-.097.003-.006.003-.005.053-.098.011-.022.046-.086.012-.025.045-.089.01-.019.048-.101.002-.004.001-.001.002-.006.05-.105.005-.011.045-.1.007-.016.045-.104.002-.005.003-.007.045-.11.002-.003.043-.109.006-.016c.014-.034.026-.068.039-.102l.006-.017.042-.112v-.001-.001l.039-.113.007-.019.035-.105.004-.012c.012-.036.023-.073.034-.109l.003-.009.002-.007.035-.116.001-.002.033-.117.005-.017c.01-.035.019-.07.028-.105l.005-.018.03-.117.001-.003h0l.001-.004.029-.123.001-.003c.01-.041.019-.082.028-.124l.001-.007c.009-.038.017-.078.025-.117l.002-.009.002-.008.024-.122v-.002l.023-.126.002-.008.021-.127v-.002l.021-.133a10.56 10.56 0 0 0 .098-.993zm-3.406-9.732c2.622 2.942 4.312 6.54 4.148 9.767-.018.368-.053.723-.104 1.066-.362 2.461-1.531 4.507-3.354 6.048-.8 1.081-1.838 2.002-3.083 2.745-2.654 1.583-6.251 2.353-10.492 2.137-.955-.048-1.938-.146-2.947-.294l-.712-.115c-4.761-.84-8.413-2.902-10.761-5.558-2.369-2.68-3.412-5.962-2.933-9.211.015-.104.032-.204.048-.299.472-2.674 1.852-4.893 3.782-6.609 1.243-1.593 2.898-2.88 4.786-3.835 3.532-1.787 7.886-2.412 11.874-1.709 3.572.63 7.13 2.929 9.748 5.867zm-8.492 5.028c-.18.73-.134 1.608.184 2.481.325.892 1.046 1.528 1.803 1.9.473.233.951.362 1.346.385.12-.667.077-1.457-.21-2.251l-.001-.001h0l-.002-.006c-.334-.918-.901-1.648-1.547-2.086-.505-.342-1.057-.502-1.573-.422zm3.121 5.486h-.004l-.017-.002-.022-.003a1.3 1.3 0 0 1-.087-.012l-.022-.003-.016-.002-.006-.001-.022-.004-.014-.002-.009-.002-.022-.003-.01-.002-.012-.002-.022-.004-.008-.002-.015-.003-.022-.004-.005-.001-.018-.004-.022-.004-.018-.004-.005-.001-.022-.005h-.001l-.022-.005-.019-.005-.004-.001-.023-.005-.022-.005-.023-.006-.023-.006-.023-.006-.011-.003-.012-.003-.023-.006-.021-.006-.002-.001-.023-.006-.005-.002-.018-.005-.023-.007h-.003l-.02-.006-.023-.007v-.001l-.023-.007-.024-.007-.023-.008-.017-.005-.006-.002-.023-.008-.014-.005-.009-.003-.024-.008-.011-.004-.012-.004-.023-.008-.023-.009-.023-.008-.006-.002-.018-.007-.023-.009-.003-.001-.02-.008-.023-.009h0l-.024-.009-.02-.009-.003-.001h-.001l-.039-.017-.006-.002-.024-.01-.014-.006-.009-.004-.023-.01-.011-.005-.012-.005-.023-.011-.009-.004-.015-.006-.023-.011-.005-.003-.004-.002c-.028-.012-.055-.026-.083-.039-.908-.447-1.777-1.219-2.175-2.314h0-.001l-.013-.038-.004-.012-.009-.026-.009-.024v-.001l-.017-.05v-.001l-.013-.037-.003-.012-.009-.026-.007-.024-.005-.014-.011-.036v-.002l-.001-.003-.014-.045h0l-.008-.028-.006-.022-.004-.016-.01-.035-.001-.003-.01-.037-.002-.01-.003-.008-.01-.042-.01-.038-.003-.012-.001-.004-.009-.038-.002-.008-.006-.03-.005-.02-.001-.007-.009-.039-.001-.004-.001-.005-.008-.038-.001-.007-.007-.03-.003-.02-.004-.018-.006-.032-.001-.006-.007-.037-.001-.007-.005-.031-.003-.018-.003-.019-.005-.031-.001-.007-.006-.037-.001-.005-.004-.033v-.001l-.005-.034-.001-.006-.004-.033-.005-.037v-.005l-.004-.033v-.005l-.003-.024-.001-.008-.003-.028-.001-.009-.003-.037v-.003l-.003-.034h0l-.01-.145v-.003l-.002-.03v-.005l-.001-.026-.001-.011v-.01l-.003-.095v-.007-.033-.036-.072-.001l.001-.035v-.035-.001l.002-.035a4.93 4.93 0 0 1 .011-.212l.001-.001c.002-.035.006-.069.009-.103v-.001l.004-.034a4.2 4.2 0 0 1 .133-.689c.266-.935.85-1.666 1.689-1.971s1.753-.119 2.558.426c.77.521 1.441 1.378 1.83 2.446v.002c.39 1.07.397 2.141.168 2.996-.243.905-.76 1.588-1.389 1.817-.281.102-.645.131-1.048.086zm-12.359-2.08l-.004.001-.003.001-.004.001h-.001-.002l-.004.001-.003.001-.004.001-.01.002-.004.001-.003.001h-.004l-.003.001-.004.001h-.002l-.001.001h-.004l-.003.001-.018.004-.003.001h-.004l-.003.001-.004.001h-.002l-.001.001h-.004l-.003.001-.004.001-.021.004-.003.001h-.004l-.003.001h0l-.004.001h-.003l-.029.006-.003.001h-.003-.001l-.003.001h-.004l-.003.001-.004.001h-.003l-.004.001-.003.001h-.004l-.003.001-.004.001h-.003l-.004.001c-1.144.205-2.277-.024-2.817-.477s-.791-1.337-.668-2.334v-.005l.001-.005.001-.005.003-.024h0l.001-.005.003-.025.001-.005v-.005h0l.001-.005.003-.02.001-.005.001-.005v-.005h0l.001-.005.006-.035v-.001-.005l.005-.025v-.005l.001-.004v-.001l.001-.005.005-.025v-.005l.001-.005h0l.001-.005.001-.005.004-.02.001-.006.001-.004v-.001l.001-.005.001-.005.002-.01.001-.005.001-.005.001-.005.001-.005h0a5.16 5.16 0 0 1 1.114-2.288c.732-.872 1.656-1.448 2.557-1.674.943-.237 1.868-.098 2.55.475l-.001.001.001-.001c.684.574.982 1.46.912 2.43-.066.927-.473 1.936-1.204 2.807-.61.727-1.44 1.147-2.271 1.336zm-2.469-4.178c-.28.503-.443 1.023-.502 1.504-.092.748.061 1.382.406 1.672.392.329 1.278.484 2.209.317.368-.066.74-.183 1.086-.362a3.88 3.88 0 0 0 .432-1.48c.053-.736-.159-1.396-.647-1.806s-1.177-.504-1.892-.325c-.365.092-.735.254-1.092.48zm1.39 32.546c-.534.717-1.224 1.329-2.052 1.823-1.763 1.051-4.147 1.563-6.955 1.42-.632-.032-1.282-.096-1.946-.194l-.47-.076c-3.154-.556-5.575-1.925-7.134-3.688-1.58-1.787-2.275-3.977-1.955-6.146a6.07 6.07 0 0 1 .032-.2c.314-1.781 1.231-3.259 2.513-4.401.827-1.056 1.925-1.909 3.176-2.543 2.342-1.184 5.228-1.598 7.87-1.133l.009.002c2.37.421 4.727 1.943 6.46 3.888 1.741 1.954 2.863 4.347 2.753 6.499v.001a7.2 7.2 0 0 1-.069.711c-.242 1.642-1.019 3.007-2.232 4.037zm-4.261-4.164l-.013-.003-.013-.002-.012-.002-.013-.003-.012-.002-.013-.003h0l-.013-.003-.025-.005-.013-.003-.007-.002-.006-.001-.012-.003-.012-.003h-.001l-.013-.003-.013-.003-.013-.003-.012-.004-.008-.001-.005-.002-.013-.003-.011-.003-.002-.001-.013-.003-.013-.004-.002-.001-.011-.003-.013-.003-.006-.002-.007-.002-.012-.004-.011-.003-.002-.001-.013-.004-.013-.004-.002-.001-.011-.003-.013-.004-.007-.002-.006-.003-.013-.004-.011-.003-.002-.001-.013-.005-.013-.004-.002-.001-.011-.004-.013-.004-.006-.002-.007-.003-.013-.005-.01-.003-.003-.002-.013-.004-.013-.005-.001-.001-.012-.004-.013-.005-.005-.003-.008-.003-.013-.005-.009-.004-.004-.001-.013-.005-.013-.006h-.001l-.002-.001-.023-.01-.005-.002-.008-.003-.013-.006-.009-.004-.003-.001-.013-.006-.013-.006h-.001l-.012-.006-.013-.006-.005-.002h-.001l-.02-.01-.008-.004-.005-.002-.025-.013c-.622-.305-1.217-.836-1.491-1.588v-.001h-.001l-.008-.022-.006-.017-.006-.019-.004-.01h0l-.01-.03-.001-.004-.005-.015-.007-.019v-.001l-.006-.019-.004-.015-.002-.005-.006-.019-.003-.01-.003-.01-.006-.019-.001-.005-.004-.015-.006-.019v-.001l-.005-.019-.004-.014-.002-.006-.005-.019-.002-.009-.003-.011-.005-.019-.001-.004-.004-.016-.005-.019h0l-.004-.02-.004-.014-.001-.005-.004-.02-.002-.009-.003-.01-.004-.02-.001-.004-.003-.015-.004-.019v-.001l-.004-.019-.003-.014-.001-.006-.004-.019-.001-.009-.002-.011-.004-.019v-.004l-.003-.015-.003-.019v-.001l-.001-.002-.004-.03-.001-.006-.003-.02-.001-.008-.002-.011-.003-.019v-.004l-.002-.016-.003-.018v-.001l-.002-.019-.002-.013-.003-.026v-.008l-.002-.011-.001-.019-.001-.003-.001-.016-.002-.018V58.2l-.002-.019-.001-.013v-.006l-.002-.019v-.008l-.001-.011-.001-.019v-.003l-.002-.033v-.002l-.001-.019-.001-.012v-.007-.019l-.001-.017v-.002l-.001-.019v-.002-.016-.017-.002-.019c-.002-.297.036-.582.11-.843.186-.652.596-1.163 1.188-1.378s1.232-.087 1.794.294c.524.355.981.936 1.246 1.66l.003.007a3.45 3.45 0 0 1 .113 2.043c-.17.633-.539 1.114-.991 1.279-.242.088-.568.1-.921.037zm-1.753-3.583c-.089.438-.051.953.136 1.467h0c.201.551.648.945 1.119 1.176.251.123.502.2.719.23.051-.393.014-.845-.152-1.3v-.001c-.21-.577-.564-1.034-.966-1.306-.277-.188-.575-.285-.856-.266zm-7.689-.533a2.59 2.59 0 0 0-.307.988c-.036.415.049.755.23.907.232.195.77.284 1.345.181.216-.039.434-.106.639-.207a2.41 2.41 0 0 0 .251-.885c.032-.443-.092-.837-.379-1.078l-.001-.001c-.287-.24-.697-.294-1.127-.186a2.33 2.33 0 0 0-.651.281zm1.084 2.847h-.001a3.14 3.14 0 0 0 .316-.041c.619-.111 1.255-.404 1.712-.949l.001-.001c.497-.592.774-1.281.819-1.915.049-.676-.162-1.296-.643-1.7l-.001-.001c-.481-.403-1.129-.503-1.786-.338-.616.155-1.247.548-1.745 1.141a3.45 3.45 0 0 0-.805 1.881c-.007.077-.01.152-.01.226v.025.02.006l.001.024v.002l.001.026v.001l.001.025v.004l.001.021a2.46 2.46 0 0 0 .011.126l.003.024v.001c.004.032.008.064.014.095v.004l.018.093.006.024h0l.005.023.011.044a.94.94 0 0 0-.011-.044l2.082 1.153zm-.001 0a3 3 0 0 1-.25.01h0c-.031 0-.062 0-.092-.001l-.031-.001a3.31 3.31 0 0 1-.268-.02l-.009-.001-.02-.003-.013-.002-.016-.002-.007-.001-.021-.003h-.002l-.027-.005-.025-.004H9.54c-.028-.005-.055-.01-.082-.016h-.002l-.026-.006-.015-.003-.012-.003-.008-.001-.018-.005h-.001l-.022-.005-.005-.001-.026-.007h0l-.026-.007-.004-.001-.022-.006-.007-.002-.018-.006-.012-.003-.013-.004-.006-.002-.016-.005-.003-.001-.019-.006-.006-.002-.022-.008h-.002l-.024-.009-.002-.001-.021-.008h-.001l-.019-.007-.004-.002-.009-.003-.014-.006-.012-.005H9.04l-.02-.009-.005-.002-.007-.003-.018-.008-.004-.002-.021-.01h0l-.022-.01-.003-.001-.018-.009-.006-.004-.005-.002-.015-.008-.003-.002-.011-.006-.012-.007-.002-.001-.015-.008-.01-.006-.018-.011h-.001l-.019-.012-.001-.001-.007-.004c-.011-.007-.022-.015-.033-.022l-.005-.004-.014-.009-.006-.005-.012-.009-.004-.003-.005-.004-.014-.01-.002-.003-.016-.012-.017-.015-.013-.012h0l-.009-.008-.009-.009-.002-.002-.009-.008-.003-.003-.008-.008-.007-.007-.009-.01-.001-.001-.011-.011h-.001l-.015-.017h0l-.001-.002-.013-.015-.001-.001-.013-.015-.002-.002-.004-.006-.01-.012h-.001l-.008-.011-.006-.008-.007-.009-.002-.003-.008-.011-.002-.003-.009-.012-.003-.005-.01-.014-.002-.003-.012-.017h0l-.011-.018-.002-.002-.009-.016-.003-.004-.009-.014v-.002l-.008-.013-.003-.006-.03-.055-.009-.017-.001-.002-.009-.02h-.001l-.009-.02-.001-.003-.008-.017-.002-.006-.007-.014-.001-.004-.007-.015-.001-.003-.007-.018-.002-.004-.007-.018-.006-.018-.002-.004-.007-.021-.008-.022v-.001l-.007-.02a2.31 2.31 0 0 1-.026-.089l-.001-.002 2.07 1.109z" fill="#e8e8e8" fill-opacity=".6"/></svg>