<?xml version="1.0" encoding="UTF-8"?>
<svg xmlns="http://www.w3.org/2000/svg" width="62" height="50" viewBox="0 0 1.491 1.209" shape-rendering="geometricPrecision" image-rendering="optimizeQuality" fill-rule="evenodd" xmlns:v="https://vecta.io/nano"><defs><linearGradient id="A" gradientUnits="userSpaceOnUse" x1=".817" y1="1.071" x2=".272" y2="-1.933"><stop offset="0" stop-color="#ffaec8"/><stop offset="1" stop-color="#fefefe"/></linearGradient></defs><g fill="#333"><path d="M.088.752C.075.485.371.154.668.102c.334-.059.729.104.787.434.05.279-.175.567-.599.63-.443.065-.752-.103-.768-.414zM.564.468C.625.491.65.577.619.662S.483.783.44.767.366.666.397.581.503.446.564.468zm.343-.04C.857.47.864.56.922.629s.168.067.204.037.035-.12-.023-.189S.957.386.907.428z"/><path d="M.118.751C.111.626.179.484.283.366A.73.73 0 0 1 .673.13a.79.79 0 0 1 .5.08c.13.072.228.184.254.331l.002.012a.44.44 0 0 1-.115.356c-.094.107-.241.189-.433.223l-.029.005-.122.012c-.172.009-.316-.022-.422-.085A.37.37 0 0 1 .122.792C.12.779.118.765.118.751zM.24.327C.126.455.052.613.059.754l.005.047c.02.136.096.243.214.313a.8.8 0 0 0 .455.093l.127-.012.031-.005c.206-.037.365-.126.467-.242s.149-.261.128-.404L1.484.531C1.455.365 1.346.239 1.201.159 1.044.072.845.041.663.073.508.1.353.2.24.327zm.314.169C.575.504.591.524.598.55S.605.616.592.652.551.711.521.726.465.745.45.739H.449C.437.734.425.717.419.692S.411.628.424.592L.425.591C.438.555.46.526.485.509S.533.488.554.496zm.1.038C.642.49.614.455.574.441S.49.435.453.46.387.523.369.571v.001C.352.621.352.669.362.707.373.75.399.783.429.794H.43c.029.01.075.005.117-.016s.081-.055.1-.106S.666.575.654.534zM.888.406C.856.433.841.475.845.521s.021.088.054.127.073.056.115.063c.052.01.105-.001.131-.023s.039-.064.033-.111C1.173.538 1.156.496 1.125.458S1.05.393 1.009.383a.13.13 0 0 0-.121.023zm.015.11C.901.489.909.465.926.451S.968.433.995.439s.06.027.085.057.036.06.04.088-.001.05-.013.059-.047.017-.083.011C.995.649.965.635.944.61S.905.547.903.516z" fill-rule="nonzero"/></g><path d="M.024.686C.01.419.306.088.604.035c.334-.059.729.105.787.435.049.278-.175.567-.6.629C.348 1.165.04.996.024.686zM.499.402c.062.022.086.109.056.194S.419.716.375.7.302.6.332.515.438.38.499.402zm.344-.04C.793.404.799.494.857.563s.169.066.204.036.035-.119-.023-.188S.893.32.843.362z" fill="url(#A)"/><path d="M.047.685C.041.558.109.415.215.296A.73.73 0 0 1 .608.058a.79.79 0 0 1 .482.07c.142.071.25.189.278.346l.002.012c.018.127-.023.255-.116.361s-.243.19-.437.224l-.029.005-.122.012c-.173.009-.319-.022-.426-.085S.069.846.051.727L.047.685zm.132-.42C.066.392-.007.547 0 .687l.005.047c.02.134.095.239.211.309s.27.102.452.092l.127-.012.03-.005c.205-.037.363-.125.464-.24s.148-.258.127-.399L1.414.466c-.031-.173-.149-.302-.303-.38S.772-.018.6.012C.446.039.292.138.179.265zM.507.38h0C.469.366.428.374.391.399S.327.46.31.507.293.602.303.64.338.712.367.722.449.726.493.7C.529.679.561.647.577.604h0C.594.557.595.509.584.469S.546.394.507.38zM.491.424c.023.008.04.03.048.058S.546.55.532.588C.521.62.497.644.47.659.437.678.402.685.383.678S.355.654.348.627A.18.18 0 0 1 .354.523C.368.485.391.456.418.438S.468.416.491.424zm.336-.08C.796.37.783.41.786.454s.021.085.053.124.081.059.126.064.089-.006.112-.025.035-.057.031-.099-.019-.084-.052-.122V.395C1.024.357.983.332.943.322S.859.317.827.344zM.833.45C.831.421.839.396.858.38S.903.36.932.367s.062.028.088.059h0c.026.031.039.066.041.096s-.003.049-.015.059S1.003.598.97.595.9.577.875.548.835.482.833.45z" fill="#333" fill-rule="nonzero"/></svg>