<?xml version="1.0" encoding="UTF-8"?>
<svg xmlns="http://www.w3.org/2000/svg" xmlns:xlink="http://www.w3.org/1999/xlink" width="106" height="92" viewBox="0 0 172.723 149.511" shape-rendering="geometricPrecision" image-rendering="optimizeQuality" fill-rule="evenodd" xmlns:v="https://vecta.io/nano"><defs><linearGradient id="A" gradientUnits="userSpaceOnUse" x1="67.398" y1="78.619" x2="-162.289" y2="183.475"><stop offset="0" stop-color="#ffaec8"/><stop offset="1" stop-color="#9e3759"/></linearGradient><linearGradient id="B" gradientUnits="userSpaceOnUse" x1="113.64" y1="96.533" x2="124.775" y2="26.02"><stop offset="0" stop-color="#ed82a6"/><stop offset="1" stop-color="#fefefe"/></linearGradient><linearGradient id="C" gradientUnits="userSpaceOnUse" x1="91.225" y1="93.146" x2="98.975" y2="-119.436"><stop offset="0" stop-color="#ffd1e0"/><stop offset="1" stop-color="#fefefe"/></linearGradient><linearGradient id="D" xlink:href="#C" x1="19.288" y1="51.409" x2="25.111" y2="-85.826"/></defs><path d="M160.128 68.909l1.597-9.856c3.421-5.774 4.77-13.511 3.398-23.925-.755-5.717-.446-11.554-.371-17.749.035-2.757.45-4.841-.679-7.569-1.647-3.98-7.697-5.12-12.13-3.544-6.556 2.331-12.364 6.388-18.545 9.582l-3.182 26.425 29.912 26.636z" fill="#fbc7d8"/><path d="M143.607 39.851l3.911-5.877c2.859-5.449 4.98-12.041 8.593-18.087 1.83-3.061 4.924-1.947 4.906 1.461-.04 7.709-.013 13.914.273 20.76.214 5.131-.496 10.16-2.789 14.509l-5.706 2.84-9.188-15.606z" fill="#ef84a6"/><path d="M155.617 16.736c1.576-.621 3.172.642 3.16 3.092-.039 7.71-.012 13.915.274 20.762.213 5.131-1.281 8.574-3.574 12.923l-2.832 2.545-.283.141-9.187-15.607 3.91-5.875c2.841-5.417 4.956-11.965 8.532-17.981z" fill="#fba7c3"/><path d="M79.788 9.445l40.599 135.404c-12.94 2.678-30.265 5.419-48.107 4.469-16.021-.852-30.728-3.467-45.007-7.78-15.227-4.601-22.183-15.49-24.024-24.933-3.99-20.446.024-35.094 8.258-52.502 7.985-16.882 23.185-29.164 36.808-41.935 13.156-8.773 23.038-11.984 31.473-12.723z" fill="url(#A)"/><path d="M4.288 82.743c1.699-6.125 4.169-12.193 7.219-18.64.715-1.512 1.489-2.987 2.314-4.428l10.484 14.07-20.017 8.998z" fill="#ed82a6"/><path d="M38.428 39.718l.395 4.397c-3.999 6.877-6.979 13.506-9.381 19.994L11.095 41.085 8.324 10.232l10.602 3.562 19.502 25.924z" fill="#ffb5ce"/><path d="M42.806 25.124l-.304 15.318-3.679 3.673c-5.082-3.255-8.317-8.785-11.991-13.577-3.07-4.009-5.119-8.74-8.183-12.755-1.128-1.479-2.886-3.86-4.866-4.072L8.218 9.055l11.703-3.081 22.885 19.15z" fill="#f596b4"/><path d="M124.752 11.465c-12.777-2.747-26.555-1.939-38.396-2.314-12.387-.392-24.613 4.574-30.452 13.895-9.823 15.678-20.05 37.373-25.791 57.622-4.568 16.105-1.053 35.644 9.722 48.302 10.427 12.248 28.702 16.649 44.705 18.057 20.393 1.797 41.353-2.313 60.779-8.768 9.34-3.105 17.939-10.307 22.654-18.959 6.183-11.342 5.741-25.869 2.031-38.717-4.942-17.113-13.654-33.128-23.407-48.025-5.546-8.471-11.958-18.965-21.845-21.093z" fill="url(#C)"/><path d="M110.544 130.374c13.735-1.361 21.239-12.883 27.074-24.26l-2.003.18c-6.399 3.669-13.327 7.192-24.62 7.301-9.143.086-20.286-3.183-26-9.438l-1.944.453c2.948 13.992 12.459 27.252 27.493 25.764z" fill="#ad5855"/><path d="M112.547 130.195c14.016-1.389 21.801-10.303 25.071-24.081-6.399 3.667-13.326 7.191-24.62 7.301-9.82.094-19.33-3.966-28.003-9.258 2.95 13.991 12.519 27.525 27.552 26.038z" fill="#d46360"/><path d="M29.855 70.652l-5.55 3.093c-6.135-3.21-11.564-6.95-14.867-12.216-4.303-6.86-5.315-14.562-5.532-22.067-.28-9.751-1.582-17.87-3.456-25.197C-.756 9.548.527 5.638 3.537 3.32 8.849-.771 13.624-.587 17.914 1.232c9.533 4.038 18.422 9.48 27.856 13.746 4.693 2.122 9.018 1.989 12.785 1.102-6.832 4.904-11.024 14.081-16.114 24.368-4.692-3.499-8.039-7.12-11.07-12.188-3.784-6.33-7.448-12.121-11.69-16.365-1.568-1.457-3.163-2.069-4.869-.052-2.127 2.512-1.072 5.505-.513 8.262 2.442 12.037 2.218 20.997 6.913 30.65 2.605 5.353 7.38 9.123 11.784 11.265l-3.141 8.632z" fill="url(#D)"/><path d="M29.855 70.652l-5.55 3.093c-6.135-3.21-11.564-6.95-14.867-12.216-4.303-6.86-5.315-14.562-5.532-22.067-.28-9.751-1.582-17.87-3.456-25.197-.559-2.194-.583-4.213-.144-5.98C9.377 36.232 1.334 55.59 29.855 70.652z" fill="#ffc9db"/><path d="M89.16 34.426c1.928-.359 4.291-1.197 5.578-3.203-2.243-.067-.97-.672-.993-1.018-.15-2.221-3.235-3.391-5.454-3.495-6.68-.312-11.983.942-17.198 4.036-1.755 1.041-4.204 2.85-5.414 4.494-.863 1.17-.071 1.732 1.058 1.561 4.323-.661 8.754-1.592 13.361-1.813 2.91-.141 6.212-.03 9.062-.562zm50.289 2.04c.341.059.596.014.738-.114l1.374-.791-1.37-1.591-1.319.447c-3.157-3.083-6.401-5.769-11.666-6.978-2.662-.61-4.957-1.587-7.541-.708-5.277 1.791-2.512 7.08.794 7.591 3.003.464 6.077.206 9.093.561 3.273.39 6.651 1.017 9.897 1.583z" fill="#9e513f"/><path d="M96.457 90.286c-1.588 2.569-3.328 3.433-4.916 6.003l-23.857-.665c-3.577-8.753-5.719-16.087-5.452-25.286.379-13.18 4.467-26.077 15.277-27.048 10.442-.939 15.911 11.089 18.318 26.342 1.074 6.811.541 13.758.63 20.654z" fill="#fff"/><path d="M64.401 56.184c4.424-2.567 8.824-5.196 14.202-5.57 4.841-.337 9.271 1.381 13.121 3.728-3.106-7.163-7.69-11.638-14.215-11.052-6.738.605-10.863 5.842-13.108 12.894z" fill="#fba7c3"/><path d="M121.238 73.549l16.802 17.319 9.51-1.539c7.852-9.984 3.157-46.01-13.79-47.624-5.395-.513-12.458 5.361-13.336 22.782-.201 3.996.226 6.997.814 9.062z" fill="#fff"/><path d="M147.079 53.542c-6.824-6.472-16.76-7.481-24.651-1.036 2.679-8.215 7.439-11.172 11.332-10.801 5.728.546 10.604 4.229 13.319 11.837z" fill="#fba7c3"/><path d="M73.901 95.796c-3.889-4.401-6.059-10.528-6.565-17.315-1.128-15.103 4.917-24.201 12.758-24.874 6.716-.578 12.927 6.656 14.868 11.329a91.89 91.89 0 0 1 .865 4.696c1.074 6.811.541 13.758.63 20.654-1.588 2.569-3.328 3.433-4.916 6.003l-17.64-.493zm69.564-5.806h0c2.596-5.209 3.687-10.742 3.15-16.651-1.537-16.888-8.761-22.406-15.252-21.823-4.874.438-8.713 4.352-10.986 14.408-.045 3.288.346 5.815.861 7.625l16.802 17.319 5.425-.878z" fill="#2b676b"/><path d="M84.07 93.855c6.26.315 9.996-10.304 9.761-16.772-.24-6.6-4.38-16.709-10.966-16.49-6.363.21-8.731 10.76-8.499 17.134.228 6.272 3.447 15.814 9.704 16.128zm54.161-5.039c4.921-.554 6.186-11.1 5.331-16.966-.809-5.554-5.024-14.409-9.796-13.684-6.216.945-7.965 11.29-7.056 17.525.84 5.764 5.743 13.777 11.521 13.125z" fill="#0c3033"/><path d="M135.594 71.516c-4.528 1.408-6.371-11.385-1.165-10.945 2.062.175 4.282 4.324 5.007 5.959.778 1.754 1.436 3.768 1.714 5.672.297 2.051.279 4.313.069 6.371l-.417 3.847c-.41-13.46-2.93-11.613-5.208-10.904z" fill="#224649"/><path d="M90.66 33.571c2.267-.422 4.741-1.913 4.585-4.22-.15-2.222-3.234-3.392-5.454-3.496-6.679-.313-12.979 1.485-18.194 4.577-1.755 1.042-3.429 2.573-4.639 4.219-.862 1.171.15 1.467 1.279 1.295 4.323-.659 8.754-1.591 13.362-1.813 2.909-.141 6.212-.03 9.061-.562zm50.136 2.129c.958.167 1.233-.497.255-1.468-3.381-3.358-6.702-6.352-12.345-7.648-2.66-.609-5.286-.838-7.943-.224-5.104 1.178-2.109 6.596 1.196 7.107 3.003.465 6.079.206 9.093.564 3.273.386 6.498 1.103 9.744 1.669z" fill="#bd6c5a"/><path d="M134.801 91.595c.502-10.26-8.061-15.227-22.483-19.731-11.078 2.651-20.378 9.938-21.042 21.283-.706 12.035 10.479 17.165 22.179 16.978 2.402-.039 5.863-.236 7.77-.608 11.537-2.249 13.195-10.145 13.576-17.922z" fill="#cf5d83"/><path d="M138.04 90.868c.479-10.525-10.489-20.519-23.281-19.37-9.892.889-19.775 9.082-20.416 20.718-.678 12.346 10.687 17.778 22.389 17.612 16.939-.24 20.885-9.664 21.308-18.96z" fill="url(#B)"/><path d="M121.081 88.069c-.478-1.529.041-4.476 1.635-4.613 2.17-.184 3.994 1.765 4.787 3.798.808 2.072.269 4.69-1.318 4.832-2.154.194-4.195-1.112-5.104-4.017zm-9.256.157c.319-2.307-1.022-4.861-2.902-4.706-2.214.182-3.51 2.474-3.794 4.448-.262 1.839.594 4.876 2.448 4.932 2.178.063 3.946-2.513 4.248-4.674z" fill="#cf5d83"/><path d="M105.978 91.888c.797-.918 1.349-2.151 1.505-3.273.193-1.388-.216-2.865-.983-3.789h0c-.751.876-1.215 2.056-1.371 3.143-.169 1.181.124 2.857.849 3.919zm17.167-.664c.381-.98.366-2.367-.104-3.569-.388-.998-1.027-1.975-1.831-2.69-.353.995-.39 2.264-.129 3.104.451 1.441 1.18 2.489 2.064 3.155z" fill="#9e3759"/><path d="M133.625 111.155c-3.58 7.783-11.553 14.659-21.415 15.635-10.516 1.043-20.757-9.668-23.781-17.835 7.667 4.938 16.814 7.954 24.605 7.878 7.233-.069 14.807-1.819 20.591-5.678z" fill="#33231f"/><path d="M118.329 125.375l-.158-1.74c-2.325-1.038-5.566-1.401-8.379-1.317-2.557.076-5.999.688-8.229 1.858l.785.43c3.103 1.632 6.468 2.52 9.862 2.184 2.138-.211 4.184-.7 6.119-1.415z" fill="#bd7777"/><path d="M91.977 115.381a9.08 9.08 0 0 0 1.352.996c6.596 4.001 15.054 6.111 26.934 3.146 4.487-1.12 5.964-3.337 7.486-5.357-4.604 1.777-9.74 2.62-14.715 2.667-7.791.076-16.938-2.94-24.605-7.878.762 2.056 1.98 4.275 3.548 6.426z" fill="#b3b3b3"/><path d="M128.446 113.888c-4.061 6.531-11.548 11.915-20.165 12.768 1.305.207 2.613.265 3.929.134 9.862-.976 17.835-7.852 21.415-15.635-1.605 1.07-3.347 1.979-5.181 2.733h.002z" fill="#7f423e"/><path d="M90.355 110.137h0c1.094 2.046 2.085 4.444 4.779 6.078 6.595 4.001 15.054 6.111 26.933 3.146 5.203-1.299 6.359-4.072 8.23-6.304h0c-5.205 2.539-11.347 3.72-17.263 3.776-7.149.07-15.437-2.464-22.679-6.696z" fill="#fff"/><path d="M121.94 69.064a31.58 31.58 0 0 1-.102-2.965c1.034-4.523 3.144-11.39 8.175-12.849.482-.14.978-.23 1.479-.275 3.339-.299 6.146 1.302 8.225 3.831 2.538 3.088 3.957 7.401 4.747 11.597-.838-3.648-2.198-7.249-4.399-9.927-2.079-2.53-4.886-4.133-8.224-3.833-.501.047-.998.135-1.482.276-4.899 1.421-8.242 10.093-8.419 14.145zM69.635 83.911c-.431-1.83-.703-3.696-.841-5.538-.393-5.264.021-11.188 2.32-16.019 1.509-3.177 3.96-6.038 7.461-6.995a9.17 9.17 0 0 1 1.646-.292c5.53-.476 11.326 5.6 13.34 10.311l.322 1.61c-2.035-4.701-7.807-10.726-13.315-10.251-.556.046-1.107.144-1.645.291-3.5.957-5.951 3.819-7.462 6.995-2.297 4.832-2.712 10.755-2.319 16.018a36.82 36.82 0 0 0 .493 3.87z" fill="#379299"/><path d="M84.804 73.68c-5.04 1.392-6.888-10.609-1.124-10.274 2.285.132 4.683 4.001 5.462 5.525.834 1.638 1.535 3.523 1.813 5.308.3 1.924.243 4.053-.021 5.991l-.521 3.624c-.248-12.652-3.071-10.875-5.609-10.174z" fill="#224649"/></svg>