<?xml version="1.0" encoding="UTF-8"?>
<svg xmlns="http://www.w3.org/2000/svg" xmlns:xlink="http://www.w3.org/1999/xlink" width="245" height="69" viewBox="0 0 51.304 14.547" shape-rendering="geometricPrecision" image-rendering="optimizeQuality" fill-rule="evenodd" xmlns:v="https://vecta.io/nano"><style><![CDATA[.L{fill:#333}.M{fill-rule:nonzero}]]></style><defs><linearGradient id="A" gradientUnits="userSpaceOnUse" x1="17.128" y1="11.419" x2="17.129" y2="-10.528"><stop offset="0" stop-color="#ffaec8"/><stop offset="1" stop-color="#fefefe"/></linearGradient><linearGradient id="B" xlink:href="#A"/><linearGradient id="C" xlink:href="#A" x1="17.129"/><linearGradient id="D" gradientUnits="userSpaceOnUse" x1="42.555" y1="10.793" x2="42.556" y2="-4.448"><stop offset="0" stop-color="#ffba19"/><stop offset="1" stop-color="#fefefe"/></linearGradient></defs><path d="M3.471 10.809l.066 2.925c.004.146-.025.263-.101.342s-.2.116-.371.083l-2.353-.446c-.112-.021-.194-.057-.254-.117s-.092-.148-.096-.26L.001 3.683c-.006-.084.02-.164.069-.226s.124-.109.21-.121c1.114-.161 2.117-.217 2.997-.157.886.061 1.649.241 2.274.549.651.321 1.152.776 1.492 1.376s.512 1.333.512 2.223A2.75 2.75 0 0 1 7.211 8.7c-.222.394-.544.728-.948 1.013-.367.258-.801.474-1.29.657-.456.172-.961.316-1.502.439zm.956-2.575c.117-.076.211-.162.282-.253.121-.156.177-.33.176-.506s-.061-.361-.171-.531c-.082-.127-.193-.247-.328-.352a2.08 2.08 0 0 0-.552-.302c-.163-.059-.339-.103-.522-.128l.131 2.468.493-.157c.187-.071.353-.15.491-.239z" class="L"/><path d="M3.641 10.342l.068 3.023c.006.229-.076.352-.329.304l-2.353-.446c-.175-.033-.246-.101-.252-.263L.414 3.306c-.01-.108.067-.206.176-.222 2.212-.32 3.978-.221 5.2.382 1.258.619 1.937 1.753 1.936 3.489 0 1.005-.46 1.738-1.24 2.287-.716.504-1.702.846-2.845 1.1zm1.144-2.378c.75-.485.626-1.327-.032-1.839-.332-.258-.782-.43-1.276-.469l.146 2.757c.47-.118.87-.26 1.162-.449z" fill="url(#A)"/><g class="L"><path d="M3.764 10.438l.066 2.925c.004.146-.025.263-.101.342s-.2.116-.372.083l-2.352-.446c-.113-.021-.195-.057-.254-.118s-.092-.147-.096-.26L.294 3.312c-.007-.084.02-.164.069-.227s.124-.109.21-.121c1.114-.161 2.117-.217 2.996-.156.887.061 1.649.24 2.275.549.65.321 1.152.775 1.491 1.375s.513 1.334.512 2.223a2.75 2.75 0 0 1-.343 1.374c-.222.394-.544.728-.949 1.012-.366.258-.801.474-1.289.658-.457.172-.961.316-1.502.439zm-.175 2.93l-.071-3.123.097-.021c.565-.125 1.092-.273 1.566-.451s.886-.384 1.235-.63c.375-.264.673-.572.877-.932s.312-.776.313-1.256c0-.846-.164-1.544-.481-2.103s-.782-.979-1.388-1.278c-.597-.294-1.329-.466-2.184-.524-.862-.06-1.848-.005-2.946.154-.022.003-.042.015-.054.031s-.02.038-.018.06l.361 9.661c.002.049.011.082.028.1s.062.036.125.048l2.353.446c.082.016.13.01.152-.013s.037-.087.035-.169zM4.72 7.863a1.13 1.13 0 0 0 .282-.254c.121-.155.177-.329.176-.505a.99.99 0 0 0-.171-.531 1.43 1.43 0 0 0-.329-.352 2.05 2.05 0 0 0-.552-.302 2.48 2.48 0 0 0-.521-.128l.131 2.467.492-.156c.188-.071.353-.15.492-.239zm.473-.105a1.35 1.35 0 0 1-.342.307c-.154.1-.335.187-.537.263s-.423.142-.661.202l-.143.036-.161-3.042.137.011c.255.02.5.074.724.157.23.085.44.199.617.337a1.7 1.7 0 0 1 .382.412c.135.208.209.436.21.662s-.07.455-.226.655z" class="M"/><path d="M7.105 6.856c0-.032.005-.064.013-.094a.33.33 0 0 1 .123-.169.34.34 0 0 1 .195-.061.35.35 0 0 1 .1.014l2.594.774c.069.021.127.063.168.118a.32.32 0 0 1 .065.195v6.59a.24.24 0 0 1-.005.059c-.015.081-.059.148-.12.194s-.133.071-.211.071c-.02 0-.042-.002-.066-.007l-2.588-.476a.33.33 0 0 1-.192-.113c-.047-.057-.075-.13-.075-.208l-.001-6.887zm5.175-3.069C12.348 2.459 10.875.812 9.397.551c-1.66-.293-3.623.52-3.913 2.16-.244 1.385.87 2.819 2.98 3.13 2.204.325 3.738-.511 3.816-2.054zM9.916 2.374c-.305.111-.427.543-.274.964s.675.598.893.519.365-.499.212-.921-.526-.673-.831-.562zm-1.706-.2c.249.208.217.656-.072 1s-.838.331-1.016.182-.173-.594.116-.938.723-.453.972-.244z"/><path d="M12.16 3.781c.032-.63-.307-1.342-.831-1.93S10.088.796 9.376.67c-.845-.148-1.771-.002-2.5.4-.65.359-1.142.923-1.272 1.662l-.01.058c-.093.631.111 1.27.574 1.793.47.532 1.205.945 2.169 1.115l.145.023.607.061c.859.044 1.584-.109 2.113-.425.518-.309.85-.777.937-1.369l.021-.207zm-.65-2.091c.564.632.927 1.407.891 2.103l-.022.23a2.11 2.11 0 0 1-1.053 1.541c-.57.341-1.341.506-2.25.46a6.41 6.41 0 0 1-.629-.063l-.152-.025c-1.02-.179-1.804-.622-2.308-1.192-.511-.578-.736-1.287-.632-1.989l.01-.064c.144-.819.683-1.441 1.394-1.833A4.15 4.15 0 0 1 9.418.432c.767.135 1.531.628 2.092 1.258zm-1.635.57c.191-.069.399-.028.581.095.17.116.319.305.404.54a1.11 1.11 0 0 1 .037.661c-.055.205-.175.361-.321.414-.137.05-.36.025-.565-.076s-.394-.271-.483-.514c-.085-.236-.093-.476-.037-.674.06-.211.193-.376.384-.446zm.083.228c-.114.041-.195.147-.234.285-.043.151-.036.338.032.524.064.178.209.305.361.38s.295.096.377.066c.071-.026.134-.12.169-.249a.88.88 0 0 0-.03-.517c-.068-.186-.182-.334-.312-.422-.119-.08-.249-.109-.363-.067zm-1.826-.221c-.093-.078-.225-.096-.364-.061a.86.86 0 0 0-.437.29.87.87 0 0 0-.205.474c-.012.134.015.244.074.293.066.055.212.084.376.066s.348-.088.469-.233l.001-.001a.86.86 0 0 0 .209-.481c.01-.142-.03-.27-.123-.347zm.156-.186c.156.131.224.332.208.551-.014.205-.104.428-.265.619l-.001.001c-.166.198-.406.294-.629.318s-.445-.028-.557-.121c-.119-.101-.178-.288-.16-.5a1.12 1.12 0 0 1 .261-.609c.161-.192.365-.319.564-.369.213-.053.423-.021.579.11z" class="M"/></g><path d="M7.519 6.485c0-.144.14-.234.275-.194l2.594.774c.089.026.147.108.147.197v6.59c0 .135-.127.222-.259.198l-2.589-.477c-.099-.018-.168-.104-.168-.201V6.485z" fill="url(#B)"/><path d="M12.573 3.415C12.641 2.088 11.168.441 9.69.18 8.03-.113 6.066.7 5.777 2.34c-.244 1.385.87 2.819 2.98 3.13 2.204.325 3.738-.512 3.816-2.055zm-2.364-1.412c-.305.111-.428.542-.274.964s.674.598.892.518.366-.499.212-.92-.525-.673-.83-.562zm-1.706-.201c.249.209.216.657-.072 1s-.838.332-1.016.182-.173-.594.115-.937.724-.453.973-.245z" fill="url(#C)"/><g class="L"><path d="M12.452 3.409c.032-.63-.306-1.341-.83-1.929S10.381.425 9.669.299c-.845-.149-1.771-.003-2.5.4-.651.359-1.142.923-1.273 1.662l-.009.058c-.093.631.111 1.27.574 1.793.469.531 1.205.945 2.168 1.114l.146.024.607.061c.859.044 1.583-.11 2.113-.425.518-.31.85-.777.937-1.369l.02-.208zm-.649-2.09c.563.632.926 1.406.891 2.103l-.023.23c-.098.668-.471 1.194-1.052 1.541-.57.34-1.342.506-2.25.46L8.74 5.59l-.152-.025c-1.021-.18-1.804-.622-2.308-1.193-.511-.578-.736-1.287-.633-1.988l.011-.065C5.802 1.5 6.341.879 7.052.486 7.828.058 8.813-.098 9.711.061c.767.135 1.531.628 2.092 1.258zm-1.635.57c.191-.07.399-.028.581.095.17.115.318.305.404.54s.087.472.037.661c-.055.205-.175.361-.321.414-.138.05-.36.024-.565-.076s-.394-.271-.483-.515c-.086-.235-.094-.476-.038-.673.061-.211.194-.376.385-.446zm.082.227c-.113.042-.194.148-.233.285-.044.152-.036.338.031.525a.71.71 0 0 0 .362.38c.148.072.295.095.376.066.072-.026.135-.12.17-.25.039-.146.037-.33-.03-.516s-.183-.334-.313-.422c-.118-.08-.249-.109-.363-.068zm-1.825-.221c-.093-.078-.225-.095-.364-.06a.87.87 0 0 0-.438.289.88.88 0 0 0-.205.475c-.011.134.016.244.074.292.066.056.213.085.377.067s.347-.088.469-.233l.001-.001c.127-.152.197-.324.208-.481.011-.143-.029-.27-.122-.348zm.156-.185c.156.131.224.331.208.55a1.11 1.11 0 0 1-.265.62l-.001.001c-.166.198-.406.293-.629.317s-.445-.027-.557-.121c-.119-.1-.178-.287-.16-.499a1.11 1.11 0 0 1 .261-.609c.161-.192.365-.319.564-.369.213-.053.423-.021.579.11zM7.398 6.485c-.001-.033.004-.064.013-.094a.31.31 0 0 1 .123-.169c.055-.04.124-.062.195-.062.032 0 .066.005.1.015l2.594.774c.069.02.127.063.168.117a.33.33 0 0 1 .065.196v6.59c0 .019-.002.039-.005.059-.015.081-.06.148-.12.194s-.133.07-.211.07c-.021 0-.043-.002-.066-.006l-2.588-.477c-.078-.014-.145-.055-.192-.112s-.076-.131-.075-.208l-.001-6.887zm.245-.025a.09.09 0 0 0-.003.025v6.887c0 .02.007.039.02.054s.029.025.049.028l2.588.477.023.002c.025 0 .047-.007.064-.02s.025-.027.029-.046l.001-.015v-6.59c0-.018-.006-.036-.017-.051s-.025-.025-.044-.03L7.76 6.407a.11.11 0 0 0-.031-.004c-.021 0-.041.006-.056.017s-.025.024-.03.04z" class="M"/><path d="M14.712 7.904h3.597c.082 0 .155.028.21.076s.098.119.11.197l.001.006.141 2.038c.004.684-.055 1.349-.23 1.939-.167.56-.462 1.014-.841 1.364-.472.438-1.073.712-1.713.83s-1.315.08-1.943-.106-1.208-.523-1.651-1.002c-.699-.755-1.179-2.248-1.372-3.803-.197-1.583-.099-3.239.364-4.252a2.82 2.82 0 0 1 1.141-1.288c.534-.319 1.24-.518 2.174-.563.388-.018.776.02 1.146.112s.721.236 1.036.429c.307.189.58.425.803.704.211.264.375.568.479.908.022.07.017.141-.009.204s-.071.118-.131.155L16.353 6.9c-.018.012-.038.022-.057.03-.085.036-.165.034-.234.008s-.125-.073-.161-.132c-.009-.013-.017-.029-.024-.046-.114-.271-.269-.485-.469-.625-.186-.13-.416-.199-.694-.194a1 1 0 0 0-.539.163c-.135.093-.236.223-.276.382-.169.677-.256 1.798-.139 2.841.088.79.293 1.531.668 1.987a.81.81 0 0 0 .443.276c.092.02.185.022.272.005a.54.54 0 0 0 .232-.109c.094-.077.166-.193.202-.352.038-.175.054-.367.054-.606l-.035-.788-.86.011c-.145.002-.236-.039-.296-.112s-.073-.158-.073-.26V8.243c0-.077.017-.159.071-.226s.141-.113.274-.113z"/><path d="M18.69.839c0-.032.005-.064.013-.093.021-.071.066-.129.123-.169s.124-.062.195-.062a.35.35 0 0 1 .1.015l2.594.773c.069.021.127.063.168.118a.33.33 0 0 1 .065.195v12.547a.32.32 0 0 1-.095.23c-.06.06-.142.097-.231.097a.23.23 0 0 1-.043-.004.22.22 0 0 1-.04-.007l-2.581-.476c-.078-.014-.145-.055-.192-.112s-.075-.13-.075-.208L18.69.839z"/></g><path d="M18.602 7.653h-3.598c-.181 0-.223.112-.223.218v1.137c0 .152.04.253.246.251l.974-.012c.053.738.068 1.174-.014 1.542-.156.702-.956.72-1.359.23-.903-1.097-.857-3.718-.553-4.933.097-.391.495-.629.93-.637.63-.011 1.038.328 1.276.893.041.097.163.17.3.085l1.671-1.048c.076-.047.115-.137.09-.223-.204-.665-.654-1.188-1.231-1.543-.609-.374-1.361-.559-2.113-.523-1.825.087-2.749.773-3.21 1.78-.899 1.965-.389 6.437.986 7.923 1.63 1.761 5.183 1.521 5.943-1.038.344-1.158.231-2.611.086-3.931-.016-.097-.096-.171-.201-.171z" fill="url(#C)"/><path d="M18.602 7.774h-3.598c-.048.001-.074.01-.086.025s-.016.043-.016.072v1.137c0 .051.004.089.018.107s.045.024.106.023l1.088-.013.008.114.043.918c.001.256-.017.465-.06.658-.048.215-.15.376-.283.486-.1.082-.216.134-.338.159s-.248.022-.373-.006c-.214-.047-.421-.169-.577-.358-.408-.497-.629-1.283-.722-2.114-.12-1.072-.03-2.226.145-2.926.055-.22.191-.398.374-.523s.425-.2.672-.205c.332-.006.608.079.836.238.24.168.422.417.553.729l.007.012c.008.015.022.027.039.033s.035.005.057-.004l.022-.012 1.673-1.049c.015-.009.027-.023.033-.039s.007-.03.002-.045c-.094-.308-.244-.585-.437-.827a2.86 2.86 0 0 0-.74-.648c-.294-.18-.622-.315-.967-.401a3.77 3.77 0 0 0-1.077-.105c-.892.043-1.561.231-2.061.529-.494.294-.825.699-1.045 1.181-.444.971-.536 2.578-.344 4.122.188 1.511.646 2.953 1.309 3.669.412.445.954.759 1.542.933a3.96 3.96 0 0 0 1.831.101c.597-.11 1.156-.365 1.593-.769a2.75 2.75 0 0 0 .772-1.255c.169-.567.225-1.208.222-1.87s-.068-1.355-.14-2.012c-.004-.018-.014-.035-.027-.046s-.033-.019-.054-.019zm-3.598-.241h3.598c.082 0 .154.028.21.075a.33.33 0 0 1 .11.197l.001.007.141 2.038c.004.684-.055 1.348-.231 1.939-.166.56-.461 1.014-.84 1.364-.472.437-1.074.712-1.714.83s-1.314.08-1.942-.106-1.208-.523-1.652-1.002c-.698-.755-1.178-2.248-1.371-3.803-.197-1.583-.099-3.239.364-4.253.24-.524.602-.966 1.141-1.288s1.24-.517 2.173-.562c.389-.019.777.02 1.146.111s.722.237 1.036.43c.308.189.581.425.803.703.211.265.376.569.48.908.021.07.016.142-.009.205s-.071.118-.131.155l-1.672 1.048c-.018.012-.037.021-.056.03a.32.32 0 0 1-.235.008c-.068-.025-.124-.074-.16-.132-.009-.014-.017-.029-.024-.046-.115-.271-.269-.485-.469-.625-.186-.13-.416-.199-.695-.194-.199.004-.389.061-.538.163-.136.093-.236.223-.276.382-.169.677-.257 1.798-.14 2.84.089.791.294 1.532.669 1.988.12.145.279.239.442.275.093.021.186.023.273.005a.52.52 0 0 0 .232-.109c.094-.076.166-.193.201-.351.039-.175.055-.368.055-.606l-.036-.788-.859.01c-.145.002-.237-.039-.296-.111s-.074-.158-.074-.26V7.871c0-.077.018-.158.072-.225s.141-.114.273-.113z" class="L M"/><path d="M19.104.468c0-.143.14-.234.275-.193l2.594.773c.089.027.147.108.147.197v12.546c0 .114-.092.206-.206.206-.018 0-.036-.002-.053-.007l-2.589-.477c-.099-.018-.168-.104-.168-.202V.468z" fill="url(#C)"/><g class="L"><path d="M18.983.468c-.001-.032.004-.064.013-.093.021-.071.065-.129.123-.17a.34.34 0 0 1 .195-.061c.032 0 .066.004.1.014l2.594.774c.069.021.127.063.168.118a.32.32 0 0 1 .064.195l.001 12.546c0 .09-.036.172-.096.231s-.141.096-.231.096a.33.33 0 0 1-.042-.003l-.04-.007-2.581-.476c-.078-.014-.145-.055-.192-.112a.32.32 0 0 1-.075-.209L18.983.468zm.245-.024c-.002.007-.003.015-.003.024v12.843c0 .021.007.04.02.055s.029.025.049.028l2.609.481.011.001c.024 0 .045-.01.06-.024s.025-.037.025-.061V1.245c0-.018-.006-.036-.017-.051s-.025-.024-.044-.03L19.345.391c-.01-.003-.021-.005-.031-.005-.021 0-.041.006-.056.017s-.025.024-.03.041z" class="M"/><path d="M29.014 9.374l-4.339.732.153.695c.064.243.137.459.228.635.082.157.179.278.3.35s.265.098.45.07c.146-.022.273-.06.383-.113s.2-.12.278-.199.15-.179.207-.288a1.63 1.63 0 0 0 .138-.381l.014-.044c.026-.064.073-.122.138-.159a.32.32 0 0 1 .236-.031l.056.019 1.823.731a.32.32 0 0 1 .159.128c.036.058.053.127.044.199-.045.346-.156.666-.319.957a3.03 3.03 0 0 1-.672.811c-.277.239-.599.436-.948.586a4.03 4.03 0 0 1-1.11.298c-.927.112-1.656.037-2.235-.18a2.81 2.81 0 0 1-1.344-1.052c-.629-.9-1.008-2.48-1.083-4.038-.074-1.532.145-3.051.705-3.894.343-.515.832-.924 1.391-1.207.602-.305 1.286-.465 1.956-.458.675.006 1.336.181 1.888.548.409.272.759.649 1.008 1.141.274.541.445 1.172.557 1.831.112.654.167 1.337.208 1.988v.007a.32.32 0 0 1-.075.209c-.047.055-.114.095-.195.109zM26.028 8.05l-.108-.812a3.01 3.01 0 0 0-.165-.625c-.06-.142-.147-.24-.248-.299a.55.55 0 0 0-.258-.072.69.69 0 0 0-.279.055c-.151.064-.287.179-.378.334-.138.238-.204.545-.229.862-.022.278-.012.563.01.816l1.655-.259z"/></g><path d="M29.287 8.883l-4.461.752c.111.587.224 1.118.415 1.486.183.351.446.548.876.484.316-.048.553-.169.729-.347.181-.183.306-.43.377-.726.024-.1.132-.191.281-.131l1.825.732c.083.031.137.112.126.199-.088.675-.442 1.253-.95 1.691-.537.462-1.246.765-1.993.855-1.814.219-2.841-.288-3.466-1.18-1.221-1.745-1.478-6.137-.376-7.797 1.307-1.967 4.849-2.326 6.033.012.536 1.058.671 2.477.753 3.772.001.096-.065.181-.169.198zM26.453 7.78c-.074-.72-.151-1.244-.294-1.585-.273-.65-1.065-.535-1.379.004-.297.512-.282 1.3-.223 1.878l1.896-.297z" fill="url(#C)"/><g class="L"><path d="M29.307 9.002l-4.339.732.153.696c.063.243.137.459.228.635.081.156.179.277.3.35s.265.098.45.07a1.32 1.32 0 0 0 .382-.114c.109-.052.201-.119.279-.198s.15-.179.207-.289.105-.24.138-.38a.38.38 0 0 1 .014-.044c.026-.064.073-.122.138-.159s.145-.052.235-.031a.36.36 0 0 1 .056.018l1.824.732a.32.32 0 0 1 .158.128c.037.058.054.127.045.199a2.64 2.64 0 0 1-.319.956 3.04 3.04 0 0 1-.672.812 3.71 3.71 0 0 1-.948.586c-.349.149-.725.251-1.11.298-.927.112-1.656.037-2.236-.181-.586-.22-1.017-.585-1.343-1.051-.63-.9-1.008-2.48-1.083-4.039-.074-1.531.145-3.05.705-3.894.342-.515.831-.923 1.391-1.206.601-.305 1.286-.465 1.956-.459s1.336.182 1.887.548c.41.272.759.65 1.008 1.141.274.542.445 1.172.558 1.832.112.654.166 1.336.207 1.988v.006c.001.078-.026.152-.075.21a.32.32 0 0 1-.194.108zm-4.501.514l4.461-.752c.021-.004.038-.013.05-.027s.017-.029.018-.046L29.13 6.73c-.109-.638-.273-1.246-.535-1.763-.228-.451-.549-.798-.925-1.048-.512-.34-1.127-.502-1.756-.508s-1.277.145-1.845.433c-.523.265-.98.645-1.298 1.124-.531.8-.737 2.264-.666 3.749.074 1.518.437 3.05 1.04 3.911.299.427.694.762 1.231.964.543.204 1.235.273 2.121.166a3.8 3.8 0 0 0 1.044-.28 3.43 3.43 0 0 0 .885-.547c.25-.216.461-.466.619-.746.148-.265.25-.557.29-.868.002-.014-.002-.028-.009-.04s-.023-.025-.04-.031l-1.827-.733-.022-.007c-.026-.006-.046-.003-.061.005s-.026.023-.032.039l-.004.01c-.037.158-.09.304-.158.435s-.151.248-.25.348a1.26 1.26 0 0 1-.345.246c-.132.064-.282.11-.452.135-.244.037-.444-.002-.61-.102s-.29-.251-.391-.445-.179-.425-.247-.686l-.18-.833-.022-.121.121-.021zm1.515-1.837l-.108-.813c-.045-.254-.098-.463-.166-.624-.059-.142-.147-.24-.248-.299a.53.53 0 0 0-.257-.072.69.69 0 0 0-.279.055.79.79 0 0 0-.378.334c-.139.238-.205.545-.23.862-.021.278-.011.562.01.816l1.656-.259zm.131-.854l.121.943.012.113-.113.018-.987.155-.909.143-.126.02-.013-.128c-.031-.295-.05-.644-.023-.985.027-.349.102-.692.262-.965a1.03 1.03 0 0 1 .493-.436c.121-.051.251-.077.379-.074s.258.037.372.104a.85.85 0 0 1 .351.415c.075.179.133.404.181.677z" class="M"/><path d="M33.158 6.817l-.01 2.941c.058.687.18 1.087.401 1.141a.63.63 0 0 0 .373-.018 1.03 1.03 0 0 0 .381-.255 2.53 2.53 0 0 0 .415-.57c.129-.236.239-.506.331-.798.051-.165.149-.235.271-.25.1-.012.208.02.315.063l.683.254.798.302c.07.029.126.082.161.146a.33.33 0 0 1 .033.215 7.13 7.13 0 0 1-.563 1.765c-.254.528-.568.975-.934 1.338-.378.376-.809.661-1.283.852s-.994.288-1.545.288c-.535.001-.972-.114-1.329-.324s-.633-.517-.843-.896c-.198-.356-.336-.776-.432-1.244a10.76 10.76 0 0 1-.18-1.509l-.09-1.969-.014-1.893-1.944-.267c-.082-.011-.155-.052-.205-.112s-.08-.136-.078-.22l.063-2.143c.013-.089.062-.165.129-.214s.153-.074.242-.061l1.843.282.057-2.672c0-.026.004-.052.01-.076.018-.073.059-.138.114-.183s.129-.075.208-.074a.43.43 0 0 1 .071.009l2.477.604a.33.33 0 0 1 .179.115c.044.056.07.126.07.202l-.04 2.556 3.078.472c.078.011.148.052.198.109s.079.131.079.212l.007 2.016-.001.016c-.012.089-.059.165-.125.216s-.152.076-.241.064l-3.13-.43z"/></g><path d="M33.336 6.308c-.116 2.593-.086 4.198.477 4.338.32.079.613-.051.868-.306.334-.334.593-.831.776-1.418.068-.219.245-.184.424-.111l1.481.556c.087.037.14.131.122.227-.251 1.323-.761 2.343-1.463 3.04-.735.73-1.674 1.105-2.743 1.105-1.026.001-1.666-.436-2.067-1.158-.383-.689-.534-1.635-.597-2.702l-.102-3.959-2.05-.282c-.103-.014-.181-.103-.178-.209l.061-2.129c.017-.112.122-.189.234-.172l1.978.302.061-2.81c.002-.134.12-.241.252-.208l2.478.603c.09.022.157.103.157.2l-.042 2.66 3.182.487c.099.015.174.099.175.202l.007 2.016c-.015.112-.118.191-.23.176l-3.261-.448z" fill="url(#C)"/><g class="L M"><path d="M33.451 6.446l-.011 2.941c.059.687.181 1.086.402 1.141a.64.64 0 0 0 .373-.018 1.05 1.05 0 0 0 .381-.255c.155-.156.294-.349.415-.571.129-.235.239-.505.33-.798.052-.164.15-.234.272-.249.1-.013.208.019.314.063l.683.254.799.302c.069.029.126.082.161.146s.047.139.033.215c-.126.663-.316 1.252-.563 1.764-.254.529-.569.976-.934 1.339a3.86 3.86 0 0 1-1.284.851c-.475.192-.993.289-1.544.289-.536 0-.972-.115-1.329-.325s-.633-.516-.844-.896c-.197-.356-.335-.776-.431-1.243-.095-.462-.149-.971-.181-1.51l-.089-1.968-.014-1.893-1.945-.267a.33.33 0 0 1-.205-.112c-.05-.059-.079-.136-.077-.22l.063-2.144c.013-.089.061-.164.128-.214s.154-.073.243-.06l1.842.282.058-2.672c0-.027.004-.052.01-.077.017-.073.058-.137.114-.183a.31.31 0 0 1 .208-.073c.024 0 .047.003.07.009l2.477.604c.073.018.136.059.18.115s.07.126.07.202l-.041 2.556 3.078.471c.079.012.149.052.198.11s.079.131.079.211l.008 2.017-.001.015c-.012.09-.059.166-.125.217s-.152.075-.241.063l-3.13-.429zm-.252 2.961c-.064-.747-.042-1.802.016-3.104l.006-.133 3.392.466c.023.003.045-.004.062-.017s.027-.029.031-.049l-.007-2.006c0-.02-.008-.039-.02-.054s-.031-.025-.051-.028l-3.288-.503.044-2.764c-.001-.02-.007-.038-.018-.052s-.028-.026-.046-.03L30.842.529l-.018-.002c-.018-.001-.035.006-.049.018s-.028.032-.033.053c-.002.008-.004.016-.004.024l-.063 2.949-2.114-.324c-.023-.003-.046.003-.063.016s-.028.03-.032.052l-.061 2.118c-.001.021.007.041.02.056s.032.027.052.029l2.157.297-.001.106.012 1.991.09 1.96c.031.529.084 1.026.176 1.476.091.444.221.841.406 1.174a2.07 2.07 0 0 0 .754.805c.32.188.717.292 1.207.292a3.89 3.89 0 0 0 1.454-.272 3.62 3.62 0 0 0 1.204-.799c.345-.343.644-.768.886-1.272a6.86 6.86 0 0 0 .543-1.704c.004-.02 0-.039-.009-.055s-.023-.03-.041-.038l-.785-.297-.694-.259c-.073-.03-.143-.052-.194-.046-.028.004-.053.026-.07.081-.095.307-.212.591-.349.842-.133.243-.285.455-.456.626a1.27 1.27 0 0 1-.471.312.88.88 0 0 1-.512.025c-.342-.085-.517-.558-.585-1.356z"/><path d="M50.645 9.45c.239-.013.408.207.357.435l-.661 2.89c-.033.146-.163.252-.313.262l-13.605.693c-.224.011-.375-.183-.363-.406l.151-2.837c.002-.046.029-.084.066-.103l6.028-3.167-4.399-.052a.27.27 0 0 1-.267-.272l.002-1.881a.27.27 0 0 1 .27-.237l9.652.083c.185.001.306.183.253.357-.108.35-.564 2.018-.71 2.101l-4.819 2.563 8.358-.429z"/></g><path d="M50.945 9.2c.157-.011.265.136.231.286l-.659 2.884c-.023.099-.108.168-.204.174l-13.605.693c-.149.01-.264-.124-.235-.268l.152-2.848 6.454-3.391-4.879-.057a.15.15 0 0 1-.147-.151l.003-1.877c.013-.072.076-.121.147-.12l9.652.082c.104.001.167.104.137.201l-.653 2.03-5.299 2.818 8.905-.456z" fill="url(#D)"/><path d="M40.407 13.049l-2.928.149 2.922-5.061 2.678-1.406-1.853-.022 1.24-2.148 2.828.025-2.783 4.82-.471.25.336-.017zm-3.925-.25l.143-2.678 2.014-1.058-2.157 3.736zm3.525-6.105l-1.708-.02 1.234-2.138 1.711.015-1.237 2.143z" fill="#ffdb87"/><path d="M50.938 9.078a.35.35 0 0 1 .356.435l-.66 2.89c-.034.147-.163.253-.314.263l-13.604.693c-.225.011-.376-.183-.364-.407l.151-2.837c.003-.045.029-.083.067-.102l6.028-3.167-4.4-.052a.27.27 0 0 1-.266-.273l.002-1.88c.015-.137.133-.239.27-.237l9.652.082c.185.002.306.184.252.358-.108.35-.564 2.018-.71 2.1L42.58 9.507l8.358-.429zm.015.243l-8.9.456a.12.12 0 0 1-.12-.064c-.032-.059-.009-.133.05-.164l5.297-2.817c.042-.031.509-1.654.596-1.96.006-.021.003-.043-.022-.043l-9.652-.083c-.012 0-.026.006-.026.017l-.002 1.861c.001.015.012.027.027.027l4.874.058c.128-.003.174.169.06.229l-6.393 3.359-.147 2.77c-.004.075.007.154.105.149l13.605-.693c.044-.003.083-.034.093-.076l.66-2.888c.016-.07-.028-.142-.105-.138zm-8.547 2.863c-.062.003-.11-.016-.145-.057s-.045-.093-.031-.156.046-.113.1-.16a.28.28 0 0 1 .173-.073c.063-.003.111.016.146.057s.046.093.033.154-.047.116-.101.162-.112.07-.175.073zm1.877-.67l.351.192c-.107.116-.231.21-.371.284a1.01 1.01 0 0 1-.431.122c-.166.009-.307-.026-.425-.103s-.203-.185-.253-.323-.057-.292-.02-.464a1.17 1.17 0 0 1 .149-.369c.072-.116.159-.219.259-.309a1.29 1.29 0 0 1 .331-.216c.12-.054.242-.084.366-.09.148-.008.277.019.387.081a.61.61 0 0 1 .253.256l-.442.23c-.032-.046-.073-.08-.125-.103a.36.36 0 0 0-.167-.03.51.51 0 0 0-.25.081.76.76 0 0 0-.206.194.66.66 0 0 0-.115.253.46.46 0 0 0 .007.245.34.34 0 0 0 .126.176c.06.042.133.062.219.057.063-.003.125-.019.188-.049a.64.64 0 0 0 .169-.115zm1.32.509a.69.69 0 0 1-.426-.103.64.64 0 0 1-.253-.323c-.05-.137-.057-.292-.02-.464a1.15 1.15 0 0 1 .15-.369c.071-.116.158-.219.259-.309a1.29 1.29 0 0 1 .331-.216 1 1 0 0 1 .365-.09c.166-.009.308.026.427.103a.63.63 0 0 1 .252.323.84.84 0 0 1 .019.467 1.16 1.16 0 0 1-.149.367 1.38 1.38 0 0 1-.258.307c-.101.09-.211.163-.331.217a1 1 0 0 1-.366.09zm.094-.434c.087-.004.171-.031.251-.081s.148-.114.205-.191a.65.65 0 0 0 .114-.252.47.47 0 0 0-.007-.251c-.025-.074-.067-.133-.128-.175s-.133-.061-.217-.056-.17.031-.249.081a.74.74 0 0 0-.206.193.67.67 0 0 0-.116.254.47.47 0 0 0 .008.251c.026.074.069.131.13.172s.132.059.215.055zm1.037.332l.386-1.779.44-.022-.039.18a1.16 1.16 0 0 1 .199-.151c.068-.039.139-.06.214-.064.123-.006.23.013.321.059s.162.112.215.201a1.13 1.13 0 0 1 .31-.228c.113-.055.23-.086.351-.092.155-.008.286.023.392.093a.56.56 0 0 1 .223.29c.044.124.048.263.014.417l-.207.954-.439.022.206-.953a.4.4 0 0 0-.002-.204.26.26 0 0 0-.099-.14c-.048-.034-.108-.049-.182-.045a.43.43 0 0 0-.207.065c-.065.04-.121.09-.166.153a.55.55 0 0 0-.094.208l-.206.954-.44.022.206-.954c.017-.075.016-.143-.004-.203a.26.26 0 0 0-.104-.139.29.29 0 0 0-.182-.046c-.069.004-.137.026-.201.067s-.12.093-.166.157a.56.56 0 0 0-.094.209l-.205.946-.44.023z" class="L M"/></svg>