<?xml version="1.0" encoding="UTF-8"?>
<svg xmlns="http://www.w3.org/2000/svg" width="44" height="44" viewBox="0 0 1.078 1.078" shape-rendering="geometricPrecision" image-rendering="optimizeQuality" fill-rule="nonzero" xmlns:v="https://vecta.io/nano"><circle cx=".539" cy=".539" r=".539" fill="#9c3456"/><path d="M.224.534L.587.385.745.319S.801.298.796.351C.795.372.782.449.77.531L.731.776S.728.812.701.818.631.796.623.79.506.715.466.681C.455.672.443.653.467.631L.631.475C.65.457.668.413.591.466l-.22.148S.346.63.299.616L.198.583S.16.559.224.534z" fill="#fff"/></svg>