<svg width="64" height="64" viewBox="0 0 64 64" fill="none" xmlns="http://www.w3.org/2000/svg">
<path fill-rule="evenodd" clip-rule="evenodd" d="M33.3185 7.6802C32.1498 7.22673 30.9247 7 29.643 7C28.3612 7 27.1266 7.22673 25.9392 7.6802C24.7705 8.11476 23.7244 8.75717 22.8008 9.60742C22.2837 10.0835 21.8257 10.6187 21.4268 11.2132V7.42512H5V12.1015H10.5698V26.3289H15.8569V12.1015H20.8978C20.7913 12.3036 20.6906 12.5114 20.5955 12.725C20.0678 13.9531 19.8039 15.3513 19.8039 16.9195C19.8039 18.4877 20.0678 19.8859 20.5955 21.1141C21.1421 22.3422 21.8772 23.3814 22.8008 24.2316C23.7244 25.0819 24.7705 25.7337 25.9392 26.1872C27.1266 26.6217 28.3612 26.839 29.643 26.839C30.9247 26.839 32.1498 26.6217 33.3185 26.1872C34.506 25.7337 35.5615 25.0819 36.4851 24.2316C37.4087 23.3814 38.1343 22.3422 38.6621 21.1141C39.2087 19.8859 39.482 18.4877 39.482 16.9195C39.482 15.3513 39.2087 13.9531 38.6621 12.725C38.1343 11.4968 37.4087 10.4577 36.4851 9.60742C35.5615 8.75717 34.506 8.11476 33.3185 7.6802ZM27.3811 12.6116C28.0408 12.177 28.7948 11.9598 29.643 11.9598C30.4912 11.9598 31.2451 12.177 31.9048 12.6116C32.5834 13.0462 33.1111 13.6414 33.4881 14.3971C33.8651 15.134 34.0536 15.9748 34.0536 16.9195C34.0536 17.8642 33.8651 18.7145 33.4881 19.4702C33.1111 20.2071 32.5834 20.7929 31.9048 21.2274C31.2451 21.662 30.4912 21.8793 29.643 21.8793C28.7948 21.8793 28.0408 21.662 27.3811 21.2274C26.7214 20.7929 26.1936 20.2071 25.7978 19.4702C25.4208 18.7145 25.2323 17.8642 25.2323 16.9195C25.2323 15.9748 25.4208 15.134 25.7978 14.3971C26.1936 13.6414 26.7214 13.0462 27.3811 12.6116Z" fill="#FCFCFD"/>
<path d="M38.7469 38.7897V27.2547H33.4598V38.4213C33.4598 39.4038 33.196 40.2068 32.6682 40.8303C32.1404 41.4349 31.3111 41.7467 30.1801 41.7655C29.0492 41.7844 28.2199 41.4821 27.6921 40.8586C27.1643 40.2162 26.9005 39.4038 26.9005 38.4213V27.2547H21.6134V38.7897C21.6134 40.4335 21.9998 41.8506 22.7726 43.0409C23.5454 44.2313 24.5821 45.1476 25.8826 45.79C27.1832 46.4136 28.6157 46.7253 30.1801 46.7253C31.7635 46.7253 33.196 46.4136 34.4777 45.79C35.7783 45.1476 36.8149 44.2313 37.5877 43.0409C38.3605 41.8506 38.7469 40.4335 38.7469 38.7897Z" fill="#FCFCFD"/>
<path d="M18.8539 39.895V35.2187H12.1249V31.9877H20.2676V27.3114H6.83776V46.3002H12.1249V39.895H18.8539Z" fill="#FCFCFD"/>
<path d="M51.1118 39.3262H46.4467V32.581H40.057V27.2811H59V57H54.3349V51.4167H40.1418V46.1169H54.3349V32.581H51.1118V39.3262Z" fill="#FCFCFD"/>
<path d="M40.0547 24.7682H59V19.9783H49.2458L59 9.29374V7.4232H40.0547V12.3261H49.0761L40.0547 22.8976V24.7682Z" fill="#FCFCFD"/>
<path fill-rule="evenodd" clip-rule="evenodd" d="M31.9048 12.6116C31.2451 12.177 30.4911 11.9598 29.643 11.9598C28.7948 11.9598 28.0408 12.177 27.3811 12.6116C26.7214 13.0462 26.1936 13.6414 25.7978 14.3971C25.4208 15.134 25.2323 15.9748 25.2323 16.9195C25.2323 17.8642 25.4208 18.7145 25.7978 19.4702C26.1936 20.2071 26.7214 20.7929 27.3811 21.2274C28.0408 21.662 28.7948 21.8793 29.643 21.8793C30.4911 21.8793 31.2451 21.662 31.9048 21.2274C32.5834 20.7929 33.1111 20.2071 33.4881 19.4702C33.8651 18.7145 34.0536 17.8642 34.0536 16.9195C34.0536 15.9748 33.8651 15.134 33.4881 14.3971C33.1111 13.6414 32.5834 13.0462 31.9048 12.6116ZM24.4268 8.39853C24.9058 8.11646 25.4099 7.87701 25.9392 7.6802C27.1266 7.22673 28.3612 7 29.643 7C30.9247 7 32.1498 7.22673 33.3185 7.6802C34.506 8.11476 35.5615 8.75717 36.4851 9.60742C36.6841 9.79067 36.874 9.98271 37.0547 10.1835C37.62 10.8118 38.0953 11.526 38.4805 12.3261C38.5435 12.4568 38.604 12.5897 38.6621 12.725C39.0163 13.5206 39.2557 14.3877 39.3804 15.3261C39.4482 15.8361 39.482 16.3673 39.482 16.9195C39.482 17.7246 39.41 18.4849 39.2659 19.2004C39.1294 19.8785 38.9281 20.5164 38.6621 21.1141C38.5996 21.2594 38.5344 21.4022 38.4664 21.5422C38.2317 22.0256 37.964 22.4774 37.6633 22.8976C37.4736 23.1628 37.2707 23.4154 37.0547 23.6555C36.874 23.8563 36.6841 24.0484 36.4851 24.2316C36.4767 24.2393 36.4683 24.247 36.4599 24.2547C35.5792 25.0599 34.5792 25.6857 33.4598 26.132C33.4129 26.1507 33.3658 26.1691 33.3185 26.1872C32.4005 26.5285 31.4476 26.7358 30.4598 26.809C30.2746 26.8228 30.0881 26.8318 29.9005 26.8361C29.8149 26.8381 29.729 26.839 29.643 26.839C28.7035 26.839 27.7893 26.7223 26.9005 26.4888C26.5767 26.4038 26.2562 26.3032 25.9392 26.1872C24.9632 25.8085 24.0726 25.2914 23.2676 24.6359C23.139 24.5313 23.0127 24.4231 22.8885 24.3114C22.8676 24.2926 22.8468 24.2737 22.826 24.2547C22.8176 24.247 22.8092 24.2393 22.8008 24.2316C21.8772 23.3814 21.1421 22.3422 20.5955 21.1141C20.2896 20.4022 20.0724 19.6333 19.9438 18.8072C19.8505 18.208 19.8039 17.5788 19.8039 16.9195C19.8039 16.2857 19.847 15.6797 19.9332 15.1015C20.0603 14.2489 20.281 13.4568 20.5955 12.725C20.6906 12.5114 20.7913 12.3036 20.8978 12.1015H15.8569V26.3289H10.5698V12.1015H5V7.42512H21.4268V11.2132C21.8257 10.6187 22.2837 10.0835 22.8008 9.60742C22.9939 9.42968 23.1923 9.26103 23.3961 9.10147C23.7256 8.8434 24.0692 8.60909 24.4268 8.39853ZM24.4268 5.05243C24.5767 4.98984 24.7282 4.93 24.8812 4.87291C26.4096 4.29096 28.0029 4 29.643 4C31.2776 4 32.8623 4.28913 34.3767 4.87292C35.3311 5.2246 36.2254 5.68181 37.0547 6.24247V5.4232C37.0547 4.87091 37.5024 4.4232 38.0547 4.4232H61C61.5523 4.4232 62 4.87091 62 5.4232V10.0694C62 10.3189 61.9068 10.5593 61.7386 10.7436L57.5752 15.304C56.9892 15.9459 57.4446 16.9783 58.3137 16.9783H61C61.5523 16.9783 62 17.426 62 17.9783V59C62 59.5523 61.5523 60 61 60H52.3349C51.7827 60 51.3349 59.5523 51.3349 59V54.4167H38.1418C37.5895 54.4167 37.1418 53.969 37.1418 53.4167V47.7032C36.7197 47.9897 36.2742 48.2487 35.8063 48.4798L35.7982 48.4838L35.79 48.4878C34.056 49.3313 32.1672 49.7253 30.1801 49.7253C28.2054 49.7253 26.3245 49.3288 24.5857 48.4952L24.5698 48.4876L24.554 48.4798C22.7811 47.6041 21.3296 46.3277 20.2563 44.6745C19.8877 44.1067 19.5853 43.5121 19.345 42.895H15.1249V48.3002C15.1249 48.8525 14.6771 49.3002 14.1249 49.3002H4.83776C4.28548 49.3002 3.83776 48.8525 3.83776 48.3002V25.3114C3.83776 24.7591 4.28548 24.3114 4.83776 24.3114H7.56983V15.1015H3C2.44772 15.1015 2 14.6537 2 14.1015V5.42512C2 4.87284 2.44771 4.42512 3 4.42512H24.4268V5.05243ZM6.83776 27.3114V46.3002H12.1249V39.895H18.8539V35.2187H12.1249V31.9877H20.2676V27.3114H6.83776ZM18.8569 24.2547H18.9071C18.8903 24.2294 18.8736 24.2041 18.8569 24.1786V24.2547ZM21.6134 27.2547V38.7897C21.6134 39.1703 21.6341 39.5387 21.6755 39.895C21.7156 40.2397 21.775 40.573 21.8539 40.8949C22.0456 41.6775 22.3518 42.3928 22.7726 43.0409C23.5454 44.2313 24.5821 45.1476 25.8826 45.79C27.1832 46.4136 28.6157 46.7253 30.1801 46.7253C31.7635 46.7253 33.196 46.4136 34.4777 45.79C35.5427 45.264 36.4307 44.5543 37.1418 43.6608C37.2805 43.4865 37.4125 43.3052 37.5378 43.1169C37.5546 43.0917 37.5712 43.0664 37.5877 43.0409C38.3605 41.8506 38.7469 40.4335 38.7469 38.7897V27.2547H33.4598V38.4213C33.4598 39.4038 33.196 40.2068 32.6682 40.8303C32.1404 41.4349 31.3111 41.7467 30.1801 41.7655C29.0492 41.7844 28.2199 41.4821 27.6921 40.8586C27.1643 40.2162 26.9005 39.4038 26.9005 38.4213V27.2547H21.6134ZM29.9005 29.8367V38.4213C29.9005 38.5726 29.9134 38.6825 29.9305 38.7618C29.9843 38.7653 30.0504 38.7673 30.13 38.766C30.2602 38.7638 30.3595 38.7548 30.4324 38.7445C30.4466 38.6749 30.4598 38.5701 30.4598 38.4213V29.8155C30.2741 29.8263 30.0876 29.8333 29.9005 29.8367ZM40.0547 24.7682H59V19.9783H49.2458L59 9.29374V7.4232H40.0547V12.3261H49.0761L40.0547 22.8976V24.7682ZM40.057 27.2811V32.581H46.4467V39.3262H51.1118V32.581H54.3349V46.1169H40.1418V51.4167H54.3349V57H59V27.2811H40.057ZM51.3349 43.1169V42.3262H43.4467V35.581H41.7469V38.7897C41.7469 40.3116 41.4881 41.7699 40.9258 43.1169H51.3349ZM30.8103 18.1175C30.9528 17.8265 31.0536 17.4468 31.0536 16.9195C31.0536 16.3823 30.9491 16.0211 30.8173 15.7635L30.8104 15.7499L30.8035 15.7362C30.6562 15.4409 30.4868 15.266 30.2869 15.1379L30.2706 15.1275L30.2545 15.1169C30.1212 15.0291 29.9498 14.9598 29.643 14.9598C29.3361 14.9598 29.1647 15.0291 29.0314 15.1169C28.8327 15.2478 28.6398 15.4415 28.4625 15.7754C28.3336 16.0322 28.2323 16.3906 28.2323 16.9195C28.2323 17.4314 28.3273 17.8041 28.4632 18.0917C28.632 18.3927 28.8214 18.5838 29.0314 18.7221C29.1647 18.8099 29.3361 18.8793 29.643 18.8793C29.9498 18.8793 30.1212 18.81 30.2545 18.7221L30.2706 18.7115L30.2869 18.7011C30.5018 18.5635 30.6699 18.3871 30.8103 18.1175Z" fill="#141416"/>
</svg>
