<?xml version="1.0" encoding="UTF-8"?>
<svg xmlns="http://www.w3.org/2000/svg" width="69" height="69" viewBox="0 0 1.842 1.842" shape-rendering="geometricPrecision" image-rendering="optimizeQuality" fill-rule="evenodd" xmlns:v="https://vecta.io/nano"><defs><linearGradient id="A" gradientUnits="userSpaceOnUse" x1=".991" y1="1.18" x2=".287" y2="-.785"><stop offset="0" stop-color="#ffaec8"/><stop offset="1" stop-color="#fefefe"/></linearGradient><radialGradient id="B" gradientUnits="userSpaceOnUse" gradientTransform="matrix(0.999999 -0 -0 0.999999 0 0)" cx=".886" cy=".882" r="1.256" fx=".886" fy=".882"><stop offset="0" stop-color="#fff"/><stop offset="1" stop-color="#ffc94c"/></radialGradient></defs><g fill-rule="nonzero"><path d="M0 .882C0 .395.397 0 .886 0c.283 0 .535.132.697.337a.88.88 0 0 1 .259.623c0 .487-.397.882-.886.882-.283 0-.535-.132-.697-.337A.88.88 0 0 1 0 .882z" fill="#333"/><path d="M.068.882c0-.45.366-.814.818-.814s.819.364.819.814-.367.814-.819.814S.068 1.332.068.882z" fill="#ffbb06"/></g><circle cx=".886" cy=".882" r=".814" fill="url(#B)"/><g fill="#333"><path d="M1.313.742C1.23.579.942.484.748.555.53.634.352.866.43 1.081c.067.182.298.276.57.168.285-.113.41-.318.313-.507zM.935.736C.906.77.921.83.968.87s.122.025.142 0 .01-.084-.038-.124S.964.702.935.736zM.718.83c.044.007.071.063.06.124s-.077.097-.108.091S.608.986.619.925.674.822.718.83z"/><path d="M1.296.751C1.257.675 1.168.614 1.066.58S.847.54.755.574a.53.53 0 0 0-.269.218C.434.878.414.978.449 1.074l.003.007c.032.081.099.142.19.173s.207.029.332-.017l.019-.007.076-.034c.105-.054.18-.121.221-.195s.047-.149.017-.224C1.304.768 1.3.759 1.296.751zM1.079.542c.111.037.208.105.252.191l.013.029c.035.087.027.176-.019.259s-.126.153-.238.21a.95.95 0 0 1-.079.036l-.02.008a.54.54 0 0 1-.359.016c-.102-.034-.178-.103-.214-.195l-.003-.008C.372.979.394.867.452.771A.57.57 0 0 1 .741.536a.53.53 0 0 1 .338.006zM.95.749C.94.761.938.778.943.796s.018.041.038.058.045.022.067.02.04-.008.047-.017h0c.006-.007.007-.021.002-.038S1.08.778 1.06.761h-.001C1.039.744 1.016.735.995.733S.96.737.95.749zM.904.806A.09.09 0 0 1 .92.723C.938.701.967.691.998.693a.16.16 0 0 1 .087.038h.001a.16.16 0 0 1 .05.078c.008.029.004.057-.01.074h0c-.014.016-.043.029-.075.031S.984.909.956.885.911.834.904.806zM.721.81C.75.815.773.835.787.863s.017.059.011.094-.024.058-.046.077c-.028.023-.063.035-.086.031S.621 1.04.609 1.01C.598.986.594.955.599.922A.15.15 0 0 1 .642.838C.665.816.693.805.721.81zm.03.07C.742.864.73.852.715.849S.683.853.67.866.643.903.639.929.638.977.645.995s.018.029.028.03.034-.006.053-.022S.755.972.758.95.76.899.751.88z" fill-rule="nonzero"/></g><path d="M1.329.681C1.246.518.957.423.763.494.546.573.368.804.446 1.02c.066.181.297.275.57.167.284-.113.41-.317.313-.506zM.95.675C.922.709.937.769.984.808s.121.025.142.001.009-.085-.038-.124S.979.641.95.675zM.734.768c.043.008.07.063.06.124S.717.989.685.984.624.925.635.864.69.76.734.768z" fill="url(#A)"/><path d="M1.315.688c-.04-.077-.129-.139-.232-.173S.862.475.769.509a.54.54 0 0 0-.262.205c-.059.091-.083.198-.046.3l.003.008c.032.081.101.143.192.174a.51.51 0 0 0 .335-.016l.019-.008a.76.76 0 0 0 .076-.034.52.52 0 0 0 .223-.196c.04-.073.048-.151.017-.228-.003-.009-.007-.018-.011-.026zM1.093.484c.11.037.207.104.25.189l.013.029a.29.29 0 0 1-.019.255c-.045.08-.125.153-.236.209a.82.82 0 0 1-.079.036l-.02.008c-.134.048-.257.05-.356.016S.47 1.124.434 1.033l-.003-.008C.39.912.416.795.48.697S.646.519.758.478c.1-.036.225-.03.335.006zm-.155.18h0c.018-.021.045-.03.075-.028s.059.014.085.036.043.05.05.076.004.055-.01.071-.047.03-.082.03C1.028.849.998.841.974.821h0C.947.799.93.771.923.743S.92.686.938.664zm.025.021C.952.698.949.716.954.736a.12.12 0 0 0 .04.06c.018.015.041.021.062.021s.049-.008.058-.018.008-.024.003-.042a.13.13 0 0 0-.039-.06.12.12 0 0 0-.067-.029C.991.667.973.672.963.685zM.736.752c.028.005.049.024.063.051S.815.861.81.895.781.958.757.976.702 1.003.682 1 .642.978.63.951.613.895.619.861h0C.625.827.64.798.66.779S.709.748.736.752zM.77.817C.761.799.747.787.731.784S.697.788.683.802.655.84.65.867h0C.646.894.65.919.659.938s.018.028.029.03S.719.963.738.95.773.915.778.889.779.837.77.817z" fill="#333" fill-rule="nonzero"/></svg>