<?xml version="1.0" encoding="UTF-8"?>
<svg xmlns="http://www.w3.org/2000/svg" width="44" height="44" viewBox="0 0 1.078 1.078" shape-rendering="geometricPrecision" image-rendering="optimizeQuality" fill-rule="evenodd" xmlns:v="https://vecta.io/nano"><rect width="1.078" height="1.078" rx=".539" fill="#9c3456"/><path d="M.858.358C.836.368.811.375.786.378.812.362.832.338.841.308.817.323.79.333.761.339.738.314.705.299.668.299.598.299.541.355.541.426c0 .01.001.019.004.028A.36.36 0 0 1 .283.322C.272.341.266.362.266.386c0 .044.022.083.056.105C.301.491.282.485.265.475c0 .064.044.115.102.126C.356.604.345.606.333.606S.317.605.309.604c.016.05.063.087.119.088C.384.726.33.746.27.746.26.746.25.745.24.744a.36.36 0 0 0 .194.057C.668.801.795.608.795.44L.858.358z" fill="#fff" fill-rule="nonzero"/></svg>