<?xml version="1.0" encoding="UTF-8"?>
<svg xmlns="http://www.w3.org/2000/svg" width="29" height="29" viewBox="0 0 0.331 0.331" shape-rendering="geometricPrecision" image-rendering="optimizeQuality" fill-rule="nonzero" xmlns:v="https://vecta.io/nano"><path d="M.165 0c.092 0 .166.074.166.165S.257.331.165.331 0 .257 0 .165.074 0 .165 0z" fill="#fff"/><path d="M.165.313C.247.313.313.247.313.165S.247.017.165.017.017.083.017.165.083.313.165.313z" fill="#2775ca"/><g fill="#fff"><path d="M.206.189C.206.167.193.16.167.157.149.154.145.149.145.141S.151.126.163.126.181.13.184.139l.014.003.004-.005C.2.124.189.113.175.112V.097L.16.092.155.112c-.018.002-.03.014-.03.03S.137.17.163.173C.181.176.186.18.186.19S.178.207.166.207.144.2.142.191L.128.187.123.192c.003.015.013.026.033.029v.015L.17.241.175.221C.194.218.206.205.206.189h0z"/><path d="M.134.254C.086.236.061.183.079.135.088.109.108.089.134.08L.137.065C.073.079.041.142.059.2.07.235.097.262.131.273L.137.259zM.199.061L.193.075C.245.098.27.152.252.199.242.225.222.245.197.254L.193.269C.258.255.29.192.271.134.26.099.233.072.199.061h0z"/></g></svg>