<?xml version="1.0" encoding="UTF-8"?>
<svg xmlns="http://www.w3.org/2000/svg" width="189" height="199" viewBox="0 0 188.999 198.599" shape-rendering="geometricPrecision" image-rendering="optimizeQuality" fill-rule="evenodd" stroke="#333" stroke-width="2.994" stroke-linejoin="round" stroke-miterlimit="2.61313" xmlns:v="https://vecta.io/nano"><path d="M136.205 183.609l-19.6 8.382-3.935 1.428-4.051 1.211-4.113.976-4.122.732-4.124.489-4.118.254-4.108.021-4.09-.208-4.066-.431-4.035-.65-3.997-.866-3.954-1.076-3.904-1.282-3.848-1.485-3.784-1.682-3.714-1.876-3.638-2.065-3.555-2.249-3.467-2.43-3.37-2.606-3.268-2.777-3.159-2.946-3.045-3.108-2.922-3.266-2.794-3.421-2.66-3.572-2.518-3.716-2.37-3.858-2.217-3.996-2.055-4.128-1.888-4.256-1.714-4.381-1.535-4.5-1.347-4.615-1.141-4.671-.922-4.665-.705-4.65-.493-4.631-.284-4.602-.078-4.569.123-4.526.323-4.478.517-4.422.71-4.36.897-4.291 1.082-4.213 1.264-4.13 1.442-4.04 1.616-3.942 1.786-3.838 1.955-3.725 2.118-3.608 2.279-3.481 2.435-3.349 2.59-3.209 2.74-3.063 2.886-2.909 3.029-2.749 3.17-2.58 3.305-2.406 3.439-2.225 3.567-2.036 18.875-10.116-3.603 2.056-3.473 2.247-3.339 2.43-3.202 2.607-3.06 2.776-2.915 2.939-2.768 3.093-2.615 3.242-2.461 3.383-2.301 3.516-2.14 3.644-1.974 3.763-1.805 3.877-1.632 3.981-1.456 4.081-1.277 4.172-1.093 4.256-.907 4.334-.716 4.403-.523 4.468-.325 4.523-.125 4.572.079 4.614.287 4.649.498 4.677.712 4.698.931 4.712 1.153 4.718 1.36 4.662 1.55 4.545 1.732 4.425 1.907 4.3 2.076 4.169 2.239 4.036 2.394 3.897 2.544 3.754 2.686 3.608 2.823 3.456 2.951 3.299 3.075 3.14 3.192 2.974 3.301 2.806 3.404 2.632 3.501 2.455 3.592 2.272 3.675 2.085 3.751 1.895 3.822 1.699 3.887 1.5L87 185.508l3.994 1.086 4.038.874 4.076.657 4.107.436 4.131.209 4.149-.021 4.161-.255 4.165-.495 4.163-.739 4.155-.986 4.092-1.223z" fill="#4d4d4d"/><path d="M68.218 54.73l-18.92 9.671 75.649 29.147 19.685-9.377z" fill="#333"/><path d="M144.632 84.171l-19.685 9.377-50.941 63.066 19.171-8.74z" fill="#4d4d4d"/><path d="M79.297 3.993c44.251-11.857 91.057 19.336 104.545 69.672s-11.452 100.752-55.703 112.609-91.057-19.336-104.545-69.671S35.046 15.85 79.297 3.993zM68.218 54.73l76.414 29.441-51.455 63.703L68.218 54.73z" fill="#ff7158"/></svg>