<?xml version="1.0" encoding="UTF-8"?>
<!DOCTYPE svg PUBLIC "-//W3C//DTD SVG 1.1//EN" "http://www.w3.org/Graphics/SVG/1.1/DTD/svg11.dtd">
<!-- Creator: CorelDRAW 2020 (64-Bit) -->
<svg xmlns="http://www.w3.org/2000/svg" xml:space="preserve" width="22px" height="22px" version="1.1" style="shape-rendering:geometricPrecision; text-rendering:geometricPrecision; image-rendering:optimizeQuality; fill-rule:evenodd; clip-rule:evenodd"
viewBox="0 0 0.447 0.447"
 xmlns:xlink="http://www.w3.org/1999/xlink"
 xmlns:xodm="http://www.corel.com/coreldraw/odm/2003">
 <defs>
  <style type="text/css">
   <![CDATA[
    .fil2 {fill:#033D5E}
    .fil4 {fill:#C81426}
    .fil5 {fill:#E9EF03}
    .fil3 {fill:#FAAB00}
    .fil1 {fill:#E8E8E8;fill-opacity:0.600000}
    .fil0 {fill:url(#id0)}
   ]]>
  </style>
  <linearGradient id="id0" gradientUnits="userSpaceOnUse" x1="4.254" y1="10.723" x2="4.254" y2="-0.907">
   <stop offset="0" style="stop-opacity:1; stop-color:#F2F2F2"/>
   <stop offset="1" style="stop-opacity:1; stop-color:white"/>
  </linearGradient>
 </defs>
 <g id="Layer_x0020_1">
  <metadata id="CorelCorpID_0Corel-Layer"/>
  <g id="_2628801696304">
   <g>
    <path class="fil0" d="M0.223 0c0.124,0 0.224,0.1 0.224,0.223 0,0.124 -0.1,0.224 -0.224,0.224 -0.123,0 -0.223,-0.1 -0.223,-0.224 0,-0.123 0.1,-0.223 0.223,-0.223z"/>
    <path class="fil1" d="M0.414 0.341c-0.028,0.045 -0.072,0.08 -0.124,0.096 0.04,-0.034 0.081,-0.066 0.124,-0.096zm-0.409 -0.07c-0.003,-0.015 -0.005,-0.031 -0.005,-0.048 0,-0.12 0.096,-0.219 0.215,-0.223 -0.035,0.054 -0.074,0.109 -0.118,0.163 -0.012,0.016 -0.023,0.029 -0.032,0.04 -0.02,0.023 -0.04,0.046 -0.06,0.068z"/>
   </g>
   <circle class="fil2" cx="0.223" cy="0.223" r="0.223"/>
   <path class="fil3" d="M0.223 0c0.109,0 0.199,0.077 0.22,0.179l-0.262 -0.151 -0.163 0.283c-0.012,-0.027 -0.018,-0.057 -0.018,-0.088 0,-0.123 0.1,-0.223 0.223,-0.223z"/>
   <path class="fil4" d="M0.143 0.223l0.304 0c0,0.095 -0.059,0.176 -0.142,0.209l-0.162 0 0 -0.209z"/>
   <path class="fil5" d="M0.355 0.404c-0.037,0.027 -0.082,0.043 -0.132,0.043 -0.07,0 -0.133,-0.033 -0.174,-0.084l0.306 0.041z"/>
  </g>
 </g>
</svg>
