<?xml version="1.0" encoding="UTF-8"?>
<svg xmlns="http://www.w3.org/2000/svg" width="155" height="31" viewBox="0 0 3.792 0.756" shape-rendering="geometricPrecision" image-rendering="optimizeQuality" fill-rule="nonzero" fill="#333" xmlns:v="https://vecta.io/nano"><path d="M.482.236C.496.229.513.234.52.248S.522.279.508.287C.405.34.318.404.248.478.198.532.156.593.123.66L.22.603C.234.595.251.6.259.613s.003.031-.01.039L.08.751C.063.763.04.753.036.733L0 .532C-.002.517.008.502.024.499s.03.008.032.023l.019.107a.81.81 0 0 1 .132-.19C.281.36.373.292.482.236zm.395.099C.849.323.844.317.847.312S.856.291.862.271L.875.227.889.181.758.048C.763.033.768.032.774.032.799.037.807.041.816.049a1.04 1.04 0 0 1 .092.099L.949.04C.958.024.964.014.969.009.987.001.991.001.994.002.99.03.98.055.971.082L.942.166a1.3 1.3 0 0 1-.065.169z"/><path d="M1.034.233c0-.038.016-.069.049-.092.027-.019.059-.03.096-.034.02 0 .03.002.042.006.027.009.045.025.055.049.004.009.006.016.006.023-.001.054-.016.086-.047.109s-.065.033-.108.033c-.031 0-.054-.008-.07-.022S1.034.267 1.034.233zm.033.012c0 .02.006.034.016.041s.022.008.041.008.037-.002.051-.004a.09.09 0 0 0 .039-.016c.025-.015.037-.04.037-.072 0-.02-.005-.036-.016-.048s-.026-.02-.045-.02l-.038.007c-.013.003-.025.008-.036.015-.025.016-.041.046-.049.089zM1.3.261L1.299.239l-.002-.03C1.296.198 1.296.187 1.296.175s.001-.022.003-.031c.004-.021.013-.032.026-.032s.015.006.018.01c.005.02.004.027.001.036-.011.028-.017.054-.017.076 0 .008.001.016.002.024.005.022.023.033.054.033.016 0 .031-.003.045-.008.027-.01.046-.022.056-.036.003-.015.004-.028.004-.039l-.001-.03-.003-.029-.002-.035c.016-.003.021-.001.025.003s.008.012.011.024.005.026.006.041l.002.049V.28l.002.041c-.024.006-.034-.007-.04-.033-.004.003-.011.008-.021.013a.24.24 0 0 1-.077.023c-.025.001-.033 0-.044-.003s-.02-.008-.029-.018S1.302.28 1.3.261zm.648-.016c-.024.038-.057.062-.097.071a.13.13 0 0 1-.026.003c-.024 0-.03-.001-.036-.002C1.76.304 1.754.294 1.754.282c-.001-.006-.002-.013-.002-.02s.002-.017.005-.029.009-.025.018-.039a.19.19 0 0 1 .031-.039.19.19 0 0 1 .084-.048c.009-.002.017-.003.024-.003s.014.001.02.002c.019 0 .031.013.038.038.004.017.007.039.007.069l.003.067c.001.016.003.03.006.043h-.029L1.956.3C1.953.267 1.951.255 1.948.245zM1.947.169c0-.018-.01-.028-.028-.028-.031 0-.056.011-.082.034-.013.01-.023.022-.032.035s-.02.035-.02.05.011.03.034.034c.029-.001.057-.014.084-.04a.24.24 0 0 0 .028-.037c.01-.018.016-.034.016-.048zm.304-.021c-.014-.01-.032-.015-.053-.015s-.039.004-.056.011c-.033.014-.055.032-.067.053-.005.01-.008.02-.008.031a.23.23 0 0 0 .005.053c.003.015.005.03.005.046L2.05.331a.03.03 0 0 1-.015-.019L2.029.263 2.024.22 2.019.174 2.011.102c0-.007.006-.011.017-.011.02.014.023.021.025.028s.004.014.005.022A.34.34 0 0 1 2.22.098l.023.001c.02.01.021.015.021.022 0 .016-.004.025-.013.027z"/><path d="M2.386.292a.36.36 0 0 0 .13-.039c-.001.034-.026.051-.063.064s-.071.014-.103.006-.058-.03-.066-.061L2.283.237a.16.16 0 0 1 .008-.041c.006-.017.015-.033.028-.049s.028-.027.046-.036.036-.013.056-.013.04.007.064.02c.011.006.019.013.026.021s.01.015.01.024c-.001.026-.011.039-.03.044-.008.002-.017.003-.028.003l-.07-.003c-.024 0-.042.006-.054.016-.007.005-.012.013-.015.025.008.029.029.044.062.044zm.088-.151C2.466.136 2.459.132 2.451.13s-.014-.004-.02-.004-.013.002-.025.006-.022.007-.031.011c-.023.01-.034.021-.034.033L2.4.179c.036 0 .06-.003.073-.009.012-.018.008-.024.001-.029z"/><path d="M2.987.319c-.003.006-.011.009-.023.009S2.946.323 2.946.314L2.943.235c-.002-.031-.009-.048-.018-.05a.29.29 0 0 0-.057-.007c-.015 0-.028.004-.037.013s-.017.024-.022.045a.48.48 0 0 0-.011.087H2.76l.001-.052L2.76.214 2.758.142 2.755.066c0-.021.002-.04.004-.057.022-.009.028-.006.032-.001l.004.095A.37.37 0 0 0 2.8.171c.029-.02.059-.029.091-.029.01 0 .021 0 .032.002.024.013.04.026.048.041.003.007.006.015.007.023s.001.019.001.029l.008.082z"/><path d="M3.105.292c.028 0 .071-.013.129-.039-.001.034-.026.051-.063.064S3.1.331 3.068.323 3.01.293 3.002.262L3.001.237c0-.01.003-.024.009-.041a.14.14 0 0 1 .027-.049c.013-.015.028-.027.046-.036s.036-.013.056-.013.04.007.064.02a.08.08 0 0 1 .026.021c.007.007.01.015.01.024-.001.026-.011.039-.03.044-.008.002-.017.003-.028.003l-.07-.003c-.024 0-.041.006-.054.016-.007.005-.012.013-.015.025.008.029.029.044.063.044zm.087-.151C3.184.136 3.177.132 3.169.13s-.014-.004-.02-.004-.013.002-.025.006-.022.007-.031.011c-.023.01-.034.021-.034.033l.059.003c.036 0 .06-.003.073-.009.012-.018.008-.024.001-.029z"/><path d="M3.515.148c-.014-.01-.031-.015-.053-.015s-.039.004-.056.011c-.032.014-.055.032-.067.053-.005.01-.008.02-.008.031a.23.23 0 0 0 .005.053c.004.015.005.03.005.046l-.027.004a.03.03 0 0 1-.015-.019L3.294.263 3.289.22 3.284.174 3.275.102c0-.007.006-.011.017-.011.02.014.024.021.026.028s.004.014.004.022c.046-.024.099-.043.163-.043l.022.001c.02.01.022.015.022.022 0 .016-.005.025-.014.027z"/><path d="M3.651.292c.028 0 .072-.013.129-.039-.001.034-.026.051-.062.064s-.071.014-.103.006-.058-.03-.066-.061C3.548.256 3.548.248 3.548.237s.002-.024.008-.041a.14.14 0 0 1 .027-.049.16.16 0 0 1 .046-.036c.018-.009.037-.013.056-.013s.04.007.064.02a.08.08 0 0 1 .026.021c.007.007.01.015.01.024-.001.026-.011.039-.029.044-.008.002-.018.003-.029.003l-.07-.003c-.023 0-.041.006-.054.016-.007.005-.012.013-.015.025.008.029.029.044.063.044zm.087-.151C3.731.136 3.723.132 3.715.13 3.691.126 3.682.128 3.67.132s-.022.007-.031.011c-.022.01-.034.021-.034.033l.059.003c.036 0 .06-.003.073-.009.012-.018.008-.024.001-.029z"/></svg>