<?xml version="1.0" encoding="UTF-8"?>
<svg xmlns="http://www.w3.org/2000/svg" xmlns:xlink="http://www.w3.org/1999/xlink" width="50" height="43" viewBox="0 0 1.85 1.617" shape-rendering="geometricPrecision" image-rendering="optimizeQuality" fill-rule="evenodd" xmlns:v="https://vecta.io/nano"><defs><linearGradient id="A" gradientUnits="userSpaceOnUse" x1="1.199" y1="1.027" x2="1.311" y2=".319"><stop offset="0" stop-color="#ed82a6"/><stop offset="1" stop-color="#fefefe"/></linearGradient><linearGradient id="B" gradientUnits="userSpaceOnUse" x1=".974" y1=".993" x2="1.052" y2="-1.143"><stop offset="0" stop-color="#ffd1e0"/><stop offset="1" stop-color="#fefefe"/></linearGradient><linearGradient id="C" xlink:href="#B" x1=".251" y1=".574" x2=".31" y2="-.805"/><linearGradient id="D" gradientUnits="userSpaceOnUse" x1=".735" y1=".847" x2="-1.573" y2="1.901"><stop offset="0" stop-color="#ffaec8"/><stop offset="1" stop-color="#9e3759"/></linearGradient></defs><path d="M1.402.149c.053-.03.104-.062.163-.083.068-.024.164-.005.194.068.015.037.012.061.011.099-.001.056-.004.114.003.17a.45.45 0 0 1-.027.249 1.45 1.45 0 0 1 .075.199c.04.14.046.302-.026.432-.054.1-.152.182-.259.218a2.13 2.13 0 0 1-.258.068c-.163.033-.33.055-.497.046-.159-.009-.314-.035-.466-.081-.141-.042-.253-.147-.281-.294A.77.77 0 0 1 .045.873L.047.867.051.855.054.842.057.833.061.821.066.809.069.8.072.79.075.784.078.775.083.763.089.748.096.732.103.717.106.71.104.706C.055.63.042.545.039.456.037.373.026.294.006.215L.005.208.003.199.002.193.001.188V.182L0 .177V.16L.001.153V.146L.002.14.003.136V.135.133L.005.127C.013.094.031.066.058.045.12-.002.188-.013.26.017.356.058.446.113.541.156.569.168.597.17.626.164A.63.63 0 0 1 .852.095.47.47 0 0 1 .927.092L.942.09.939.092c.129.004.256-.003.384.024.028.007.055.018.079.033z" fill="#333"/><path d="M1.666.75l.016-.099c.035-.058.048-.136.034-.241-.007-.057-.004-.116-.003-.178 0-.028.004-.049-.007-.076-.017-.04-.077-.051-.122-.036-.066.024-.124.065-.186.097l-.032.265.3.268z" fill="#fbc7d8"/><path d="M1.5.458l.04-.059c.028-.055.05-.121.086-.182.018-.031.049-.02.049.015l.003.208c.002.052-.005.102-.028.146l-.057.029L1.5.458z" fill="#ef84a6"/><path d="M1.621.226c.016-.007.032.006.032.031l.002.208c.003.052-.012.086-.036.13l-.028.026-.003.001-.092-.157.039-.059c.029-.054.05-.12.086-.18z" fill="#fba7c3"/><path d="M.859.152l.408 1.361a1.94 1.94 0 0 1-.483.045 1.89 1.89 0 0 1-.453-.079c-.153-.046-.222-.155-.241-.25-.04-.205 0-.353.083-.528C.253.532.406.408.543.28.675.192.774.16.859.152z" fill="url(#D)"/><path d="M.1.889A1.23 1.23 0 0 1 .173.701L.196.657.302.798.1.889z" fill="#ed82a6"/><path d="M.443.456l.004.045c-.04.069-.07.135-.094.2L.169.47.141.16.248.196l.195.26z" fill="#ffb5ce"/><path d="M.487.31L.484.464.447.501C.396.468.364.412.327.364.296.324.276.276.245.236.233.221.216.197.196.195L.14.148.258.117.487.31z" fill="#f596b4"/><path d="M1.311.173C1.182.145 1.044.153.925.149S.678.195.619.289C.52.446.418.664.36.868c-.046.162-.011.358.098.485.104.123.288.167.449.182.205.018.415-.024.61-.089.094-.031.181-.103.228-.19.062-.114.058-.26.02-.389A1.78 1.78 0 0 0 1.53.385C1.475.299 1.41.194 1.311.173z" fill="url(#B)"/><path d="M1.168 1.367c.138-.013.213-.129.272-.243l-.02.001a.46.46 0 0 1-.247.074c-.092.001-.204-.032-.262-.095l-.019.004c.029.141.125.274.276.259z" fill="#ad5855"/><path d="M1.188 1.365c.141-.014.219-.103.252-.241a.47.47 0 0 1-.247.073c-.099.001-.195-.04-.282-.093.03.14.126.276.277.261z" fill="#d46360"/><path d="M.357.767L.302.798C.24.766.185.728.152.676A.43.43 0 0 1 .097.454C.094.356.081.274.062.201.05.153.063.114.093.091.146.05.194.052.237.07c.096.04.185.095.28.138.047.021.091.02.129.011C.577.268.535.36.484.464.437.429.403.392.373.341.335.278.298.22.255.177.239.162.223.156.206.176.185.202.195.232.201.259.226.38.223.47.271.567.297.621.345.659.389.681L.357.767z" fill="url(#C)"/><path d="M.357.767L.302.798C.24.766.185.728.152.676A.43.43 0 0 1 .097.454C.094.356.081.274.062.201.056.179.056.158.06.141c.092.28.011.475.297.626z" fill="#ffc9db"/><g fill="#9e513f"><path d="M.953.403C.973.4.996.391 1.009.371.987.37.999.364.999.361.998.339.967.327.944.326.877.323.824.335.772.366.754.377.729.395.717.411c.054.01.099 0 .145-.002.029-.001.063 0 .091-.006z"/><path d="M1.458.424L1.48.415 1.466.399l-.013.004c-.032-.031-.065-.058-.118-.07C1.309.327 1.286.317 1.26.326c-.053.018-.026.071.008.076s.061.002.091.006l.099.016z"/></g><path d="M1.027.964c-.016.026-.034.035-.05.061l-.24-.007C.701.93.68.856.683.764.686.632.728.502.836.492s.16.112.184.265c.011.068.006.138.007.207z" fill="#fff"/><path d="M.704.622C.749.596.793.57.847.566.896.563.94.58.979.603.948.531.902.486.836.492S.727.551.704.622z" fill="#fba7c3"/><path d="M1.275.796l.169.174.096-.015c.079-.1.032-.462-.139-.479-.054-.005-.125.054-.134.229-.002.04.003.071.008.091z" fill="#fff"/><path d="M1.535.595C1.467.53 1.367.52 1.287.585c.027-.083.075-.112.114-.109.058.006.107.043.134.119z" fill="#fba7c3"/><path d="M.8 1.02C.761.976.739.914.734.846.723.694.783.603.862.596.93.59.992.663 1.011.71c.004.015.007.031.009.047.011.068.006.138.007.207-.016.026-.034.035-.05.061L.8 1.02zm.699-.058h0c.026-.053.037-.108.031-.168-.015-.169-.088-.225-.153-.219-.049.004-.087.044-.11.145-.001.033.003.058.008.076l.169.174.055-.008z" fill="#2b676b"/><path d="M.902 1c.063.004.1-.103.098-.168S.956.664.89.666.802.774.805.838.839.997.902 1zm.544-.05c.05-.006.062-.112.054-.171S1.449.635 1.401.642c-.062.009-.08.113-.071.176s.058.138.116.132z" fill="#0c3033"/><path d="M1.42.776c-.046.014-.064-.114-.012-.11.021.002.043.043.05.06s.015.038.018.057.002.043 0 .064l-.004.038C1.468.75 1.443.769 1.42.776z" fill="#224649"/><path d="M.968.395c.023-.005.048-.02.046-.043S.982.318.96.317a.33.33 0 0 0-.183.046C.759.374.742.389.73.406.786.412.831.403.877.4.906.399.94.4.968.395zm.504.021a.19.19 0 0 0-.121-.092.18.18 0 0 0-.08-.002c-.052.012-.021.067.012.072s.061.002.091.005.065.011.098.017z" fill="#bd6c5a"/><path d="M1.412.978c.005-.103-.081-.153-.226-.199-.111.027-.205.1-.212.214-.007.121.106.173.223.171l.078-.006c.116-.023.133-.102.137-.18z" fill="#cf5d83"/><path d="M1.444.97C1.449.865 1.339.764 1.21.776c-.099.009-.198.091-.205.208-.007.124.108.178.225.177.17-.003.21-.097.214-.191z" fill="url(#A)"/><path d="M1.274.942c-.005-.015 0-.045.016-.046.022-.002.04.018.048.038s.003.047-.013.049c-.021.002-.042-.012-.051-.041zm-.093.002c.003-.023-.01-.049-.029-.047s-.036.024-.038.044.006.049.024.05.04-.025.043-.047z" fill="#cf5d83"/><path d="M1.122.981c.008-.01.014-.022.015-.033S1.135.919 1.127.91h0c-.007.008-.012.02-.013.031s.001.029.008.04zm.173-.007c.003-.01.003-.024-.001-.036a.06.06 0 0 0-.019-.027c-.003.01-.004.023-.001.031.004.015.012.025.021.032z" fill="#9e3759"/><path d="M1.4 1.174c-.036.078-.116.147-.215.157-.106.011-.209-.097-.239-.179.077.05.169.08.247.079.073 0 .149-.018.207-.057z" fill="#33231f"/><path d="M1.246 1.317L1.245 1.3c-.024-.011-.056-.015-.085-.014a.21.21 0 0 0-.082.019l.008.004c.031.017.065.026.099.022.021-.002.042-.007.061-.014z" fill="#bd7777"/><path d="M.981 1.217a.34.34 0 0 0 .285.041c.045-.011.06-.033.075-.054-.046.018-.098.027-.148.027-.078.001-.17-.029-.247-.079a.32.32 0 0 0 .035.065z" fill="#b3b3b3"/><path d="M1.348 1.202a.28.28 0 0 1-.203.128c.013.002.027.003.04.001.099-.01.179-.079.215-.157-.016.011-.034.02-.052.028h0z" fill="#7f423e"/><path d="M.965 1.164h0c.011.02.021.045.048.061a.34.34 0 0 0 .271.032c.052-.013.064-.041.082-.064h0c-.052.026-.114.038-.173.038-.072.001-.155-.025-.228-.067z" fill="#fff"/><path d="M1.283.751c-.001-.01-.002-.02-.001-.03.01-.045.031-.114.082-.129.048-.005.076.011.097.036.026.031.04.074.048.117-.009-.037-.022-.073-.044-.1S1.416.603 1.382.606c-.064.017-.098.105-.099.145zM.757.9C.753.882.75.863.749.845.745.792.749.732.772.684.787.652.812.623.847.614c.072-.008.13.053.15.1C.98.683.922.623.867.627a.13.13 0 0 0-.092.074C.752.749.748.809.752.862L.757.9z" fill="#379299"/><path d="M.909.798C.859.812.84.691.898.694.921.696.945.735.953.75s.015.035.018.053.003.041 0 .06L.966.9C.963.773.935.791.909.798z" fill="#224649"/></svg>