<?xml version="1.0" encoding="UTF-8"?>
<!DOCTYPE svg PUBLIC "-//W3C//DTD SVG 1.1//EN" "http://www.w3.org/Graphics/SVG/1.1/DTD/svg11.dtd">
<!-- Creator: CorelDRAW 2020 (64-Bit) -->
<svg xmlns="http://www.w3.org/2000/svg" xml:space="preserve" width="21px" height="21px" version="1.1" style="shape-rendering:geometricPrecision; text-rendering:geometricPrecision; image-rendering:optimizeQuality; fill-rule:evenodd; clip-rule:evenodd"
viewBox="0 0 0.163 0.163"
 xmlns:xlink="http://www.w3.org/1999/xlink"
 xmlns:xodm="http://www.corel.com/coreldraw/odm/2003">
 <defs>
  <style type="text/css">
   <![CDATA[
    .fil0 {fill:#333333}
   ]]>
  </style>
 </defs>
 <g id="Layer_x0020_1">
  <metadata id="CorelCorpID_0Corel-Layer"/>
  <path class="fil0" d="M0.15 0.001c0.005,-0.002 0.01,-0.001 0.012,0.004 0.003,0.004 0.001,0.01 -0.003,0.012 -0.033,0.016 -0.06,0.036 -0.081,0.06 -0.016,0.017 -0.029,0.035 -0.04,0.056l0.031 -0.017c0.004,-0.003 0.009,-0.002 0.012,0.003 0.002,0.004 0.001,0.009 -0.003,0.012l-0.053 0.031c-0.005,0.003 -0.013,0.001 -0.014,-0.006l-0.011 -0.063c-0.001,-0.004 0.003,-0.009 0.007,-0.01 0.005,-0.001 0.01,0.003 0.011,0.007l0.006 0.034c0.01,-0.022 0.024,-0.042 0.041,-0.059 0.023,-0.025 0.052,-0.046 0.085,-0.064z"/>
 </g>
</svg>
