<?xml version="1.0" standalone="no"?>
<!DOCTYPE svg PUBLIC "-//W3C//DTD SVG 1.1//EN" "http://www.w3.org/Graphics/SVG/1.1/DTD/svg11.dtd">
<svg xmlns="http://www.w3.org/2000/svg">
<defs >
<font id="Urbanist" horiz-adv-x="1075" ><font-face
    font-family="Urbanist"
    units-per-em="2000"
    panose-1="2 11 10 4 4 2 0 0 2 3"
    ascent="1900"
    descent="-500"
    alphabetic="0" />
<glyph unicode=" " horiz-adv-x="480" />
<glyph unicode="!" horiz-adv-x="359" d="M-39 420L99 1400H222L84 420H-39ZM-39 -26Q-73 -26 -93 -3T-109 55Q-104 88 -78 111T-17 134Q15 134 35 111T50 55Q46 21 20 -2T-39 -26Z" />
<glyph unicode="&quot;" horiz-adv-x="519" d="M0 878L73 1400H180L107 878H0ZM266 878L339 1400H446L373 878H266Z" />
<glyph unicode="#" horiz-adv-x="1511" d="M1328 929H1127L940 473H1143L1087 337H886L747 0H607L746 337H273L135 0H-5L133 337H-69L-14 473H188L375 929H172L227 1064H430L567 1400H707L570 1064H1042L1179 1400H1319L1182 1064H1384L1328 929ZM800 473L987
929H515L328 473H800Z" />
<glyph unicode="$" horiz-adv-x="1180" d="M572 1280Q477 1281 390 1249T244 1159T174 1024Q161 934 202 886T322 813T501 770Q632 747 739 699T906 570T948 371Q933 259 860 174T677 38T444 -23L416 -224H309L338 -23Q236 -16 148 20T-1 119T-79 264L59 313Q72
251 124 207T251 138T409 114Q504 114 591 146T738 235T808 371Q820 450 774 501T648 581T481 627Q341 652 233 695T71 816T34 1024Q50 1136 123 1221T307 1357T540 1417L568 1624H675L646 1417Q744 1410 831 1374T980 1277T1062 1129L922 1081Q909 1144 857 1188T730
1256T572 1280Z" />
<glyph unicode="%" horiz-adv-x="1282" d="M-42 0L963 1400H1125L120 0H-42ZM243 853Q177 853 127 885T53 971T37 1092Q47 1160 87 1214T186 1300T310 1332Q376 1332 425 1300T500 1213T515 1092Q506 1025 466 971T367 885T243 853ZM257 960Q313 960 357 998T408
1092Q416 1148 383 1186T295 1225Q240 1225 196 1187T144 1092Q136 1037 169 999T257 960ZM775 67Q709 67 660 100T585 188T569 307Q579 374 619 428T719 515T843 547Q911 547 960 514T1033 427T1049 307Q1040 241 1000 187T900 100T775 67ZM791 174Q845 174 889
213T942 307Q950 362 916 401T828 440Q773 440 729 401T676 307Q668 252 702 213T791 174Z" />
<glyph unicode="&amp;" horiz-adv-x="1417" d="M285 -26Q166 -26 83 31T-39 182T-63 381Q-54 446 -34 494T26 589T135 698T309 853Q262 909 232 947T187 1015T168 1077T170 1151Q182 1230 229 1294T346 1395T490 1433Q568 1433 626 1395T714 1294T732 1151Q726
1108 713 1076T675 1012T610 944T508 853L829 479L1081 699L1053 501L913 378L1154 99L1041 0L801 278Q693 184 623 125T501 32T400 -13T285 -26ZM305 114Q355 114 391 125T468 164T566 245T717 379L394 754Q299 670 240 618T148 531T100 461T78 378Q68 304 95
244T177 149T305 114ZM420 936Q493 1000 531 1033T584 1090T605 1153Q615 1219 575 1263T472 1307Q407 1307 357 1261T297 1153Q292 1115 301 1090T339 1031T420 936Z" />
<glyph unicode="&apos;" horiz-adv-x="253" d="M0 878L73 1400H180L107 878H0Z" />
<glyph unicode="(" horiz-adv-x="643" d="M191 -112Q103 -17 58 103T3 360T14 644Q25 724 49 812T108 986T188 1152T288 1295T403 1400H543Q485 1351 434 1287T337 1146T256 987T194 817T154 644Q136 487 152 349T214 96T331 -112H191Z" />
<glyph unicode=")" horiz-adv-x="643" d="M-112 -112Q-15 -20 63 95T195 349T277 644Q286 730 285 816T271 986T235 1146T178 1286T100 1400H240Q290 1359 326 1295T385 1152T418 987T429 812T417 644Q396 498 348 361T221 103T28 -112H-112Z" />
<glyph unicode="*" horiz-adv-x="705" d="M135 853L58 916L206 1087L15 1152L61 1253L254 1189L284 1400H391L361 1189L571 1253L590 1152L379 1087L480 916L384 853L285 1025L135 853Z" />
<glyph unicode="+" horiz-adv-x="1160" d="M327 100L387 530H-43L-22 670H408L468 1100H608L548 670H978L957 530H527L467 100H327Z" />
<glyph unicode="," horiz-adv-x="402" d="M-132 -112L-23 226H117L-39 -112H-132Z" />
<glyph unicode="-" horiz-adv-x="880" d="M18 670H658L637 530H-3L18 670Z" />
<glyph unicode="." horiz-adv-x="360" d="M-41 -26Q-74 -26 -94 -3T-109 55Q-104 87 -78 110T-19 134Q15 134 35 111T51 55Q46 21 20 -2T-41 -26Z" />
<glyph unicode="/" horiz-adv-x="705" d="M625 1400L8 -112H-132L485 1400H625Z" />
<glyph unicode="0" horiz-adv-x="1191" d="M397 -26Q271 -26 180 30T33 187T-41 418T-38 700Q-17 850 38 982T177 1213T368 1369T601 1426Q726 1426 817 1370T963 1214T1036 982T1033 700Q1012 550 957 419T819 187T629 31T397 -26ZM416 114Q549 114 649 195T814
409T900 700Q923 866 895 998T788 1208T580 1286Q478 1286 396 1239T253 1110T152 923T95 700Q73 542 100 409T205 195T416 114Z" />
<glyph unicode="1" horiz-adv-x="530" d="M33 0L211 1260H61L120 1400H370L173 0H33Z" />
<glyph unicode="2" horiz-adv-x="1089" d="M-117 0L-99 124Q-6 200 105 290T326 477T529 668T682 847T751 997Q763 1076 734 1141T645 1246T506 1286Q427 1286 357 1247T238 1142T178 997H38Q55 1117 127 1214T304 1368T527 1426Q644 1426 732 1368T864 1213T891
997Q881 926 832 842T706 667T536 484T344 305T152 140H792L772 0H-117Z" />
<glyph unicode="3" horiz-adv-x="983" d="M291 -26Q163 -26 74 30T-56 182T-82 392H58Q48 316 74 253T161 152T311 114Q387 114 458 151T580 252T641 392Q655 487 616 550T497 645T309 677L326 793Q475 793 574 856T690 1043Q700 1110 671 1165T589 1253T468 1287Q401
1287 335 1254T223 1165T167 1043H27Q38 1122 81 1191T188 1314T330 1397T487 1427Q592 1427 675 1375T801 1236T830 1043Q816 940 752 857T592 740Q667 714 712 662T775 540T781 392Q765 277 692 182T513 31T291 -26Z" />
<glyph unicode="4" horiz-adv-x="1091" d="M487 0L542 393H-62L-42 535L648 1400H824L702 533H850L830 393H682L627 0H487ZM124 535L562 533L653 1200L124 535Z" />
<glyph unicode="5" horiz-adv-x="1107" d="M329 -26Q201 -26 105 36T-37 202T-66 432H74Q62 345 94 273T193 157T348 114Q436 114 514 157T645 272T711 432Q723 520 692 592T592 708T418 752H77L301 1400H956L937 1260H395L270 892L433 891Q575 889 675 830T823
669T851 432Q838 338 791 255T671 109T512 10T329 -26Z" />
<glyph unicode="6" horiz-adv-x="1077" d="M332 -26Q200 -26 100 39T-51 215T-83 458Q-72 535 -46 589T24 711L518 1400H681L319 896Q412 930 500 927T664 887T794 789T873 642T884 458Q870 358 820 271T694 117T525 12T332 -26ZM351 114Q451 114 536 162T676
290T745 459Q758 553 723 630T617 754T450 801Q352 801 267 753T127 628T58 459Q45 361 81 283T188 160T351 114Z" />
<glyph unicode="7" horiz-adv-x="1069" d="M-56 0L847 1260H21L40 1400H1029L1010 1260L104 0H-56Z" />
<glyph unicode="8" horiz-adv-x="1053" d="M326 -26Q203 -26 110 30T-31 180T-62 389Q-46 501 29 593T210 737Q134 784 93 865T65 1045Q80 1150 147 1236T316 1374T530 1426Q643 1426 729 1375T858 1237T887 1045Q874 947 810 866T656 737Q749 686 798 594T830
389Q815 275 742 181T559 30T326 -26ZM345 114Q428 114 500 151T622 250T681 389Q692 465 661 527T567 626T422 663Q341 663 268 626T146 527T86 389Q76 313 107 251T201 151T345 114ZM442 803Q515 803 579 835T686 923T738 1045Q748 1112 720 1166T638 1253T510
1286Q437 1286 373 1254T267 1167T214 1045Q205 978 232 923T315 836T442 803Z" />
<glyph unicode="9" horiz-adv-x="1053" d="M155 0L540 535Q429 495 325 510T141 586T21 742T-2 958Q12 1054 60 1139T181 1288T344 1389T531 1426Q659 1426 755 1363T900 1193T931 958Q921 885 896 833T827 715L316 0H155ZM417 630Q512 630 592 675T727 796T793
957Q806 1051 771 1125T668 1243T512 1287Q416 1287 335 1241T201 1120T135 957Q122 867 155 793T257 674T417 630Z" />
<glyph unicode=":" horiz-adv-x="360" d="M81 840Q48 840 28 863T13 921Q18 953 44 976T103 1000Q137 1000 157 977T173 921Q168 887 141 864T81 840ZM-41 -26Q-74 -26 -94 -3T-109 55Q-104 87 -78 110T-19 134Q15 134 35 111T51 55Q46 21 20 -2T-41 -26Z" />
<glyph unicode=";" horiz-adv-x="410" d="M-132 -112L-23 226H117L-39 -112H-132ZM132 840Q98 840 78 863T62 919Q67 953 94 976T155 1000Q187 1000 207 977T222 919Q218 886 191 863T132 840Z" />
<glyph unicode="&lt;" horiz-adv-x="1160" d="M911 200L-49 484L-16 714L1024 1000L1003 853L75 600L932 345L911 200Z" />
<glyph unicode="=" horiz-adv-x="1160" d="M-71 328L-51 468H949L929 328H-71ZM-14 732L6 872H1006L986 732H-14Z" />
<glyph unicode="&gt;" horiz-adv-x="1160" d="M-88 204L-67 349L861 600L2 849L23 996L984 714L951 484L-88 204Z" />
<glyph unicode="?" horiz-adv-x="1003" d="M296 481Q310 580 371 663T526 794Q592 826 636 888T690 1026Q701 1099 674 1158T592 1252T465 1287Q393 1287 329 1252T222 1158T167 1026H27Q43 1137 110 1228T276 1373T485 1427Q596 1427 679 1373T804 1228T830 1026Q814
913 746 818T575 670Q518 642 481 592T436 481H296ZM291 -26Q258 -26 238 -2T222 55Q227 88 253 111T313 134Q346 134 366 111T382 55Q378 22 351 -2T291 -26Z" />
<glyph unicode="@" horiz-adv-x="1731" d="M643 -186Q480 -186 346 -132T117 20T-20 254T-39 551Q-16 713 64 855T268 1106T542 1275T856 1336Q1020 1336 1154 1275T1380 1105T1514 855T1532 551Q1520 469 1488 387T1408 238T1297 130T1161 89Q1104 89 1052 115T969
188T942 291Q892 228 820 191T660 153Q551 153 468 206T345 350T319 551Q334 661 400 751T564 894T771 948Q857 948 923 912T1021 814L1037 928L1148 911L1068 341Q1061 293 1094 261T1175 229Q1235 229 1279 279T1353 404T1392 551Q1411 685 1377 802T1267 1007T1080
1146T837 1196Q704 1196 580 1146T355 1008T187 802T101 551Q82 417 117 308T229 119T418 -3T663 -46L643 -186ZM684 266Q763 266 826 309T931 420T982 563Q992 634 972 696T900 796T764 835Q685 835 615 797T498 695T440 551Q429 471 459 407T548 304T684 266Z"
/>
<glyph unicode="A" horiz-adv-x="1353" d="M589 1400H763L1076 0H927L860 300H183L32 0H-117L589 1400ZM254 440H828L652 1228L254 440Z" />
<glyph unicode="B" horiz-adv-x="1115" d="M-77 0L120 1400H593Q695 1400 773 1359T889 1238T911 1045Q903 981 872 923T798 825T710 772Q770 756 809 717T870 624T896 511T894 395Q878 277 814 188T656 50T458 0H-77ZM81 125H465Q538 125 602 163T712 267T769
416Q779 490 753 555T673 661T546 702H162L81 125ZM179 825H500Q599 825 678 882T771 1046Q788 1162 725 1218T563 1275H243L179 825Z" />
<glyph unicode="C" horiz-adv-x="1398" d="M548 -26Q406 -26 289 30T91 186T-24 418T-38 700Q-17 850 55 982T235 1213T477 1369T752 1426Q922 1426 1053 1347T1261 1137L1128 1070Q1067 1169 962 1227T732 1286Q617 1286 511 1240T319 1112T176 925T102 700Q85
579 112 473T204 286T361 160T567 114Q698 114 818 173T1024 329L1138 262Q1025 131 872 53T548 -26Z" />
<glyph unicode="D" horiz-adv-x="1343" d="M-77 0L120 1400H583Q728 1400 847 1346T1049 1195T1168 972T1185 700Q1164 555 1092 429T910 206T666 55T386 0H-77ZM83 140H406Q522 140 629 183T825 304T971 482T1045 700Q1061 816 1032 917T936 1096T775 1216T563
1260H241L83 140Z" />
<glyph unicode="E" horiz-adv-x="1072" d="M-77 0L120 1400H972L953 1260H241L179 820H768L748 680H159L83 140H795L775 0H-77Z" />
<glyph unicode="F" horiz-adv-x="959" d="M-77 0L120 1400H939L919 1260H241L179 820H761L741 680H159L63 0H-77Z" />
<glyph unicode="G" horiz-adv-x="1496" d="M549 -26Q405 -26 288 30T90 187T-25 419T-38 701Q-17 854 56 986T240 1216T482 1370T755 1425Q916 1425 1048 1350T1262 1137L1128 1069Q1062 1174 958 1230T734 1286Q621 1286 515 1241T322 1114T177 927T102 699Q85
578 112 472T204 286T362 160T570 114Q664 114 753 146T920 238T1058 376T1153 548H776L793 675H1334Q1310 530 1238 403T1057 180T819 29T549 -26Z" />
<glyph unicode="H" horiz-adv-x="1255" d="M995 1400H1135L938 0H798L893 680H159L63 0H-77L120 1400H260L179 820H913L995 1400Z" />
<glyph unicode="I" horiz-adv-x="440" d="M-47 0L150 1400H290L93 0H-47Z" />
<glyph unicode="J" horiz-adv-x="803" d="M90 -26Q22 -26 -39 -4T-148 65L-43 173Q-15 146 24 130T109 114Q179 114 242 151T347 249T400 379L543 1400H683L540 379Q525 271 459 179T296 31T90 -26Z" />
<glyph unicode="K" horiz-adv-x="1066" d="M822 0H641L270 629L132 486L63 0H-77L120 1400H260L162 704L843 1400H1026L378 739L822 0Z" />
<glyph unicode="L" horiz-adv-x="1003" d="M-77 0L120 1400H260L83 140H726L706 0H-77Z" />
<glyph unicode="M" horiz-adv-x="1769" d="M-77 0L391 1400H493L740 370L1275 1400H1377L1452 0H1309L1252 1071L745 92H656L423 1071L65 0H-77Z" />
<glyph unicode="N" horiz-adv-x="1311" d="M-57 0L140 1400H292L869 253L1031 1400H1171L974 0H823L245 1147L83 0H-57Z" />
<glyph unicode="O" horiz-adv-x="1540" d="M570 -26Q428 -26 311 30T112 187T-4 418T-18 700Q3 850 75 981T256 1213T499 1369T774 1426Q917 1426 1034 1370T1231 1213T1347 982T1362 700Q1341 550 1269 419T1087 187T846 31T570 -26ZM589 114Q704 114 810 160T1003
288T1147 475T1222 700Q1239 820 1211 926T1119 1113T961 1240T754 1286Q639 1286 533 1240T340 1112T196 925T122 700Q105 579 132 473T224 286T382 160T589 114Z" />
<glyph unicode="P" horiz-adv-x="1047" d="M-77 0L120 1400H568Q680 1400 762 1346T885 1199T909 991Q893 875 826 782T660 635T453 581H145L63 0H-77ZM165 721H461Q535 721 601 757T713 856T770 998Q781 1077 753 1139T669 1238T539 1275H243L165 721Z" />
<glyph unicode="Q" horiz-adv-x="1553" d="M1172 -24L1028 143Q929 65 812 21T570 -23Q427 -23 310 33T112 189T-4 421T-18 703Q3 853 75 984T256 1216T498 1372T774 1429Q917 1429 1033 1373T1231 1216T1347 985T1361 703Q1342 571 1284 454T1138 243L1285 75L1172
-24ZM590 117Q680 117 772 150T940 244L762 451L875 551L1050 347Q1119 422 1163 514T1221 703Q1238 824 1210 930T1118 1117T960 1243T754 1289Q639 1289 533 1243T340 1115T196 928T122 703Q105 582 133 476T225 289T383 163T590 117Z" />
<glyph unicode="R" horiz-adv-x="1135" d="M-57 0L140 1400H615Q727 1400 809 1346T932 1199T956 991Q942 888 888 804T753 665T579 592L838 0H676L421 581H165L83 0H-57ZM185 721H508Q582 721 648 757T760 856T817 998Q828 1077 800 1139T716 1238T586 1275H263L185
721Z" />
<glyph unicode="S" horiz-adv-x="1220" d="M409 -26Q297 -26 197 9T29 109T-59 264L79 313Q92 251 144 207T271 138T429 114Q524 114 611 146T758 235T828 371Q840 450 794 501T668 581T501 627Q361 652 253 695T91 816T54 1024Q71 1145 154 1234T358 1372T613
1421Q722 1421 821 1387T990 1288T1082 1129L942 1081Q929 1144 877 1188T750 1256T592 1280Q497 1281 410 1249T264 1159T194 1024Q181 934 222 886T342 813T521 770Q652 747 759 699T926 570T968 371Q952 251 870 162T666 23T409 -26Z" />
<glyph unicode="T" horiz-adv-x="1259" d="M1179 1400L1159 1260H679L502 0H362L539 1260H61L80 1400H1179Z" />
<glyph unicode="U" horiz-adv-x="1326" d="M463 -26Q295 -26 185 56T28 276T5 584L120 1400H260L145 584Q127 456 159 349T272 178T483 114Q614 114 713 178T873 350T951 584L1066 1400H1206L1091 584Q1073 457 1021 347T886 152T696 21T463 -26Z" />
<glyph unicode="V" horiz-adv-x="1227" d="M331 0L20 1400H169L441 176L1058 1400H1207L500 0H331Z" />
<glyph unicode="W" horiz-adv-x="1795" d="M261 0L100 1400H245L378 241L835 1400H959L1092 241L1550 1400H1695L1142 0H976L852 1075L426 0H261Z" />
<glyph unicode="X" horiz-adv-x="1319" d="M-137 0L475 704L66 1400H239L578 822L1080 1400H1253L649 704L1062 0H888L545 584L38 0H-137Z" />
<glyph unicode="Y" horiz-adv-x="1203" d="M978 1400H1143L564 634L474 0H334L424 634L60 1400H225L515 787L978 1400Z" />
<glyph unicode="Z" horiz-adv-x="1372" d="M-77 0L-57 140L1045 1260H101L120 1400H1252L1233 1260L130 140H1075L1055 0H-77Z" />
<glyph unicode="[" horiz-adv-x="539" d="M246 28L227 -112H-92L120 1400H439L419 1260H241L67 28H246Z" />
<glyph unicode="\" horiz-adv-x="705" d="M273 -112L80 1400H220L413 -112H273Z" />
<glyph unicode="]" horiz-adv-x="539" d="M-112 -112L-93 28H87L260 1260H81L100 1400H419L207 -112H-112Z" />
<glyph unicode="^" horiz-adv-x="785" d="M24 1000L351 1650H504L649 1000H500L400 1451L172 1000H24Z" />
<glyph unicode="_" horiz-adv-x="1240" d="M-73 28H927L908 -112H-92L-73 28Z" />
<glyph unicode="`" horiz-adv-x="1020" d="M324 1426H464L503 1138H436L324 1426Z" />
<glyph unicode="a" horiz-adv-x="1213" d="M897 1000H1037L896 0H755L777 186Q715 91 619 33T401 -26Q291 -26 201 15T48 130T-42 299T-55 505Q-40 613 14 708T149 875T331 987T539 1028Q665 1028 749 969T875 813L897 1000ZM422 110Q530 110 614 163T751 307T816
505Q828 613 797 700T695 839T519 891Q412 891 318 838T161 695T85 495Q73 388 115 301T239 162T422 110Z" />
<glyph unicode="b" horiz-adv-x="1203" d="M564 1028Q710 1028 819 957T983 767T1017 501Q1002 392 948 297T811 129T627 15T416 -26Q292 -26 210 33T89 187L63 0H-77L134 1500H274L178 815Q243 910 341 969T564 1028ZM433 111Q540 111 635 163T794 305T874 501Q890
611 849 699T728 840T543 892Q437 892 353 839T214 697T145 501Q130 392 159 304T258 163T433 111Z" />
<glyph unicode="c" horiz-adv-x="1019" d="M672 251L788 183Q706 88 594 31T360 -26Q222 -26 119 45T-35 235T-66 500Q-51 610 1 705T133 873T308 987T508 1028Q630 1028 726 971T877 818L743 751Q700 817 632 852T488 888Q387 888 298 835T149 693T74 500Q59
395 95 307T205 167T379 114Q462 114 539 152T672 251Z" />
<glyph unicode="d" horiz-adv-x="1216" d="M957 1500H1097L886 0H746L772 187Q707 91 609 33T386 -26Q277 -26 188 15T36 128T-53 296T-66 500Q-51 609 3 704T140 872T324 986T534 1027Q658 1027 740 969T860 815L957 1500ZM406 110Q513 110 597 162T736 304T805
500Q820 610 790 698T691 839T516 891Q410 891 316 839T157 697T77 500Q62 391 102 303T222 162T406 110Z" />
<glyph unicode="e" horiz-adv-x="1119" d="M360 -26Q222 -26 119 45T-35 235T-66 500Q-51 610 1 705T133 873T308 987T508 1028Q619 1028 706 984T849 861T925 676T922 447H74Q72 352 110 277T217 159T379 114Q479 114 567 166T717 309L854 276Q775 143 643 59T360
-26ZM87 560H797Q803 653 765 730T655 854T490 901Q397 901 314 856T171 733T87 560Z" />
<glyph unicode="f" horiz-adv-x="667" d="M307 1261L271 1000H571L551 860H251L130 0H-10L111 860H-26L-6 1000H131L167 1261Q177 1334 221 1393T330 1488T468 1524Q521 1524 568 1503T648 1441L534 1342Q520 1362 497 1373T448 1384Q397 1384 356 1348T307 1261Z" />
<glyph unicode="g" horiz-adv-x="1175" d="M859 1000H999L853 -37Q840 -133 787 -217T654 -364T479 -464T287 -500Q183 -500 93 -453T-57 -326T-135 -151L2 -92Q10 -167 54 -227T164 -323T306 -359Q375 -359 443 -334T569 -264T665 -162T713 -37L745 184Q679 90
583 32T369 -26Q264 -26 178 15T31 128T-55 296T-66 500Q-51 609 2 704T135 872T313 986T516 1027Q634 1027 714 970T833 817L859 1000ZM389 110Q492 110 575 164T713 307T781 500Q796 607 767 695T669 837T498 891Q396 891 306 839T154 697T77 500Q62 392 99 304T212
163T389 110Z" />
<glyph unicode="h" horiz-adv-x="1085" d="M883 537L808 0H668L743 533Q757 632 727 713T635 843T487 891Q400 891 326 843T203 714T139 533L64 0H-77L134 1500H274L182 843Q247 937 332 982T517 1027Q645 1027 733 960T860 781T883 537Z" />
<glyph unicode="i" horiz-adv-x="421" d="M64 1000H204L63 0H-77L64 1000ZM162 1195Q128 1195 108 1217T92 1274Q97 1308 123 1330T184 1353Q217 1353 237 1331T253 1274Q249 1240 222 1218T162 1195Z" />
<glyph unicode="j" horiz-adv-x="482" d="M-347 -500Q-347 -500 -345 -486T-340 -451T-335 -409T-330 -374T-328 -360Q-253 -360 -190 -327T-84 -237T-31 -108L125 1000H265L109 -108Q94 -216 29 -305T-134 -447T-347 -500ZM219 1167Q186 1167 166 1190T150 1246Q155
1279 181 1303T241 1327Q274 1327 294 1303T310 1246Q306 1214 279 1191T219 1167Z" />
<glyph unicode="k" horiz-adv-x="1002" d="M724 0H563L351 483L118 244L83 0H-57L154 1500H294L148 462L675 1000H858L463 597L724 0Z" />
<glyph unicode="l" horiz-adv-x="420" d="M-57 0L154 1500H294L83 0H-57Z" />
<glyph unicode="m" horiz-adv-x="1710" d="M-104 0L37 1000H177L155 839Q218 920 286 970T449 1020Q574 1020 653 958T769 788Q837 897 934 958T1154 1020Q1280 1020 1363 955T1480 781T1497 544L1420 0H1280L1357 544Q1370 637 1349 713T1273 834T1134 880Q1049
880 979 835T864 713T805 544L728 0H588L665 544Q678 637 654 713T572 834T429 880Q350 880 283 832T170 704T111 531L36 0H-104Z" />
<glyph unicode="n" horiz-adv-x="1097" d="M876 538L800 0H660L736 534Q750 633 720 714T625 843T473 892Q386 892 311 844T184 714T119 534L43 0H-97L44 1000H184L160 833Q230 925 320 976T511 1028Q639 1028 726 961T853 782T876 538Z" />
<glyph unicode="o" horiz-adv-x="1120" d="M360 -26Q222 -26 119 45T-35 235T-66 500Q-51 610 1 705T133 873T308 987T508 1028Q646 1028 749 957T904 766T934 500Q919 391 867 296T735 129T560 15T360 -26ZM379 114Q481 114 570 167T719 309T794 500Q809 605
773 693T663 835T488 888Q386 888 297 835T149 693T74 500Q59 392 95 305T206 166T379 114Z" />
<glyph unicode="p" horiz-adv-x="1222" d="M-7 -500H-147L64 1000H204L178 813Q243 908 341 967T563 1026Q672 1026 761 985T913 872T1003 704T1016 500Q1000 391 946 295T809 127T625 13T415 -28Q291 -28 209 31T89 185L-7 -500ZM543 890Q438 890 354 838T215
697T145 500Q130 393 159 304T257 162T433 109Q537 109 632 161T792 301T874 500Q889 607 849 695T730 837T543 890Z" />
<glyph unicode="q" horiz-adv-x="1222" d="M405 -28Q260 -28 151 43T-13 234T-46 500Q-31 609 23 704T159 871T343 985T553 1026Q677 1026 759 967T880 813L906 1000H1046L835 -500H695L791 185Q727 90 628 31T405 -28ZM536 890Q429 890 334 837T176 696T97 500Q81
390 121 302T242 161T426 109Q533 109 617 162T755 304T825 500Q840 609 810 697T711 837T536 890Z" />
<glyph unicode="r" horiz-adv-x="732" d="M604 864Q581 877 554 884T494 891Q407 891 331 843T204 714T139 533L64 0H-77L64 1000H204L180 833Q250 924 340 975T532 1027Q564 1027 593 1024T647 1011L604 864Z" />
<glyph unicode="s" horiz-adv-x="879" d="M240 -19Q158 -17 84 11T-41 87T-109 196L19 248Q30 209 68 177T160 125T269 105Q330 105 386 125T480 182T526 271Q534 326 503 357T419 407T310 443Q208 472 133 507T19 596T-7 737Q6 828 66 894T216 997T400 1034Q522
1034 614 981T741 840L618 773Q606 814 571 844T489 891T391 909Q327 910 270 891T173 833T126 740Q119 685 147 657T230 611T352 570Q439 541 513 504T630 412T659 273Q646 183 583 116T428 14T240 -19Z" />
<glyph unicode="t" horiz-adv-x="690" d="M555 860H316L194 0H54L176 860H-5L15 1000H196L239 1314H379L336 1000H575L555 860Z" />
<glyph unicode="u" horiz-adv-x="1137" d="M-12 464L64 1000H204L129 468Q115 370 145 289T239 159T391 110Q478 110 553 158T681 288T747 468L821 1000H961L820 0H680L704 168Q635 77 545 25T354 -27Q226 -27 139 40T12 220T-12 464Z" />
<glyph unicode="v" horiz-adv-x="1028" d="M406 0H228L4 1003H153L341 164L763 1003H912L406 0Z" />
<glyph unicode="w" horiz-adv-x="1625" d="M342 0H198L4 1000H141L299 194L683 1000H831L987 194L1371 1000H1509L1033 0H888L729 814L342 0Z" />
<glyph unicode="x" horiz-adv-x="1065" d="M-117 0L320 502L25 1003H198L423 622L755 1003H927L493 502L788 0H615L390 384L56 0H-117Z" />
<glyph unicode="y" horiz-adv-x="1033" d="M749 1000H897L139 -500H-10L242 0L24 1000H177L339 193L749 1000Z" />
<glyph unicode="z" horiz-adv-x="1067" d="M885 860L128 140H784L764 0H-90L-70 140L687 860H31L51 1000H905L885 860Z" />
<glyph unicode="{" horiz-adv-x="803" d="M417 -113Q320 -113 247 -66T138 61T116 237L150 482Q153 515 132 533T81 564T30 594T13 643Q18 675 44 693T103 724T162 754T195 804L230 1050Q244 1146 302 1225T446 1352T629 1400H703L684 1260H610Q553 1260 501 1232T414
1156T370 1050L335 799Q328 760 310 737T263 694T192 643Q226 610 249 590T284 549T291 487L256 237Q248 179 269 132T335 56T437 27H511L491 -113H417Z" />
<glyph unicode="|" horiz-adv-x="420" d="M140 1400H280L41 -302H-99L140 1400Z" />
<glyph unicode="}" horiz-adv-x="803" d="M-113 -113L-93 27H-19Q39 27 90 55T177 131T220 237L256 487Q264 527 280 548T326 590T398 643Q365 674 342 694T308 737T300 799L335 1050Q343 1108 321 1155T256 1231T155 1260H81L100 1400H174Q271 1400 344 1353T453
1226T475 1050L440 804Q437 772 459 755T510 724T560 693T577 643Q573 612 547 595T488 564T428 533T395 482L360 237Q347 141 289 62T144 -65T-39 -113H-113Z" />
<glyph unicode="~" horiz-adv-x="1224" d="M760 423Q697 423 628 456T489 532T358 609T244 642Q200 643 165 619T110 555T93 471L-45 464Q-52 542 -12 613T100 731T254 777Q315 777 379 744T507 666T633 589T750 555Q795 555 831 579T888 642T904 724L1042 733Q1050
652 1013 582T908 467T760 423Z" />
<glyph unicode="&#xa0;" horiz-adv-x="480" />
<glyph unicode="&#xa1;" horiz-adv-x="333" d="M106 1026Q140 1026 160 1003T175 945Q171 912 145 889T84 866Q51 866 32 889T16 945Q21 980 47 1003T106 1026ZM106 580L-32 -400H-156L-18 580H106Z" />
<glyph unicode="&#xa2;" horiz-adv-x="1092" d="M329 0L357 203Q234 217 143 286T8 464T-18 702Q0 831 74 939T260 1116T498 1199L526 1400H633L604 1199Q723 1189 813 1125T950 962L819 892Q782 970 705 1017T535 1064Q436 1064 347 1015T197 884T122 702Q108
600 146 518T260 387T433 338Q525 338 615 385T765 510L877 440Q804 342 695 278T464 203L436 0H329Z" />
<glyph unicode="&#xa3;" horiz-adv-x="1161" d="M-93 0L-73 140Q-15 140 41 155T144 199T218 268T244 357Q248 421 230 466T182 547T118 618T57 694T16 791T13 927Q28 1030 79 1120T209 1279T384 1387T583 1426Q687 1426 772 1387T917 1280T1002 1121T1014 927H874Q888
1026 851 1107T738 1237T563 1286Q465 1286 377 1238T228 1108T153 927Q142 845 157 791T203 699T269 629T335 558T381 464T384 325Q379 284 355 247T299 182T235 140H895L875 0H-93ZM-29 449L-15 556H736L721 449H-29Z" />
<glyph unicode="&#xa4;" horiz-adv-x="983" d="M-1 288L-66 363L76 488Q39 551 34 625T55 773T137 910L29 1038L115 1112L224 986Q291 1032 368 1048T518 1049T645 988L788 1112L852 1038L711 913Q751 851 756 776T736 625T654 486L758 363L672 288L567 410Q497
362 420 346T270 346T140 412L-1 288ZM359 445Q429 446 491 480T595 571T647 698Q658 770 632 826T553 916T430 950Q359 950 297 916T194 825T142 698Q132 627 159 570T239 479T359 445Z" />
<glyph unicode="&#xa5;" horiz-adv-x="1229" d="M348 0L375 193H81L96 299H390L413 459H119L133 565H427L437 634L73 1400H238L529 787L991 1400H1156L577 634L567 565H861L847 459H553L530 299H824L809 193H515L488 0H348Z" />
<glyph unicode="&#xa6;" horiz-adv-x="380" d="M-14 448H126L21 -302H-119L-14 448ZM120 1400H260L155 650H15L120 1400Z" />
<glyph unicode="&#xa7;" horiz-adv-x="1076" d="M292 -401Q170 -401 77 -348T-50 -207L74 -141Q86 -181 120 -211T202 -258T300 -277Q365 -278 422 -259T518 -201T565 -107Q573 -51 545 -20T463 30T339 63Q222 86 139 144T16 292T-7 499Q5 583 49 658T160 789T310
873Q203 899 157 955T124 1105Q137 1196 198 1262T347 1364T531 1400Q653 1400 746 1348T873 1207L749 1141Q737 1181 703 1211T621 1258T523 1277Q459 1278 401 1259T305 1201T258 1107Q251 1052 278 1021T358 972T482 938Q602 912 686 856T808 711T829 499Q817
415 773 340T661 209T512 126Q619 101 665 44T699 -105Q686 -196 625 -262T476 -365T292 -401ZM375 205Q453 205 523 245T642 351T701 495Q715 588 682 655T586 759T446 795Q369 795 299 755T181 648T121 499Q109 416 141 350T235 244T375 205Z" />
<glyph unicode="&#xa8;" horiz-adv-x="1278" d="M445 1135Q411 1135 390 1157T374 1214Q379 1247 406 1271T468 1295Q501 1295 521 1271T537 1214Q533 1180 506 1158T445 1135ZM760 1135Q726 1135 705 1157T689 1214Q694 1247 721 1271T782 1295Q815 1295 836
1271T852 1214Q847 1180 820 1158T760 1135Z" />
<glyph unicode="&#xa9;" horiz-adv-x="1803" d="M674 -217Q504 -217 364 -153T127 24T-13 286T-32 605Q-8 775 76 924T290 1186T577 1362T905 1426Q1075 1426 1215 1363T1452 1186T1593 924T1612 605Q1588 435 1503 286T1289 24T1002 -153T674 -217ZM694 -77Q837
-77 968 -23T1206 125T1383 343T1472 605Q1492 746 1456 870T1338 1088T1141 1234T885 1286Q743 1285 612 1232T374 1084T198 868T108 605Q88 461 124 337T242 120T439 -25T694 -77ZM1021 356L1137 288Q1055 193 943 136T709 79Q571 79 468 150T314 340T283 605Q298
715 350 810T482 978T657 1092T857 1133Q979 1133 1075 1076T1226 923L1092 856Q1049 922 981 957T837 993Q736 993 647 940T498 798T423 605Q408 500 444 412T554 272T728 219Q811 219 888 257T1021 356Z" />
<glyph unicode="&#xaa;" horiz-adv-x="1213" d="M897 1000H1037L896 0H755L777 186Q715 91 619 33T401 -26Q291 -26 201 15T48 130T-42 299T-55 505Q-40 613 14 708T149 875T331 987T539 1028Q665 1028 749 969T875 813L897 1000ZM422 110Q530 110 614 163T751
307T816 505Q828 613 797 700T695 839T519 891Q412 891 318 838T161 695T85 495Q73 388 115 301T239 162T422 110Z" />
<glyph unicode="&#xab;" horiz-adv-x="1020" d="M260 261L8 601L355 939H508L162 601L413 261H260ZM607 261L355 601L702 939H855L509 601L760 261H607Z" />
<glyph unicode="&#xac;" horiz-adv-x="973" d="M600 315L660 745H-12L8 885H820L740 315H600Z" />
<glyph unicode="&#xad;" horiz-adv-x="907" d="M45 670H685L664 530H24L45 670Z" />
<glyph unicode="&#xae;" horiz-adv-x="995" d="M365 463Q274 463 200 498T74 593T0 733T-10 901Q2 990 47 1069T160 1208T313 1303T488 1338Q581 1338 656 1303T782 1207T855 1067T865 901Q852 811 807 732T693 593T540 498T365 463ZM381 573Q472 573 552 617T687
736T755 901Q768 991 734 1065T632 1184T473 1228Q383 1228 303 1184T168 1066T100 901Q87 811 121 737T223 618T381 573ZM278 709L334 1109H484Q532 1109 560 1074T582 988Q577 949 551 919T490 877L564 709H476L404 869H377L355 709H278ZM388 945H462Q477 945
490 958T506 988Q508 1007 499 1019T474 1032H401L388 945Z" />
<glyph unicode="&#xaf;" horiz-adv-x="1200" d="M257 1362H933L913 1222H237L257 1362Z" />
<glyph unicode="&#xb0;" horiz-adv-x="705" d="M269 808Q193 808 137 845T53 945T35 1080Q46 1155 91 1216T203 1315T346 1352Q423 1352 479 1315T562 1216T580 1080Q569 1004 523 942T410 844T269 808ZM289 948Q344 948 388 986T440 1080Q448 1136 415 1174T327
1212Q272 1212 228 1174T175 1080Q168 1025 201 987T289 948Z" />
<glyph unicode="&#xb1;" horiz-adv-x="1160" d="M360 333L420 763H-10L10 903H440L501 1333H641L580 903H1010L990 763H560L500 333H360ZM-117 0L-97 140H903L883 0H-117Z" />
<glyph unicode="&#xb2;" horiz-adv-x="689" d="M14 818L28 916Q71 942 131 981T252 1065T359 1159T421 1254Q428 1304 398 1336T317 1368Q267 1368 227 1336T180 1254H76Q85 1316 122 1364T214 1440T332 1468Q424 1468 481 1408T525 1254Q519 1211 487 1166T409
1076T310 992T212 922H474L459 818H14Z" />
<glyph unicode="&#xb3;" horiz-adv-x="556" d="M194 798Q109 798 56 853T15 994H119Q113 951 139 925T209 898Q251 898 284 924T323 994Q330 1043 297 1075T194 1107L205 1190Q270 1190 305 1217T346 1287Q351 1322 328 1344T269 1367Q234 1367 205 1345T171 1287H67Q78
1367 141 1417T283 1467Q363 1467 412 1417T450 1287Q444 1245 422 1208T371 1151Q406 1119 420 1083T427 994Q415 908 347 853T194 798Z" />
<glyph unicode="&#xb4;" horiz-adv-x="1020" d="M443 1138L564 1426H704L510 1138H443Z" />
<glyph unicode="&#xb5;" horiz-adv-x="1057" d="M-177 -432L24 1000H164L89 468Q75 370 105 289T199 159T351 110Q438 110 513 158T641 288T707 468L781 1000H921L780 0H640L664 168Q595 77 505 25T314 -27Q220 -27 151 19T42 139L-37 -432H-177Z" />
<glyph unicode="&#xb6;" horiz-adv-x="857" d="M181 -302L324 718Q230 718 160 764T54 887T32 1059Q45 1153 102 1230T242 1354T420 1400H560L321 -302H181ZM398 -302L637 1400H777L538 -302H398Z" />
<glyph unicode="&#xb7;" horiz-adv-x="320" d="M35 520Q2 520 -17 543T-32 601Q-27 633 -1 656T58 680Q92 680 112 657T128 601Q123 567 96 544T35 520Z" />
<glyph unicode="&#xb8;" horiz-adv-x="1219" d="M160 -306L176 -193H239Q305 -193 365 -160T466 -71T517 50L526 113H639L630 51Q616 -47 556 -128T408 -258T221 -306H160Z" />
<glyph unicode="&#xb9;" horiz-adv-x="423" d="M93 818L167 1345H88L118 1449H286L197 818H93Z" />
<glyph unicode="&#xba;" horiz-adv-x="1120" d="M360 -26Q222 -26 119 45T-35 235T-66 500Q-51 610 1 705T133 873T308 987T508 1028Q646 1028 749 957T904 766T934 500Q919 391 867 296T735 129T560 15T360 -26ZM379 114Q481 114 570 167T719 309T794 500Q809
605 773 693T663 835T488 888Q386 888 297 835T149 693T74 500Q59 392 95 305T206 166T379 114Z" />
<glyph unicode="&#xbb;" horiz-adv-x="1040" d="M287 261L634 601L382 939H535L788 601L440 261H287ZM-60 261L287 601L35 939H188L441 601L93 261H-60Z" />
<glyph unicode="&#xbc;" horiz-adv-x="2039" d="M93 818L167 1345H88L118 1449H286L197 818H93ZM226 0L1231 1400H1358L353 0H226ZM1524 0L1541 121H1274L1292 247L1590 631H1717L1660 225H1730L1716 121H1645L1628 0H1524ZM1395 225H1562L1598 489L1395 225Z" />
<glyph unicode="&#xbd;" horiz-adv-x="2047" d="M93 818L167 1345H88L118 1449H286L197 818H93ZM226 0L1231 1400H1358L353 0H226ZM1257 0L1271 98Q1314 124 1374 163T1495 248T1602 342T1664 437Q1671 487 1641 518T1560 550Q1510 550 1470 519T1423 437H1319Q1327
499 1364 548T1457 625T1575 654Q1637 654 1683 626T1753 548T1768 437Q1762 394 1730 348T1652 258T1553 175T1455 104H1717L1702 0H1257Z" />
<glyph unicode="&#xbe;" horiz-adv-x="2173" d="M194 798Q109 798 56 853T15 994H119Q113 951 139 925T209 898Q251 898 284 924T323 994Q330 1043 297 1075T194 1107L205 1190Q270 1190 305 1217T346 1287Q351 1322 328 1344T269 1367Q234 1367 205 1345T171
1287H67Q78 1367 141 1417T283 1467Q363 1467 412 1417T450 1287Q444 1245 422 1208T371 1151Q406 1119 420 1083T427 994Q415 908 347 853T194 798ZM359 0L1364 1400H1491L486 0H359ZM1657 0L1674 121H1407L1425 247L1723 631H1850L1793 225H1863L1849 121H1778L1761
0H1657ZM1528 225H1695L1731 489L1528 225Z" />
<glyph unicode="&#xbf;" horiz-adv-x="977" d="M225 -427Q114 -427 31 -373T-94 -228T-120 -26Q-104 87 -36 183T135 330Q191 359 228 409T275 520H415Q401 423 340 340T184 207Q118 174 75 112T20 -26Q10 -98 37 -157T118 -251T245 -287Q317 -287 381 -252T490
-157T544 -26H684Q669 -136 602 -227T435 -373T225 -427ZM397 866Q363 866 344 889T328 945Q333 980 359 1003T419 1026Q452 1026 472 1003T487 945Q483 912 457 889T397 866Z" />
<glyph unicode="&#xc0;" horiz-adv-x="1353" d="M589 1400H763L1076 0H927L860 300H183L32 0H-117L589 1400ZM254 440H828L652 1228L254 440ZM543 1826H683L722 1538H655L543 1826Z" />
<glyph unicode="&#xc1;" horiz-adv-x="1353" d="M589 1400H763L1076 0H927L860 300H183L32 0H-117L589 1400ZM254 440H828L652 1228L254 440ZM678 1538L799 1826H939L745 1538H678Z" />
<glyph unicode="&#xc2;" horiz-adv-x="1353" d="M589 1400H763L1076 0H927L860 300H183L32 0H-117L589 1400ZM254 440H828L652 1228L254 440ZM669 1800H797L864 1566H766L723 1725L632 1566H535L669 1800Z" />
<glyph unicode="&#xc3;" horiz-adv-x="1353" d="M589 1400H763L1076 0H927L860 300H183L32 0H-117L589 1400ZM254 440H828L652 1228L254 440ZM847 1514Q810 1514 768 1537T685 1591T607 1643T545 1658Q518 1652 500 1625T486 1560L387 1534Q376 1591 397 1643T464
1727T569 1760Q607 1760 649 1738T733 1688T811 1637T872 1615Q895 1615 910 1632T931 1672T933 1712L1032 1743Q1043 1683 1020 1631T951 1547T847 1514Z" />
<glyph unicode="&#xc4;" horiz-adv-x="1353" d="M589 1400H763L1076 0H927L860 300H183L32 0H-117L589 1400ZM254 440H828L652 1228L254 440ZM538 1535Q504 1535 483 1557T467 1614Q472 1647 499 1671T561 1695Q594 1695 614 1671T630 1614Q626 1580 599 1558T538
1535ZM853 1535Q819 1535 798 1557T782 1614Q787 1647 814 1671T875 1695Q908 1695 929 1671T945 1614Q940 1580 913 1558T853 1535Z" />
<glyph unicode="&#xc5;" horiz-adv-x="1353" d="M589 1400H763L1076 0H927L860 300H183L32 0H-117L589 1400ZM254 440H828L652 1228L254 440ZM689 1495Q623 1495 583 1543T553 1656Q559 1699 585 1734T651 1792T734 1814Q799 1814 839 1767T870 1656Q861 1589
808 1542T689 1495ZM699 1564Q737 1564 766 1590T802 1656Q807 1692 785 1718T724 1744Q687 1744 657 1718T622 1656Q616 1617 639 1591T699 1564Z" />
<glyph unicode="&#xc6;" horiz-adv-x="1619" d="M-117 0L589 1400H1519L1500 1260H928L859 770H1335L1315 630H839L770 140H1342L1322 0H610L653 300H183L32 0H-117ZM254 440H672L788 1260H669L254 440Z" />
<glyph unicode="&#xc7;" horiz-adv-x="1398" d="M548 -26Q406 -26 289 30T91 186T-24 418T-38 700Q-17 850 55 982T235 1213T477 1369T752 1426Q922 1426 1053 1347T1261 1137L1128 1070Q1067 1169 962 1227T732 1286Q617 1286 511 1240T319 1112T176 925T102
700Q85 579 112 473T204 286T361 160T567 114Q698 114 818 173T1024 329L1138 262Q1025 131 872 53T548 -26ZM247 -73L263 40H326Q392 40 452 73T553 162T604 283L613 346H726L717 284Q703 186 643 105T495 -25T308 -73H247Z" />
<glyph unicode="&#xc8;" horiz-adv-x="1072" d="M-77 0L120 1400H972L953 1260H241L179 820H768L748 680H159L83 140H795L775 0H-77ZM403 1826H543L582 1538H515L403 1826Z" />
<glyph unicode="&#xc9;" horiz-adv-x="1072" d="M-77 0L120 1400H972L953 1260H241L179 820H768L748 680H159L83 140H795L775 0H-77ZM538 1538L659 1826H799L605 1538H538Z" />
<glyph unicode="&#xca;" horiz-adv-x="1072" d="M-77 0L120 1400H972L953 1260H241L179 820H768L748 680H159L83 140H795L775 0H-77ZM529 1800H657L724 1566H626L583 1725L492 1566H395L529 1800Z" />
<glyph unicode="&#xcb;" horiz-adv-x="1072" d="M-77 0L120 1400H972L953 1260H241L179 820H768L748 680H159L83 140H795L775 0H-77ZM398 1535Q364 1535 343 1557T327 1614Q332 1647 359 1671T421 1695Q454 1695 474 1671T490 1614Q486 1580 459 1558T398 1535ZM713
1535Q679 1535 658 1557T642 1614Q647 1647 674 1671T735 1695Q768 1695 789 1671T805 1614Q800 1580 773 1558T713 1535Z" />
<glyph unicode="&#xcc;" horiz-adv-x="440" d="M-47 0L150 1400H290L93 0H-47ZM87 1826H227L266 1538H199L87 1826Z" />
<glyph unicode="&#xcd;" horiz-adv-x="440" d="M-47 0L150 1400H290L93 0H-47ZM222 1538L343 1826H483L289 1538H222Z" />
<glyph unicode="&#xce;" horiz-adv-x="440" d="M-47 0L150 1400H290L93 0H-47ZM213 1800H341L408 1566H310L267 1725L176 1566H79L213 1800Z" />
<glyph unicode="&#xcf;" horiz-adv-x="440" d="M-47 0L150 1400H290L93 0H-47ZM82 1535Q48 1535 27 1557T11 1614Q16 1647 43 1671T105 1695Q138 1695 158 1671T174 1614Q170 1580 143 1558T82 1535ZM397 1535Q363 1535 342 1557T326 1614Q331 1647 358 1671T419
1695Q452 1695 473 1671T489 1614Q484 1580 457 1558T397 1535Z" />
<glyph unicode="&#xd0;" horiz-adv-x="1455" d="M35 0L130 680H-2L18 820H150L232 1400H695Q840 1400 959 1346T1161 1195T1280 972T1297 700Q1276 555 1204 429T1022 206T778 55T498 0H35ZM195 140H518Q635 140 743 184T938 306T1083 485T1157 700Q1174 817 1144
919T1046 1097T884 1217T676 1260H352L290 820H635L615 680H270L195 140Z" />
<glyph unicode="&#xd1;" horiz-adv-x="1311" d="M-57 0L140 1400H292L869 253L1031 1400H1171L974 0H823L245 1147L83 0H-57ZM826 1514Q789 1514 747 1537T664 1591T586 1643T524 1658Q497 1652 479 1625T465 1560L366 1534Q355 1591 376 1643T443 1727T548 1760Q586
1760 628 1738T712 1688T790 1637T851 1615Q874 1615 889 1632T910 1672T912 1712L1011 1743Q1022 1683 999 1631T930 1547T826 1514Z" />
<glyph unicode="&#xd2;" horiz-adv-x="1540" d="M570 -26Q428 -26 311 30T112 187T-4 418T-18 700Q3 850 75 981T256 1213T499 1369T774 1426Q917 1426 1034 1370T1231 1213T1347 982T1362 700Q1341 550 1269 419T1087 187T846 31T570 -26ZM589 114Q704 114 810
160T1003 288T1147 475T1222 700Q1239 820 1211 926T1119 1113T961 1240T754 1286Q639 1286 533 1240T340 1112T196 925T122 700Q105 579 132 473T224 286T382 160T589 114ZM637 1826H777L816 1538H749L637 1826Z" />
<glyph unicode="&#xd3;" horiz-adv-x="1540" d="M570 -26Q428 -26 311 30T112 187T-4 418T-18 700Q3 850 75 981T256 1213T499 1369T774 1426Q917 1426 1034 1370T1231 1213T1347 982T1362 700Q1341 550 1269 419T1087 187T846 31T570 -26ZM589 114Q704 114 810
160T1003 288T1147 475T1222 700Q1239 820 1211 926T1119 1113T961 1240T754 1286Q639 1286 533 1240T340 1112T196 925T122 700Q105 579 132 473T224 286T382 160T589 114ZM772 1538L893 1826H1033L839 1538H772Z" />
<glyph unicode="&#xd4;" horiz-adv-x="1540" d="M570 -26Q428 -26 311 30T112 187T-4 418T-18 700Q3 850 75 981T256 1213T499 1369T774 1426Q917 1426 1034 1370T1231 1213T1347 982T1362 700Q1341 550 1269 419T1087 187T846 31T570 -26ZM589 114Q704 114 810
160T1003 288T1147 475T1222 700Q1239 820 1211 926T1119 1113T961 1240T754 1286Q639 1286 533 1240T340 1112T196 925T122 700Q105 579 132 473T224 286T382 160T589 114ZM763 1800H891L958 1566H860L817 1725L726 1566H629L763 1800Z" />
<glyph unicode="&#xd5;" horiz-adv-x="1540" d="M570 -26Q428 -26 311 30T112 187T-4 418T-18 700Q3 850 75 981T256 1213T499 1369T774 1426Q917 1426 1034 1370T1231 1213T1347 982T1362 700Q1341 550 1269 419T1087 187T846 31T570 -26ZM589 114Q704 114 810
160T1003 288T1147 475T1222 700Q1239 820 1211 926T1119 1113T961 1240T754 1286Q639 1286 533 1240T340 1112T196 925T122 700Q105 579 132 473T224 286T382 160T589 114ZM941 1514Q904 1514 862 1537T779 1591T701 1643T639 1658Q612 1652 594 1625T580 1560L481
1534Q470 1591 491 1643T558 1727T663 1760Q701 1760 743 1738T827 1688T905 1637T966 1615Q989 1615 1004 1632T1025 1672T1027 1712L1126 1743Q1137 1683 1114 1631T1045 1547T941 1514Z" />
<glyph unicode="&#xd6;" horiz-adv-x="1540" d="M570 -26Q428 -26 311 30T112 187T-4 418T-18 700Q3 850 75 981T256 1213T499 1369T774 1426Q917 1426 1034 1370T1231 1213T1347 982T1362 700Q1341 550 1269 419T1087 187T846 31T570 -26ZM589 114Q704 114 810
160T1003 288T1147 475T1222 700Q1239 820 1211 926T1119 1113T961 1240T754 1286Q639 1286 533 1240T340 1112T196 925T122 700Q105 579 132 473T224 286T382 160T589 114ZM632 1535Q598 1535 577 1557T561 1614Q566 1647 593 1671T655 1695Q688 1695 708 1671T724
1614Q720 1580 693 1558T632 1535ZM947 1535Q913 1535 892 1557T876 1614Q881 1647 908 1671T969 1695Q1002 1695 1023 1671T1039 1614Q1034 1580 1007 1558T947 1535Z" />
<glyph unicode="&#xd7;" horiz-adv-x="966" d="M10 197L-75 296L271 600L10 904L123 1003L383 699L730 1003L816 904L469 600L731 296L617 197L356 501L10 197Z" />
<glyph unicode="&#xd8;" horiz-adv-x="1540" d="M193 -82L81 -12L177 123Q67 222 12 373T-18 700Q3 850 75 981T256 1213T499 1369T774 1426Q855 1426 926 1407T1061 1353L1153 1482L1264 1412L1168 1278Q1279 1180 1333 1029T1362 700Q1341 550 1269 419T1087
187T846 31T570 -26Q491 -26 419 -7T284 47L193 -82ZM268 251L972 1229Q926 1256 871 1271T754 1286Q639 1286 533 1240T340 1112T196 925T122 700Q103 563 143 446T268 251ZM589 114Q704 114 810 160T1003 288T1147 475T1222 700Q1242 837 1201 954T1077 1151L374
171Q420 144 475 129T589 114Z" />
<glyph unicode="&#xd9;" horiz-adv-x="1326" d="M463 -26Q295 -26 185 56T28 276T5 584L120 1400H260L145 584Q127 456 159 349T272 178T483 114Q614 114 713 178T873 350T951 584L1066 1400H1206L1091 584Q1073 457 1021 347T886 152T696 21T463 -26ZM530 1826H670L709
1538H642L530 1826Z" />
<glyph unicode="&#xda;" horiz-adv-x="1326" d="M463 -26Q295 -26 185 56T28 276T5 584L120 1400H260L145 584Q127 456 159 349T272 178T483 114Q614 114 713 178T873 350T951 584L1066 1400H1206L1091 584Q1073 457 1021 347T886 152T696 21T463 -26ZM665 1538L786
1826H926L732 1538H665Z" />
<glyph unicode="&#xdb;" horiz-adv-x="1326" d="M463 -26Q295 -26 185 56T28 276T5 584L120 1400H260L145 584Q127 456 159 349T272 178T483 114Q614 114 713 178T873 350T951 584L1066 1400H1206L1091 584Q1073 457 1021 347T886 152T696 21T463 -26ZM656 1800H784L851
1566H753L710 1725L619 1566H522L656 1800Z" />
<glyph unicode="&#xdc;" horiz-adv-x="1326" d="M463 -26Q295 -26 185 56T28 276T5 584L120 1400H260L145 584Q127 456 159 349T272 178T483 114Q614 114 713 178T873 350T951 584L1066 1400H1206L1091 584Q1073 457 1021 347T886 152T696 21T463 -26ZM525 1535Q491
1535 470 1557T454 1614Q459 1647 486 1671T548 1695Q581 1695 601 1671T617 1614Q613 1580 586 1558T525 1535ZM840 1535Q806 1535 785 1557T769 1614Q774 1647 801 1671T862 1695Q895 1695 916 1671T932 1614Q927 1580 900 1558T840 1535Z" />
<glyph unicode="&#xdd;" horiz-adv-x="1203" d="M978 1400H1143L564 634L474 0H334L424 634L60 1400H225L515 787L978 1400ZM603 1538L724 1826H864L670 1538H603Z" />
<glyph unicode="&#xde;" horiz-adv-x="1047" d="M-77 0L120 1400H260L219 1109H527Q639 1109 722 1055T845 908T869 700Q852 584 784 492T618 345T412 291H104L63 0H-77ZM124 431H421Q495 431 561 467T673 565T730 707Q741 786 713 848T628 947T498 984H201L124 431Z" />
<glyph unicode="&#xdf;" horiz-adv-x="1069" d="M-77 0L57 953Q70 1045 116 1126T232 1268T387 1365T566 1400Q669 1400 745 1349T858 1212T881 1018Q873 958 846 900T775 794T675 717Q733 703 773 669T836 588T866 487T865 375Q850 270 787 185T630 50T431 0H357L348
125H438Q511 125 575 160T683 253T737 383Q747 454 720 511T638 604T510 639L420 641L438 761L465 763Q531 765 590 799T690 890T741 1018Q751 1089 727 1147T653 1240T537 1275Q456 1275 384 1235T262 1128T201 979L63 0H-77Z" />
<glyph unicode="&#xe0;" horiz-adv-x="1213" d="M897 1000H1037L896 0H755L777 186Q715 91 619 33T401 -26Q291 -26 201 15T48 130T-42 299T-55 505Q-40 613 14 708T149 875T331 987T539 1028Q665 1028 749 969T875 813L897 1000ZM422 110Q530 110 614 163T751
307T816 505Q828 613 797 700T695 839T519 891Q412 891 318 838T161 695T85 495Q73 388 115 301T239 162T422 110ZM417 1426H557L596 1138H529L417 1426Z" />
<glyph unicode="&#xe1;" horiz-adv-x="1213" d="M897 1000H1037L896 0H755L777 186Q715 91 619 33T401 -26Q291 -26 201 15T48 130T-42 299T-55 505Q-40 613 14 708T149 875T331 987T539 1028Q665 1028 749 969T875 813L897 1000ZM422 110Q530 110 614 163T751
307T816 505Q828 613 797 700T695 839T519 891Q412 891 318 838T161 695T85 495Q73 388 115 301T239 162T422 110ZM552 1138L673 1426H813L619 1138H552Z" />
<glyph unicode="&#xe2;" horiz-adv-x="1213" d="M897 1000H1037L896 0H755L777 186Q715 91 619 33T401 -26Q291 -26 201 15T48 130T-42 299T-55 505Q-40 613 14 708T149 875T331 987T539 1028Q665 1028 749 969T875 813L897 1000ZM422 110Q530 110 614 163T751
307T816 505Q828 613 797 700T695 839T519 891Q412 891 318 838T161 695T85 495Q73 388 115 301T239 162T422 110ZM543 1400H671L738 1166H640L597 1325L506 1166H409L543 1400Z" />
<glyph unicode="&#xe3;" horiz-adv-x="1213" d="M897 1000H1037L896 0H755L777 186Q715 91 619 33T401 -26Q291 -26 201 15T48 130T-42 299T-55 505Q-40 613 14 708T149 875T331 987T539 1028Q665 1028 749 969T875 813L897 1000ZM422 110Q530 110 614 163T751
307T816 505Q828 613 797 700T695 839T519 891Q412 891 318 838T161 695T85 495Q73 388 115 301T239 162T422 110ZM977 1114Q940 1114 898 1137T815 1191T737 1243T675 1258Q648 1252 630 1225T616 1160L517 1134Q506 1191 527 1243T594 1327T699 1360Q737 1360
779 1338T863 1288T941 1237T1002 1215Q1025 1215 1040 1232T1061 1272T1063 1312L1162 1343Q1173 1283 1150 1231T1081 1147T977 1114Z" />
<glyph unicode="&#xe4;" horiz-adv-x="1213" d="M897 1000H1037L896 0H755L777 186Q715 91 619 33T401 -26Q291 -26 201 15T48 130T-42 299T-55 505Q-40 613 14 708T149 875T331 987T539 1028Q665 1028 749 969T875 813L897 1000ZM422 110Q530 110 614 163T751
307T816 505Q828 613 797 700T695 839T519 891Q412 891 318 838T161 695T85 495Q73 388 115 301T239 162T422 110ZM668 1135Q634 1135 613 1157T597 1214Q602 1247 629 1271T691 1295Q724 1295 744 1271T760 1214Q756 1180 729 1158T668 1135ZM983 1135Q949 1135
928 1157T912 1214Q917 1247 944 1271T1005 1295Q1038 1295 1059 1271T1075 1214Q1070 1180 1043 1158T983 1135Z" />
<glyph unicode="&#xe5;" horiz-adv-x="1213" d="M897 1000H1037L896 0H755L777 186Q715 91 619 33T401 -26Q291 -26 201 15T48 130T-42 299T-55 505Q-40 613 14 708T149 875T331 987T539 1028Q665 1028 749 969T875 813L897 1000ZM422 110Q530 110 614 163T751
307T816 505Q828 613 797 700T695 839T519 891Q412 891 318 838T161 695T85 495Q73 388 115 301T239 162T422 110ZM563 1095Q497 1095 457 1143T427 1256Q433 1299 459 1334T525 1392T608 1414Q673 1414 713 1367T744 1256Q735 1189 682 1142T563 1095ZM573 1164Q611
1164 640 1190T676 1256Q681 1292 659 1318T598 1344Q561 1344 531 1318T496 1256Q490 1217 513 1191T573 1164Z" />
<glyph unicode="&#xe6;" horiz-adv-x="1877" d="M277 -9Q170 -9 84 28T-47 139T-77 327Q-61 419 -8 474T123 553T288 578H702Q706 649 703 710T678 817T607 889T469 915Q410 915 356 903T257 866T183 801L72 871Q123 941 190 978T334 1030T487 1045Q597 1045 664
1013T767 923T817 791Q868 867 939 924T1094 1013T1268 1045Q1379 1045 1466 1001T1609 879T1685 694T1682 465H835Q833 370 871 295T978 176T1140 131Q1240 131 1328 183T1477 327L1615 293Q1536 160 1403 76T1120 -9Q992 -9 895 55T747 223Q715 155 662 103T541
21T393 -9H277ZM345 91Q424 91 479 113T571 169T628 243T658 316T671 371L685 465H329Q220 465 147 436T58 315Q47 231 83 182T188 112T345 91ZM846 578H1556Q1562 671 1524 748T1414 872T1250 919Q1157 919 1074 874T930 751T846 578Z" />
<glyph unicode="&#xe7;" horiz-adv-x="1019" d="M672 251L788 183Q706 88 594 31T360 -26Q222 -26 119 45T-35 235T-66 500Q-51 610 1 705T133 873T308 987T508 1028Q630 1028 726 971T877 818L743 751Q700 817 632 852T488 888Q387 888 298 835T149 693T74 500Q59
395 95 307T205 167T379 114Q462 114 539 152T672 251ZM313 -73L329 40H392Q458 40 518 73T619 162T670 283L679 346H792L783 284Q769 186 709 105T561 -25T374 -73H313Z" />
<glyph unicode="&#xe8;" horiz-adv-x="1119" d="M360 -26Q222 -26 119 45T-35 235T-66 500Q-51 610 1 705T133 873T308 987T508 1028Q619 1028 706 984T849 861T925 676T922 447H74Q72 352 110 277T217 159T379 114Q479 114 567 166T717 309L854 276Q775 143 643
59T360 -26ZM87 560H797Q803 653 765 730T655 854T490 901Q397 901 314 856T171 733T87 560ZM370 1426H510L549 1138H482L370 1426Z" />
<glyph unicode="&#xe9;" horiz-adv-x="1119" d="M360 -26Q222 -26 119 45T-35 235T-66 500Q-51 610 1 705T133 873T308 987T508 1028Q619 1028 706 984T849 861T925 676T922 447H74Q72 352 110 277T217 159T379 114Q479 114 567 166T717 309L854 276Q775 143 643
59T360 -26ZM87 560H797Q803 653 765 730T655 854T490 901Q397 901 314 856T171 733T87 560ZM505 1138L626 1426H766L572 1138H505Z" />
<glyph unicode="&#xea;" horiz-adv-x="1119" d="M360 -26Q222 -26 119 45T-35 235T-66 500Q-51 610 1 705T133 873T308 987T508 1028Q619 1028 706 984T849 861T925 676T922 447H74Q72 352 110 277T217 159T379 114Q479 114 567 166T717 309L854 276Q775 143 643
59T360 -26ZM87 560H797Q803 653 765 730T655 854T490 901Q397 901 314 856T171 733T87 560ZM752 1400H880L947 1166H849L806 1325L715 1166H618L752 1400Z" />
<glyph unicode="&#xeb;" horiz-adv-x="1119" d="M360 -26Q222 -26 119 45T-35 235T-66 500Q-51 610 1 705T133 873T308 987T508 1028Q619 1028 706 984T849 861T925 676T922 447H74Q72 352 110 277T217 159T379 114Q479 114 567 166T717 309L854 276Q775 143 643
59T360 -26ZM87 560H797Q803 653 765 730T655 854T490 901Q397 901 314 856T171 733T87 560ZM621 1135Q587 1135 566 1157T550 1214Q555 1247 582 1271T644 1295Q677 1295 697 1271T713 1214Q709 1180 682 1158T621 1135ZM936 1135Q902 1135 881 1157T865 1214Q870
1247 897 1271T958 1295Q991 1295 1012 1271T1028 1214Q1023 1180 996 1158T936 1135Z" />
<glyph unicode="&#xec;" horiz-adv-x="421" d="M64 1000H204L63 0H-77L64 1000ZM1 1426H141L180 1138H113L1 1426Z" />
<glyph unicode="&#xed;" horiz-adv-x="421" d="M64 1000H204L63 0H-77L64 1000ZM136 1138L257 1426H397L203 1138H136Z" />
<glyph unicode="&#xee;" horiz-adv-x="421" d="M64 1000H204L63 0H-77L64 1000ZM127 1400H255L322 1166H224L181 1325L90 1166H-7L127 1400Z" />
<glyph unicode="&#xef;" horiz-adv-x="421" d="M64 1000H204L63 0H-77L64 1000ZM-4 1135Q-38 1135 -59 1157T-75 1214Q-70 1247 -43 1271T19 1295Q52 1295 72 1271T88 1214Q84 1180 57 1158T-4 1135ZM311 1135Q277 1135 256 1157T240 1214Q245 1247 272 1271T333
1295Q366 1295 387 1271T403 1214Q398 1180 371 1158T311 1135Z" />
<glyph unicode="&#xf0;" horiz-adv-x="1125" d="M383 1053L317 1129L817 1559L881 1483L383 1053ZM383 -26Q245 -26 140 42T-17 224T-50 476Q-35 580 17 671T148 832T323 940T524 979Q619 979 693 937T810 824Q801 923 769 1018T681 1191T541 1313T348 1359L367
1499Q525 1499 647 1422T848 1208T958 895T961 519Q939 359 858 236T654 44T383 -26ZM402 114Q505 114 594 164T743 296T816 476Q830 576 793 658T681 789T504 839Q402 839 313 789T164 657T90 476Q76 378 113 296T226 164T402 114Z" />
<glyph unicode="&#xf1;" horiz-adv-x="1097" d="M876 538L800 0H660L736 534Q750 633 720 714T625 843T473 892Q386 892 311 844T184 714T119 534L43 0H-97L44 1000H184L160 833Q230 925 320 976T511 1028Q639 1028 726 961T853 782T876 538ZM920 1114Q883 1114
841 1137T758 1191T680 1243T618 1258Q591 1252 573 1225T559 1160L460 1134Q449 1191 470 1243T537 1327T642 1360Q680 1360 722 1338T806 1288T884 1237T945 1215Q968 1215 983 1232T1004 1272T1006 1312L1105 1343Q1116 1283 1093 1231T1024 1147T920 1114Z"
/>
<glyph unicode="&#xf2;" horiz-adv-x="1120" d="M360 -26Q222 -26 119 45T-35 235T-66 500Q-51 610 1 705T133 873T308 987T508 1028Q646 1028 749 957T904 766T934 500Q919 391 867 296T735 129T560 15T360 -26ZM379 114Q481 114 570 167T719 309T794 500Q809
605 773 693T663 835T488 888Q386 888 297 835T149 693T74 500Q59 392 95 305T206 166T379 114ZM371 1426H511L550 1138H483L371 1426Z" />
<glyph unicode="&#xf3;" horiz-adv-x="1120" d="M360 -26Q222 -26 119 45T-35 235T-66 500Q-51 610 1 705T133 873T308 987T508 1028Q646 1028 749 957T904 766T934 500Q919 391 867 296T735 129T560 15T360 -26ZM379 114Q481 114 570 167T719 309T794 500Q809
605 773 693T663 835T488 888Q386 888 297 835T149 693T74 500Q59 392 95 305T206 166T379 114ZM506 1138L627 1426H767L573 1138H506Z" />
<glyph unicode="&#xf4;" horiz-adv-x="1120" d="M360 -26Q222 -26 119 45T-35 235T-66 500Q-51 610 1 705T133 873T308 987T508 1028Q646 1028 749 957T904 766T934 500Q919 391 867 296T735 129T560 15T360 -26ZM379 114Q481 114 570 167T719 309T794 500Q809
605 773 693T663 835T488 888Q386 888 297 835T149 693T74 500Q59 392 95 305T206 166T379 114ZM753 1400H881L948 1166H850L807 1325L716 1166H619L753 1400Z" />
<glyph unicode="&#xf5;" horiz-adv-x="1120" d="M360 -26Q222 -26 119 45T-35 235T-66 500Q-51 610 1 705T133 873T308 987T508 1028Q646 1028 749 957T904 766T934 500Q919 391 867 296T735 129T560 15T360 -26ZM379 114Q481 114 570 167T719 309T794 500Q809
605 773 693T663 835T488 888Q386 888 297 835T149 693T74 500Q59 392 95 305T206 166T379 114ZM931 1114Q894 1114 852 1137T769 1191T691 1243T629 1258Q602 1252 584 1225T570 1160L471 1134Q460 1191 481 1243T548 1327T653 1360Q691 1360 733 1338T817 1288T895
1237T956 1215Q979 1215 994 1232T1015 1272T1017 1312L1116 1343Q1127 1283 1104 1231T1035 1147T931 1114Z" />
<glyph unicode="&#xf6;" horiz-adv-x="1120" d="M360 -26Q222 -26 119 45T-35 235T-66 500Q-51 610 1 705T133 873T308 987T508 1028Q646 1028 749 957T904 766T934 500Q919 391 867 296T735 129T560 15T360 -26ZM379 114Q481 114 570 167T719 309T794 500Q809
605 773 693T663 835T488 888Q386 888 297 835T149 693T74 500Q59 392 95 305T206 166T379 114ZM622 1135Q588 1135 567 1157T551 1214Q556 1247 583 1271T645 1295Q678 1295 698 1271T714 1214Q710 1180 683 1158T622 1135ZM937 1135Q903 1135 882 1157T866 1214Q871
1247 898 1271T959 1295Q992 1295 1013 1271T1029 1214Q1024 1180 997 1158T937 1135Z" />
<glyph unicode="&#xf7;" horiz-adv-x="1160" d="M-43 530L-22 670H978L957 530H-43ZM533 1066Q574 1066 600 1034T620 961Q614 919 580 889T504 858Q459 858 434 888T415 961Q421 1002 454 1034T533 1066ZM431 341Q473 341 500 309T521 236Q515 193 479 164T402
134Q357 134 332 163T313 236Q319 277 352 309T431 341Z" />
<glyph unicode="&#xf8;" horiz-adv-x="1120" d="M104 -55L8 5L68 88Q-9 160 -46 267T-66 500Q-51 610 1 705T133 873T308 987T508 1028Q564 1028 614 1016T707 980L765 1059L861 999L801 915Q878 843 914 736T934 500Q919 391 867 296T735 129T560 15T360 -26Q305
-26 254 -13T160 23L104 -55ZM154 208L626 866Q542 907 450 894T276 826T137 685T65 494Q53 406 77 332T154 208ZM241 137Q328 96 420 109T594 177T732 317T803 506Q814 594 790 669T714 795L241 137Z" />
<glyph unicode="&#xf9;" horiz-adv-x="1137" d="M-12 464L64 1000H204L129 468Q115 370 145 289T239 159T391 110Q478 110 553 158T681 288T747 468L821 1000H961L820 0H680L704 168Q635 77 545 25T354 -27Q226 -27 139 40T12 220T-12 464ZM380 1426H520L559 1138H492L380
1426Z" />
<glyph unicode="&#xfa;" horiz-adv-x="1137" d="M-12 464L64 1000H204L129 468Q115 370 145 289T239 159T391 110Q478 110 553 158T681 288T747 468L821 1000H961L820 0H680L704 168Q635 77 545 25T354 -27Q226 -27 139 40T12 220T-12 464ZM515 1138L636 1426H776L582
1138H515Z" />
<glyph unicode="&#xfb;" horiz-adv-x="1137" d="M-12 464L64 1000H204L129 468Q115 370 145 289T239 159T391 110Q478 110 553 158T681 288T747 468L821 1000H961L820 0H680L704 168Q635 77 545 25T354 -27Q226 -27 139 40T12 220T-12 464ZM506 1400H634L701 1166H603L560
1325L469 1166H372L506 1400Z" />
<glyph unicode="&#xfc;" horiz-adv-x="1137" d="M-12 464L64 1000H204L129 468Q115 370 145 289T239 159T391 110Q478 110 553 158T681 288T747 468L821 1000H961L820 0H680L704 168Q635 77 545 25T354 -27Q226 -27 139 40T12 220T-12 464ZM631 1135Q597 1135
576 1157T560 1214Q565 1247 592 1271T654 1295Q687 1295 707 1271T723 1214Q719 1180 692 1158T631 1135ZM946 1135Q912 1135 891 1157T875 1214Q880 1247 907 1271T968 1295Q1001 1295 1022 1271T1038 1214Q1033 1180 1006 1158T946 1135Z" />
<glyph unicode="&#xfd;" horiz-adv-x="1033" d="M749 1000H897L139 -500H-10L242 0L24 1000H177L339 193L749 1000ZM462 1138L583 1426H723L529 1138H462Z" />
<glyph unicode="&#xfe;" horiz-adv-x="1222" d="M-147 -500L120 1400H260L178 813Q243 908 341 967T563 1026Q672 1026 761 985T913 872T1003 704T1016 500Q1000 391 946 295T809 127T625 13T415 -28Q291 -28 209 31T89 185L-7 -500H-147ZM433 109Q537 109 632
161T792 301T874 500Q889 607 849 695T730 837T543 890Q438 890 354 838T215 697T145 500Q130 393 159 304T257 162T433 109Z" />
<glyph unicode="&#xff;" horiz-adv-x="1033" d="M749 1000H897L139 -500H-10L242 0L24 1000H177L339 193L749 1000ZM578 1135Q544 1135 523 1157T507 1214Q512 1247 539 1271T601 1295Q634 1295 654 1271T670 1214Q666 1180 639 1158T578 1135ZM893 1135Q859 1135
838 1157T822 1214Q827 1247 854 1271T915 1295Q948 1295 969 1271T985 1214Q980 1180 953 1158T893 1135Z" />
<glyph unicode="&#x2013;" horiz-adv-x="1240" d="M18 670H1018L997 530H-3L18 670Z" />
<glyph unicode="&#x2014;" horiz-adv-x="2040" d="M18 670H1818L1797 530H-3L18 670Z" />
<glyph unicode="&#x2018;" horiz-adv-x="302" d="M-13 878L169 1400H262L127 878H-13Z" />
<glyph unicode="&#x2019;" horiz-adv-x="302" d="M-33 878L102 1400H242L60 878H-33Z" />
<glyph unicode="&#x201a;" horiz-adv-x="335" d="M97 -112L206 226H346L190 -112H97Z" />
<glyph unicode="&#x201c;" horiz-adv-x="648" d="M47 878L229 1400H322L187 878H47ZM333 882L515 1404H608L473 882H333Z" />
<glyph unicode="&#x201d;" horiz-adv-x="648" d="M-33 878L102 1400H242L60 878H-33ZM253 878L388 1400H528L346 878H253Z" />
<glyph unicode="&#x201e;" horiz-adv-x="609" d="M97 -112L206 226H346L190 -112H97ZM115 -112L224 226H364L208 -112H115Z" />
<glyph unicode="&#x2022;" horiz-adv-x="373" d="M58 493Q14 493 -12 524T-32 601Q-26 645 9 676T88 707Q134 707 160 676T181 601Q175 555 139 524T58 493Z" />
<glyph unicode="&#x2039;" horiz-adv-x="673" d="M260 261L8 601L355 939H508L162 601L413 261H260Z" />
<glyph unicode="&#x203a;" horiz-adv-x="673" d="M-60 261L287 601L35 939H188L441 601L93 261H-60Z" />
</font>
</defs>
</svg>
